<?xml version="1.0" standalone="no"?> <!DOCTYPE svg PUBLIC "-//W3C//DTD SVG 1.0//EN" "http://www.w3.org/TR/2001/REC-SVG-20010904/DTD/svg10.dtd" > <svg xmlns="http://www.w3.org/2000/svg" width="100%" height="100%">
<defs >
<font horiz-adv-x="481" ><font-face
    font-family=""
    units-per-em="1000"
    panose-1="0 0 0 0 0 0 0 0 0 0"
    ascent="749"
    descent="-251"
    alphabetic="0" />
<missing-glyph horiz-adv-x="164" />
<glyph unicode=" " glyph-name="space" horiz-adv-x="164" />
<glyph unicode="!" glyph-name="exclam" horiz-adv-x="234" d="M244 662L116 197H96L151 662H244ZM131 45Q131 23 116 8T78 -7Q55 -7 40 8T24 45Q24 68 39 83T78 98Q101 98 116 83T131 45Z" />
<glyph unicode="&quot;" glyph-name="quotedbl" horiz-adv-x="323" d="M314 705Q330 705 337 694T345 667Q345 652 341 634T329 591T308 532T277 452H260Q262 503 264 549T269 627Q276 705 314 705ZM172 705Q188 705 195 694T203 667Q203 652 199 634T187 591T166
532T135 452H118Q120 503 122 549T127 627Q134 705 172 705Z" />
<glyph unicode="#" glyph-name="numbersign" horiz-adv-x="449" d="M360 431L305 275H390L382 234H291L209 0H162L243 234H160L79 0H32L113 234H35L43 275H127L181 431H104L112 472H196L262 662H310L243 472H327L393 662H441L374 472H459L451 431H360ZM175 275H258L312
431H229L175 275Z" />
<glyph unicode="$" glyph-name="dollar" horiz-adv-x="448" d="M289 673Q294 673 300 673T311 672L328 738H367L349 668Q380 663 402 655T435 642L415 535H403Q392 567 377 590T338 625L276 386L282 378Q304 345 324 316T359 259T382 207T391 155Q391 117 376
87T335 35T275 2T204 -10Q196 -10 189 -10T174 -9L152 -96H113L136 -4Q101 2 76 13T33 38Q33 51 35 73T40 120T46 167T53 205H66Q70 139 91 100T148 43L221 326Q198 360 180 387T148 439T127 486T120 534Q120 567 133 592T170 636T224 663T289 673ZM317 133Q317
171 299 205T250 284L185 33Q190 32 194 32T204 32Q230 32 251 40T286 62T309 94T317 133ZM191 554Q191 525 206 495T247 428L301 634Q298 635 295 635T288 635Q243 635 217 613T191 554Z" />
<glyph unicode="%" glyph-name="percent" horiz-adv-x="726" d="M532 38Q554 38 572 47T604 72T624 109T631 153Q631 197 608 221T553 245Q531 245 513 236T481 211T461 174T454 130Q454 86 477 62T532 38ZM531 -10Q505 -10 482 -1T439 25T409 68T398 128Q398
159 409 189T441 242T490 279T554 293Q580 293 604 284T646 258T676 215T687 155Q687 123 676 94T644 41T595 4T531 -10ZM687 659L114 -32L74 0L647 692L687 659ZM206 415Q228 415 246 424T278 449T298 486T305 530Q305 574 282 598T227 622Q205 622 187 613T155
588T135 551T128 507Q128 463 151 439T206 415ZM228 670Q254 670 278 661T320 635T350 592T361 532Q361 500 350 471T318 418T269 381T205 367Q179 367 156 376T113 402T83 445T72 505Q72 536 83 566T115 619T164 656T228 670Z" />
<glyph unicode="&amp;" glyph-name="ampersand" horiz-adv-x="640" d="M656 422Q621 406 595 385T546 337T504 278T463 208L429 150Q467 94 509 54T606 -8L605 -20Q561 -20 529 -13T475 4T438 25T415 47Q407 55 400 64T384 85Q343 33 301 10T205 -14Q168 -14 136
-4T80 28T42 79T28 150Q28 193 44 229T86 294T146 348T214 392Q200 426 192 455T183 508Q183 543 194 570T224 616T267 645T317 655Q362 655 393 630T425 558Q425 535 414 513T385 471T342 432T292 399Q306 368 323 335T360 264Q371 243 382 224T405 185Q408 190
411 195T418 207Q451 267 474 304T521 368L463 422L464 432H657L656 422ZM294 231Q277 262 260 295T227 362Q204 344 182 325T144 281T117 228T107 161Q107 101 138 67T219 32Q255 32 289 50T361 118Q344 142 328 170T294 231ZM252 540Q252 517 259 489T280 426Q296
439 311 453T338 484T357 518T364 555Q364 587 350 603T314 620Q293 620 273 601T252 540Z" />
<glyph unicode="&apos;" glyph-name="quotesingle" horiz-adv-x="181" d="M172 705Q188 705 195 694T203 667Q203 652 199 634T187 591T166 532T135 452H118Q120 503 122 549T127 627Q134 705 172 705Z" />
<glyph unicode="(" glyph-name="parenleft" horiz-adv-x="345" d="M397 762L415 751Q371 707 325 647T242 512T182 350T158 166Q158 103 164 54T180 -37T202 -112T227 -179L207 -186Q188 -155 168 -118T130 -36T101 60T90 173Q90 278 118 367T191 531T289 663T397 762Z" />
<glyph unicode=")" glyph-name="parenright" horiz-adv-x="345" d="M-40 -187L-58 -176Q-14 -132 32 -72T115 63T175 225T199 409Q199 472 193 521T177 612T155 687T130 754L150 761Q169 730 189 693T227 611T256 515T267 402Q267 297 239 208T166 44T68 -88T-40 -187Z" />
<glyph unicode="*" glyph-name="asterisk" horiz-adv-x="305" d="M115 453L105 461L162 550L73 587L75 599L175 594L157 699L169 702L223 610L306 676L316 668L259 578L352 540L350 528L247 533L265 434L253 431L199 520L115 453Z" />
<glyph unicode="+" glyph-name="plus" horiz-adv-x="450" d="M59 270H205L240 442H292L257 270H406L396 225H248L213 50H161L196 225H49L59 270Z" />
<glyph unicode="," glyph-name="comma" horiz-adv-x="216" d="M69 11Q49 11 36 24T23 58Q23 81 39 95T78 109Q106 109 122 89T138 38Q138 8 125 -21T90 -77T38 -124T-26 -157L-36 -146Q12 -112 43 -72T83 13Q81 12 79 12Q76 11 69 11Z" />
<glyph unicode="-" glyph-name="hyphen" horiz-adv-x="281" d="M68 274H238L226 212H56L68 274Z" />
<glyph unicode="." glyph-name="period" horiz-adv-x="216" d="M138 45Q138 23 123 8T85 -7Q62 -7 47 8T32 45Q32 68 47 83T85 98Q108 98 123 83T138 45Z" />
<glyph unicode="/" glyph-name="slash" horiz-adv-x="371" d="M433 721L-57 -238L-101 -218L388 742L433 721Z" />
<glyph unicode="0" glyph-name="zero" horiz-adv-x="489" d="M265 464Q301 464 335 450T396 409T439 343T455 252Q455 205 441 158T398 73T327 12T230 -12Q192 -12 158 2T98 42T56 108T40 199Q40 248 55 295T99 380T170 441T265 464ZM107 202Q107 164 117 135T145
86T185 55T232 44Q268 44 297 61T346 108T377 174T388 249Q388 287 378 316T350 366T310 397T263 408Q226 408 197 390T148 343T118 277T107 202Z" />
<glyph unicode="1" glyph-name="one" horiz-adv-x="285" d="M136 397L76 440L78 451H288L286 440L209 397L143 52L206 11L204 0H-10L-7 11L70 52L136 397Z" />
<glyph unicode="2" glyph-name="two" horiz-adv-x="397" d="M337 344Q337 281 280 216T111 69H352L311 0H-5L-2 11Q79 82 128 133T204 220T239 284T248 334Q248 370 228 389T172 409Q140 409 119 396T83 372L71 383Q77 393 88 406T116 432T157 452T212 461Q237
461 260 454T300 433T327 397T337 344Z" />
<glyph unicode="3" glyph-name="three" horiz-adv-x="350" d="M35 126Q94 164 130 195T187 254T215 304T223 349Q223 379 207 394T161 410Q148 410 137 406T116 396T100 384T90 375L76 385Q83 396 94 409T120 434T156 453T200 461Q250 461 277 435T305 361Q305
309 268 262T149 170Q207 165 241 132T275 45Q275 -9 251 -54T183 -138T80 -208T-49 -267L-58 -252Q64 -176 126 -109T189 35Q189 71 165 95T95 120Q81 120 66 117T46 111L35 126Z" />
<glyph unicode="4" glyph-name="four" horiz-adv-x="458" d="M392 457L312 55H406L395 0H301L261 -202L183 -233L228 0H-28L-25 14L349 457H392ZM238 55L290 318L65 55H238Z" />
<glyph unicode="5" glyph-name="five" horiz-adv-x="322" d="M326 451L281 384H155Q153 380 149 372T139 354T130 336T123 323Q147 297 168 272T205 218T230 159T240 89Q240 -8 154 -88T-90 -231L-98 -212Q22 -146 90 -72T159 73Q159 104 152 130T133 179T102
225T60 273Q67 288 79 312T105 363T132 413T153 451H326Z" />
<glyph unicode="6" glyph-name="six" horiz-adv-x="477" d="M218 -7Q187 -7 159 7T109 48T74 115T61 209Q61 279 82 340T137 455T217 551T311 629T409 687T500 726L509 710Q447 676 382 628T264 515T176 371T141 193Q141 112 165 72T219 32Q240 32 262 45T304
82T335 139T347 214Q347 280 321 308T247 336Q232 336 220 334T203 329L200 342Q203 345 212 351T233 363T262 373T298 378Q358 378 393 339T429 222Q429 174 411 132T363 60T295 11T218 -7Z" />
<glyph unicode="7" glyph-name="seven" horiz-adv-x="439" d="M97 451H437L435 439L85 -260L37 -247L347 376H58L97 451Z" />
<glyph unicode="8" glyph-name="eight" horiz-adv-x="411" d="M268 673Q299 673 325 664T371 639T401 599T412 548Q412 521 404 498T378 453T333 409T268 360Q314 301 337 256T361 158Q361 123 347 93T309 40T252 4T184 -9Q114 -9 70 28T25 131Q25 160 34 186T62
238T112 289T186 344Q165 370 150 392T124 434T108 475T103 519Q103 554 117 582T154 631T207 662T268 673ZM290 141Q290 164 285 184T270 226T244 270T206 320Q147 273 120 231T93 137Q93 90 117 59T186 28Q208 28 227 37T260 61T282 96T290 141ZM171 537Q171
502 191 468T249 385Q298 425 322 464T346 545Q346 585 325 611T265 637Q229 637 200 611T171 537Z" />
<glyph unicode="9" glyph-name="nine" horiz-adv-x="469" d="M256 462Q288 462 317 448T369 407T405 340T419 246Q419 174 399 112T344 -4T266 -101T175 -178T80 -235T-8 -271L-17 -255Q39 -224 101 -177T217 -66T304 81T339 264Q339 343 314 383T255 423Q235
423 214 410T174 373T145 316T133 241Q133 175 159 147T233 119Q248 119 260 121T277 126L280 113Q277 110 269 104T248 92T219 82T185 77Q126 77 89 118T51 236Q51 284 69 325T116 397T181 444T256 462Z" />
<glyph unicode=":" glyph-name="colon" horiz-adv-x="240" d="M199 387Q199 365 184 350T146 335Q123 335 108 350T92 387Q92 410 107 425T146 440Q169 440 184 425T199 387ZM139 45Q139 23 124 8T86 -7Q63 -7 48 8T32 45Q32 68 47 83T86 98Q109 98 124 83T139 45Z" />
<glyph unicode=";" glyph-name="semicolon" horiz-adv-x="240" d="M81 11Q60 11 47 24T34 58Q34 81 50 95T90 109Q118 109 134 89T150 38Q150 8 137 -21T102 -77T50 -124T-15 -157L-25 -146Q23 -112 54 -72T95 13Q93 12 91 12Q88 11 81 11ZM203 387Q203 365 188
350T150 335Q127 335 112 350T96 387Q96 410 111 425T150 440Q173 440 188 425T203 387Z" />
<glyph unicode="&lt;" glyph-name="less" horiz-adv-x="401" d="M41 220L51 270L379 402L369 349L100 242L326 137L317 91L41 220Z" />
<glyph unicode="=" glyph-name="equal" horiz-adv-x="444" d="M80 321H398L389 278H71L80 321ZM57 205H375L366 162H48L57 205Z" />
<glyph unicode="&gt;" glyph-name="greater" horiz-adv-x="401" d="M370 273L360 223L32 91L42 144L311 251L85 356L94 402L370 273Z" />
<glyph unicode="?" glyph-name="question" horiz-adv-x="351" d="M285 411Q262 391 239 370T201 334Q183 315 176 298T162 258L146 197H130Q128 220 126 247T123 291Q123 317 130 334T155 372Q172 392 195 415T237 459Q261 485 275 509T289 563Q289 594 271 610T228
627Q196 627 172 603T121 547H112L132 658Q139 660 166 663T224 667Q253 667 279 661T324 641T355 607T367 560Q367 516 345 481T285 411ZM164 45Q164 23 149 8T111 -7Q88 -7 73 8T57 45Q57 68 72 83T111 98Q134 98 149 83T164 45Z" />
<glyph unicode="@" glyph-name="at" horiz-adv-x="913" d="M570 42Q604 48 648 68T733 125T800 219T828 356Q828 408 813 452T765 529T685 579T571 597Q475 597 390 560T242 458T142 304T105 112Q105 43 125 -12T181 -107T268 -168T382 -190Q442 -190 492 -179T584
-152T656 -117T710 -83L723 -102Q701 -122 667 -144T588 -184T492 -215T381 -228Q303 -228 240 -204T132 -137T63 -33T38 99Q38 210 81 308T197 478T368 593T576 635Q649 635 707 615T807 559T870 473T893 363Q893 272 854 204T754 91T623 25T488 7L519 157Q497
127 473 100T425 51T378 18T335 6Q325 6 314 12T292 31T276 63T269 109Q269 155 288 206T344 301T439 377T573 417L655 452L570 42ZM368 71Q378 71 397 83T440 117T488 165T533 221L566 376Q519 372 480 349T412 289T367 208T350 116Q350 97 355 84T368 71Z" />
<glyph unicode="A" glyph-name="A" horiz-adv-x="594" d="M146 11L145 0H-36L-35 11L35 54L370 669H388L507 54L557 11L556 0H347L348 11L427 54L390 246H189L85 54L146 11ZM210 286H382L337 520L210 286Z" />
<glyph unicode="B" glyph-name="B" horiz-adv-x="530" d="M2 11L81 55L178 607L115 651L117 662H321Q349 662 379 655T435 631T477 590T493 529Q493 497 481 471T449 425T406 389T359 366Q381 360 404 348T447 317T478 270T491 208Q491 159 471 121T420 55T348
14T269 0H0L2 11ZM214 340L164 58Q172 52 193 45T248 38Q282 38 311 50T361 85T393 137T405 201Q405 240 393 266T360 309T315 333T262 340H214ZM264 625L219 379H311Q324 379 342 390T375 422T402 468T413 525Q413 553 404 572T379 603T345 620T307 625H264Z"
/>
<glyph unicode="C" glyph-name="C" horiz-adv-x="623" d="M353 -10Q294 -10 242 8T150 63T88 151T65 271Q65 356 97 429T183 557T309 641T461 672Q527 672 571 661T630 644L609 527H598Q577 576 543 604T457 632Q393 632 338 604T242 526T178 411T154 269Q154
218 168 174T208 98T272 47T354 29Q408 29 455 56T537 123H548L528 17Q516 12 471 1T353 -10Z" />
<glyph unicode="D" glyph-name="D" horiz-adv-x="671" d="M1 11L80 55L177 607L114 651L116 662H360Q417 662 469 644T562 591T627 503T652 382Q652 313 626 245T553 122T438 34T286 0H0L1 11ZM262 621L163 62Q180 54 209 47T286 39Q341 39 391 66T480 139T540
246T563 375Q563 436 544 482T492 559T419 605T335 621H262Z" />
<glyph unicode="E" glyph-name="E" horiz-adv-x="518" d="M460 445H469L437 261H428L394 334H211L159 39H350L444 151H455L428 0H-1L1 11L80 55L177 607L114 651L116 662H520L498 535H487L441 625H262L217 372H402L460 445Z" />
<glyph unicode="F" glyph-name="F" horiz-adv-x="505" d="M524 662L501 530H490L442 625H265L220 372H405L463 446H472L441 262H432L400 334H213L164 55L253 11L251 0H0L2 11L82 55L179 607L116 651L118 662H524Z" />
<glyph unicode="G" glyph-name="G" horiz-adv-x="673" d="M546 17Q537 15 518 11T475 2T425 -6T377 -10Q308 -10 251 9T152 65T88 152T65 267Q65 352 96 425T179 554T302 640T449 672Q514 672 562 663T638 644L617 527H606Q576 584 538 608T449 632Q386 632 332
603T239 523T177 407T154 267Q154 213 170 169T215 94T284 46T372 29Q407 29 432 38T469 53L511 289L433 333L435 344H667L665 333L593 289L546 17V17Z" />
<glyph unicode="H" glyph-name="H" horiz-adv-x="719" d="M543 317H209L163 55L225 11L223 0H0L2 11L81 55L178 607L115 651L117 662H340L338 651L260 607L216 358H550L594 607L531 651L533 662H757L755 651L676 607L579 55L641 11L639 0H416L418 11L497 55L543 317Z" />
<glyph unicode="I" glyph-name="I" horiz-adv-x="302" d="M225 11L223 0H0L2 11L81 55L178 607L115 651L117 662H340L338 651L260 607L163 55L225 11Z" />
<glyph unicode="J" glyph-name="J" horiz-adv-x="304" d="M171 94Q165 62 150 23T111 -57T52 -141T-26 -220L-41 -208Q-18 -175 2 -138T41 -56T73 39T99 152L179 607L116 651L118 662H341L339 651L261 607L171 94Z" />
<glyph unicode="K" glyph-name="K" horiz-adv-x="619" d="M163 55L225 11L223 0H0L2 11L81 55L178 607L115 651L117 662H340L338 651L260 607L163 55ZM334 0L336 11L413 54L260 335H223L495 607L439 651L441 662H652L650 651L555 607L325 383L502 54L572 11L570 0H334Z" />
<glyph unicode="L" glyph-name="L" horiz-adv-x="526" d="M186 607L123 651L125 662H348L346 651L268 607L168 38H362L471 170H482L451 0H8L10 11L89 55L186 607Z" />
<glyph unicode="M" glyph-name="M" horiz-adv-x="801" d="M189 11L187 0H2L4 11L82 55L174 588Q164 614 155 628T141 651V662H243L391 177L705 662H836L835 651L757 607L660 55L722 11L720 0H497L499 11L578 55L659 513L361 58H348L207 509L127 55L189 11Z" />
<glyph unicode="N" glyph-name="N" horiz-adv-x="713" d="M191 11L188 0H0L2 11L81 55L172 580Q154 607 140 624T115 653V662H222L545 134L627 607L564 651L566 662H755L753 651L676 607L571 0H537L211 521L130 55L191 11Z" />
<glyph unicode="O" glyph-name="O" horiz-adv-x="692" d="M67 262Q67 345 95 419T172 550T284 639T416 672Q471 672 518 653T598 598T651 513T670 406Q670 319 642 244T565 112T453 23T321 -10Q267 -10 221 9T141 63T87 149T67 262ZM416 632Q363 632 316 602T233
520T176 402T155 262Q155 208 168 165T204 92T257 46T321 30Q373 30 420 60T504 141T561 261T582 407Q582 462 569 504T532 574T479 617T416 632Z" />
<glyph unicode="P" glyph-name="P" horiz-adv-x="510" d="M225 11L223 0H0L2 11L81 55L178 607L115 651L117 662H303Q344 662 383 653T453 623T503 572T522 496Q522 454 502 416T445 347T356 298T240 273L244 291Q287 303 323 322T384 368T423 426T437 493Q437
556 394 590T282 625H264L163 55L225 11Z" />
<glyph unicode="Q" glyph-name="Q" horiz-adv-x="692" d="M670 407Q670 336 650 270T592 148T499 52T374 -7Q450 -54 513 -85T632 -136T741 -164T851 -173Q874 -173 895 -172T925 -169L928 -180Q919 -186 901 -193T856 -207T797 -219T726 -224Q689 -224 648 -215T552
-183T423 -118T247 -11Q223 5 192 25T133 76T86 152T67 262Q67 344 95 418T171 549T282 638T416 672Q471 672 517 653T598 598T651 514T670 407ZM155 262Q155 208 169 165T206 92T259 46T321 30Q373 30 420 60T503 141T560 261T582 408Q582 463 568 505T531 575T478
618T416 632Q362 632 315 602T232 520T176 401T155 262Z" />
<glyph unicode="R" glyph-name="R" horiz-adv-x="562" d="M332 662Q364 662 395 653T451 626T491 582T506 520Q506 487 494 459T462 408T418 369T371 344L429 176Q446 128 461 97T491 45T518 14T540 -5L537 -16Q489 -15 460 -4T411 27T379 79T351 154Q334 201
319 247T293 328H211L163 55L225 11L223 0H0L2 11L81 55L178 607L115 651L117 662H332ZM263 625L217 365H338Q347 365 362 377T390 411T414 458T424 513Q424 542 415 563T391 598T358 618T321 625H263Z" />
<glyph unicode="S" glyph-name="S" horiz-adv-x="453" d="M291 672Q342 672 380 661T438 642L418 535H407Q384 590 354 612T287 634Q245 634 223 610T200 554Q200 532 206 513T225 473T254 430T291 379Q315 346 335 318T369 265T391 213T399 159Q399 120 384 89T342
36T281 2T209 -10Q145 -10 104 6T37 39Q37 52 39 75T44 122T50 170T57 208H68Q73 158 87 125T120 71T163 41T209 32Q234 32 254 40T290 62T313 94T321 132Q321 157 315 178T296 221T266 267T226 321Q204 351 186 376T154 426T133 475T125 528Q125 559 137 585T172
631T224 661T291 672Z" />
<glyph unicode="T" glyph-name="T" horiz-adv-x="603" d="M377 11L375 0H152L154 11L233 55L333 623H191L109 522H96L122 662H640L615 522H601L558 623H415L315 55L377 11Z" />
<glyph unicode="U" glyph-name="U" horiz-adv-x="688" d="M541 651L543 662H734L732 651L654 607L582 201Q574 159 556 121T507 54T433 7T334 -10Q272 -10 225 6T146 51T103 122T99 214L169 607L106 651L108 662H332L329 651L251 607L181 211Q174 170 184 139T217
87T273 55T346 44Q386 44 418 56T473 90T511 140T532 201L604 607L541 651Z" />
<glyph unicode="V" glyph-name="V" horiz-adv-x="605" d="M597 607L249 -6H229L137 607L74 651L76 662H297L295 651L217 607L283 139L546 607L483 651L485 662H677L675 651L597 607Z" />
<glyph unicode="W" glyph-name="W" horiz-adv-x="904" d="M144 607L75 651L77 662H308L306 651L223 607L278 154L494 577L490 607L423 651L425 662H652L650 651L566 607L625 154L838 607L769 651L771 662H973L971 651L888 607L596 -6H576L505 501L243 -6H222L144 607Z" />
<glyph unicode="X" glyph-name="X" horiz-adv-x="639" d="M189 11L187 0H-22L-20 11L65 55L304 339L182 607L113 651L115 662H353L351 651L268 607L363 394L539 607L470 651L472 662H680L678 651L594 607L383 351L516 55L583 11L581 0H347L349 11L434 55L324 294L122
55L189 11Z" />
<glyph unicode="Y" glyph-name="Y" horiz-adv-x="589" d="M380 11L377 0H144L146 11L231 55L275 313L145 607L76 651L78 662H318L316 651L233 607L341 358L525 607L456 651L458 662H664L662 651L578 607L357 311L313 55L380 11Z" />
<glyph unicode="Z" glyph-name="Z" horiz-adv-x="594" d="M122 43H434L529 159H539L510 0H7L8 13L489 622H216L132 518H120L146 662H610L609 650L122 43Z" />
<glyph unicode="[" glyph-name="bracketleft" horiz-adv-x="312" d="M373 715H268L96 -135H201L193 -170H25L213 750H381L373 715Z" />
<glyph unicode="\" glyph-name="backslash" horiz-adv-x="325" d="M152 735L274 -224L227 -230L105 729L152 735Z" />
<glyph unicode="]" glyph-name="bracketright" horiz-adv-x="312" d="M-54 -135H51L223 715H118L126 750H294L106 -170H-62L-54 -135Z" />
<glyph unicode="^" glyph-name="asciicircum" horiz-adv-x="326" d="M76 357L56 369L250 705H261L333 363L310 357L232 562L76 357Z" />
<glyph unicode="_" glyph-name="underscore" horiz-adv-x="313" d="M-63 -128L-54 -87H270L261 -128H-63Z" />
<glyph unicode="`" glyph-name="grave" horiz-adv-x="400" d="M202 687L266 720L341 509L329 504L202 687Z" />
<glyph unicode="a" glyph-name="a" horiz-adv-x="440" d="M395 30L394 19Q382 16 362 13T320 5T276 -2T237 -8L268 144Q249 117 227 90T181 40T133 4T84 -10Q73 -10 61 -4T40 15T24 47T18 93Q18 141 38 195T97 298T193 382T326 426L413 478L326 59L395 30ZM115
50Q126 50 146 64T189 100T237 152T282 211L319 388Q275 385 235 358T164 289T115 195T96 91Q96 76 100 63T115 50Z" />
<glyph unicode="b" glyph-name="b" horiz-adv-x="440" d="M76 673V684Q88 687 107 692T149 703T195 714T238 725L147 275Q168 307 191 337T237 390T284 427T327 441Q334 441 348 438T376 422T401 385T412 319Q412 268 395 210T344 104T264 23T156 -10Q127 -10
104 0T65 28T43 69T41 119L147 642L76 673ZM304 382Q293 382 275 370T234 334T185 278T133 207L105 69Q105 58 118 43T158 28Q195 28 226 55T281 124T318 218T332 317Q332 355 322 368T304 382Z" />
<glyph unicode="c" glyph-name="c" horiz-adv-x="357" d="M264 442Q299 442 323 436T361 424L330 341H326Q311 364 288 382T244 401Q221 401 197 380T152 324T118 242T105 146Q105 96 119 73T153 50Q171 50 190 58T227 81T263 112T295 148L308 139Q294 112 275
86T233 38T183 3T129 -10Q86 -10 56 28T26 131Q26 194 47 250T101 349T177 417T264 442Z" />
<glyph unicode="d" glyph-name="d" horiz-adv-x="459" d="M291 147Q268 114 244 85T196 35T150 2T110 -10Q97 -10 82 -3T55 19T34 57T26 112Q26 173 48 231T109 336T204 410T327 439H350L393 642L323 673V684Q335 687 354 692T396 703T440 714T482 725L345 59L415
29L414 18Q401 15 382 12T340 5T297 -2T258 -8L291 147ZM339 384Q335 389 324 394T293 399Q255 399 221 375T162 310T121 220T106 117Q106 84 115 66T136 48Q145 48 163 61T205 96T254 147T303 208L339 384Z" />
<glyph unicode="e" glyph-name="e" horiz-adv-x="365" d="M132 -10Q114 -10 95 -3T61 19T35 59T25 119Q25 180 46 238T103 342T183 414T275 442Q313 442 336 430T359 392Q359 378 349 354T312 305T237 256T114 221Q103 175 103 129Q103 90 118 68T156 46Q187 46
223 70T298 142L311 133Q275 62 228 26T132 -10ZM257 408Q240 408 222 397T185 366T151 317T123 254Q203 268 245 303T287 380Q287 408 257 408Z" />
<glyph unicode="f" glyph-name="f" horiz-adv-x="273" d="M109 384H32V389L61 430H116L128 504Q134 543 152 581T199 649T269 698T362 717Q398 717 425 712T474 699L439 638Q406 657 375 667T321 677Q304 677 287 668T253 640T225 595T206 534Q201 508 197 482T189
430H307L273 384H181Q167 291 153 202T127 40Q120 -2 107 -52T67 -146T-2 -220T-112 -254L-128 -187Q-109 -189 -91 -191T-59 -193Q-38 -193 -21 -184T11 -144T39 -59T66 87L109 384Z" />
<glyph unicode="g" glyph-name="g" horiz-adv-x="389" d="M47 254Q47 293 62 327T103 387T159 427T221 442Q244 442 267 432H415L401 388H315Q323 377 329 362T336 327Q336 284 320 250T278 191T224 154T168 141H157Q131 121 121 109T111 92Q111 84 119 76T159
49Q196 27 226 10T282 -22Q317 -43 339 -58T373 -86T390 -109T395 -128Q395 -159 373 -183T315 -225T238 -252T157 -261Q107 -261 64 -254T-10 -233T-58 -203T-76 -164Q-76 -155 -68 -140T-39 -106T19 -63T114 -13Q82 6 64 22T45 62Q45 76 62 97T126 148Q92 160
70 188T47 254ZM144 -31Q78 -62 40 -93T1 -149Q1 -165 15 -178T52 -200T107 -214T173 -219Q212 -219 241 -212T289 -195T319 -173T329 -154Q329 -150 327 -145T316 -131T292 -113T248 -87L144 -31ZM217 408Q198 408 181 395T151 359T129 309T121 253Q121 230 126
215T138 191T154 179T169 175Q184 175 200 188T230 223T252 273T261 331Q261 376 247 392T217 408Z" />
<glyph unicode="h" glyph-name="h" horiz-adv-x="464" d="M87 674V685Q98 688 118 693T161 703T207 714T250 725L155 284Q184 317 213 346T271 396T323 429T368 441Q394 441 405 426T417 387Q417 381 416 371T412 353Q410 342 406 323T393 271T373 187T344 59L413
30L412 18Q399 15 380 12T338 5T295 -2T257 -8Q295 168 316 261T338 362Q338 372 330 372Q321 372 302 362T259 333T204 287T143 227L95 0H21L158 641L87 674Z" />
<glyph unicode="i" glyph-name="i" horiz-adv-x="244" d="M132 593Q132 615 146 628T180 642Q200 642 214 629T228 593Q228 574 214 560T180 546Q160 546 146 560T132 593ZM111 363L45 391V402Q56 405 74 410T113 422T156 434T197 445L124 59L194 29V18Q181 15
162 12T122 5T79 -2T40 -8L111 363Z" />
<glyph unicode="j" glyph-name="j" horiz-adv-x="228" d="M131 593Q131 615 145 628T179 642Q199 642 213 629T227 593Q227 574 213 560T179 546Q159 546 145 560T131 593ZM121 41Q114 5 97 -33T57 -108T7 -181T-48 -246L-59 -239Q-52 -226 -38 -200T-8 -135T26
-43T56 77L111 363L45 391V402Q54 405 72 410T113 422T157 435T197 445L121 41Z" />
<glyph unicode="k" glyph-name="k" horiz-adv-x="411" d="M156 641L85 673V684Q96 687 114 692T155 703T201 714T244 725L96 0H24L156 641ZM158 213Q204 254 232 282T275 330T295 362T300 382Q300 392 295 399T285 409V418L370 444Q374 439 379 427T385 402Q385
387 376 371T347 336T297 291T224 234Q267 160 295 117T341 50T367 16T382 0L378 -11Q339 -8 318 -3T277 23T231 87T157 208L158 213Z" />
<glyph unicode="l" glyph-name="l" horiz-adv-x="230" d="M157 641L86 673V684Q97 687 116 692T157 703T203 714T247 725L110 59L181 28V17Q168 14 149 11T107 5T63 -2T24 -8L157 641Z" />
<glyph unicode="m" glyph-name="m" horiz-adv-x="678" d="M626 353Q624 341 620 323T608 272T589 188T559 59L627 28V17Q614 14 595 11T554 5T510 -2T471 -8Q511 166 532 260T553 362Q553 372 545 372Q536 372 519 362T479 332T429 286T375 226L326 0H252Q330
346 330 362Q330 372 322 372Q313 372 296 362T256 333T207 288T154 229L106 0H34L109 363L45 391V402Q55 405 73 410T114 422T158 434T200 445L167 288Q193 319 219 347T270 396T318 429T362 441Q386 441 397 426T408 388Q408 381 407 371T403 353L388 285Q414
316 440 344T491 394T540 428T585 441Q609 441 620 426T631 388Q631 381 630 371T626 353Z" />
<glyph unicode="n" glyph-name="n" horiz-adv-x="475" d="M34 0L109 363L45 392V403Q55 406 73 411T114 423T158 434T200 445L165 282Q194 316 224 345T281 395T334 429T379 441Q405 441 416 426T428 389Q428 381 427 371T423 353L357 59L426 30L425 18Q412 15
393 12T351 5T308 -2T270 -8Q308 168 328 261T349 362Q349 372 341 372Q332 372 313 362T270 332T215 286T153 225L106 0H34Z" />
<glyph unicode="o" glyph-name="o" horiz-adv-x="429" d="M177 -10Q145 -10 118 2T72 37T41 91T30 158Q30 217 49 268T100 358T172 419T254 442Q284 442 311 429T357 394T388 342T400 277Q400 214 380 161T327 70T256 11T177 -10ZM181 29Q205 29 230 48T275 102T307
183T320 284Q320 338 302 370T252 403Q227 403 202 383T156 329T123 248T110 150Q110 91 129 60T181 29Z" />
<glyph unicode="p" glyph-name="p" horiz-adv-x="438" d="M20 401Q38 409 64 417T125 432L138 497L217 522L200 441H220Q318 441 365 402T412 297Q412 250 391 200T329 108T234 37T111 1L71 -194L175 -240V-251H-75V-240L-3 -199L118 401Q92 398 69 394T26 384L20
401ZM331 292Q331 340 300 369T193 403L122 55Q130 51 142 51Q176 51 210 69T271 120T314 197T331 292Z" />
<glyph unicode="q" glyph-name="q" horiz-adv-x="451" d="M346 -240V-251H121V-240L221 -197L294 161Q272 126 249 95T204 41T159 4T118 -10Q104 -10 89 -3T59 20T36 63T27 128Q27 185 49 240T110 340T205 412T326 439Q337 439 348 438T366 434L430 463L296 -198L346
-240ZM137 48Q148 48 166 62T208 100T256 156T308 227L342 392Q334 395 321 397T296 399Q257 399 223 375T163 312T122 222T107 120Q107 89 117 69T137 48Z" />
<glyph unicode="r" glyph-name="r" horiz-adv-x="342" d="M34 0L109 362L43 391V402Q54 405 73 410T113 422T157 434T199 444L162 268Q209 349 243 395T295 441Q309 441 328 435T355 423L321 337Q314 341 300 347T274 353Q260 353 230 319T148 203L105 0H34Z" />
<glyph unicode="s" glyph-name="s" horiz-adv-x="303" d="M192 443Q220 443 246 436T286 424L267 344H258Q241 373 222 391T180 409Q159 409 147 397T135 367Q135 359 138 346T155 307Q164 289 172 275T189 246T207 218T226 185Q240 159 246 137T252 98Q252 79
243 60T218 26T177 0T123 -10Q107 -10 91 -7T59 0T30 10T10 19Q13 48 17 82T27 146H37Q53 79 77 54T132 28Q155 28 170 42T186 75Q186 86 183 101T162 148Q143 183 126 209T93 266Q71 309 71 341Q71 360 79 378T103 411T141 434T192 443Z" />
<glyph unicode="t" glyph-name="t" horiz-adv-x="315" d="M183 384L126 124Q120 97 118 84T115 64Q115 58 119 53T133 48Q146 48 161 55T193 75T226 105T257 140L270 131Q260 110 243 85T204 39T156 4T100 -10Q70 -10 53 3T35 35Q35 42 38 57T46 96L109 384H54L56
395L207 500L192 430H343L311 384H183Z" />
<glyph unicode="u" glyph-name="u" horiz-adv-x="468" d="M303 180Q277 143 249 110T192 51T136 10T86 -6Q66 -6 54 9T42 46Q42 54 43 64T47 82Q56 120 72 186T113 363L48 391V402Q59 405 77 410T118 422T162 434T205 445Q166 271 143 176T120 73Q120 63 128 63Q138
63 161 80T211 123T266 183T317 248L357 432H429L351 57L418 29V18Q407 16 388 13T346 5T301 -2T263 -8L303 180Z" />
<glyph unicode="v" glyph-name="v" horiz-adv-x="381" d="M382 399Q382 378 373 351T332 278T239 161T74 -19H61Q70 43 76 104T87 219T94 313T95 371L28 399V410Q40 413 56 417T90 427T126 436T161 445Q165 417 165 371T162 275T153 178T143 100Q198 168 229 214T277
291T298 339T303 368Q303 385 295 396T280 412V422L365 443Q370 438 376 426T382 399Z" />
<glyph unicode="w" glyph-name="w" horiz-adv-x="547" d="M337 439Q341 409 344 369T347 284T347 195T343 115Q388 180 414 224T453 298T470 344T474 373Q474 384 468 395T451 414V424L536 442Q540 437 544 427T548 401Q548 380 538 351T498 274T415 156T278 -19H263Q267
14 270 52T276 131T280 211T283 285Q243 216 192 141T71 -19H57Q66 43 73 105T86 220T93 314T95 371L31 399V410Q42 413 63 419T106 431T144 441T161 445Q165 420 165 381T161 298T154 210T144 131Q182 188 229 268T323 439H337V439Z" />
<glyph unicode="x" glyph-name="x" horiz-adv-x="401" d="M283 49L355 22V11Q347 9 332 6T299 0T262 -6T227 -11L177 172Q146 120 125 85T88 28T60 -3T36 -12Q19 -12 5 -7T-16 0L0 70L6 74Q17 69 27 65T46 61Q51 61 58 67T78 89T112 134T167 209L122 374L54 401V412Q65
415 80 419T112 428T146 437T178 445L221 280Q253 331 275 364T313 415T341 441T367 448Q381 448 394 445T415 440L399 370L393 367Q388 369 376 373T356 377Q341 377 312 345T231 245L283 49Z" />
<glyph unicode="y" glyph-name="y" horiz-adv-x="383" d="M300 355Q300 377 291 390T269 411V421L360 443Q365 435 370 422T376 394Q376 368 363 337T325 262T261 163T171 30Q132 -26 101 -71T46 -151T4 -214T-27 -263L-114 -251V-240Q-81 -209 -48 -176T14 -111T69
-49T113 3Q111 55 108 109T102 213T94 304T86 370L18 399V410Q41 417 76 427T142 445Q148 413 153 369T163 276T169 181T173 95Q208 152 232 193T271 264T293 316T300 355Z" />
<glyph unicode="z" glyph-name="z" horiz-adv-x="379" d="M-12 11L292 379H224Q164 379 125 375T71 368L66 374L118 437L384 429L383 418L77 56H134Q168 56 194 57T241 62T280 68T318 77L324 71L270 -4L-13 0L-12 11Z" />
<glyph unicode="{" glyph-name="braceleft" horiz-adv-x="319" d="M96 -57Q96 -98 118 -127T191 -173L182 -190Q102 -168 68 -131T34 -50Q34 -19 53 15T96 84T138 153T158 220Q158 246 137 263T62 285L68 314Q131 313 164 333T198 391Q198 410 190 436T171 491T152
546T143 597Q143 624 153 649T188 696T254 734T356 761L364 742Q285 724 245 691T205 604Q205 583 212 557T227 504T242 451T249 405Q249 362 220 331T132 295Q170 287 189 264T209 209Q209 178 192 144T153 75T114 6T96 -57Z" />
<glyph unicode="|" glyph-name="bar" horiz-adv-x="251" d="M100 744H151V-201H100V744Z" />
<glyph unicode="}" glyph-name="braceright" horiz-adv-x="319" d="M236 628Q236 669 214 698T141 744L150 761Q230 739 264 702T298 621Q298 590 279 556T236 487T194 418T174 351Q174 325 195 308T270 286L264 257Q201 258 168 238T134 180Q134 161 142 135T161
80T180 25T189 -26Q189 -53 179 -78T144 -125T78 -163T-24 -190L-32 -171Q47 -153 87 -120T127 -33Q127 -12 120 14T105 67T90 120T83 166Q83 209 112 240T200 276Q162 284 143 307T123 362Q123 393 140 427T179 496T218 565T236 628Z" />
<glyph unicode="~" glyph-name="asciitilde" horiz-adv-x="440" d="M323 269Q338 269 352 279T379 305T403 339T423 375L442 370Q435 344 423 316T394 264T357 225T315 209Q294 209 271 222T226 251T184 280T148 293Q133 293 119 282T92 255T68 219T49 185L30
190Q36 215 48 244T76 297T113 338T156 354Q177 354 200 341T245 312T288 283T323 269Z" />
<glyph unicode="&#xa1;" glyph-name="exclamdown" horiz-adv-x="234" d="M-20 -227L108 238H128L73 -227H-20ZM93 390Q93 412 108 427T146 442Q169 442 184 427T200 390Q200 367 185 352T146 337Q123 337 108 352T93 390Z" />
<glyph unicode="&#xa2;" glyph-name="cent" horiz-adv-x="367" d="M311 523L288 441Q317 439 338 434T371 424L340 341H336Q325 361 310 377T276 401L177 47Q194 51 211 62T245 87T277 117T305 148L318 139Q306 115 290 92T254 49T211 15T162 -6L138 -91H102L125
-9Q82 -6 54 31T26 131Q26 191 45 245T95 341T167 409T251 441L274 523H311ZM105 146Q105 65 141 48L241 404Q217 399 193 376T149 318T117 238T105 146Z" />
<glyph unicode="&#xa3;" glyph-name="sterling" horiz-adv-x="495" d="M-6 -5Q16 31 35 54T70 98T99 141T126 200Q139 236 147 280H55L64 320H154Q159 352 162 389T171 470Q175 512 191 549T234 613T295 656T371 672Q390 672 408 670T442 666T469 662T483 659L461
546H449Q441 582 421 607T365 633Q323 633 296 596T259 499Q251 448 243 404T227 320H372L363 280H217Q208 244 196 214Q180 176 159 148T99 91Q126 104 154 104Q175 104 196 97T238 82T279 67T319 60Q355 60 387 83T450 147L461 142Q450 112 436 85T402 37T361
5T313 -7Q289 -7 265 2T217 24T170 45T122 55Q104 55 88 48T57 31T30 9T8 -13L-6 -5Z" />
<glyph unicode="&#xa5;" glyph-name="yen" horiz-adv-x="548" d="M484 320H339L327 247H472L466 209H320L295 55L362 11L359 0H126L128 11L213 55L238 209H95L101 247H244L256 320H113L120 358H250L146 607L77 651L79 662H317L315 651L232 607L324 377L487 607L433
651L435 662H622L620 651L536 607L359 358H491L484 320Z" />
<glyph unicode="&#xa6;" glyph-name="brokenbar" horiz-adv-x="251" d="M100 744H151V334H100V744ZM100 230H151V-201H100V230Z" />
<glyph unicode="&#xa7;" glyph-name="section" horiz-adv-x="405" d="M51 309Q51 339 62 361T89 398T126 424T164 439Q149 479 149 519Q149 553 161 581T194 630T242 662T300 673Q326 673 349 670T383 664L367 569H358Q349 592 334 613T290 634Q261 634 238 609T214
541Q214 520 219 500T234 457T259 406T296 341Q332 277 350 234T369 151Q369 120 358 97T330 58T294 31T260 14Q265 -5 268 -23T272 -61Q272 -94 260 -126T227 -183T177 -223T113 -238Q92 -238 73 -234T39 -225T14 -213T-1 -203Q-1 -195 1 -179T6 -145T12 -108T19
-74H29Q31 -98 36 -120T52 -160T79 -188T116 -198Q134 -198 150 -190T180 -165T200 -128T208 -79Q208 -36 188 9T131 117Q93 181 72 225T51 309ZM186 168Q207 130 223 100T250 41Q267 52 284 73T302 126Q302 142 300 158T290 193T271 235T241 290Q220 325 203 355T174
413Q154 404 136 385T117 332Q117 314 121 298T134 262T156 221T186 168Z" />
<glyph unicode="&#xa8;" glyph-name="dieresis" horiz-adv-x="400" d="M188 546Q170 546 156 559T141 592Q141 612 155 625T188 639Q208 639 221 626T235 592Q235 573 222 560T188 546ZM346 639Q366 639 379 626T393 592Q393 573 380 560T346 546Q328 546 314
559T299 592Q299 612 313 625T346 639Z" />
<glyph unicode="&#xa9;" glyph-name="copyright" horiz-adv-x="780" d="M425 159Q383 159 347 171T285 207T243 262T228 336Q228 373 242 406T281 463T343 502T425 517Q460 517 490 512T535 504V406H526Q509 434 484 455T423 477Q398 477 378 466T342 437T319
393T311 340Q311 309 321 283T347 239T384 210T427 199Q448 199 465 206T495 223T518 246T534 267H543V181Q531 176 499 168T425 159ZM410 631Q348 631 296 608T205 544T146 449T124 332Q124 270 146 216T208 121T299 57T410 33Q471 33 523 56T614 119T674 214T696
332Q696 393 674 447T613 542T522 607T410 631ZM410 674Q481 674 543 647T651 574T723 465T750 332Q750 260 724 198T652 89T544 17T410 -10Q337 -10 275 16T168 89T96 197T70 332Q70 404 96 466T167 574T275 647T410 674Z" />
<glyph unicode="&#xaa;" glyph-name="ordfeminine" horiz-adv-x="422" d="M408 350L406 341Q397 338 381 335T345 328T307 321T272 316L300 452Q282 426 261 401T218 357T175 326T134 314Q112 314 96 337T80 406Q80 449 97 496T149 586T236 659T358 699L426 742L352
372L408 350ZM167 371Q175 371 191 382T227 411T269 455T312 508L345 665Q311 660 276 637T213 579T167 500T149 409Q149 391 154 381T167 371Z" />
<glyph unicode="&#xab;" glyph-name="guillemotleft" horiz-adv-x="410" d="M204 233L374 399L388 386L278 220L321 74L306 67L204 233ZM46 233L216 399L230 386L120 220L163 74L148 67L46 233Z" />
<glyph unicode="&#xae;" glyph-name="registered" horiz-adv-x="417" d="M264 308Q224 308 190 323T130 363T90 423T75 498Q75 537 89 571T129 631T189 672T264 687Q303 687 337 672T397 632T438 572T453 498Q453 458 438 424T398 364T338 323T264 308ZM264 653Q232
653 204 641T156 608T124 559T112 498Q112 466 124 438T157 388T205 355T264 342Q296 342 323 354T371 387T403 436T415 498Q415 529 404 557T372 607T324 640T264 653ZM175 411V418L196 434V577L175 595V602H279Q305 602 321 590T338 555Q338 537 328 526T307
510L336 460Q352 432 372 419V412Q367 411 360 411T344 410Q324 410 314 418T294 444L265 497H243V434L268 418V411H175ZM243 579V518H271Q279 518 285 526T292 547Q292 563 283 571T259 579H243Z" />
<glyph unicode="&#xaf;" glyph-name="macron" horiz-adv-x="400" d="M381 607L370 555H159L170 607H381Z" />
<glyph unicode="&#xb0;" glyph-name="degree" horiz-adv-x="309" d="M137 540Q137 508 156 488T202 467Q237 467 257 492T278 555Q278 590 259 609T214 628Q182 628 160 603T137 540ZM87 539Q87 564 96 587T122 629T162 659T214 670Q236 670 257 663T293 641T318
606T328 556Q328 530 319 507T294 465T254 436T202 425Q179 425 158 432T121 454T96 490T87 539Z" />
<glyph unicode="&#xb2;" glyph-name="twosuperior" horiz-adv-x="309" d="M269 324H30L34 346Q90 402 129 442T192 513T226 568T237 615Q237 645 221 660T181 675Q167 675 155 671T133 661T117 649T106 639L94 645Q100 658 110 672T136 697T170 716T213 723Q255
723 281 697T307 630Q307 598 295 570T257 514T194 454T107 383H317L269 324Z" />
<glyph unicode="&#xb3;" glyph-name="threesuperior" horiz-adv-x="279" d="M100 538Q155 564 183 589T212 644Q212 662 200 671T167 681Q144 681 128 670T104 653L93 664Q99 672 108 682T130 702T161 717T201 723Q239 723 258 704T278 658Q278 626 252 603T187
565Q224 565 252 545T281 484Q281 458 269 430T228 378T152 335T33 311L30 325Q118 353 162 392T207 476Q207 503 188 514T139 526Q127 526 118 525T106 522L100 538Z" />
<glyph unicode="&#xb4;" glyph-name="acute" horiz-adv-x="400" d="M182 505L171 513L300 719L358 671L182 505Z" />
<glyph unicode="&#xb6;" glyph-name="paragraph" horiz-adv-x="473" d="M100 0L102 11L181 55L236 381Q203 381 175 390T126 417T93 460T81 517Q81 586 129 624T260 662H336L224 0H100ZM279 0L391 662H514L512 651L433 607L339 55L401 11L399 0H279Z" />
<glyph unicode="&#xb7;" glyph-name="periodcentered" horiz-adv-x="216" d="M171 252Q171 230 156 215T118 200Q95 200 80 215T65 252Q65 275 80 290T118 305Q141 305 156 290T171 252Z" />
<glyph unicode="&#xb8;" glyph-name="cedilla" horiz-adv-x="400" d="M194 0L147 -71Q169 -82 186 -102T204 -149Q204 -191 158 -225T29 -281L22 -267Q37 -258 56 -246T93 -220T123 -191T135 -161Q135 -141 120 -131T91 -115L90 -112Q110 -82 126 -57Q140 -36
151 -19T162 0H194Z" />
<glyph unicode="&#xb9;" glyph-name="onesuperior" horiz-adv-x="229" d="M216 335L214 324H33L35 335L99 369L147 645L93 667L95 678Q102 681 119 687T156 700T196 714T227 725L165 369L216 335Z" />
<glyph unicode="&#xba;" glyph-name="ordmasculine" horiz-adv-x="420" d="M289 687Q267 687 244 668T203 617T172 545T160 461Q160 409 179 380T223 351Q242 351 264 368T305 415T336 486T348 578Q348 630 330 658T289 687ZM219 314Q191 314 168 326T127 358T100
407T90 467Q90 516 107 562T152 644T216 701T291 723Q318 723 341 711T382 679T408 632T418 574Q418 517 400 470T354 388T290 334T219 314Z" />
<glyph unicode="&#xbb;" glyph-name="guillemotright" horiz-adv-x="410" d="M208 228L38 62L24 75L134 241L91 387L106 394L208 228ZM366 228L196 62L182 75L292 241L249 387L264 394L366 228Z" />
<glyph unicode="&#xbc;" glyph-name="onequarter" horiz-adv-x="748" d="M678 12L676 0H514L516 12L572 46L583 109H411L416 137L646 396H696L653 155H728L699 109H645L634 46L678 12ZM591 155L619 317L474 155H591ZM216 282L214 271H33L35 282L99 316L147 592L93
614L95 625Q102 628 119 634T156 647T196 661T227 672L165 316L216 282ZM646 691L683 662L111 -29L74 0L646 691Z" />
<glyph unicode="&#xbd;" glyph-name="onehalf" horiz-adv-x="769" d="M689 0H450L454 22Q510 78 549 118T612 189T646 244T657 291Q657 321 641 336T601 351Q587 351 575 347T553 337T537 325T526 315L514 321Q520 334 530 348T556 373T590 392T633 399Q675 399
701 373T727 306Q727 274 715 246T677 190T614 130T527 59H737L689 0ZM216 282L214 271H33L35 282L99 316L147 592L93 614L95 625Q102 628 119 634T156 647T196 661T227 672L165 316L216 282ZM646 691L683 662L111 -29L74 0L646 691Z" />
<glyph unicode="&#xbe;" glyph-name="threequarters" horiz-adv-x="766" d="M696 12L694 0H532L534 12L590 46L601 109H429L434 137L664 396H714L671 155H746L717 109H663L652 46L696 12ZM609 155L637 317L492 155H609ZM100 485Q155 511 183 536T212 591Q212 609
200 618T167 628Q144 628 128 617T104 600L93 611Q99 619 108 629T130 649T161 664T201 670Q239 670 258 651T278 605Q278 573 252 550T187 512Q224 512 252 492T281 431Q281 405 269 377T228 325T152 282T33 258L30 272Q118 300 162 339T207 423Q207 450 188 461T139
473Q127 473 118 472T106 469L100 485ZM666 691L703 662L131 -29L94 0L666 691Z" />
<glyph unicode="&#xbf;" glyph-name="questiondown" horiz-adv-x="351" d="M56 24Q79 44 102 65T140 101Q158 120 165 137T179 177L195 238H211Q213 215 215 188T218 144Q218 118 211 101T186 63Q169 43 146 20T104 -24Q80 -50 66 -74T52 -128Q52 -159 70 -175T113
-192Q145 -192 169 -168T220 -112H229L209 -223Q202 -225 175 -228T117 -232Q88 -232 62 -226T17 -206T-14 -172T-26 -125Q-26 -81 -4 -46T56 24ZM177 390Q177 412 192 427T230 442Q253 442 268 427T284 390Q284 367 269 352T230 337Q207 337 192 352T177 390Z"
/>
<glyph unicode="&#xc0;" glyph-name="Agrave" horiz-adv-x="594" d="M146 11L145 0H-36L-35 11L35 54L370 669H388L507 54L557 11L556 0H347L348 11L427 54L390 246H189L85 54L146 11ZM210 286H382L337 520L210 286ZM475 713L272 791L307 850L482 724L475 713Z" />
<glyph unicode="&#xc1;" glyph-name="Aacute" horiz-adv-x="594" d="M146 11L145 0H-36L-35 11L35 54L370 669H388L507 54L557 11L556 0H347L348 11L427 54L390 246H189L85 54L146 11ZM210 286H382L337 520L210 286ZM282 713L276 725L481 849L509 786L282 713Z" />
<glyph unicode="&#xc2;" glyph-name="Acircumflex" horiz-adv-x="594" d="M146 11L145 0H-36L-35 11L35 54L370 669H388L507 54L557 11L556 0H347L348 11L427 54L390 246H189L85 54L146 11ZM210 286H382L337 520L210 286ZM402 842L501 722L493 713L394 769L264
713L257 724L402 842Z" />
<glyph unicode="&#xc3;" glyph-name="Atilde" horiz-adv-x="594" d="M146 11L145 0H-36L-35 11L35 54L370 669H388L507 54L557 11L556 0H347L348 11L427 54L390 246H189L85 54L146 11ZM210 286H382L337 520L210 286ZM341 802Q349 802 364 798T397 790T431 782T456
778Q463 778 472 783T491 796T509 813T523 828L533 822Q525 804 516 787T495 757T472 736T449 728Q438 728 422 731T388 739T356 748T334 752Q327 752 318 747T299 733T281 716T266 700L255 705Q262 721 272 738T294 770T318 793T341 802Z" />
<glyph unicode="&#xc4;" glyph-name="Adieresis" horiz-adv-x="594" d="M146 11L145 0H-36L-35 11L35 54L370 669H388L507 54L557 11L556 0H347L348 11L427 54L390 246H189L85 54L146 11ZM210 286H382L337 520L210 286ZM478 726Q460 726 446 739T431 772Q431 792
445 805T478 819Q498 819 511 806T525 772Q525 753 512 740T478 726ZM306 726Q288 726 274 739T259 772Q259 792 273 805T306 819Q326 819 339 806T353 772Q353 753 340 740T306 726Z" />
<glyph unicode="&#xc5;" glyph-name="Aring" horiz-adv-x="594" d="M146 11L145 0H-36L-35 11L35 54L370 669H388L507 54L557 11L556 0H347L348 11L427 54L390 246H189L85 54L146 11ZM210 286H382L337 520L210 286ZM295 797Q295 816 302 833T323 862T353 882T388
889Q407 889 423 882T453 863T473 833T481 797Q481 756 454 731T388 705Q351 705 323 730T295 797ZM334 797Q334 774 349 758T388 741Q411 741 426 757T442 797Q442 820 427 836T388 853Q365 853 350 837T334 797Z" />
<glyph unicode="&#xc6;" glyph-name="AE" horiz-adv-x="766" d="M389 607L326 651L328 662H772L750 535H739L693 625H525L480 372H654L712 445H721L689 262H680L646 334H474L422 39H602L696 151H707L680 0H262L264 11L343 55L383 287H221L63 54L124 11L123 0H-45L-44
11L13 54L389 607ZM390 325L440 611L246 325H390Z" />
<glyph unicode="&#xc7;" glyph-name="Ccedilla" horiz-adv-x="623" d="M353 -10Q294 -10 242 8T150 63T88 151T65 271Q65 356 97 429T183 557T309 641T461 672Q527 672 571 661T630 644L609 527H598Q577 576 543 604T457 632Q393 632 338 604T242 526T178 411T154
269Q154 218 168 174T208 98T272 47T354 29Q408 29 455 56T537 123H548L528 17Q516 12 471 1T353 -10ZM331 0L284 -71Q306 -82 323 -102T341 -149Q341 -191 295 -225T166 -281L159 -267Q174 -258 193 -246T230 -220T260 -191T272 -161Q272 -141 257 -131T228 -115L227
-112Q247 -82 263 -57Q277 -36 288 -19T299 0H331Z" />
<glyph unicode="&#xc8;" glyph-name="Egrave" horiz-adv-x="518" d="M460 445H469L437 261H428L394 334H211L159 39H350L444 151H455L428 0H-1L1 11L80 55L177 607L114 651L116 662H520L498 535H487L441 625H262L217 372H402L460 445ZM437 713L234 791L269 850L444
724L437 713Z" />
<glyph unicode="&#xc9;" glyph-name="Eacute" horiz-adv-x="518" d="M460 445H469L437 261H428L394 334H211L159 39H350L444 151H455L428 0H-1L1 11L80 55L177 607L114 651L116 662H520L498 535H487L441 625H262L217 372H402L460 445ZM248 713L242 725L447 849L475
786L248 713Z" />
<glyph unicode="&#xca;" glyph-name="Ecircumflex" horiz-adv-x="518" d="M460 445H469L437 261H428L394 334H211L159 39H350L444 151H455L428 0H-1L1 11L80 55L177 607L114 651L116 662H520L498 535H487L441 625H262L217 372H402L460 445ZM373 842L472 722L464
713L365 769L235 713L228 724L373 842Z" />
<glyph unicode="&#xcb;" glyph-name="Edieresis" horiz-adv-x="518" d="M460 445H469L437 261H428L394 334H211L159 39H350L444 151H455L428 0H-1L1 11L80 55L177 607L114 651L116 662H520L498 535H487L441 625H262L217 372H402L460 445ZM437 726Q419 726 405
739T390 772Q390 792 404 805T437 819Q457 819 470 806T484 772Q484 753 471 740T437 726ZM265 726Q247 726 233 739T218 772Q218 792 232 805T265 819Q285 819 298 806T312 772Q312 753 299 740T265 726Z" />
<glyph unicode="&#xcc;" glyph-name="Igrave" horiz-adv-x="302" d="M225 11L223 0H0L2 11L81 55L178 607L115 651L117 662H340L338 651L260 607L163 55L225 11ZM595 713L392 791L427 850L602 724L595 713Z" />
<glyph unicode="&#xcd;" glyph-name="Iacute" horiz-adv-x="302" d="M225 11L223 0H0L2 11L81 55L178 607L115 651L117 662H340L338 651L260 607L163 55L225 11ZM395 713L389 725L594 849L622 786L395 713Z" />
<glyph unicode="&#xce;" glyph-name="Icircumflex" horiz-adv-x="302" d="M225 11L223 0H0L2 11L81 55L178 607L115 651L117 662H340L338 651L260 607L163 55L225 11ZM512 842L611 722L603 713L504 769L374 713L367 724L512 842Z" />
<glyph unicode="&#xcf;" glyph-name="Idieresis" horiz-adv-x="302" d="M225 11L223 0H0L2 11L81 55L178 607L115 651L117 662H340L338 651L260 607L163 55L225 11ZM579 726Q561 726 547 739T532 772Q532 792 546 805T579 819Q599 819 612 806T626 772Q626 753
613 740T579 726ZM407 726Q389 726 375 739T360 772Q360 792 374 805T407 819Q427 819 440 806T454 772Q454 753 441 740T407 726Z" />
<glyph unicode="&#xd0;" glyph-name="Eth" horiz-adv-x="670" d="M2 11L81 55L127 317H52L60 358H134L178 607L115 651L117 662H361Q418 662 470 644T563 591T628 503T653 382Q653 313 627 245T554 122T439 34T287 0H1L2 11ZM209 317L164 62Q181 54 210 47T287
39Q342 39 392 66T481 139T541 246T564 375Q564 436 545 482T493 559T420 605T336 621H262L216 358H396L388 317H209Z" />
<glyph unicode="&#xd1;" glyph-name="Ntilde" horiz-adv-x="713" d="M191 11L188 0H0L2 11L81 55L172 580Q154 607 140 624T115 653V662H222L545 134L627 607L564 651L566 662H755L753 651L676 607L571 0H537L211 521L130 55L191 11ZM410 802Q418 802 433 798T466
790T500 782T525 778Q532 778 541 783T560 796T578 813T592 828L602 822Q594 804 585 787T564 757T541 736T518 728Q507 728 491 731T457 739T425 748T403 752Q396 752 387 747T368 733T350 716T335 700L324 705Q331 721 341 738T363 770T387 793T410 802Z" />
<glyph unicode="&#xd2;" glyph-name="Ograve" horiz-adv-x="692" d="M67 262Q67 345 95 419T172 550T284 639T416 672Q471 672 518 653T598 598T651 513T670 406Q670 319 642 244T565 112T453 23T321 -10Q267 -10 221 9T141 63T87 149T67 262ZM416 632Q363 632
316 602T233 520T176 402T155 262Q155 208 168 165T204 92T257 46T321 30Q373 30 420 60T504 141T561 261T582 407Q582 462 569 504T532 574T479 617T416 632ZM533 713L330 791L365 850L540 724L533 713Z" />
<glyph unicode="&#xd3;" glyph-name="Oacute" horiz-adv-x="692" d="M67 262Q67 345 95 419T172 550T284 639T416 672Q471 672 518 653T598 598T651 513T670 406Q670 319 642 244T565 112T453 23T321 -10Q267 -10 221 9T141 63T87 149T67 262ZM416 632Q363 632
316 602T233 520T176 402T155 262Q155 208 168 165T204 92T257 46T321 30Q373 30 420 60T504 141T561 261T582 407Q582 462 569 504T532 574T479 617T416 632ZM336 713L330 725L535 849L563 786L336 713Z" />
<glyph unicode="&#xd4;" glyph-name="Ocircumflex" horiz-adv-x="692" d="M67 262Q67 345 95 419T172 550T284 639T416 672Q471 672 518 653T598 598T651 513T670 406Q670 319 642 244T565 112T453 23T321 -10Q267 -10 221 9T141 63T87 149T67 262ZM416 632Q363
632 316 602T233 520T176 402T155 262Q155 208 168 165T204 92T257 46T321 30Q373 30 420 60T504 141T561 261T582 407Q582 462 569 504T532 574T479 617T416 632ZM457 842L556 722L548 713L449 769L319 713L312 724L457 842Z" />
<glyph unicode="&#xd5;" glyph-name="Otilde" horiz-adv-x="692" d="M67 262Q67 345 95 419T172 550T284 639T416 672Q471 672 518 653T598 598T651 513T670 406Q670 319 642 244T565 112T453 23T321 -10Q267 -10 221 9T141 63T87 149T67 262ZM416 632Q363 632
316 602T233 520T176 402T155 262Q155 208 168 165T204 92T257 46T321 30Q373 30 420 60T504 141T561 261T582 407Q582 462 569 504T532 574T479 617T416 632ZM395 802Q403 802 418 798T451 790T485 782T510 778Q517 778 526 783T545 796T563 813T577 828L587 822Q579
804 570 787T549 757T526 736T503 728Q492 728 476 731T442 739T410 748T388 752Q381 752 372 747T353 733T335 716T320 700L309 705Q316 721 326 738T348 770T372 793T395 802Z" />
<glyph unicode="&#xd6;" glyph-name="Odieresis" horiz-adv-x="692" d="M67 262Q67 345 95 419T172 550T284 639T416 672Q471 672 518 653T598 598T651 513T670 406Q670 319 642 244T565 112T453 23T321 -10Q267 -10 221 9T141 63T87 149T67 262ZM416 632Q363
632 316 602T233 520T176 402T155 262Q155 208 168 165T204 92T257 46T321 30Q373 30 420 60T504 141T561 261T582 407Q582 462 569 504T532 574T479 617T416 632ZM533 726Q515 726 501 739T486 772Q486 792 500 805T533 819Q553 819 566 806T580 772Q580 753 567
740T533 726ZM361 726Q343 726 329 739T314 772Q314 792 328 805T361 819Q381 819 394 806T408 772Q408 753 395 740T361 726Z" />
<glyph unicode="&#xd7;" glyph-name="multiply" horiz-adv-x="391" d="M164 248L76 384L117 413L200 282L340 413L372 380L225 243L313 106L274 79L189 209L49 79L18 112L164 248Z" />
<glyph unicode="&#xd8;" glyph-name="Oslash" horiz-adv-x="692" d="M67 262Q67 344 95 418T172 549T283 638T416 672Q458 672 495 661T562 628L624 711L659 685L596 600Q631 565 650 517T670 410Q670 322 642 246T565 112T453 23T321 -10Q238 -10 173 35L100
-63L65 -37L140 64Q106 100 87 149T67 262ZM582 411Q582 451 574 484T552 543L211 86Q258 30 321 30Q373 30 420 60T504 142T561 263T582 411ZM416 632Q362 632 315 601T232 519T176 401T155 262Q155 220 163 186T185 124L526 580Q480 632 416 632Z" />
<glyph unicode="&#xd9;" glyph-name="Ugrave" horiz-adv-x="688" d="M541 651L543 662H734L732 651L654 607L582 201Q574 159 556 121T507 54T433 7T334 -10Q272 -10 225 6T146 51T103 122T99 214L169 607L106 651L108 662H332L329 651L251 607L181 211Q174 170
184 139T217 87T273 55T346 44Q386 44 418 56T473 90T511 140T532 201L604 607L541 651ZM535 713L332 791L367 850L542 724L535 713Z" />
<glyph unicode="&#xda;" glyph-name="Uacute" horiz-adv-x="688" d="M541 651L543 662H734L732 651L654 607L582 201Q574 159 556 121T507 54T433 7T334 -10Q272 -10 225 6T146 51T103 122T99 214L169 607L106 651L108 662H332L329 651L251 607L181 211Q174 170
184 139T217 87T273 55T346 44Q386 44 418 56T473 90T511 140T532 201L604 607L541 651ZM353 713L347 725L552 849L580 786L353 713Z" />
<glyph unicode="&#xdb;" glyph-name="Ucircumflex" horiz-adv-x="688" d="M541 651L543 662H734L732 651L654 607L582 201Q574 159 556 121T507 54T433 7T334 -10Q272 -10 225 6T146 51T103 122T99 214L169 607L106 651L108 662H332L329 651L251 607L181 211Q174
170 184 139T217 87T273 55T346 44Q386 44 418 56T473 90T511 140T532 201L604 607L541 651ZM460 842L559 722L551 713L452 769L322 713L315 724L460 842Z" />
<glyph unicode="&#xdc;" glyph-name="Udieresis" horiz-adv-x="688" d="M541 651L543 662H734L732 651L654 607L582 201Q574 159 556 121T507 54T433 7T334 -10Q272 -10 225 6T146 51T103 122T99 214L169 607L106 651L108 662H332L329 651L251 607L181 211Q174
170 184 139T217 87T273 55T346 44Q386 44 418 56T473 90T511 140T532 201L604 607L541 651ZM536 726Q518 726 504 739T489 772Q489 792 503 805T536 819Q556 819 569 806T583 772Q583 753 570 740T536 726ZM364 726Q346 726 332 739T317 772Q317 792 331 805T364
819Q384 819 397 806T411 772Q411 753 398 740T364 726Z" />
<glyph unicode="&#xdd;" glyph-name="Yacute" horiz-adv-x="589" d="M380 11L377 0H144L146 11L231 55L275 313L145 607L76 651L78 662H318L316 651L233 607L341 358L525 607L456 651L458 662H664L662 651L578 607L357 311L313 55L380 11ZM294 713L288 725L493
849L521 786L294 713Z" />
<glyph unicode="&#xde;" glyph-name="Thorn" horiz-adv-x="501" d="M303 507Q342 507 377 498T438 471T480 427T495 365Q495 325 474 292T417 236T332 198T227 183L231 201Q316 217 364 258T413 361Q413 412 379 439T285 467H235L163 55L225 11L223 0H0L2 11L81
55L178 607L115 651L117 662H340L338 651L260 607L242 507H303Z" />
<glyph unicode="&#xdf;" glyph-name="germandbls" horiz-adv-x="448" d="M331 717Q390 717 424 688T458 613Q458 582 446 558T415 513T374 475T334 442T303 408T290 371Q290 348 305 323T344 262Q358 240 369 222T387 186T399 152T403 114Q403 90 393 68T365 29T321
1T263 -10Q249 -10 235 -7T207 0T182 9T164 18Q165 28 166 43T170 74T175 108T181 139H191Q209 28 270 28Q299 28 318 47T337 97Q337 112 334 124T325 150T308 180T284 219Q259 258 244 285T228 345Q228 371 240 391T269 430T308 467T346 505T376 550T388 606Q388
639 371 659T317 680Q290 680 270 669T236 640T212 596T198 543Q187 490 175 423T149 287T124 151T102 33Q94 -9 81 -59T42 -153T-27 -227T-137 -261L-153 -194Q-134 -196 -116 -198T-84 -200Q-63 -200 -47 -191T-17 -155T10 -78T39 54Q61 176 80 286T122 513Q128
550 144 587T186 652T248 699T331 717Z" />
<glyph unicode="&#xe0;" glyph-name="agrave" horiz-adv-x="440" d="M395 30L394 19Q382 16 362 13T320 5T276 -2T237 -8L268 144Q249 117 227 90T181 40T133 4T84 -10Q73 -10 61 -4T40 15T24 47T18 93Q18 141 38 195T97 298T193 382T326 426L413 478L326 59L395
30ZM115 50Q126 50 146 64T189 100T237 152T282 211L319 388Q275 385 235 358T164 289T115 195T96 91Q96 76 100 63T115 50ZM442 687L506 720L581 509L569 504L442 687Z" />
<glyph unicode="&#xe1;" glyph-name="aacute" horiz-adv-x="440" d="M395 30L394 19Q382 16 362 13T320 5T276 -2T237 -8L268 144Q249 117 227 90T181 40T133 4T84 -10Q73 -10 61 -4T40 15T24 47T18 93Q18 141 38 195T97 298T193 382T326 426L413 478L326 59L395
30ZM115 50Q126 50 146 64T189 100T237 152T282 211L319 388Q275 385 235 358T164 289T115 195T96 91Q96 76 100 63T115 50ZM231 505L220 513L349 719L407 671L231 505Z" />
<glyph unicode="&#xe2;" glyph-name="acircumflex" horiz-adv-x="440" d="M395 30L394 19Q382 16 362 13T320 5T276 -2T237 -8L268 144Q249 117 227 90T181 40T133 4T84 -10Q73 -10 61 -4T40 15T24 47T18 93Q18 141 38 195T97 298T193 382T326 426L413 478L326
59L395 30ZM115 50Q126 50 146 64T189 100T237 152T282 211L319 388Q275 385 235 358T164 289T115 195T96 91Q96 76 100 63T115 50ZM299 714H309L360 502L349 498L287 609L177 498L166 506L299 714Z" />
<glyph unicode="&#xe3;" glyph-name="atilde" horiz-adv-x="440" d="M395 30L394 19Q382 16 362 13T320 5T276 -2T237 -8L268 144Q249 117 227 90T181 40T133 4T84 -10Q73 -10 61 -4T40 15T24 47T18 93Q18 141 38 195T97 298T193 382T326 426L413 478L326 59L395
30ZM115 50Q126 50 146 64T189 100T237 152T282 211L319 388Q275 385 235 358T164 289T115 195T96 91Q96 76 100 63T115 50ZM245 628Q253 628 266 624T295 615T324 606T346 602Q359 602 377 619T411 654L420 650Q414 631 405 612T385 578T362 554T339 545Q329 545
315 549T286 557T258 566T238 570Q224 570 206 553T170 519L161 523Q167 541 176 559T197 593T221 618T245 628Z" />
<glyph unicode="&#xe4;" glyph-name="adieresis" horiz-adv-x="440" d="M395 30L394 19Q382 16 362 13T320 5T276 -2T237 -8L268 144Q249 117 227 90T181 40T133 4T84 -10Q73 -10 61 -4T40 15T24 47T18 93Q18 141 38 195T97 298T193 382T326 426L413 478L326 59L395
30ZM115 50Q126 50 146 64T189 100T237 152T282 211L319 388Q275 385 235 358T164 289T115 195T96 91Q96 76 100 63T115 50ZM204 546Q186 546 172 559T157 592Q157 612 171 625T204 639Q224 639 237 626T251 592Q251 573 238 560T204 546ZM362 639Q382 639 395
626T409 592Q409 573 396 560T362 546Q344 546 330 559T315 592Q315 612 329 625T362 639Z" />
<glyph unicode="&#xe5;" glyph-name="aring" horiz-adv-x="440" d="M395 30L394 19Q382 16 362 13T320 5T276 -2T237 -8L268 144Q249 117 227 90T181 40T133 4T84 -10Q73 -10 61 -4T40 15T24 47T18 93Q18 141 38 195T97 298T193 382T326 426L413 478L326 59L395
30ZM115 50Q126 50 146 64T189 100T237 152T282 211L319 388Q275 385 235 358T164 289T115 195T96 91Q96 76 100 63T115 50ZM189 597Q189 616 196 633T217 662T247 682T282 689Q301 689 317 682T347 663T367 633T375 597Q375 556 348 531T282 505Q245 505 217 530T189
597ZM228 597Q228 574 243 558T282 541Q305 541 320 557T336 597Q336 620 321 636T282 653Q259 653 244 637T228 597Z" />
<glyph unicode="&#xe6;" glyph-name="ae" horiz-adv-x="595" d="M363 -10Q345 -10 326 -3T292 19T266 59T256 119V123Q238 97 219 73T182 31T145 1T110 -10Q97 -10 82 -3T55 19T34 57T26 112Q26 173 48 231T109 336T203 410T323 439Q354 439 377 431T412 413Q435
427 458 434T506 442Q544 442 567 430T590 392Q590 378 580 354T543 305T468 256T345 221Q334 175 334 129Q334 90 349 68T387 46Q418 46 454 70T529 142L542 133Q506 62 459 26T363 -10ZM296 401Q258 401 224 376T163 311T122 220T106 117Q106 84 115 66T136 48Q143
48 156 58T187 86T224 126T260 173Q270 233 297 285T364 376Q353 386 337 393T296 401ZM518 380Q518 408 488 408Q471 408 453 397T416 366T382 317T354 254Q434 268 476 303T518 380Z" />
<glyph unicode="&#xe7;" glyph-name="ccedilla" horiz-adv-x="357" d="M264 442Q299 442 323 436T361 424L330 341H326Q311 364 288 382T244 401Q221 401 197 380T152 324T118 242T105 146Q105 96 119 73T153 50Q171 50 190 58T227 81T263 112T295 148L308 139Q294
112 275 86T233 38T183 3T129 -10Q86 -10 56 28T26 131Q26 194 47 250T101 349T177 417T264 442ZM395 0L348 -71Q370 -82 387 -102T405 -149Q405 -191 359 -225T230 -281L223 -267Q238 -258 257 -246T294 -220T324 -191T336 -161Q336 -141 321 -131T292 -115L291
-112Q311 -82 327 -57Q341 -36 352 -19T363 0H395Z" />
<glyph unicode="&#xe8;" glyph-name="egrave" horiz-adv-x="365" d="M132 -10Q114 -10 95 -3T61 19T35 59T25 119Q25 180 46 238T103 342T183 414T275 442Q313 442 336 430T359 392Q359 378 349 354T312 305T237 256T114 221Q103 175 103 129Q103 90 118 68T156
46Q187 46 223 70T298 142L311 133Q275 62 228 26T132 -10ZM257 408Q240 408 222 397T185 366T151 317T123 254Q203 268 245 303T287 380Q287 408 257 408ZM418 687L482 720L557 509L545 504L418 687Z" />
<glyph unicode="&#xe9;" glyph-name="eacute" horiz-adv-x="365" d="M132 -10Q114 -10 95 -3T61 19T35 59T25 119Q25 180 46 238T103 342T183 414T275 442Q313 442 336 430T359 392Q359 378 349 354T312 305T237 256T114 221Q103 175 103 129Q103 90 118 68T156
46Q187 46 223 70T298 142L311 133Q275 62 228 26T132 -10ZM257 408Q240 408 222 397T185 366T151 317T123 254Q203 268 245 303T287 380Q287 408 257 408ZM206 505L195 513L324 719L382 671L206 505Z" />
<glyph unicode="&#xea;" glyph-name="ecircumflex" horiz-adv-x="365" d="M132 -10Q114 -10 95 -3T61 19T35 59T25 119Q25 180 46 238T103 342T183 414T275 442Q313 442 336 430T359 392Q359 378 349 354T312 305T237 256T114 221Q103 175 103 129Q103 90 118
68T156 46Q187 46 223 70T298 142L311 133Q275 62 228 26T132 -10ZM257 408Q240 408 222 397T185 366T151 317T123 254Q203 268 245 303T287 380Q287 408 257 408ZM538 714H548L599 502L588 498L526 609L416 498L405 506L538 714Z" />
<glyph unicode="&#xeb;" glyph-name="edieresis" horiz-adv-x="365" d="M132 -10Q114 -10 95 -3T61 19T35 59T25 119Q25 180 46 238T103 342T183 414T275 442Q313 442 336 430T359 392Q359 378 349 354T312 305T237 256T114 221Q103 175 103 129Q103 90 118 68T156
46Q187 46 223 70T298 142L311 133Q275 62 228 26T132 -10ZM257 408Q240 408 222 397T185 366T151 317T123 254Q203 268 245 303T287 380Q287 408 257 408ZM437 546Q419 546 405 559T390 592Q390 612 404 625T437 639Q457 639 470 626T484 592Q484 573 471 560T437
546ZM595 639Q615 639 628 626T642 592Q642 573 629 560T595 546Q577 546 563 559T548 592Q548 612 562 625T595 639Z" />
<glyph unicode="&#xec;" glyph-name="igrave" horiz-adv-x="244" d="M111 363L45 391V402Q56 405 74 410T113 422T156 434T197 445L124 59L194 29V18Q181 15 162 12T122 5T79 -2T40 -8L111 363ZM62 687L126 720L201 509L189 504L62 687Z" />
<glyph unicode="&#xed;" glyph-name="iacute" horiz-adv-x="244" d="M111 363L45 391V402Q56 405 74 410T113 422T156 434T197 445L124 59L194 29V18Q181 15 162 12T122 5T79 -2T40 -8L111 363ZM366 505L355 513L484 719L542 671L366 505Z" />
<glyph unicode="&#xee;" glyph-name="icircumflex" horiz-adv-x="244" d="M111 363L45 391V402Q56 405 74 410T113 422T156 434T197 445L124 59L194 29V18Q181 15 162 12T122 5T79 -2T40 -8L111 363ZM453 714H463L514 502L503 498L441 609L331 498L320 506L453 714Z" />
<glyph unicode="&#xef;" glyph-name="idieresis" horiz-adv-x="244" d="M111 363L45 391V402Q56 405 74 410T113 422T156 434T197 445L124 59L194 29V18Q181 15 162 12T122 5T79 -2T40 -8L111 363ZM356 546Q338 546 324 559T309 592Q309 612 323 625T356 639Q376
639 389 626T403 592Q403 573 390 560T356 546ZM514 639Q534 639 547 626T561 592Q561 573 548 560T514 546Q496 546 482 559T467 592Q467 612 481 625T514 639Z" />
<glyph unicode="&#xf0;" glyph-name="eth" horiz-adv-x="433" d="M103 520L241 599Q216 633 191 658T146 704L154 718Q181 704 215 681T283 623L397 689L414 658L308 597Q348 549 375 487T403 344Q403 260 381 195T325 84T249 14T170 -10Q136 -10 110 4T66 41T39
95T30 157Q30 218 50 269T103 358T178 417T264 438Q282 438 295 434T316 425Q308 468 294 504T260 569L120 489L103 520ZM324 338Q324 349 324 360T322 382Q314 387 300 392T266 397Q233 397 205 376T155 321T122 242T110 149Q110 97 127 63T175 29Q199 29 225
52T274 117T310 215T324 338Z" />
<glyph unicode="&#xf1;" glyph-name="ntilde" horiz-adv-x="475" d="M34 0L109 363L45 392V403Q55 406 73 411T114 423T158 434T200 445L165 282Q194 316 224 345T281 395T334 429T379 441Q405 441 416 426T428 389Q428 381 427 371T423 353L357 59L426 30L425
18Q412 15 393 12T351 5T308 -2T270 -8Q308 168 328 261T349 362Q349 372 341 372Q332 372 313 362T270 332T215 286T153 225L106 0H34ZM262 628Q270 628 283 624T312 615T341 606T363 602Q376 602 394 619T428 654L437 650Q431 631 422 612T402 578T379 554T356
545Q346 545 332 549T303 557T275 566T255 570Q241 570 223 553T187 519L178 523Q184 541 193 559T214 593T238 618T262 628Z" />
<glyph unicode="&#xf2;" glyph-name="ograve" horiz-adv-x="429" d="M177 -10Q145 -10 118 2T72 37T41 91T30 158Q30 217 49 268T100 358T172 419T254 442Q284 442 311 429T357 394T388 342T400 277Q400 214 380 161T327 70T256 11T177 -10ZM181 29Q205 29 230
48T275 102T307 183T320 284Q320 338 302 370T252 403Q227 403 202 383T156 329T123 248T110 150Q110 91 129 60T181 29ZM449 687L513 720L588 509L576 504L449 687Z" />
<glyph unicode="&#xf3;" glyph-name="oacute" horiz-adv-x="429" d="M177 -10Q145 -10 118 2T72 37T41 91T30 158Q30 217 49 268T100 358T172 419T254 442Q284 442 311 429T357 394T388 342T400 277Q400 214 380 161T327 70T256 11T177 -10ZM181 29Q205 29 230
48T275 102T307 183T320 284Q320 338 302 370T252 403Q227 403 202 383T156 329T123 248T110 150Q110 91 129 60T181 29ZM203 505L192 513L321 719L379 671L203 505Z" />
<glyph unicode="&#xf4;" glyph-name="ocircumflex" horiz-adv-x="429" d="M177 -10Q145 -10 118 2T72 37T41 91T30 158Q30 217 49 268T100 358T172 419T254 442Q284 442 311 429T357 394T388 342T400 277Q400 214 380 161T327 70T256 11T177 -10ZM181 29Q205 29
230 48T275 102T307 183T320 284Q320 338 302 370T252 403Q227 403 202 383T156 329T123 248T110 150Q110 91 129 60T181 29ZM299 714H309L360 502L349 498L287 609L177 498L166 506L299 714Z" />
<glyph unicode="&#xf5;" glyph-name="otilde" horiz-adv-x="429" d="M177 -10Q145 -10 118 2T72 37T41 91T30 158Q30 217 49 268T100 358T172 419T254 442Q284 442 311 429T357 394T388 342T400 277Q400 214 380 161T327 70T256 11T177 -10ZM181 29Q205 29 230
48T275 102T307 183T320 284Q320 338 302 370T252 403Q227 403 202 383T156 329T123 248T110 150Q110 91 129 60T181 29ZM234 628Q242 628 255 624T284 615T313 606T335 602Q348 602 366 619T400 654L409 650Q403 631 394 612T374 578T351 554T328 545Q318 545
304 549T275 557T247 566T227 570Q213 570 195 553T159 519L150 523Q156 541 165 559T186 593T210 618T234 628Z" />
<glyph unicode="&#xf6;" glyph-name="odieresis" horiz-adv-x="429" d="M177 -10Q145 -10 118 2T72 37T41 91T30 158Q30 217 49 268T100 358T172 419T254 442Q284 442 311 429T357 394T388 342T400 277Q400 214 380 161T327 70T256 11T177 -10ZM181 29Q205 29
230 48T275 102T307 183T320 284Q320 338 302 370T252 403Q227 403 202 383T156 329T123 248T110 150Q110 91 129 60T181 29ZM197 546Q179 546 165 559T150 592Q150 612 164 625T197 639Q217 639 230 626T244 592Q244 573 231 560T197 546ZM355 639Q375 639 388
626T402 592Q402 573 389 560T355 546Q337 546 323 559T308 592Q308 612 322 625T355 639Z" />
<glyph unicode="&#xf7;" glyph-name="divide" horiz-adv-x="446" d="M149 96Q149 119 163 132T197 145Q217 145 231 132T245 96Q245 76 231 63T197 49Q178 49 164 62T149 96ZM206 389Q206 412 220 425T254 438Q274 438 288 425T302 389Q302 369 288 356T254 342Q235
342 221 355T206 389ZM59 270H402L392 224H49L59 270Z" />
<glyph unicode="&#xf8;" glyph-name="oslash" horiz-adv-x="429" d="M18 -47L73 36Q53 59 42 90T30 158Q30 217 49 268T100 358T172 419T254 442Q274 442 291 437T325 421L374 495L406 475L355 397Q376 374 388 343T400 277Q400 214 380 161T327 70T256 11T177
-10Q135 -10 102 12L50 -67L18 -47ZM181 29Q205 29 230 48T275 102T307 183T320 284Q320 312 314 335L131 56Q149 29 181 29ZM110 150Q110 119 114 100L297 377Q279 403 252 403Q227 403 202 383T156 329T123 248T110 150Z" />
<glyph unicode="&#xf9;" glyph-name="ugrave" horiz-adv-x="468" d="M303 180Q277 143 249 110T192 51T136 10T86 -6Q66 -6 54 9T42 46Q42 54 43 64T47 82Q56 120 72 186T113 363L48 391V402Q59 405 77 410T118 422T162 434T205 445Q166 271 143 176T120 73Q120
63 128 63Q138 63 161 80T211 123T266 183T317 248L357 432H429L351 57L418 29V18Q407 16 388 13T346 5T301 -2T263 -8L303 180ZM439 687L503 720L578 509L566 504L439 687Z" />
<glyph unicode="&#xfa;" glyph-name="uacute" horiz-adv-x="468" d="M303 180Q277 143 249 110T192 51T136 10T86 -6Q66 -6 54 9T42 46Q42 54 43 64T47 82Q56 120 72 186T113 363L48 391V402Q59 405 77 410T118 422T162 434T205 445Q166 271 143 176T120 73Q120
63 128 63Q138 63 161 80T211 123T266 183T317 248L357 432H429L351 57L418 29V18Q407 16 388 13T346 5T301 -2T263 -8L303 180ZM253 505L242 513L371 719L429 671L253 505Z" />
<glyph unicode="&#xfb;" glyph-name="ucircumflex" horiz-adv-x="468" d="M303 180Q277 143 249 110T192 51T136 10T86 -6Q66 -6 54 9T42 46Q42 54 43 64T47 82Q56 120 72 186T113 363L48 391V402Q59 405 77 410T118 422T162 434T205 445Q166 271 143 176T120
73Q120 63 128 63Q138 63 161 80T211 123T266 183T317 248L357 432H429L351 57L418 29V18Q407 16 388 13T346 5T301 -2T263 -8L303 180ZM323 714H333L384 502L373 498L311 609L201 498L190 506L323 714Z" />
<glyph unicode="&#xfc;" glyph-name="udieresis" horiz-adv-x="468" d="M303 180Q277 143 249 110T192 51T136 10T86 -6Q66 -6 54 9T42 46Q42 54 43 64T47 82Q56 120 72 186T113 363L48 391V402Q59 405 77 410T118 422T162 434T205 445Q166 271 143 176T120 73Q120
63 128 63Q138 63 161 80T211 123T266 183T317 248L357 432H429L351 57L418 29V18Q407 16 388 13T346 5T301 -2T263 -8L303 180ZM210 546Q192 546 178 559T163 592Q163 612 177 625T210 639Q230 639 243 626T257 592Q257 573 244 560T210 546ZM368 639Q388 639
401 626T415 592Q415 573 402 560T368 546Q350 546 336 559T321 592Q321 612 335 625T368 639Z" />
<glyph unicode="&#xfd;" glyph-name="yacute" horiz-adv-x="383" d="M300 355Q300 377 291 390T269 411V421L360 443Q365 435 370 422T376 394Q376 368 363 337T325 262T261 163T171 30Q132 -26 101 -71T46 -151T4 -214T-27 -263L-114 -251V-240Q-81 -209 -48
-176T14 -111T69 -49T113 3Q111 55 108 109T102 213T94 304T86 370L18 399V410Q41 417 76 427T142 445Q148 413 153 369T163 276T169 181T173 95Q208 152 232 193T271 264T293 316T300 355ZM202 505L191 513L320 719L378 671L202 505Z" />
<glyph unicode="&#xfe;" glyph-name="thorn" horiz-adv-x="442" d="M53 -194L157 -240V-251H-93V-240L-21 -199L149 642L78 673V684Q90 687 109 692T151 703T197 714T240 725L149 277Q170 308 193 338T240 390T286 427T329 441Q336 441 350 438T378 422T403 385T414
319Q414 268 397 210T346 104T266 23T158 -10Q123 -10 94 6L53 -194ZM306 382Q295 382 277 370T237 334T188 280T136 209L108 69Q108 58 121 43T160 28Q197 28 228 55T283 124T320 218T334 317Q334 355 324 368T306 382Z" />
<glyph unicode="&#xff;" glyph-name="ydieresis" horiz-adv-x="383" d="M300 355Q300 377 291 390T269 411V421L360 443Q365 435 370 422T376 394Q376 368 363 337T325 262T261 163T171 30Q132 -26 101 -71T46 -151T4 -214T-27 -263L-114 -251V-240Q-81 -209 -48
-176T14 -111T69 -49T113 3Q111 55 108 109T102 213T94 304T86 370L18 399V410Q41 417 76 427T142 445Q148 413 153 369T163 276T169 181T173 95Q208 152 232 193T271 264T293 316T300 355ZM399 546Q381 546 367 559T352 592Q352 612 366 625T399 639Q419 639 432
626T446 592Q446 573 433 560T399 546ZM557 639Q577 639 590 626T604 592Q604 573 591 560T557 546Q539 546 525 559T510 592Q510 612 524 625T557 639Z" />
<glyph unicode="&#x100;" glyph-name="Amacron" horiz-adv-x="594" d="M146 11L145 0H-36L-35 11L35 54L370 669H388L507 54L557 11L556 0H347L348 11L427 54L390 246H189L85 54L146 11ZM210 286H382L337 520L210 286ZM514 795L504 742H267L277 795H514Z" />
<glyph unicode="&#x101;" glyph-name="amacron" horiz-adv-x="440" d="M395 30L394 19Q382 16 362 13T320 5T276 -2T237 -8L268 144Q249 117 227 90T181 40T133 4T84 -10Q73 -10 61 -4T40 15T24 47T18 93Q18 141 38 195T97 298T193 382T326 426L413 478L326 59L395
30ZM115 50Q126 50 146 64T189 100T237 152T282 211L319 388Q275 385 235 358T164 289T115 195T96 91Q96 76 100 63T115 50ZM390 607L379 555H168L179 607H390Z" />
<glyph unicode="&#x102;" glyph-name="Abreve" horiz-adv-x="594" d="M146 11L145 0H-36L-35 11L35 54L370 669H388L507 54L557 11L556 0H347L348 11L427 54L390 246H189L85 54L146 11ZM210 286H382L337 520L210 286ZM382 713Q358 713 341 722T312 747T296 783T293
828L305 830Q311 804 329 786T383 768Q420 768 445 785T490 830L502 828Q491 778 460 746T382 713Z" />
<glyph unicode="&#x103;" glyph-name="abreve" horiz-adv-x="440" d="M395 30L394 19Q382 16 362 13T320 5T276 -2T237 -8L268 144Q249 117 227 90T181 40T133 4T84 -10Q73 -10 61 -4T40 15T24 47T18 93Q18 141 38 195T97 298T193 382T326 426L413 478L326 59L395
30ZM115 50Q126 50 146 64T189 100T237 152T282 211L319 388Q275 385 235 358T164 289T115 195T96 91Q96 76 100 63T115 50ZM272 523Q246 523 229 534T203 564T192 604T193 647L205 649Q210 622 225 601T273 579Q312 579 337 601T379 649L391 647Q387 622 377 600T352
560T317 533T272 523Z" />
<glyph unicode="&#x104;" glyph-name="Aogonek" horiz-adv-x="594" d="M337 520L211 286H383L337 520ZM390 246H189L85 54L146 11L145 0H-36L-35 11L35 54L370 669H388L507 54L557 11L556 0H468Q453 -14 434 -35T399 -79T371 -127T360 -173Q360 -191 369 -201T396
-212Q418 -212 438 -203T473 -186L482 -195Q475 -204 464 -215T437 -236T402 -254T358 -261Q323 -261 304 -241T285 -193Q285 -165 301 -137T340 -83T390 -36T438 0L390 246Z" />
<glyph unicode="&#x105;" glyph-name="aogonek" horiz-adv-x="440" d="M159 -261Q124 -261 105 -241T86 -193Q86 -165 102 -137T141 -83T191 -36T239 0L269 144Q250 117 228 90T181 40T133 4T84 -10Q73 -10 61 -4T40 15T24 47T18 93Q18 141 38 195T97 298T193
382T326 426L413 478L326 59L395 30L394 19Q384 17 369 14T337 8T301 2T265 -4Q250 -19 232 -39T198 -83T172 -129T161 -173Q161 -191 170 -201T197 -212Q219 -212 239 -203T274 -186L283 -195Q276 -204 265 -215T238 -236T203 -254T159 -261ZM115 50Q126 50 146
64T189 100T237 152T282 212L319 388Q275 385 235 358T164 289T115 195T96 91Q96 76 100 63T115 50Z" />
<glyph unicode="&#x106;" glyph-name="Cacute" horiz-adv-x="623" d="M353 -10Q294 -10 242 8T150 63T88 151T65 271Q65 356 97 429T183 557T309 641T461 672Q527 672 571 661T630 644L609 527H598Q577 576 543 604T457 632Q393 632 338 604T242 526T178 411T154
269Q154 218 168 174T208 98T272 47T354 29Q408 29 455 56T537 123H548L528 17Q516 12 471 1T353 -10ZM366 713L360 725L565 849L593 786L366 713Z" />
<glyph unicode="&#x107;" glyph-name="cacute" horiz-adv-x="357" d="M264 442Q299 442 323 436T361 424L330 341H326Q311 364 288 382T244 401Q221 401 197 380T152 324T118 242T105 146Q105 96 119 73T153 50Q171 50 190 58T227 81T263 112T295 148L308 139Q294
112 275 86T233 38T183 3T129 -10Q86 -10 56 28T26 131Q26 194 47 250T101 349T177 417T264 442ZM208 505L197 513L326 719L384 671L208 505Z" />
<glyph unicode="&#x108;" glyph-name="Ccircumflex" horiz-adv-x="623" d="M353 -10Q294 -10 242 8T150 63T88 151T65 271Q65 356 97 429T183 557T309 641T461 672Q527 672 571 661T630 644L609 527H598Q577 576 543 604T457 632Q393 632 338 604T242 526T178
411T154 269Q154 218 168 174T208 98T272 47T354 29Q408 29 455 56T537 123H548L528 17Q516 12 471 1T353 -10ZM475 842L574 722L566 713L467 769L337 713L330 724L475 842Z" />
<glyph unicode="&#x109;" glyph-name="ccircumflex" horiz-adv-x="357" d="M264 442Q299 442 323 436T361 424L330 341H326Q311 364 288 382T244 401Q221 401 197 380T152 324T118 242T105 146Q105 96 119 73T153 50Q171 50 190 58T227 81T263 112T295 148L308
139Q294 112 275 86T233 38T183 3T129 -10Q86 -10 56 28T26 131Q26 194 47 250T101 349T177 417T264 442ZM539 714H549L600 502L589 498L527 609L417 498L406 506L539 714Z" />
<glyph unicode="&#x10a;" glyph-name="Cdotaccent" horiz-adv-x="623" d="M353 -10Q294 -10 242 8T150 63T88 151T65 271Q65 356 97 429T183 557T309 641T461 672Q527 672 571 661T630 644L609 527H598Q577 576 543 604T457 632Q393 632 338 604T242 526T178 411T154
269Q154 218 168 174T208 98T272 47T354 29Q408 29 455 56T537 123H548L528 17Q516 12 471 1T353 -10ZM400 773Q400 795 414 808T448 822Q468 822 482 809T496 773Q496 754 482 740T448 726Q428 726 414 740T400 773Z" />
<glyph unicode="&#x10b;" glyph-name="cdotaccent" horiz-adv-x="357" d="M264 442Q299 442 323 436T361 424L330 341H326Q311 364 288 382T244 401Q221 401 197 380T152 324T118 242T105 146Q105 96 119 73T153 50Q171 50 190 58T227 81T263 112T295 148L308
139Q294 112 275 86T233 38T183 3T129 -10Q86 -10 56 28T26 131Q26 194 47 250T101 349T177 417T264 442ZM225 593Q225 615 239 628T273 642Q293 642 307 629T321 593Q321 574 307 560T273 546Q253 546 239 560T225 593Z" />
<glyph unicode="&#x10c;" glyph-name="Ccaron" horiz-adv-x="623" d="M353 -10Q294 -10 242 8T150 63T88 151T65 271Q65 356 97 429T183 557T309 641T461 672Q527 672 571 661T630 644L609 527H598Q577 576 543 604T457 632Q393 632 338 604T242 526T178 411T154
269Q154 218 168 174T208 98T272 47T354 29Q408 29 455 56T537 123H548L528 17Q516 12 471 1T353 -10ZM454 709L355 829L363 838L462 782L592 838L599 827L454 709Z" />
<glyph unicode="&#x10d;" glyph-name="ccaron" horiz-adv-x="357" d="M264 442Q299 442 323 436T361 424L330 341H326Q311 364 288 382T244 401Q221 401 197 380T152 324T118 242T105 146Q105 96 119 73T153 50Q171 50 190 58T227 81T263 112T295 148L308 139Q294
112 275 86T233 38T183 3T129 -10Q86 -10 56 28T26 131Q26 194 47 250T101 349T177 417T264 442ZM254 505H244L193 717L204 721L266 610L376 721L387 713L254 505Z" />
<glyph unicode="&#x10e;" glyph-name="Dcaron" horiz-adv-x="671" d="M1 11L80 55L177 607L114 651L116 662H360Q417 662 469 644T562 591T627 503T652 382Q652 313 626 245T553 122T438 34T286 0H0L1 11ZM262 621L163 62Q180 54 209 47T286 39Q341 39 391 66T480
139T540 246T563 375Q563 436 544 482T492 559T419 605T335 621H262ZM362 709L263 829L271 838L370 782L500 838L507 827L362 709Z" />
<glyph unicode="&#x10f;" glyph-name="dcaron" horiz-adv-x="459" d="M291 147Q268 114 244 85T196 35T150 2T110 -10Q97 -10 82 -3T55 19T34 57T26 112Q26 173 48 231T109 336T204 410T327 439H350L393 642L323 673V684Q335 687 354 692T396 703T440 714T482
725L345 59L415 29L414 18Q401 15 382 12T340 5T297 -2T258 -8L291 147ZM339 384Q335 389 324 394T293 399Q255 399 221 375T162 310T121 220T106 117Q106 84 115 66T136 48Q145 48 163 61T205 96T254 147T303 208L339 384ZM492 505L553 715H623L504 505H492Z"
/>
<glyph unicode="&#x110;" glyph-name="Dcroat" horiz-adv-x="671" d="M2 11L81 55L127 317H52L60 358H134L178 607L115 651L117 662H361Q418 662 470 644T563 591T628 503T653 382Q653 313 627 245T554 122T439 34T287 0H1L2 11ZM209 317L164 62Q181 54 210 47T287
39Q342 39 392 66T481 139T541 246T564 375Q564 436 545 482T493 559T420 605T336 621H262L216 358H396L388 317H209Z" />
<glyph unicode="&#x111;" glyph-name="dcroat" horiz-adv-x="459" d="M233 533L242 568H529L520 533H233ZM291 147Q268 114 244 85T196 35T150 2T110 -10Q97 -10 82 -3T55 19T34 57T26 112Q26 173 48 231T109 336T204 410T327 439H350L393 642L323 673V684Q335
687 354 692T396 703T440 714T482 725L345 59L415 29L414 18Q401 15 382 12T340 5T297 -2T258 -8L291 147ZM339 384Q335 389 324 394T293 399Q255 399 221 375T162 310T121 220T106 117Q106 84 115 66T136 48Q145 48 163 61T205 96T254 147T303 208L339 384Z" />
<glyph unicode="&#x112;" glyph-name="Emacron" horiz-adv-x="518" d="M460 445H469L437 261H428L394 334H211L159 39H350L444 151H455L428 0H-1L1 11L80 55L177 607L114 651L116 662H520L498 535H487L441 625H262L217 372H402L460 445ZM474 795L464 742H227L237
795H474Z" />
<glyph unicode="&#x113;" glyph-name="emacron" horiz-adv-x="365" d="M132 -10Q114 -10 95 -3T61 19T35 59T25 119Q25 180 46 238T103 342T183 414T275 442Q313 442 336 430T359 392Q359 378 349 354T312 305T237 256T114 221Q103 175 103 129Q103 90 118 68T156
46Q187 46 223 70T298 142L311 133Q275 62 228 26T132 -10ZM257 408Q240 408 222 397T185 366T151 317T123 254Q203 268 245 303T287 380Q287 408 257 408ZM627 607L616 555H405L416 607H627Z" />
<glyph unicode="&#x114;" glyph-name="Ebreve" horiz-adv-x="518" d="M460 445H469L437 261H428L394 334H211L159 39H350L444 151H455L428 0H-1L1 11L80 55L177 607L114 651L116 662H520L498 535H487L441 625H262L217 372H402L460 445ZM339 713Q315 713 298 722T269
747T253 783T250 828L262 830Q268 804 286 786T340 768Q377 768 402 785T447 830L459 828Q448 778 417 746T339 713Z" />
<glyph unicode="&#x115;" glyph-name="ebreve" horiz-adv-x="365" d="M132 -10Q114 -10 95 -3T61 19T35 59T25 119Q25 180 46 238T103 342T183 414T275 442Q313 442 336 430T359 392Q359 378 349 354T312 305T237 256T114 221Q103 175 103 129Q103 90 118 68T156
46Q187 46 223 70T298 142L311 133Q275 62 228 26T132 -10ZM257 408Q240 408 222 397T185 366T151 317T123 254Q203 268 245 303T287 380Q287 408 257 408ZM501 523Q475 523 458 534T432 564T421 604T422 647L434 649Q439 622 454 601T502 579Q541 579 566 601T608
649L620 647Q616 622 606 600T581 560T546 533T501 523Z" />
<glyph unicode="&#x116;" glyph-name="Edotaccent" horiz-adv-x="518" d="M460 445H469L437 261H428L394 334H211L159 39H350L444 151H455L428 0H-1L1 11L80 55L177 607L114 651L116 662H520L498 535H487L441 625H262L217 372H402L460 445ZM307 773Q307 795 321
808T355 822Q375 822 389 809T403 773Q403 754 389 740T355 726Q335 726 321 740T307 773Z" />
<glyph unicode="&#x117;" glyph-name="edotaccent" horiz-adv-x="365" d="M132 -10Q114 -10 95 -3T61 19T35 59T25 119Q25 180 46 238T103 342T183 414T275 442Q313 442 336 430T359 392Q359 378 349 354T312 305T237 256T114 221Q103 175 103 129Q103 90 118
68T156 46Q187 46 223 70T298 142L311 133Q275 62 228 26T132 -10ZM257 408Q240 408 222 397T185 366T151 317T123 254Q203 268 245 303T287 380Q287 408 257 408ZM472 593Q472 615 486 628T520 642Q540 642 554 629T568 593Q568 574 554 560T520 546Q500 546 486
560T472 593Z" />
<glyph unicode="&#x118;" glyph-name="Eogonek" horiz-adv-x="518" d="M239 -261Q204 -261 185 -241T166 -193Q166 -165 182 -137T221 -83T271 -36T319 0H349Q334 -14 315 -35T280 -79T252 -127T241 -173Q241 -191 250 -201T277 -212Q299 -212 319 -203T354 -186L363
-195Q356 -204 345 -215T318 -236T283 -254T239 -261ZM460 445H469L437 261H428L394 334H211L159 39H350L444 151H455L428 0H-1L1 11L80 55L177 607L114 651L116 662H520L498 535H487L441 625H262L217 372H402L460 445Z" />
<glyph unicode="&#x119;" glyph-name="eogonek" horiz-adv-x="365" d="M43 -193Q43 -168 56 -142T91 -91T137 -43T188 2Q174 -3 160 -6T132 -10Q114 -10 95 -3T61 19T35 59T25 119Q25 180 46 238T103 342T183 414T275 442Q313 442 336 430T359 392Q359 378 349
354T312 305T237 256T114 221Q103 175 103 129Q103 90 118 68T156 46Q187 46 223 70T298 142L311 133Q297 105 276 77T236 26Q208 -8 186 -35T149 -86T126 -131T118 -173Q118 -191 127 -201T154 -212Q176 -212 196 -203T231 -186L240 -195Q233 -204 222 -215T195
-236T160 -254T116 -261Q81 -261 62 -241T43 -193ZM257 408Q240 408 222 397T185 366T151 317T123 254Q203 268 245 303T287 380Q287 408 257 408Z" />
<glyph unicode="&#x11a;" glyph-name="Ecaron" horiz-adv-x="518" d="M460 445H469L437 261H428L394 334H211L159 39H350L444 151H455L428 0H-1L1 11L80 55L177 607L114 651L116 662H520L498 535H487L441 625H262L217 372H402L460 445ZM336 709L237 829L245 838L344
782L474 838L481 827L336 709Z" />
<glyph unicode="&#x11b;" glyph-name="ecaron" horiz-adv-x="365" d="M132 -10Q114 -10 95 -3T61 19T35 59T25 119Q25 180 46 238T103 342T183 414T275 442Q313 442 336 430T359 392Q359 378 349 354T312 305T237 256T114 221Q103 175 103 129Q103 90 118 68T156
46Q187 46 223 70T298 142L311 133Q275 62 228 26T132 -10ZM257 408Q240 408 222 397T185 366T151 317T123 254Q203 268 245 303T287 380Q287 408 257 408ZM250 505H240L189 717L200 721L262 610L372 721L383 713L250 505Z" />
<glyph unicode="&#x11c;" glyph-name="Gcircumflex" horiz-adv-x="673" d="M546 17Q537 15 518 11T475 2T425 -6T377 -10Q308 -10 251 9T152 65T88 152T65 267Q65 352 96 425T179 554T302 640T449 672Q514 672 562 663T638 644L617 527H606Q576 584 538 608T449
632Q386 632 332 603T239 523T177 407T154 267Q154 213 170 169T215 94T284 46T372 29Q407 29 432 38T469 53L511 289L433 333L435 344H667L665 333L593 289L546 17V17ZM468 842L567 722L559 713L460 769L330 713L323 724L468 842Z" />
<glyph unicode="&#x11d;" glyph-name="gcircumflex" horiz-adv-x="389" d="M47 254Q47 293 62 327T103 387T159 427T221 442Q244 442 267 432H415L401 388H315Q323 377 329 362T336 327Q336 284 320 250T278 191T224 154T168 141H157Q131 121 121 109T111 92Q111
84 119 76T159 49Q196 27 226 10T282 -22Q317 -43 339 -58T373 -86T390 -109T395 -128Q395 -159 373 -183T315 -225T238 -252T157 -261Q107 -261 64 -254T-10 -233T-58 -203T-76 -164Q-76 -155 -68 -140T-39 -106T19 -63T114 -13Q82 6 64 22T45 62Q45 76 62 97T126
148Q92 160 70 188T47 254ZM144 -31Q78 -62 40 -93T1 -149Q1 -165 15 -178T52 -200T107 -214T173 -219Q212 -219 241 -212T289 -195T319 -173T329 -154Q329 -150 327 -145T316 -131T292 -113T248 -87L144 -31ZM217 408Q198 408 181 395T151 359T129 309T121 253Q121
230 126 215T138 191T154 179T169 175Q184 175 200 188T230 223T252 273T261 331Q261 376 247 392T217 408ZM520 714H530L581 502L570 498L508 609L398 498L387 506L520 714Z" />
<glyph unicode="&#x11e;" glyph-name="Gbreve" horiz-adv-x="673" d="M546 17Q537 15 518 11T475 2T425 -6T377 -10Q308 -10 251 9T152 65T88 152T65 267Q65 352 96 425T179 554T302 640T449 672Q514 672 562 663T638 644L617 527H606Q576 584 538 608T449 632Q386
632 332 603T239 523T177 407T154 267Q154 213 170 169T215 94T284 46T372 29Q407 29 432 38T469 53L511 289L433 333L435 344H667L665 333L593 289L546 17V17ZM434 713Q410 713 393 722T364 747T348 783T345 828L357 830Q363 804 381 786T435 768Q472 768 497
785T542 830L554 828Q543 778 512 746T434 713Z" />
<glyph unicode="&#x11f;" glyph-name="gbreve" horiz-adv-x="389" d="M47 254Q47 293 62 327T103 387T159 427T221 442Q244 442 267 432H415L401 388H315Q323 377 329 362T336 327Q336 284 320 250T278 191T224 154T168 141H157Q131 121 121 109T111 92Q111 84
119 76T159 49Q196 27 226 10T282 -22Q317 -43 339 -58T373 -86T390 -109T395 -128Q395 -159 373 -183T315 -225T238 -252T157 -261Q107 -261 64 -254T-10 -233T-58 -203T-76 -164Q-76 -155 -68 -140T-39 -106T19 -63T114 -13Q82 6 64 22T45 62Q45 76 62 97T126
148Q92 160 70 188T47 254ZM144 -31Q78 -62 40 -93T1 -149Q1 -165 15 -178T52 -200T107 -214T173 -219Q212 -219 241 -212T289 -195T319 -173T329 -154Q329 -150 327 -145T316 -131T292 -113T248 -87L144 -31ZM217 408Q198 408 181 395T151 359T129 309T121 253Q121
230 126 215T138 191T154 179T169 175Q184 175 200 188T230 223T252 273T261 331Q261 376 247 392T217 408ZM492 523Q466 523 449 534T423 564T412 604T413 647L425 649Q430 622 445 601T493 579Q532 579 557 601T599 649L611 647Q607 622 597 600T572 560T537
533T492 523Z" />
<glyph unicode="&#x120;" glyph-name="Gdotaccent" horiz-adv-x="673" d="M546 17Q537 15 518 11T475 2T425 -6T377 -10Q308 -10 251 9T152 65T88 152T65 267Q65 352 96 425T179 554T302 640T449 672Q514 672 562 663T638 644L617 527H606Q576 584 538 608T449
632Q386 632 332 603T239 523T177 407T154 267Q154 213 170 169T215 94T284 46T372 29Q407 29 432 38T469 53L511 289L433 333L435 344H667L665 333L593 289L546 17V17ZM401 773Q401 795 415 808T449 822Q469 822 483 809T497 773Q497 754 483 740T449 726Q429
726 415 740T401 773Z" />
<glyph unicode="&#x121;" glyph-name="gdotaccent" horiz-adv-x="389" d="M47 254Q47 293 62 327T103 387T159 427T221 442Q244 442 267 432H415L401 388H315Q323 377 329 362T336 327Q336 284 320 250T278 191T224 154T168 141H157Q131 121 121 109T111 92Q111
84 119 76T159 49Q196 27 226 10T282 -22Q317 -43 339 -58T373 -86T390 -109T395 -128Q395 -159 373 -183T315 -225T238 -252T157 -261Q107 -261 64 -254T-10 -233T-58 -203T-76 -164Q-76 -155 -68 -140T-39 -106T19 -63T114 -13Q82 6 64 22T45 62Q45 76 62 97T126
148Q92 160 70 188T47 254ZM144 -31Q78 -62 40 -93T1 -149Q1 -165 15 -178T52 -200T107 -214T173 -219Q212 -219 241 -212T289 -195T319 -173T329 -154Q329 -150 327 -145T316 -131T292 -113T248 -87L144 -31ZM217 408Q198 408 181 395T151 359T129 309T121 253Q121
230 126 215T138 191T154 179T169 175Q184 175 200 188T230 223T252 273T261 331Q261 376 247 392T217 408ZM455 593Q455 615 469 628T503 642Q523 642 537 629T551 593Q551 574 537 560T503 546Q483 546 469 560T455 593Z" />
<glyph unicode="&#x122;" glyph-name="Gcommaaccent" horiz-adv-x="673" d="M546 17Q537 15 518 11T475 2T425 -6T377 -10Q308 -10 251 9T152 65T88 152T65 267Q65 352 96 425T179 554T302 640T449 672Q514 672 562 663T638 644L617 527H606Q576 584 538 608T449
632Q386 632 332 603T239 523T177 407T154 267Q154 213 170 169T215 94T284 46T372 29Q407 29 432 38T469 53L511 289L433 333L435 344H667L665 333L593 289L546 17V17ZM355 -132Q355 -155 344 -177T314 -220T273 -259T227 -291L213 -277Q225 -265 237 -251T262
-221T284 -190T302 -160Q301 -161 299 -161H293Q276 -161 264 -150T252 -119Q252 -99 266 -87T301 -74Q323 -74 339 -88T355 -132Z" />
<glyph unicode="&#x123;" glyph-name="gcommaaccent" horiz-adv-x="389" d="M47 254Q47 293 62 327T103 387T159 427T221 442Q244 442 267 432H415L401 388H315Q323 377 329 362T336 327Q336 284 320 250T278 191T224 154T168 141H157Q131 121 121 109T111 92Q111
84 119 76T159 49Q196 27 226 10T282 -22Q317 -43 339 -58T373 -86T390 -109T395 -128Q395 -159 373 -183T315 -225T238 -252T157 -261Q107 -261 64 -254T-10 -233T-58 -203T-76 -164Q-76 -155 -68 -140T-39 -106T19 -63T114 -13Q82 6 64 22T45 62Q45 76 62 97T126
148Q92 160 70 188T47 254ZM144 -31Q78 -62 40 -93T1 -149Q1 -165 15 -178T52 -200T107 -214T173 -219Q212 -219 241 -212T289 -195T319 -173T329 -154Q329 -150 327 -145T316 -131T292 -113T248 -87L144 -31ZM217 408Q198 408 181 395T151 359T129 309T121 253Q121
230 126 215T138 191T154 179T169 175Q184 175 200 188T230 223T252 273T261 331Q261 376 247 392T217 408ZM444 554Q444 577 455 599T485 642T526 681T572 713L586 699Q574 687 562 673T537 643T515 612T497 582H500Q502 582 503 582T506 583Q523 583 535 572T547
541Q547 521 533 509T498 496Q476 496 460 510T444 554Z" />
<glyph unicode="&#x124;" glyph-name="Hcircumflex" horiz-adv-x="719" d="M543 317H209L163 55L225 11L223 0H0L2 11L81 55L178 607L115 651L117 662H340L338 651L260 607L216 358H550L594 607L531 651L533 662H757L755 651L676 607L579 55L641 11L639 0H416L418
11L497 55L543 317ZM467 842L566 722L558 713L459 769L329 713L322 724L467 842Z" />
<glyph unicode="&#x125;" glyph-name="hcircumflex" horiz-adv-x="464" d="M87 674V685Q98 688 118 693T161 703T207 714T250 725L155 284Q184 317 213 346T271 396T323 429T368 441Q394 441 405 426T417 387Q417 381 416 371T412 353Q410 342 406 323T393 271T373
187T344 59L413 30L412 18Q399 15 380 12T338 5T295 -2T257 -8Q295 168 316 261T338 362Q338 372 330 372Q321 372 302 362T259 333T204 287T143 227L95 0H21L158 641L87 674ZM331 882L430 762L422 753L323 809L193 753L186 764L331 882Z" />
<glyph unicode="&#x126;" glyph-name="Hbar" horiz-adv-x="719" d="M75 472L82 510H738L731 472H75ZM543 317H209L163 55L225 11L223 0H0L2 11L81 55L178 607L115 651L117 662H340L338 651L260 607L216 358H550L594 607L531 651L533 662H757L755 651L676 607L579
55L641 11L639 0H416L418 11L497 55L543 317Z" />
<glyph unicode="&#x127;" glyph-name="hbar" horiz-adv-x="464" d="M55 533L64 568H344L335 533H55ZM87 674V685Q98 688 118 693T161 703T207 714T250 725L155 284Q184 317 213 346T271 396T323 429T368 441Q394 441 405 426T417 387Q417 381 416 371T412 353Q410
342 406 323T393 271T373 187T344 59L413 30L412 18Q399 15 380 12T338 5T295 -2T257 -8Q295 168 316 261T338 362Q338 372 330 372Q321 372 302 362T259 333T204 287T143 227L95 0H21L158 641L87 674Z" />
<glyph unicode="&#x128;" glyph-name="Itilde" horiz-adv-x="302" d="M225 11L223 0H0L2 11L81 55L178 607L115 651L117 662H340L338 651L260 607L163 55L225 11ZM456 802Q464 802 479 798T512 790T546 782T571 778Q578 778 587 783T606 796T624 813T638 828L648
822Q640 804 631 787T610 757T587 736T564 728Q553 728 537 731T503 739T471 748T449 752Q442 752 433 747T414 733T396 716T381 700L370 705Q377 721 387 738T409 770T433 793T456 802Z" />
<glyph unicode="&#x129;" glyph-name="itilde" horiz-adv-x="244" d="M111 363L45 391V402Q56 405 74 410T113 422T156 434T197 445L124 59L194 29V18Q181 15 162 12T122 5T79 -2T40 -8L111 363ZM395 628Q403 628 416 624T445 615T474 606T496 602Q509 602 527
619T561 654L570 650Q564 631 555 612T535 578T512 554T489 545Q479 545 465 549T436 557T408 566T388 570Q374 570 356 553T320 519L311 523Q317 541 326 559T347 593T371 618T395 628Z" />
<glyph unicode="&#x12a;" glyph-name="Imacron" horiz-adv-x="302" d="M225 11L223 0H0L2 11L81 55L178 607L115 651L117 662H340L338 651L260 607L163 55L225 11ZM627 795L617 742H380L390 795H627Z" />
<glyph unicode="&#x12b;" glyph-name="imacron" horiz-adv-x="244" d="M111 363L45 391V402Q56 405 74 410T113 422T156 434T197 445L124 59L194 29V18Q181 15 162 12T122 5T79 -2T40 -8L111 363ZM538 607L527 555H316L327 607H538Z" />
<glyph unicode="&#x12c;" glyph-name="Ibreve" horiz-adv-x="302" d="M225 11L223 0H0L2 11L81 55L178 607L115 651L117 662H340L338 651L260 607L163 55L225 11ZM492 713Q468 713 451 722T422 747T406 783T403 828L415 830Q421 804 439 786T493 768Q530 768 555
785T600 830L612 828Q601 778 570 746T492 713Z" />
<glyph unicode="&#x12d;" glyph-name="ibreve" horiz-adv-x="244" d="M111 363L45 391V402Q56 405 74 410T113 422T156 434T197 445L124 59L194 29V18Q181 15 162 12T122 5T79 -2T40 -8L111 363ZM426 523Q400 523 383 534T357 564T346 604T347 647L359 649Q364
622 379 601T427 579Q466 579 491 601T533 649L545 647Q541 622 531 600T506 560T471 533T426 523Z" />
<glyph unicode="&#x12e;" glyph-name="Iogonek" horiz-adv-x="302" d="M73 -261Q38 -261 19 -241T0 -193Q0 -167 14 -140T48 -86T91 -38T129 0H159Q148 -14 134 -35T106 -79T84 -127T75 -173Q75 -191 84 -201T111 -212Q133 -212 153 -203T188 -186L197 -195Q190
-204 179 -215T152 -236T117 -254T73 -261ZM225 11L223 0H0L2 11L81 55L178 607L115 651L117 662H340L338 651L260 607L163 55L225 11Z" />
<glyph unicode="&#x12f;" glyph-name="iogonek" horiz-adv-x="244" d="M132 592Q132 614 146 627T180 641Q200 641 214 628T228 592Q228 573 214 559T180 545Q161 545 147 559T132 592ZM-28 -261Q-63 -261 -82 -241T-101 -193Q-101 -165 -87 -137T-51 -83T-5 -36T41
0L111 363L45 391V402Q56 405 74 410T113 422T156 434T197 445L124 59L194 29V18Q173 13 137 7T68 -4Q53 -19 37 -39T6 -83T-17 -129T-26 -173Q-26 -191 -17 -201T10 -212Q32 -212 52 -203T87 -186L96 -195Q89 -204 78 -215T51 -236T16 -254T-28 -261Z" />
<glyph unicode="&#x130;" glyph-name="Idotaccent" horiz-adv-x="302" d="M225 11L223 0H0L2 11L81 55L178 607L115 651L117 662H340L338 651L260 607L163 55L225 11ZM446 773Q446 795 460 808T494 822Q514 822 528 809T542 773Q542 754 528 740T494 726Q474 726
460 740T446 773Z" />
<glyph unicode="&#x131;" glyph-name="dotlessi" horiz-adv-x="244" d="M111 363L45 391V402Q56 405 74 410T113 422T156 434T197 445L124 59L194 29V18Q181 15 162 12T122 5T79 -2T40 -8L111 363Z" />
<glyph unicode="&#x132;" glyph-name="IJ" horiz-adv-x="606" d="M225 11L223 0H0L2 11L81 55L178 607L115 651L117 662H340L338 651L260 607L163 55L225 11ZM473 94Q467 62 452 23T413 -57T354 -141T276 -220L261 -208Q284 -175 304 -138T343 -56T375 39T401
152L481 607L418 651L420 662H643L641 651L563 607L473 94Z" />
<glyph unicode="&#x133;" glyph-name="ij" horiz-adv-x="472" d="M132 593Q132 615 146 628T180 642Q200 642 214 629T228 593Q228 574 214 560T180 546Q160 546 146 560T132 593ZM111 363L45 391V402Q56 405 74 410T113 422T156 434T197 445L124 59L194 29V18Q181
15 162 12T122 5T79 -2T40 -8L111 363ZM375 593Q375 615 389 628T423 642Q443 642 457 629T471 593Q471 574 457 560T423 546Q403 546 389 560T375 593ZM365 41Q358 5 341 -33T301 -108T251 -181T196 -246L185 -239Q192 -226 206 -200T236 -135T270 -43T300 77L355
363L289 391V402Q298 405 316 410T357 422T401 435T441 445L365 41Z" />
<glyph unicode="&#x134;" glyph-name="Jcircumflex" horiz-adv-x="304" d="M171 94Q165 62 150 23T111 -57T52 -141T-26 -220L-41 -208Q-18 -175 2 -138T41 -56T73 39T99 152L179 607L116 651L118 662H341L339 651L261 607L171 94ZM512 842L611 722L603 713L504
769L374 713L367 724L512 842Z" />
<glyph unicode="&#x135;" glyph-name="jcircumflex" horiz-adv-x="228" d="M121 41Q114 5 97 -33T57 -108T7 -181T-48 -246L-59 -239Q-52 -226 -38 -200T-8 -135T26 -43T56 77L111 363L45 391V402Q54 405 72 410T113 422T157 435T197 445L121 41ZM449 714H459L510
502L499 498L437 609L327 498L316 506L449 714Z" />
<glyph unicode="&#x136;" glyph-name="Kcommaaccent" horiz-adv-x="619" d="M163 55L225 11L223 0H0L2 11L81 55L178 607L115 651L117 662H340L338 651L260 607L163 55ZM334 0L336 11L413 54L260 335H223L495 607L439 651L441 662H652L650 651L555 607L325 383L502
54L572 11L570 0H334ZM328 -132Q328 -155 317 -177T287 -220T246 -259T200 -291L186 -277Q198 -265 210 -251T235 -221T257 -190T275 -160Q274 -161 272 -161H266Q249 -161 237 -150T225 -119Q225 -99 239 -87T274 -74Q296 -74 312 -88T328 -132Z" />
<glyph unicode="&#x137;" glyph-name="kcommaaccent" horiz-adv-x="411" d="M156 641L85 673V684Q96 687 114 692T155 703T201 714T244 725L96 0H24L156 641ZM158 213Q204 254 232 282T275 330T295 362T300 382Q300 392 295 399T285 409V418L370 444Q374 439 379
427T385 402Q385 387 376 371T347 336T297 291T224 234Q267 160 295 117T341 50T367 16T382 0L378 -11Q339 -8 318 -3T277 23T231 87T157 208L158 213ZM225 -132Q225 -155 214 -177T184 -220T143 -259T97 -291L83 -277Q95 -265 107 -251T132 -221T154 -190T172
-160Q171 -161 169 -161H163Q146 -161 134 -150T122 -119Q122 -99 136 -87T171 -74Q193 -74 209 -88T225 -132Z" />
<glyph unicode="&#x139;" glyph-name="Lacute" horiz-adv-x="526" d="M186 607L123 651L125 662H348L346 651L268 607L168 38H362L471 170H482L451 0H8L10 11L89 55L186 607ZM414 713L408 725L613 849L641 786L414 713Z" />
<glyph unicode="&#x13a;" glyph-name="lacute" horiz-adv-x="230" d="M157 642L86 674V685Q97 688 116 693T157 704T203 715T247 726L110 60L181 29V18Q168 15 149 12T107 6T63 -1T24 -7L157 642ZM354 743L348 755L553 879L581 816L354 743Z" />
<glyph unicode="&#x13b;" glyph-name="Lcommaaccent" horiz-adv-x="526" d="M186 607L123 651L125 662H348L346 651L268 607L168 38H362L471 170H482L451 0H8L10 11L89 55L186 607ZM293 -132Q293 -155 282 -177T252 -220T211 -259T165 -291L151 -277Q163 -265
175 -251T200 -221T222 -190T240 -160Q239 -161 237 -161H231Q214 -161 202 -150T190 -119Q190 -99 204 -87T239 -74Q261 -74 277 -88T293 -132Z" />
<glyph unicode="&#x13c;" glyph-name="lcommaaccent" horiz-adv-x="230" d="M157 641L86 673V684Q97 687 116 692T157 703T203 714T247 725L110 59L181 28V17Q168 14 149 11T107 5T63 -2T24 -8L157 641ZM369 -132Q369 -155 358 -177T328 -220T287 -259T241 -291L227
-277Q239 -265 251 -251T276 -221T298 -190T316 -160Q315 -161 313 -161H307Q290 -161 278 -150T266 -119Q266 -99 280 -87T315 -74Q337 -74 353 -88T369 -132Z" />
<glyph unicode="&#x13d;" glyph-name="Lcaron" horiz-adv-x="526" d="M186 607L123 651L125 662H348L346 651L268 607L168 38H362L471 170H482L451 0H8L10 11L89 55L186 607ZM354 505L415 715H485L366 505H354Z" />
<glyph unicode="&#x13e;" glyph-name="lcaron" horiz-adv-x="230" d="M157 641L86 673V684Q97 687 116 692T157 703T203 714T247 725L110 59L181 28V17Q168 14 149 11T107 5T63 -2T24 -8L157 641ZM257 505L318 715H388L269 505H257Z" />
<glyph unicode="&#x13f;" glyph-name="Ldot" horiz-adv-x="526" d="M529 360Q529 338 514 323T476 308Q453 308 438 323T423 360Q423 383 438 398T476 413Q499 413 514 398T529 360ZM186 607L123 651L125 662H348L346 651L268 607L168 38H362L471 170H482L451
0H8L10 11L89 55L186 607Z" />
<glyph unicode="&#x140;" glyph-name="ldot" horiz-adv-x="353" d="M362 338Q362 316 347 301T309 286Q286 286 271 301T256 338Q256 361 271 376T309 391Q332 391 347 376T362 338ZM157 641L86 673V684Q97 687 116 692T157 703T203 714T247 725L110 59L181 28V17Q168
14 149 11T107 5T63 -2T24 -8L157 641Z" />
<glyph unicode="&#x141;" glyph-name="Lslash" horiz-adv-x="526" d="M186 607L123 651L125 662H348L346 651L268 607L217 320L423 435L415 388L209 273L168 38H362L471 170H482L451 0H8L10 11L89 55L118 222L26 171L34 217L126 269L186 607Z" />
<glyph unicode="&#x142;" glyph-name="lslash" horiz-adv-x="242" d="M162 641L91 673V684Q102 687 121 692T162 703T208 714T252 725L182 387L262 435L253 388L173 341L115 59L186 28V17Q173 14 154 11T112 4L68 -2Q46 -6 29 -8L90 293L14 248L22 292L100 338L162 641Z" />
<glyph unicode="&#x143;" glyph-name="Nacute" horiz-adv-x="713" d="M191 11L188 0H0L2 11L81 55L172 580Q154 607 140 624T115 653V662H222L545 134L627 607L564 651L566 662H755L753 651L676 607L571 0H537L211 521L130 55L191 11ZM350 713L344 725L549 849L577
786L350 713Z" />
<glyph unicode="&#x144;" glyph-name="nacute" horiz-adv-x="475" d="M34 0L109 363L45 392V403Q55 406 73 411T114 423T158 434T200 445L165 282Q194 316 224 345T281 395T334 429T379 441Q405 441 416 426T428 389Q428 381 427 371T423 353L357 59L426 30L425
18Q412 15 393 12T351 5T308 -2T270 -8Q308 168 328 261T349 362Q349 372 341 372Q332 372 313 362T270 332T215 286T153 225L106 0H34ZM253 505L242 513L371 719L429 671L253 505Z" />
<glyph unicode="&#x145;" glyph-name="Ncommaaccent" horiz-adv-x="713" d="M191 11L188 0H0L2 11L81 55L172 580Q154 607 140 624T115 653V662H222L545 134L627 607L564 651L566 662H755L753 651L676 607L571 0H537L211 521L130 55L191 11ZM355 -132Q355 -155
344 -177T314 -220T273 -259T227 -291L213 -277Q225 -265 237 -251T262 -221T284 -190T302 -160Q301 -161 299 -161H293Q276 -161 264 -150T252 -119Q252 -99 266 -87T301 -74Q323 -74 339 -88T355 -132Z" />
<glyph unicode="&#x146;" glyph-name="ncommaaccent" horiz-adv-x="475" d="M34 0L109 363L45 392V403Q55 406 73 411T114 423T158 434T200 445L165 282Q194 316 224 345T281 395T334 429T379 441Q405 441 416 426T428 389Q428 381 427 371T423 353L357 59L426
30L425 18Q412 15 393 12T351 5T308 -2T270 -8Q308 168 328 261T349 362Q349 372 341 372Q332 372 313 362T270 332T215 286T153 225L106 0H34ZM219 -132Q219 -155 208 -177T178 -220T137 -259T91 -291L77 -277Q89 -265 101 -251T126 -221T148 -190T166 -160Q165
-161 163 -161H157Q140 -161 128 -150T116 -119Q116 -99 130 -87T165 -74Q187 -74 203 -88T219 -132Z" />
<glyph unicode="&#x147;" glyph-name="Ncaron" horiz-adv-x="713" d="M191 11L188 0H0L2 11L81 55L172 580Q154 607 140 624T115 653V662H222L545 134L627 607L564 651L566 662H755L753 651L676 607L571 0H537L211 521L130 55L191 11ZM428 709L329 829L337 838L436
782L566 838L573 827L428 709Z" />
<glyph unicode="&#x148;" glyph-name="ncaron" horiz-adv-x="475" d="M34 0L109 363L45 392V403Q55 406 73 411T114 423T158 434T200 445L165 282Q194 316 224 345T281 395T334 429T379 441Q405 441 416 426T428 389Q428 381 427 371T423 353L357 59L426 30L425
18Q412 15 393 12T351 5T308 -2T270 -8Q308 168 328 261T349 362Q349 372 341 372Q332 372 313 362T270 332T215 286T153 225L106 0H34ZM291 505H281L230 717L241 721L303 610L413 721L424 713L291 505Z" />
<glyph unicode="&#x149;" glyph-name="napostrophe" horiz-adv-x="530" d="M89 0L164 363L100 392V403Q110 406 128 411T169 423T213 434T255 445L220 282Q249 316 279 345T336 395T389 429T434 441Q460 441 471 426T483 389Q483 381 482 371T478 353L412 59L481
30L480 18Q467 15 448 12T406 5T363 -2T325 -8Q363 168 383 261T404 362Q404 372 396 372Q387 372 368 362T325 332T270 286T208 225L161 0H89ZM362 611Q342 611 328 623T314 656Q314 677 328 691T366 705Q394 705 410 686T427 637Q427 608 416 580T384 526T338
480T281 448L271 459Q314 494 340 535T373 612Q372 611 370 611H362V611Z" />
<glyph unicode="&#x14a;" glyph-name="Eng" horiz-adv-x="713" d="M191 11L188 0H0L2 11L81 55L172 580Q154 607 140 624T115 653V662H222L487 230Q503 204 512 186T528 156T537 135T542 120L627 607L564 651L566 662H755L753 651L676 607L582 70Q577 40 565 4T534
-70T486 -147T418 -222L404 -209Q447 -146 470 -92T493 1Q493 40 478 80T425 180L211 521L130 55L191 11Z" />
<glyph unicode="&#x14b;" glyph-name="eng" horiz-adv-x="464" d="M34 0L109 363L45 392V403Q55 406 73 411T114 423T158 434T200 445L165 282Q194 316 224 345T281 395T334 429T379 441Q405 441 416 426T428 389Q428 381 427 371T423 353L352 36Q344 0 327 -37T288
-111T238 -182T184 -246L173 -239Q180 -225 193 -200T223 -137T255 -48T287 70Q303 146 315 199T334 288T345 340T349 362Q349 372 341 372Q332 372 313 362T270 332T215 286T153 225L106 0H34Z" />
<glyph unicode="&#x14c;" glyph-name="Omacron" horiz-adv-x="692" d="M67 262Q67 345 95 419T172 550T284 639T416 672Q471 672 518 653T598 598T651 513T670 406Q670 319 642 244T565 112T453 23T321 -10Q267 -10 221 9T141 63T87 149T67 262ZM416 632Q363 632
316 602T233 520T176 402T155 262Q155 208 168 165T204 92T257 46T321 30Q373 30 420 60T504 141T561 261T582 407Q582 462 569 504T532 574T479 617T416 632ZM563 795L553 742H316L326 795H563Z" />
<glyph unicode="&#x14d;" glyph-name="omacron" horiz-adv-x="429" d="M177 -10Q145 -10 118 2T72 37T41 91T30 158Q30 217 49 268T100 358T172 419T254 442Q284 442 311 429T357 394T388 342T400 277Q400 214 380 161T327 70T256 11T177 -10ZM181 29Q205 29 230
48T275 102T307 183T320 284Q320 338 302 370T252 403Q227 403 202 383T156 329T123 248T110 150Q110 91 129 60T181 29ZM389 607L378 555H167L178 607H389Z" />
<glyph unicode="&#x14e;" glyph-name="Obreve" horiz-adv-x="692" d="M67 262Q67 345 95 419T172 550T284 639T416 672Q471 672 518 653T598 598T651 513T670 406Q670 319 642 244T565 112T453 23T321 -10Q267 -10 221 9T141 63T87 149T67 262ZM416 632Q363 632
316 602T233 520T176 402T155 262Q155 208 168 165T204 92T257 46T321 30Q373 30 420 60T504 141T561 261T582 407Q582 462 569 504T532 574T479 617T416 632ZM435 713Q411 713 394 722T365 747T349 783T346 828L358 830Q364 804 382 786T436 768Q473 768 498 785T543
830L555 828Q544 778 513 746T435 713Z" />
<glyph unicode="&#x14f;" glyph-name="obreve" horiz-adv-x="429" d="M177 -10Q145 -10 118 2T72 37T41 91T30 158Q30 217 49 268T100 358T172 419T254 442Q284 442 311 429T357 394T388 342T400 277Q400 214 380 161T327 70T256 11T177 -10ZM181 29Q205 29 230
48T275 102T307 183T320 284Q320 338 302 370T252 403Q227 403 202 383T156 329T123 248T110 150Q110 91 129 60T181 29ZM266 523Q240 523 223 534T197 564T186 604T187 647L199 649Q204 622 219 601T267 579Q306 579 331 601T373 649L385 647Q381 622 371 600T346
560T311 533T266 523Z" />
<glyph unicode="&#x150;" glyph-name="Ohungarumlaut" horiz-adv-x="692" d="M67 262Q67 345 95 419T172 550T284 639T416 672Q471 672 518 653T598 598T651 513T670 406Q670 319 642 244T565 112T453 23T321 -10Q267 -10 221 9T141 63T87 149T67 262ZM416 632Q363
632 316 602T233 520T176 402T155 262Q155 208 168 165T204 92T257 46T321 30Q373 30 420 60T504 141T561 261T582 407Q582 462 569 504T532 574T479 617T416 632ZM472 703L464 714L619 849L653 797L472 703ZM304 703L296 714L451 849L485 797L304 703Z" />
<glyph unicode="&#x151;" glyph-name="ohungarumlaut" horiz-adv-x="429" d="M177 -10Q145 -10 118 2T72 37T41 91T30 158Q30 217 49 268T100 358T172 419T254 442Q284 442 311 429T357 394T388 342T400 277Q400 214 380 161T327 70T256 11T177 -10ZM181 29Q205
29 230 48T275 102T307 183T320 284Q320 338 302 370T252 403Q227 403 202 383T156 329T123 248T110 150Q110 91 129 60T181 29ZM318 508L306 514L392 721L449 687L318 508ZM187 508L175 514L261 721L318 687L187 508Z" />
<glyph unicode="&#x152;" glyph-name="OE" horiz-adv-x="820" d="M335 0Q274 0 224 19T139 73T85 156T65 262Q65 338 93 410T172 538T293 628T449 662H826L804 535H793L747 625H579L534 372H709L766 445H775L743 261H734L701 334H528L476 39H656L750 151H761L734
0H335ZM448 625Q381 625 327 595T233 514T173 398T151 262Q151 210 164 169T201 99T260 55T336 39H394L497 625H448Z" />
<glyph unicode="&#x153;" glyph-name="oe" horiz-adv-x="649" d="M415 -10Q387 -10 360 7T319 64Q288 29 251 10T177 -10Q145 -10 118 2T72 37T41 91T30 158Q30 213 49 264T100 355T173 418T256 442Q302 442 336 413T384 338Q419 385 464 413T558 442Q596 442
619 430T642 392Q642 378 632 354T595 305T520 256T397 221Q386 175 386 129Q386 90 401 68T439 46Q470 46 506 70T581 142L594 133Q558 62 511 26T415 -10ZM181 29Q205 29 230 48T275 102T307 183T320 284Q320 338 303 370T254 403Q228 403 203 380T157 321T123
240T110 150Q110 91 129 60T181 29ZM570 380Q570 408 540 408Q523 408 505 397T468 366T434 317T406 254Q486 268 528 303T570 380Z" />
<glyph unicode="&#x154;" glyph-name="Racute" horiz-adv-x="562" d="M332 662Q364 662 395 653T451 626T491 582T506 520Q506 487 494 459T462 408T418 369T371 344L429 176Q446 128 461 97T491 45T518 14T540 -5L537 -16Q489 -15 460 -4T411 27T379 79T351 154Q334
201 319 247T293 328H211L163 55L225 11L223 0H0L2 11L81 55L178 607L115 651L117 662H332ZM263 625L217 365H338Q347 365 362 377T390 411T414 458T424 513Q424 542 415 563T391 598T358 618T321 625H263ZM245 713L239 725L444 849L472 786L245 713Z" />
<glyph unicode="&#x155;" glyph-name="racute" horiz-adv-x="342" d="M34 0L109 362L43 391V402Q54 405 73 410T113 422T157 434T199 444L162 268Q209 349 243 395T295 441Q309 441 328 435T355 423L321 337Q314 341 300 347T274 353Q260 353 230 319T148 203L105
0H34ZM201 505L190 513L319 719L377 671L201 505Z" />
<glyph unicode="&#x156;" glyph-name="Rcommaaccent" horiz-adv-x="562" d="M332 662Q364 662 395 653T451 626T491 582T506 520Q506 487 494 459T462 408T418 369T371 344L429 176Q446 128 461 97T491 45T518 14T540 -5L537 -16Q489 -15 460 -4T411 27T379 79T351
154Q334 201 319 247T293 328H211L163 55L225 11L223 0H0L2 11L81 55L178 607L115 651L117 662H332ZM263 625L217 365H338Q347 365 362 377T390 411T414 458T424 513Q424 542 415 563T391 598T358 618T321 625H263ZM319 -132Q319 -155 308 -177T278 -220T237 -259T191
-291L177 -277Q189 -265 201 -251T226 -221T248 -190T266 -160Q265 -161 263 -161H257Q240 -161 228 -150T216 -119Q216 -99 230 -87T265 -74Q287 -74 303 -88T319 -132Z" />
<glyph unicode="&#x157;" glyph-name="rcommaaccent" horiz-adv-x="342" d="M34 0L109 362L43 391V402Q54 405 73 410T113 422T157 434T199 444L162 268Q209 349 243 395T295 441Q309 441 328 435T355 423L321 337Q314 341 300 347T274 353Q260 353 230 319T148
203L105 0H34ZM359 -132Q359 -155 348 -177T318 -220T277 -259T231 -291L217 -277Q229 -265 241 -251T266 -221T288 -190T306 -160Q305 -161 303 -161H297Q280 -161 268 -150T256 -119Q256 -99 270 -87T305 -74Q327 -74 343 -88T359 -132Z" />
<glyph unicode="&#x158;" glyph-name="Rcaron" horiz-adv-x="562" d="M332 662Q364 662 395 653T451 626T491 582T506 520Q506 487 494 459T462 408T418 369T371 344L429 176Q446 128 461 97T491 45T518 14T540 -5L537 -16Q489 -15 460 -4T411 27T379 79T351 154Q334
201 319 247T293 328H211L163 55L225 11L223 0H0L2 11L81 55L178 607L115 651L117 662H332ZM263 625L217 365H338Q347 365 362 377T390 411T414 458T424 513Q424 542 415 563T391 598T358 618T321 625H263ZM323 709L224 829L232 838L331 782L461 838L468 827L323
709Z" />
<glyph unicode="&#x159;" glyph-name="rcaron" horiz-adv-x="342" d="M34 0L109 362L43 391V402Q54 405 73 410T113 422T157 434T199 444L162 268Q209 349 243 395T295 441Q309 441 328 435T355 423L321 337Q314 341 300 347T274 353Q260 353 230 319T148 203L105
0H34ZM244 505H234L183 717L194 721L256 610L366 721L377 713L244 505Z" />
<glyph unicode="&#x15a;" glyph-name="Sacute" horiz-adv-x="453" d="M291 672Q342 672 380 661T438 642L418 535H407Q384 590 354 612T287 634Q245 634 223 610T200 554Q200 532 206 513T225 473T254 430T291 379Q315 346 335 318T369 265T391 213T399 159Q399
120 384 89T342 36T281 2T209 -10Q145 -10 104 6T37 39Q37 52 39 75T44 122T50 170T57 208H68Q73 158 87 125T120 71T163 41T209 32Q234 32 254 40T290 62T313 94T321 132Q321 157 315 178T296 221T266 267T226 321Q204 351 186 376T154 426T133 475T125 528Q125
559 137 585T172 631T224 661T291 672ZM204 713L198 725L403 849L431 786L204 713Z" />
<glyph unicode="&#x15b;" glyph-name="sacute" horiz-adv-x="303" d="M192 443Q220 443 246 436T286 424L267 344H258Q241 373 222 391T180 409Q159 409 147 397T135 367Q135 359 138 346T155 307Q164 289 172 275T189 246T207 218T226 185Q240 159 246 137T252
98Q252 79 243 60T218 26T177 0T123 -10Q107 -10 91 -7T59 0T30 10T10 19Q13 48 17 82T27 146H37Q53 79 77 54T132 28Q155 28 170 42T186 75Q186 86 183 101T162 148Q143 183 126 209T93 266Q71 309 71 341Q71 360 79 378T103 411T141 434T192 443ZM423 505L412
513L541 719L599 671L423 505Z" />
<glyph unicode="&#x15c;" glyph-name="Scircumflex" horiz-adv-x="453" d="M291 672Q342 672 380 661T438 642L418 535H407Q384 590 354 612T287 634Q245 634 223 610T200 554Q200 532 206 513T225 473T254 430T291 379Q315 346 335 318T369 265T391 213T399 159Q399
120 384 89T342 36T281 2T209 -10Q145 -10 104 6T37 39Q37 52 39 75T44 122T50 170T57 208H68Q73 158 87 125T120 71T163 41T209 32Q234 32 254 40T290 62T313 94T321 132Q321 157 315 178T296 221T266 267T226 321Q204 351 186 376T154 426T133 475T125 528Q125
559 137 585T172 631T224 661T291 672ZM325 842L424 722L416 713L317 769L187 713L180 724L325 842Z" />
<glyph unicode="&#x15d;" glyph-name="scircumflex" horiz-adv-x="303" d="M192 443Q220 443 246 436T286 424L267 344H258Q241 373 222 391T180 409Q159 409 147 397T135 367Q135 359 138 346T155 307Q164 289 172 275T189 246T207 218T226 185Q240 159 246 137T252
98Q252 79 243 60T218 26T177 0T123 -10Q107 -10 91 -7T59 0T30 10T10 19Q13 48 17 82T27 146H37Q53 79 77 54T132 28Q155 28 170 42T186 75Q186 86 183 101T162 148Q143 183 126 209T93 266Q71 309 71 341Q71 360 79 378T103 411T141 434T192 443ZM491 714H501L552
502L541 498L479 609L369 498L358 506L491 714Z" />
<glyph unicode="&#x15e;" glyph-name="Scedilla" horiz-adv-x="453" d="M291 672Q342 672 380 661T438 642L418 535H407Q384 590 354 612T287 634Q245 634 223 610T200 554Q200 532 206 513T225 473T254 430T291 379Q315 346 335 318T369 265T391 213T399 159Q399
120 384 89T342 36T281 2T209 -10Q145 -10 104 6T37 39Q37 52 39 75T44 122T50 170T57 208H68Q73 158 87 125T120 71T163 41T209 32Q234 32 254 40T290 62T313 94T321 132Q321 157 315 178T296 221T266 267T226 321Q204 351 186 376T154 426T133 475T125 528Q125
559 137 585T172 631T224 661T291 672ZM222 0L175 -71Q197 -82 214 -102T232 -149Q232 -191 186 -225T57 -281L50 -267Q65 -258 84 -246T121 -220T151 -191T163 -161Q163 -141 148 -131T119 -115L118 -112Q138 -82 154 -57Q168 -36 179 -19T190 0H222Z" />
<glyph unicode="&#x15f;" glyph-name="scedilla" horiz-adv-x="303" d="M192 443Q220 443 246 436T286 424L267 344H258Q241 373 222 391T180 409Q159 409 147 397T135 367Q135 359 138 346T155 307Q164 289 172 275T189 246T207 218T226 185Q240 159 246 137T252
98Q252 79 243 60T218 26T177 0T123 -10Q107 -10 91 -7T59 0T30 10T10 19Q13 48 17 82T27 146H37Q53 79 77 54T132 28Q155 28 170 42T186 75Q186 86 183 101T162 148Q143 183 126 209T93 266Q71 309 71 341Q71 360 79 378T103 411T141 434T192 443ZM394 0L347 -71Q369
-82 386 -102T404 -149Q404 -191 358 -225T229 -281L222 -267Q237 -258 256 -246T293 -220T323 -191T335 -161Q335 -141 320 -131T291 -115L290 -112Q310 -82 326 -57Q340 -36 351 -19T362 0H394Z" />
<glyph unicode="&#x160;" glyph-name="Scaron" horiz-adv-x="453" d="M291 672Q342 672 380 661T438 642L418 535H407Q384 590 354 612T287 634Q245 634 223 610T200 554Q200 532 206 513T225 473T254 430T291 379Q315 346 335 318T369 265T391 213T399 159Q399
120 384 89T342 36T281 2T209 -10Q145 -10 104 6T37 39Q37 52 39 75T44 122T50 170T57 208H68Q73 158 87 125T120 71T163 41T209 32Q234 32 254 40T290 62T313 94T321 132Q321 157 315 178T296 221T266 267T226 321Q204 351 186 376T154 426T133 475T125 528Q125
559 137 585T172 631T224 661T291 672ZM301 709L202 829L210 838L309 782L439 838L446 827L301 709Z" />
<glyph unicode="&#x161;" glyph-name="scaron" horiz-adv-x="303" d="M192 443Q220 443 246 436T286 424L267 344H258Q241 373 222 391T180 409Q159 409 147 397T135 367Q135 359 138 346T155 307Q164 289 172 275T189 246T207 218T226 185Q240 159 246 137T252
98Q252 79 243 60T218 26T177 0T123 -10Q107 -10 91 -7T59 0T30 10T10 19Q13 48 17 82T27 146H37Q53 79 77 54T132 28Q155 28 170 42T186 75Q186 86 183 101T162 148Q143 183 126 209T93 266Q71 309 71 341Q71 360 79 378T103 411T141 434T192 443ZM464 505H454L403
717L414 721L476 610L586 721L597 713L464 505Z" />
<glyph unicode="&#x162;" glyph-name="Tcommaaccent" horiz-adv-x="603" d="M377 11L375 0H152L154 11L233 55L333 623H191L109 522H96L122 662H640L615 522H601L558 623H415L315 55L377 11ZM300 -132Q300 -155 289 -177T259 -220T218 -259T172 -291L158 -277Q170
-265 182 -251T207 -221T229 -190T247 -160Q246 -161 244 -161H238Q221 -161 209 -150T197 -119Q197 -99 211 -87T246 -74Q268 -74 284 -88T300 -132Z" />
<glyph unicode="&#x163;" glyph-name="tcommaaccent" horiz-adv-x="315" d="M183 384L126 124Q120 97 118 84T115 64Q115 58 119 53T133 48Q146 48 161 55T193 75T226 105T257 140L270 131Q260 110 243 85T204 39T156 4T100 -10Q70 -10 53 3T35 35Q35 42 38 57T46
96L109 384H54L56 395L207 500L192 430H343L311 384H183ZM390 -132Q390 -155 379 -177T349 -220T308 -259T262 -291L248 -277Q260 -265 272 -251T297 -221T319 -190T337 -160Q336 -161 334 -161H328Q311 -161 299 -150T287 -119Q287 -99 301 -87T336 -74Q358 -74
374 -88T390 -132Z" />
<glyph unicode="&#x164;" glyph-name="Tcaron" horiz-adv-x="603" d="M377 11L375 0H152L154 11L233 55L333 623H191L109 522H96L122 662H640L615 522H601L558 623H415L315 55L377 11ZM384 709L285 829L293 838L392 782L522 838L529 827L384 709Z" />
<glyph unicode="&#x165;" glyph-name="tcaron" horiz-adv-x="315" d="M183 384L126 124Q120 97 118 84T115 64Q115 58 119 53T133 48Q146 48 161 55T193 75T226 105T257 140L270 131Q260 110 243 85T204 39T156 4T100 -10Q70 -10 53 3T35 35Q35 42 38 57T46 96L109
384H54L56 395L207 500L192 430H343L311 384H183ZM263 505L324 715H394L275 505H263Z" />
<glyph unicode="&#x166;" glyph-name="Tbar" horiz-adv-x="603" d="M508 335H138L145 373H515L508 335ZM377 11L375 0H152L154 11L233 55L333 623H191L109 522H96L122 662H640L615 522H601L558 623H415L315 55L377 11Z" />
<glyph unicode="&#x167;" glyph-name="tbar" horiz-adv-x="320" d="M18 240L26 275H289L281 240H18ZM183 384L126 124Q120 97 118 84T115 64Q115 58 119 53T133 48Q146 48 161 55T193 75T226 105T257 140L270 131Q260 110 243 85T204 39T156 4T100 -10Q70 -10
53 3T35 35Q35 42 38 57T46 96L109 384H54L56 395L207 500L192 430H343L311 384H183Z" />
<glyph unicode="&#x168;" glyph-name="Utilde" horiz-adv-x="688" d="M541 651L543 662H734L732 651L654 607L582 201Q574 159 556 121T507 54T433 7T334 -10Q272 -10 225 6T146 51T103 122T99 214L169 607L106 651L108 662H332L329 651L251 607L181 211Q174 170
184 139T217 87T273 55T346 44Q386 44 418 56T473 90T511 140T532 201L604 607L541 651ZM405 802Q413 802 428 798T461 790T495 782T520 778Q527 778 536 783T555 796T573 813T587 828L597 822Q589 804 580 787T559 757T536 736T513 728Q502 728 486 731T452 739T420
748T398 752Q391 752 382 747T363 733T345 716T330 700L319 705Q326 721 336 738T358 770T382 793T405 802Z" />
<glyph unicode="&#x169;" glyph-name="utilde" horiz-adv-x="468" d="M303 180Q277 143 249 110T192 51T136 10T86 -6Q66 -6 54 9T42 46Q42 54 43 64T47 82Q56 120 72 186T113 363L48 391V402Q59 405 77 410T118 422T162 434T205 445Q166 271 143 176T120 73Q120
63 128 63Q138 63 161 80T211 123T266 183T317 248L357 432H429L351 57L418 29V18Q407 16 388 13T346 5T301 -2T263 -8L303 180ZM257 628Q265 628 278 624T307 615T336 606T358 602Q371 602 389 619T423 654L432 650Q426 631 417 612T397 578T374 554T351 545Q341
545 327 549T298 557T270 566T250 570Q236 570 218 553T182 519L173 523Q179 541 188 559T209 593T233 618T257 628Z" />
<glyph unicode="&#x16a;" glyph-name="Umacron" horiz-adv-x="688" d="M541 651L543 662H734L732 651L654 607L582 201Q574 159 556 121T507 54T433 7T334 -10Q272 -10 225 6T146 51T103 122T99 214L169 607L106 651L108 662H332L329 651L251 607L181 211Q174
170 184 139T217 87T273 55T346 44Q386 44 418 56T473 90T511 140T532 201L604 607L541 651ZM574 795L564 742H327L337 795H574Z" />
<glyph unicode="&#x16b;" glyph-name="umacron" horiz-adv-x="468" d="M303 180Q277 143 249 110T192 51T136 10T86 -6Q66 -6 54 9T42 46Q42 54 43 64T47 82Q56 120 72 186T113 363L48 391V402Q59 405 77 410T118 422T162 434T205 445Q166 271 143 176T120 73Q120
63 128 63Q138 63 161 80T211 123T266 183T317 248L357 432H429L351 57L418 29V18Q407 16 388 13T346 5T301 -2T263 -8L303 180ZM411 607L400 555H189L200 607H411Z" />
<glyph unicode="&#x16c;" glyph-name="Ubreve" horiz-adv-x="688" d="M541 651L543 662H734L732 651L654 607L582 201Q574 159 556 121T507 54T433 7T334 -10Q272 -10 225 6T146 51T103 122T99 214L169 607L106 651L108 662H332L329 651L251 607L181 211Q174 170
184 139T217 87T273 55T346 44Q386 44 418 56T473 90T511 140T532 201L604 607L541 651ZM437 713Q413 713 396 722T367 747T351 783T348 828L360 830Q366 804 384 786T438 768Q475 768 500 785T545 830L557 828Q546 778 515 746T437 713Z" />
<glyph unicode="&#x16d;" glyph-name="ubreve" horiz-adv-x="468" d="M303 180Q277 143 249 110T192 51T136 10T86 -6Q66 -6 54 9T42 46Q42 54 43 64T47 82Q56 120 72 186T113 363L48 391V402Q59 405 77 410T118 422T162 434T205 445Q166 271 143 176T120 73Q120
63 128 63Q138 63 161 80T211 123T266 183T317 248L357 432H429L351 57L418 29V18Q407 16 388 13T346 5T301 -2T263 -8L303 180ZM284 523Q258 523 241 534T215 564T204 604T205 647L217 649Q222 622 237 601T285 579Q324 579 349 601T391 649L403 647Q399 622 389
600T364 560T329 533T284 523Z" />
<glyph unicode="&#x16e;" glyph-name="Uring" horiz-adv-x="688" d="M541 651L543 662H734L732 651L654 607L582 201Q574 159 556 121T507 54T433 7T334 -10Q272 -10 225 6T146 51T103 122T99 214L169 607L106 651L108 662H332L329 651L251 607L181 211Q174 170
184 139T217 87T273 55T346 44Q386 44 418 56T473 90T511 140T532 201L604 607L541 651ZM350 781Q350 800 357 817T378 846T408 866T443 873Q462 873 478 866T508 847T528 817T536 781Q536 740 509 715T443 689Q406 689 378 714T350 781ZM389 781Q389 758 404 742T443
725Q466 725 481 741T497 781Q497 804 482 820T443 837Q420 837 405 821T389 781Z" />
<glyph unicode="&#x16f;" glyph-name="uring" horiz-adv-x="468" d="M303 180Q277 143 249 110T192 51T136 10T86 -6Q66 -6 54 9T42 46Q42 54 43 64T47 82Q56 120 72 186T113 363L48 391V402Q59 405 77 410T118 422T162 434T205 445Q166 271 143 176T120 73Q120
63 128 63Q138 63 161 80T211 123T266 183T317 248L357 432H429L351 57L418 29V18Q407 16 388 13T346 5T301 -2T263 -8L303 180ZM199 597Q199 616 206 633T227 662T257 682T292 689Q311 689 327 682T357 663T377 633T385 597Q385 556 358 531T292 505Q255 505 227
530T199 597ZM238 597Q238 574 253 558T292 541Q315 541 330 557T346 597Q346 620 331 636T292 653Q269 653 254 637T238 597Z" />
<glyph unicode="&#x170;" glyph-name="Uhungarumlaut" horiz-adv-x="688" d="M541 651L543 662H734L732 651L654 607L582 201Q574 159 556 121T507 54T433 7T334 -10Q272 -10 225 6T146 51T103 122T99 214L169 607L106 651L108 662H332L329 651L251 607L181 211Q174
170 184 139T217 87T273 55T346 44Q386 44 418 56T473 90T511 140T532 201L604 607L541 651ZM482 703L474 714L629 849L663 797L482 703ZM314 703L306 714L461 849L495 797L314 703Z" />
<glyph unicode="&#x171;" glyph-name="uhungarumlaut" horiz-adv-x="468" d="M303 180Q277 143 249 110T192 51T136 10T86 -6Q66 -6 54 9T42 46Q42 54 43 64T47 82Q56 120 72 186T113 363L48 391V402Q59 405 77 410T118 422T162 434T205 445Q166 271 143 176T120
73Q120 63 128 63Q138 63 161 80T211 123T266 183T317 248L357 432H429L351 57L418 29V18Q407 16 388 13T346 5T301 -2T263 -8L303 180ZM342 508L330 514L416 721L473 687L342 508ZM211 508L199 514L285 721L342 687L211 508Z" />
<glyph unicode="&#x172;" glyph-name="Uogonek" horiz-adv-x="688" d="M258 -193Q258 -168 271 -142T305 -90T355 -42T412 0Q395 -5 376 -7T334 -10Q272 -10 225 6T146 51T103 122T99 214L169 607L106 651L108 662H332L329 651L251 607L181 211Q174 170 184 139T217
87T273 55T346 44Q386 44 418 56T473 90T511 140T532 201L604 607L541 651L543 662H734L732 651L654 607L582 201Q571 136 540 93T456 7Q435 -10 414 -32T374 -78T345 -126T333 -173Q333 -191 342 -201T369 -212Q391 -212 411 -203T446 -186L455 -195Q448 -204
437 -215T410 -236T375 -254T331 -261Q296 -261 277 -241T258 -193Z" />
<glyph unicode="&#x173;" glyph-name="uogonek" horiz-adv-x="468" d="M185 -261Q150 -261 131 -241T112 -193Q112 -165 128 -137T167 -83T217 -36T265 0L303 180Q277 143 249 110T192 51T136 10T86 -6Q66 -6 54 9T42 46Q42 54 43 64T47 82Q56 120 72 186T113
363L48 391V402Q59 405 77 410T118 422T162 434T205 445Q166 271 143 176T120 73Q120 63 128 63Q139 63 162 80T213 125T269 185T318 248L357 432H429L351 57L418 29V18Q409 16 395 14T363 8T326 2T291 -4Q276 -19 258 -39T224 -83T198 -129T187 -173Q187 -191
196 -201T223 -212Q245 -212 265 -203T300 -186L309 -195Q302 -204 291 -215T264 -236T229 -254T185 -261Z" />
<glyph unicode="&#x174;" glyph-name="Wcircumflex" horiz-adv-x="904" d="M144 607L75 651L77 662H308L306 651L223 607L278 154L494 577L490 607L423 651L425 662H652L650 651L566 607L625 154L838 607L769 651L771 662H973L971 651L888 607L596 -6H576L505
501L243 -6H222L144 607ZM564 842L663 722L655 713L556 769L426 713L419 724L564 842Z" />
<glyph unicode="&#x175;" glyph-name="wcircumflex" horiz-adv-x="547" d="M337 439Q341 409 344 369T347 284T347 195T343 115Q388 180 414 224T453 298T470 344T474 373Q474 384 468 395T451 414V424L536 442Q540 437 544 427T548 401Q548 380 538 351T498 274T415
156T278 -19H263Q267 14 270 52T276 131T280 211T283 285Q243 216 192 141T71 -19H57Q66 43 73 105T86 220T93 314T95 371L31 399V410Q42 413 63 419T106 431T144 441T161 445Q165 420 165 381T161 298T154 210T144 131Q182 188 229 268T323 439H337V439ZM364 714H374L425
502L414 498L352 609L242 498L231 506L364 714Z" />
<glyph unicode="&#x176;" glyph-name="Ycircumflex" horiz-adv-x="589" d="M380 11L377 0H144L146 11L231 55L275 313L145 607L76 651L78 662H318L316 651L233 607L341 358L525 607L456 651L458 662H664L662 651L578 607L357 311L313 55L380 11ZM412 842L511 722L503
713L404 769L274 713L267 724L412 842Z" />
<glyph unicode="&#x177;" glyph-name="ycircumflex" horiz-adv-x="383" d="M300 355Q300 377 291 390T269 411V421L360 443Q365 435 370 422T376 394Q376 368 363 337T325 262T261 163T171 30Q132 -26 101 -71T46 -151T4 -214T-27 -263L-114 -251V-240Q-81 -209
-48 -176T14 -111T69 -49T113 3Q111 55 108 109T102 213T94 304T86 370L18 399V410Q41 417 76 427T142 445Q148 413 153 369T163 276T169 181T173 95Q208 152 232 193T271 264T293 316T300 355ZM520 714H530L581 502L570 498L508 609L398 498L387 506L520 714Z"
/>
<glyph unicode="&#x178;" glyph-name="Ydieresis" horiz-adv-x="589" d="M380 11L377 0H144L146 11L231 55L275 313L145 607L76 651L78 662H318L316 651L233 607L341 358L525 607L456 651L458 662H664L662 651L578 607L357 311L313 55L380 11ZM482 726Q464 726
450 739T435 772Q435 792 449 805T482 819Q502 819 515 806T529 772Q529 753 516 740T482 726ZM310 726Q292 726 278 739T263 772Q263 792 277 805T310 819Q330 819 343 806T357 772Q357 753 344 740T310 726Z" />
<glyph unicode="&#x179;" glyph-name="Zacute" horiz-adv-x="594" d="M122 43H434L529 159H539L510 0H7L8 13L489 622H216L132 518H120L146 662H610L609 650L122 43ZM293 713L287 725L492 849L520 786L293 713Z" />
<glyph unicode="&#x17a;" glyph-name="zacute" horiz-adv-x="379" d="M-12 11L292 379H224Q164 379 125 375T71 368L66 374L118 437L384 429L383 418L77 56H134Q168 56 194 57T241 62T280 68T318 77L324 71L270 -4L-13 0L-12 11ZM214 505L203 513L332 719L390
671L214 505Z" />
<glyph unicode="&#x17b;" glyph-name="Zdotaccent" horiz-adv-x="594" d="M122 43H434L529 159H539L510 0H7L8 13L489 622H216L132 518H120L146 662H610L609 650L122 43ZM335 773Q335 795 349 808T383 822Q403 822 417 809T431 773Q431 754 417 740T383 726Q363
726 349 740T335 773Z" />
<glyph unicode="&#x17c;" glyph-name="zdotaccent" horiz-adv-x="379" d="M-12 11L292 379H224Q164 379 125 375T71 368L66 374L118 437L384 429L383 418L77 56H134Q168 56 194 57T241 62T280 68T318 77L324 71L270 -4L-13 0L-12 11ZM463 593Q463 615 477 628T511
642Q531 642 545 629T559 593Q559 574 545 560T511 546Q491 546 477 560T463 593Z" />
<glyph unicode="&#x17d;" glyph-name="Zcaron" horiz-adv-x="594" d="M122 43H434L529 159H539L510 0H7L8 13L489 622H216L132 518H120L146 662H610L609 650L122 43ZM377 709L278 829L286 838L385 782L515 838L522 827L377 709Z" />
<glyph unicode="&#x17e;" glyph-name="zcaron" horiz-adv-x="379" d="M-12 11L292 379H224Q164 379 125 375T71 368L66 374L118 437L384 429L383 418L77 56H134Q168 56 194 57T241 62T280 68T318 77L324 71L270 -4L-13 0L-12 11ZM499 505H489L438 717L449 721L511
610L621 721L632 713L499 505Z" />
<glyph unicode="&#x192;" glyph-name="florin" horiz-adv-x="375" d="M77 99Q94 165 109 224T140 344H66L67 349L98 389H152L177 480Q189 522 206 557T248 617T304 657T376 672Q402 672 424 668T459 658L426 596Q416 604 396 617T355 631Q326 631 303 603T264
521Q254 488 245 455T227 389H336L301 344H215Q197 278 180 215T147 94Q133 44 114 -5T66 -93T-1 -157T-91 -186L-99 -122Q-93 -123 -81 -124T-60 -125Q-39 -125 -22 -118T10 -88T41 -20T77 99Z" />
<glyph unicode="&#x1fa;" glyph-name="Aringacute" horiz-adv-x="594" d="M146 11L145 0H-36L-35 11L35 54L370 669H388L507 54L557 11L556 0H347L348 11L427 54L390 246H189L85 54L146 11ZM210 286H382L337 520L210 286ZM295 797Q295 816 302 833T323 862T353
882T388 889Q407 889 423 882T453 863T473 833T481 797Q481 756 454 731T388 705Q351 705 323 730T295 797ZM334 797Q334 774 349 758T388 741Q411 741 426 757T442 797Q442 820 427 836T388 853Q365 853 350 837T334 797ZM311 900L305 912L510 1036L538 973L311
900Z" />
<glyph unicode="&#x1fb;" glyph-name="aringacute" horiz-adv-x="440" d="M395 30L394 19Q382 16 362 13T320 5T276 -2T237 -8L268 144Q249 117 227 90T181 40T133 4T84 -10Q73 -10 61 -4T40 15T24 47T18 93Q18 141 38 195T97 298T193 382T326 426L413 478L326
59L395 30ZM115 50Q126 50 146 64T189 100T237 152T282 211L319 388Q275 385 235 358T164 289T115 195T96 91Q96 76 100 63T115 50ZM181 843Q181 862 188 879T209 908T239 928T274 935Q293 935 309 928T339 909T359 879T367 843Q367 802 340 777T274 751Q237 751
209 776T181 843ZM220 843Q220 820 235 804T274 787Q297 787 312 803T328 843Q328 866 313 882T274 899Q251 899 236 883T220 843ZM224 693L213 701L342 907L400 859L224 693Z" />
<glyph unicode="&#x1fc;" glyph-name="AEacute" horiz-adv-x="766" d="M389 607L326 651L328 662H772L750 535H739L693 625H525L480 372H654L712 445H721L689 262H680L646 334H474L422 39H602L696 151H707L680 0H262L264 11L343 55L383 287H221L63 54L124 11L123
0H-45L-44 11L13 54L389 607ZM390 325L440 611L246 325H390ZM494 713L488 725L693 849L721 786L494 713Z" />
<glyph unicode="&#x1fd;" glyph-name="aeacute" horiz-adv-x="595" d="M363 -10Q345 -10 326 -3T292 19T266 59T256 119V123Q238 97 219 73T182 31T145 1T110 -10Q97 -10 82 -3T55 19T34 57T26 112Q26 173 48 231T109 336T203 410T323 439Q354 439 377 431T412
413Q435 427 458 434T506 442Q544 442 567 430T590 392Q590 378 580 354T543 305T468 256T345 221Q334 175 334 129Q334 90 349 68T387 46Q418 46 454 70T529 142L542 133Q506 62 459 26T363 -10ZM296 401Q258 401 224 376T163 311T122 220T106 117Q106 84 115
66T136 48Q143 48 156 58T187 86T224 126T260 173Q270 233 297 285T364 376Q353 386 337 393T296 401ZM518 380Q518 408 488 408Q471 408 453 397T416 366T382 317T354 254Q434 268 476 303T518 380ZM367 505L356 513L485 719L543 671L367 505Z" />
<glyph unicode="&#x1fe;" glyph-name="Oslashacute" horiz-adv-x="692" d="M67 262Q67 344 95 418T172 549T283 638T416 672Q458 672 495 661T562 628L624 711L659 685L596 600Q631 565 650 517T670 410Q670 322 642 246T565 112T453 23T321 -10Q238 -10 173 35L100
-63L65 -37L140 64Q106 100 87 149T67 262ZM582 411Q582 451 574 484T552 543L211 86Q258 30 321 30Q373 30 420 60T504 142T561 263T582 411ZM416 632Q362 632 315 601T232 519T176 401T155 262Q155 220 163 186T185 124L526 580Q480 632 416 632ZM336 713L330
725L535 849L563 786L336 713Z" />
<glyph unicode="&#x1ff;" glyph-name="oslashacute" horiz-adv-x="429" d="M18 -47L73 36Q53 59 42 90T30 158Q30 217 49 268T100 358T172 419T254 442Q274 442 291 437T325 421L374 495L406 475L355 397Q376 374 388 343T400 277Q400 214 380 161T327 70T256
11T177 -10Q135 -10 102 12L50 -67L18 -47ZM181 29Q205 29 230 48T275 102T307 183T320 284Q320 312 314 335L131 56Q149 29 181 29ZM110 150Q110 119 114 100L297 377Q279 403 252 403Q227 403 202 383T156 329T123 248T110 150ZM202 505L191 513L320 719L378
671L202 505Z" />
<glyph unicode="&#x218;" glyph-name="Scommaaccent" horiz-adv-x="453" d="M291 672Q342 672 380 661T438 642L418 535H407Q384 590 354 612T287 634Q245 634 223 610T200 554Q200 532 206 513T225 473T254 430T291 379Q315 346 335 318T369 265T391 213T399
159Q399 120 384 89T342 36T281 2T209 -10Q145 -10 104 6T37 39Q37 52 39 75T44 122T50 170T57 208H68Q73 158 87 125T120 71T163 41T209 32Q234 32 254 40T290 62T313 94T321 132Q321 157 315 178T296 221T266 267T226 321Q204 351 186 376T154 426T133 475T125
528Q125 559 137 585T172 631T224 661T291 672ZM224 -132Q224 -155 213 -177T183 -220T142 -259T96 -291L82 -277Q94 -265 106 -251T131 -221T153 -190T171 -160Q170 -161 168 -161H162Q145 -161 133 -150T121 -119Q121 -99 135 -87T170 -74Q192 -74 208 -88T224
-132Z" />
<glyph unicode="&#x219;" glyph-name="scommaaccent" horiz-adv-x="303" d="M192 443Q220 443 246 436T286 424L267 344H258Q241 373 222 391T180 409Q159 409 147 397T135 367Q135 359 138 346T155 307Q164 289 172 275T189 246T207 218T226 185Q240 159 246
137T252 98Q252 79 243 60T218 26T177 0T123 -10Q107 -10 91 -7T59 0T30 10T10 19Q13 48 17 82T27 146H37Q53 79 77 54T132 28Q155 28 170 42T186 75Q186 86 183 101T162 148Q143 183 126 209T93 266Q71 309 71 341Q71 360 79 378T103 411T141 434T192 443ZM406
-132Q406 -155 395 -177T365 -220T324 -259T278 -291L264 -277Q276 -265 288 -251T313 -221T335 -190T353 -160Q352 -161 350 -161H344Q327 -161 315 -150T303 -119Q303 -99 317 -87T352 -74Q374 -74 390 -88T406 -132Z" />
<glyph unicode="&#x21a;" glyph-name="uni021A" horiz-adv-x="603" d="M377 11L375 0H152L154 11L233 55L333 623H191L109 522H96L122 662H640L615 522H601L558 623H415L315 55L377 11ZM300 -132Q300 -155 289 -177T259 -220T218 -259T172 -291L158 -277Q170 -265
182 -251T207 -221T229 -190T247 -160Q246 -161 244 -161H238Q221 -161 209 -150T197 -119Q197 -99 211 -87T246 -74Q268 -74 284 -88T300 -132Z" />
<glyph unicode="&#x21b;" glyph-name="uni021B" horiz-adv-x="315" d="M183 384L126 124Q120 97 118 84T115 64Q115 58 119 53T133 48Q146 48 161 55T193 75T226 105T257 140L270 131Q260 110 243 85T204 39T156 4T100 -10Q70 -10 53 3T35 35Q35 42 38 57T46 96L109
384H54L56 395L207 500L192 430H343L311 384H183ZM390 -132Q390 -155 379 -177T349 -220T308 -259T262 -291L248 -277Q260 -265 272 -251T297 -221T319 -190T337 -160Q336 -161 334 -161H328Q311 -161 299 -150T287 -119Q287 -99 301 -87T336 -74Q358 -74 374 -88T390
-132Z" />
<glyph unicode="&#x237;" glyph-name="uni0237" horiz-adv-x="228" d="M121 41Q114 5 97 -33T57 -108T7 -181T-48 -246L-59 -239Q-52 -226 -38 -200T-8 -135T26 -43T56 77L111 363L45 391V402Q54 405 72 410T113 422T157 435T197 445L121 41Z" />
<glyph unicode="&#x2c6;" glyph-name="circumflex" horiz-adv-x="400" d="M292 714H302L353 502L342 498L280 609L170 498L159 506L292 714Z" />
<glyph unicode="&#x2c7;" glyph-name="caron" horiz-adv-x="400" d="M244 505H234L183 717L194 721L256 610L366 721L377 713L244 505Z" />
<glyph unicode="&#x2d8;" glyph-name="breve" horiz-adv-x="400" d="M257 523Q231 523 214 534T188 564T177 604T178 647L190 649Q195 622 210 601T258 579Q297 579 322 601T364 649L376 647Q372 622 362 600T337 560T302 533T257 523Z" />
<glyph unicode="&#x2d9;" glyph-name="dotaccent" horiz-adv-x="400" d="M219 593Q219 615 233 628T267 642Q287 642 301 629T315 593Q315 574 301 560T267 546Q247 546 233 560T219 593Z" />
<glyph unicode="&#x2da;" glyph-name="ring" horiz-adv-x="400" d="M172 597Q172 616 179 633T200 662T230 682T265 689Q284 689 300 682T330 663T350 633T358 597Q358 556 331 531T265 505Q228 505 200 530T172 597ZM211 597Q211 574 226 558T265 541Q288 541
303 557T319 597Q319 620 304 636T265 653Q242 653 227 637T211 597Z" />
<glyph unicode="&#x2db;" glyph-name="ogonek" horiz-adv-x="400" d="M104 -261Q69 -261 50 -241T31 -193Q31 -165 47 -137T86 -83T136 -36T184 0H214Q199 -14 180 -35T145 -79T117 -127T106 -173Q106 -191 115 -201T142 -212Q164 -212 184 -203T219 -186L228
-195Q221 -204 210 -215T183 -236T148 -254T104 -261Z" />
<glyph unicode="&#x2dc;" glyph-name="tilde" horiz-adv-x="400" d="M219 628Q227 628 240 624T269 615T298 606T320 602Q333 602 351 619T385 654L394 650Q388 631 379 612T359 578T336 554T313 545Q303 545 289 549T260 557T232 566T212 570Q198 570 180 553T144
519L135 523Q141 541 150 559T171 593T195 618T219 628Z" />
<glyph unicode="&#x2dd;" glyph-name="hungarumlaut" horiz-adv-x="400" d="M277 508L265 514L351 721L408 687L277 508ZM146 508L134 514L220 721L277 687L146 508Z" />
</font>
</defs>
</svg>
