<?xml version="1.0" standalone="no"?>
<!DOCTYPE svg PUBLIC "-//W3C//DTD SVG 1.1//EN" "http://www.w3.org/Graphics/SVG/1.1/DTD/svg11.dtd" >
<svg>
<metadata>
Created by FontForge 20110222 at Sun Oct 27 16:55:24 2013
 By Orthosie Webhosting
Copyright (c)2013 Commercial Type.
</metadata>
<defs>
<font id="PortraitRegular2" horiz-adv-x="400" >
  <font-face 
    font-family="PortraitRegular2"
    font-weight="500"
    font-stretch="normal"
    units-per-em="1000"
    panose-1="0 0 0 0 0 0 0 0 0 0"
    ascent="730"
    descent="-270"
    x-height="414"
    cap-height="662"
    bbox="-62 -287 1280 996"
    underline-thickness="34"
    underline-position="122"
    unicode-range="U+000D-FB04"
  />
<missing-glyph horiz-adv-x="216" 
 />
    <glyph glyph-name="f_b" unicode="fb" horiz-adv-x="759" 
d="M165 55l82 -49v-6h-230v6l59 44v312h-65v7l65 41v43q0 114 73 188t183 74q51 0 101 -10v-346q20 25 57 45t73 20q78 0 123.5 -54t45.5 -140q0 -96 -63 -167.5t-167 -71.5q-32 0 -85 4.5t-72 4.5h-2v658q-22 14 -54 14q-48 0 -86 -44.5t-38 -130.5v-86h137l-39 -49h-98
v-307zM524 366q-55 0 -89 -34v-286q31 -18 70 -18q62 0 99.5 50t37.5 127q0 78 -33 119.5t-85 41.5z" />
    <glyph glyph-name="f_f_b" unicode="ffb" horiz-adv-x="1023" 
d="M165 54l78 -48v-6h-226v6l59 44v312h-65v7l65 41v36q0 111 68 187t167 76q38 0 71 -7l-29 -66q-54 30 -86 30q-35 0 -68.5 -45.5t-33.5 -126.5v-83h175v42q0 114 73 188t183 74q49 0 100 -10v-346q61 65 131 65q78 0 123.5 -54t45.5 -140q0 -96 -63 -167.5t-167 -71.5
q-32 0 -85 4.5t-73 4.5h-1v658q-24 14 -55 14q-47 0 -85 -44.5t-38 -130.5v-86h136l-39 -49h-97v-307l82 -49v-6h-230v6l59 44v312h-175v-308zM788 366q-55 0 -89 -34v-286q31 -18 69 -18q62 0 100 50t38 127q0 78 -33 119.5t-85 41.5z" />
    <glyph glyph-name="f_f_h" unicode="ffh" horiz-adv-x="1046" 
d="M165 54l78 -48v-6h-226v6l59 44v312h-65v7l65 41v36q0 111 68 187t167 76q38 0 71 -7l-29 -66q-54 30 -86 30q-35 0 -68.5 -45.5t-33.5 -126.5v-83h175v42q0 114 73 188t183 74q49 0 100 -10v-351q28 28 68.5 49t81.5 21q52 0 89 -32.5t37 -72.5v-269l59 -44v-6h-205v6
l58 44v242q0 31 -23 53t-66 22q-47 0 -99 -45v-272l59 -44v-6h-206v6l58 44v608q-24 14 -55 14q-47 0 -85 -44.5t-38 -130.5v-86h136l-39 -49h-97v-307l82 -49v-6h-230v6l59 44v312h-175v-308z" />
    <glyph glyph-name="f_f_j" unicode="ffj" horiz-adv-x="750" 
d="M165 54l78 -48v-6h-226v6l59 44v312h-65v7l65 41v36q0 111 68 187t167 76q38 0 71 -7l-29 -66q-54 30 -86 30q-35 0 -68.5 -45.5t-33.5 -126.5v-83h175v41q0 112 72 187.5t175 75.5q46 0 90 -13l-32 -74q-67 44 -105 44t-74.5 -46t-36.5 -130v-85h197q10 4 29 9t29 8
v-376q0 -29 -6.5 -64t-42 -104.5t-97.5 -131.5l-9 6q67 138 67 294v310h-167v-308l78 -48v-6h-226v6l59 44v312h-175v-308z" />
    <glyph glyph-name="f_f_k" unicode="ffk" horiz-adv-x="1013" 
d="M165 54l78 -48v-6h-226v6l59 44v312h-65v7l65 41v36q0 111 68 187t167 76q38 0 71 -7l-29 -66q-54 30 -86 30q-35 0 -68.5 -45.5t-33.5 -126.5v-83h175v42q0 114 73 188t183 74q49 0 100 -10v-655l59 -44v-6h-206v6l58 44v608q-24 14 -55 14q-47 0 -85 -44.5t-38 -130.5
v-86h136l-39 -49h-97v-307l82 -49v-6h-230v6l59 44v312h-175v-308zM816 83l-109 144v6l130 127l-54 48v6h201v-6l-91 -45l-110 -100l101 -134q69 -94 128 -123v-6q-21 -9 -60 -9q-42 0 -69.5 19.5t-66.5 72.5z" />
    <glyph glyph-name="f_h" unicode="fh" horiz-adv-x="783" 
d="M492 0h-206v6l58 44v608q-25 14 -55 14q-48 0 -86 -44.5t-38 -130.5v-86h137l-39 -49h-98v-307l82 -49v-6h-230v6l59 44v312h-65v7l65 41v43q0 114 73 188t183 74q49 0 100 -10v-351q28 28 68.5 49t81.5 21q52 0 89.5 -32.5t37.5 -72.5v-269l59 -44v-6h-206v6l58 44v242
q0 31 -23 53t-65 22q-52 0 -100 -46v-271l60 -44v-6z" />
    <glyph glyph-name="f_j" unicode="fj" horiz-adv-x="487" 
d="M276 672q-38 0 -74.5 -46t-36.5 -130v-85h198q10 4 29 9t29 8v-376q0 -19 -4.5 -44t-17.5 -66.5t-45 -92t-79 -97.5l-10 6q67 138 67 294v310h-167v-308l79 -48v-6h-227v6l59 44v312h-65v7l65 41v42q0 112 72 187.5t175 75.5q42 0 91 -13l-33 -74q-67 44 -105 44z" />
    <glyph glyph-name="f_k" unicode="fk" horiz-adv-x="749" 
d="M165 55l82 -49v-6h-230v6l59 44v312h-65v7l65 41v43q0 114 73 188t183 74q49 0 100 -10v-655l60 -44v-6h-206v6l58 44v608q-25 14 -55 14q-48 0 -86 -44.5t-38 -130.5v-86h137l-39 -49h-98v-307zM552 83l-108 144v6l129 127l-54 48v6h202v-6l-91 -45l-110 -100l100 -134
q71 -95 128 -123v-6q-21 -9 -60 -9q-42 0 -69.5 19.5t-66.5 72.5z" />
    <glyph glyph-name="g_g" unicode="gg" horiz-adv-x="863" 
d="M460 279q0 60 50.5 102.5t120.5 42.5q35 0 68 -10h155v-41h-95q44 -37 44 -89q0 -63 -49 -104.5t-123 -41.5q-32 0 -54 7q-36 -28 -36 -49q0 -37 41 -37h174q29 0 63 -31t34 -86q0 -82 -76 -148.5t-173 -66.5q-73 0 -116.5 30.5t-43.5 76.5q0 71 93 147q-29 9 -48.5 31.5
t-19.5 54.5q0 29 12 41l67 47q-40 18 -64 50.5t-24 73.5zM33 279q0 60 50 102.5t120 42.5q38 0 68 -10h154v-41h-94q44 -36 44 -89q0 -63 -49 -104.5t-123 -41.5q-32 0 -54 7q-37 -28 -37 -49q0 -37 42 -37h169q29 0 62.5 -31.5t33.5 -85.5q0 -82 -75.5 -148.5t-172.5 -66.5
q-73 0 -117 30.5t-44 76.5q0 34 26.5 73.5t69.5 74.5q-28 10 -46.5 32t-18.5 53q0 29 12 41l68 47q-40 18 -64 50t-24 74zM265 -25h-125q-8 0 -11 1q-18 -18 -33.5 -50t-15.5 -61q0 -37 35 -61t93 -24t102.5 35t44.5 83q0 38 -24 57.5t-66 19.5zM568 -25h-5
q-49 -54 -49 -110q0 -37 35 -61t92 -24q59 0 103 35t44 83q0 38 -24 57.5t-66 19.5h-130zM550 281q0 -46 23.5 -78.5t58.5 -32.5t58 32t23 79t-23 79.5t-58 32.5q-36 0 -59 -32t-23 -80zM122 281q0 -46 23.5 -78.5t58.5 -32.5t58 32t23 79t-23 79.5t-58 32.5q-36 0 -59 -32
t-23 -80z" />
    <glyph glyph-name="f_f" unicode="ff" horiz-adv-x="564" 
d="M165 54l78 -48v-6h-226v6l59 44v312h-65v7l65 41v36q0 111 68 187t167 76q38 0 71 -7l-29 -66q-54 30 -86 30q-35 0 -68.5 -45.5t-33.5 -126.5v-83h175v41q0 113 72 188t178 75q57 0 91 -10l-30 -69q-63 36 -107 36q-40 0 -78 -45.5t-38 -130.5v-85h142l-40 -49h-102
v-307l86 -49v-6h-233v6l59 44v312h-175v-308z" />
    <glyph glyph-name="f_i" unicode="fi" horiz-adv-x="507" 
d="M165 54l79 -48v-6h-227v6l59 44v312h-65v7l65 41v42q0 113 72 188t179 75q51 0 100 -17l-34 -74q-73 48 -117 48q-38 0 -74.5 -46t-36.5 -130v-85h206q10 4 29 9t29 8v-378l59 -44v-6h-206v6l58 44v312h-175v-308z" />
    <glyph glyph-name="f_l" unicode="fl" horiz-adv-x="511" 
d="M344 50v608q-25 14 -55 14q-48 0 -86 -44.5t-38 -130.5v-86h137l-39 -49h-98v-307l82 -49v-6h-230v6l59 44v312h-65v7l65 41v43q0 114 73 188t183 74q49 0 100 -10v-655l60 -44v-6h-206v6z" />
    <glyph glyph-name="f_f_i" unicode="ffi" horiz-adv-x="771" 
d="M165 54l78 -48v-6h-226v6l59 44v312h-65v7l65 41v36q0 111 68 187t167 76q38 0 71 -7l-29 -66q-54 30 -86 30q-35 0 -68.5 -45.5t-33.5 -126.5v-83h175v41q0 113 72 188t179 75q51 0 100 -17l-35 -74q-77 48 -117 48q-37 0 -73.5 -46t-36.5 -130v-85h205q10 4 29 9t29 8
v-378l60 -44v-6h-206v6l58 44v312h-175v-308l78 -48v-6h-226v6l59 44v312h-175v-308z" />
    <glyph glyph-name="f_f_l" unicode="ffl" horiz-adv-x="774" 
d="M165 54l78 -48v-6h-226v6l59 44v312h-65v7l65 41v36q0 111 68 187t167 76q38 0 71 -7l-29 -66q-54 30 -86 30q-35 0 -68.5 -45.5t-33.5 -126.5v-83h175v42q0 114 73 188t183 74q49 0 100 -10v-655l59 -44v-6h-206v6l58 44v608q-24 14 -55 14q-47 0 -85 -44.5t-38 -130.5
v-86h136l-39 -49h-97v-307l82 -49v-6h-230v6l59 44v312h-175v-308z" />
    <glyph glyph-name=".notdef" horiz-adv-x="216" 
 />
    <glyph glyph-name=".null" horiz-adv-x="0" 
 />
    <glyph glyph-name="nonmarkingreturn" horiz-adv-x="333" 
 />
    <glyph glyph-name="NULL" horiz-adv-x="0" 
 />
    <glyph glyph-name="NULL" horiz-adv-x="0" 
 />
    <glyph glyph-name="CR" unicode="&#xd;" horiz-adv-x="216" 
 />
    <glyph glyph-name="space" unicode=" " horiz-adv-x="216" 
 />
    <glyph glyph-name="exclam" unicode="!" horiz-adv-x="206" 
d="M52 662h102q-13 -101 -44 -452h-14q-7 59 -17 165.5t-18 191t-9 95.5zM49 44q0 24 15.5 39t38.5 15t38.5 -15t15.5 -39q0 -23 -15.5 -38.5t-38.5 -15.5t-38.5 15.5t-15.5 38.5z" />
    <glyph glyph-name="quotedbl" unicode="&#x22;" horiz-adv-x="296" 
d="M249 651q0 -11 -2.5 -27.5t-5.5 -35t-10.5 -59t-13.5 -80.5h-9q-33 173 -33 202q0 44 37 44t37 -44zM121 651q0 -11 -2.5 -27.5t-5.5 -35t-10.5 -59t-13.5 -80.5h-9q-33 173 -33 202q0 44 37 44t37 -44z" />
    <glyph glyph-name="numbersign" unicode="#" horiz-adv-x="419" 
d="M406 432h-100l-36 -159h93v-31h-100l-55 -242h-34l54 242h-90l-55 -242h-35l54 242h-87v31h94l36 159h-87v31h94l45 199h36l-45 -199h90l45 199h35l-45 -199h93v-31zM181 432l-36 -159h90l36 159h-90z" />
    <glyph glyph-name="dollar" unicode="$" horiz-adv-x="465" 
d="M218 -10h-11l-10 -95h-34l10 98q-68 9 -118 39q-12 87 -8 171h7q14 -40 24.5 -65t37.5 -57.5t62 -43.5l28 270v1q-81 53 -117 97.5t-36 103.5q0 70 53.5 117t136.5 47h2l8 75h35l-8 -76q51 -4 92 -18v-103h-5q-45 64 -92 79l-25 -233q1 0 6.5 -4t9.5 -6
q81 -56 117.5 -103t36.5 -109q0 -79 -54.5 -132t-147.5 -53zM331 139q0 46 -21.5 78.5t-71.5 67.5l-27 -254h9q50 0 80.5 32t30.5 76zM139 540q0 -37 19.5 -64t59.5 -56l23 216h-4q-43 0 -70.5 -26.5t-27.5 -69.5z" />
    <glyph glyph-name="percent" unicode="%" horiz-adv-x="649" 
d="M476 31q42 0 70.5 30t28.5 74q0 45 -28.5 74.5t-70.5 29.5t-70 -29.5t-28 -74.5t28 -74.5t70 -29.5zM332 134q0 60 42.5 102.5t101.5 42.5q62 0 103.5 -41t41.5 -102t-41.5 -103t-103.5 -42t-103 41t-41 102zM28 525q0 60 42.5 102.5t101.5 42.5q62 0 103.5 -41
t41.5 -102t-41.5 -103t-103.5 -42t-103 41t-41 102zM172 630q-42 0 -70 -29.5t-28 -75.5q0 -44 28.5 -73.5t69.5 -29.5q42 0 70 29.5t28 73.5q0 46 -28 75.5t-70 29.5zM66 0l471 662h50l-470 -662h-51z" />
    <glyph glyph-name="ampersand" unicode="&#x26;" horiz-adv-x="709" 
d="M705 414v-6q-62 -38 -89 -71.5t-78 -130.5l-32 -55q34 -48 71.5 -76t89.5 -28q34 0 53 8l3 -4q-51 -59 -123 -59q-84 0 -149 83q-79 -89 -189 -89q-104 0 -167.5 54.5t-63.5 134.5q0 68 47.5 123.5t116.5 83.5q-68 68 -68 134q0 49 41.5 86t104.5 37q56 0 97.5 -28
t41.5 -77q0 -24 -9.5 -43.5t-31 -36.5t-34 -24.5t-41.5 -22.5q96 -96 187 -221q1 2 10 18q13 24 30 56.5t29 54.5t22 38l-69 55v6h200zM427 109q-55 79 -97.5 128.5t-114.5 124.5q-90 -62 -90 -159q0 -69 43.5 -114.5t116.5 -45.5q78 0 142 66zM203 539q0 -19 10 -38t22 -32
t43 -44q59 43 59 104q0 35 -18.5 56.5t-46.5 21.5q-29 0 -49 -19.5t-20 -48.5z" />
    <glyph glyph-name="quotesingle" unicode="'" horiz-adv-x="168" 
d="M121 651q0 -11 -2.5 -27.5t-5.5 -35t-10.5 -59t-13.5 -80.5h-9q-33 173 -33 202q0 44 37 44t37 -44z" />
    <glyph glyph-name="parenleft" unicode="(" horiz-adv-x="282" 
d="M55 283q0 141 59.5 264.5t143.5 207.5l8 -6q-131 -219 -131 -465q0 -232 131 -466l-8 -6q-86 89 -144.5 210t-58.5 261z" />
    <glyph glyph-name="parenright" unicode=")" horiz-adv-x="282" 
d="M226 283q0 -140 -58.5 -261t-144.5 -210l-8 6q131 234 131 466q0 246 -131 465l8 6q84 -84 143.5 -207.5t59.5 -264.5z" />
    <glyph glyph-name="asterisk" unicode="*" horiz-adv-x="283" 
d="M139 504l-70 -72l-7 3l36 93l-92 24v7l97 13l-28 94l6 4l65 -78l70 71l6 -4l-39 -92l94 -23v-7l-96 -14l27 -92l-7 -3z" />
    <glyph glyph-name="plus" unicode="+" horiz-adv-x="473" 
d="M45 228v37h172v173h40v-173h170v-37h-170v-175h-40v175h-172z" />
    <glyph glyph-name="comma" unicode="," horiz-adv-x="190" 
d="M36 59q0 23 15.5 36.5t37.5 13.5q28 0 45 -20.5t17 -57.5q0 -55 -34.5 -104.5t-82.5 -81.5l-12 5q70 90 78 164q-1 -1 -4 -1h-10q-22 0 -36 12.5t-14 33.5z" />
    <glyph glyph-name="hyphen" unicode="-" horiz-adv-x="262" 
d="M45 206v68h172v-68h-172z" />
    <glyph glyph-name="period" unicode="." horiz-adv-x="189" 
d="M41 44q0 24 15.5 39t38.5 15t38.5 -15t15.5 -39q0 -23 -15.5 -38.5t-38.5 -15.5t-38.5 15.5t-15.5 38.5z" />
    <glyph glyph-name="slash" unicode="/" horiz-adv-x="332" 
d="M275 755l37 -12l-296 -981l-36 12z" />
    <glyph glyph-name="zero" unicode="0" horiz-adv-x="499" 
d="M33 206q0 88 64 153t153 65q92 0 154 -62.5t62 -153.5t-62 -154.5t-154 -63.5q-93 0 -155 61.5t-62 154.5zM94 207q0 -72 45 -120t112 -48q66 0 110.5 48t44.5 120q0 71 -45 119.5t-112 48.5q-66 0 -110.5 -48.5t-44.5 -119.5z" />
    <glyph glyph-name="one" unicode="1" horiz-adv-x="260" 
d="M86 362l-59 46v6h206v-6l-59 -46v-312l59 -44v-6h-206v6l59 44v312z" />
    <glyph glyph-name="two" unicode="2" horiz-adv-x="386" 
d="M50 324l-8 5q47 94 133 94q56 0 88.5 -27.5t32.5 -81.5q0 -53 -36.5 -103t-129.5 -136h259l-35 -75h-327v6q101 110 136 174.5t35 113.5q0 71 -69 71q-41 0 -79 -41z" />
    <glyph glyph-name="three" unicode="3" horiz-adv-x="337" 
d="M45 83l-8 9q144 132 144 206q0 68 -59 68q-42 0 -67 -38l-8 5q12 34 40.5 62.5t76.5 28.5q50 0 77.5 -27t27.5 -73q0 -49 -35 -89t-105 -88q15 4 33 4q64 0 103 -33.5t39 -92.5q0 -88 -73.5 -162.5t-205.5 -142.5l-7 9q99 85 145 147.5t46 122.5q0 44 -28 70t-74 26
q-40 0 -62 -12z" />
    <glyph glyph-name="four" unicode="4" horiz-adv-x="471" 
d="M342 430h19v-370h97v-60h-97v-197l-86 -31v228h-273v6zM93 60h182v227z" />
    <glyph glyph-name="five" unicode="5" horiz-adv-x="317" 
d="M132 414h151l-39 -72h-128q-4 -6 -7 -17q149 -156 149 -277q0 -94 -77.5 -164.5t-199.5 -111.5l-5 10q82 47 138 107t56 125q0 37 -10 71.5t-32 69.5t-35 52t-39 49q52 120 78 158z" />
    <glyph glyph-name="six" unicode="6" horiz-adv-x="471" 
d="M459 705l4 -8q-140 -55 -231.5 -178t-91.5 -283q0 -91 36.5 -151t81.5 -60q38 0 65.5 39t27.5 93q0 60 -31.5 92.5t-76.5 32.5q-26 0 -72 -21l-5 5q16 20 49 40t77 20q64 0 106 -41t42 -109q0 -81 -55.5 -132.5t-132.5 -51.5q-83 0 -144.5 68.5t-61.5 191.5
q0 87 38 167.5t98 138t132.5 96.5t144.5 51z" />
    <glyph glyph-name="seven" unicode="7" horiz-adv-x="445" 
d="M19 338l32 76h374v-5l-279 -680l-39 9l243 600h-331z" />
    <glyph glyph-name="eight" unicode="8" horiz-adv-x="412" 
d="M208 670q63 0 105.5 -36.5t42.5 -92.5q0 -47 -27 -83t-84 -84q0 -1 1 -1q49 -51 71.5 -77t40.5 -62t18 -72q0 -68 -50 -119t-121 -51q-73 0 -121.5 39t-48.5 106q0 53 29.5 96.5t94.5 101.5q-62 64 -85 103.5t-23 84.5q0 62 46.5 104.5t110.5 42.5zM182 312l-3 2
q-68 -73 -68 -170q0 -51 26.5 -84.5t68.5 -33.5q38 0 63 32t25 79q0 40 -23.5 75t-88.5 100zM128 549q0 -33 22.5 -66.5t77.5 -91.5q60 68 60 149q0 46 -22 72t-61 26q-35 0 -56 -25t-21 -64z" />
    <glyph glyph-name="nine" unicode="9" horiz-adv-x="471" 
d="M37 -277l-4 8q139 61 220 174.5t81 271.5q0 90 -39 150.5t-83 60.5q-37 0 -63 -38.5t-26 -92.5q0 -58 31.5 -91t73.5 -33q32 0 76 20l5 -4q-54 -60 -127 -60q-64 0 -106.5 41t-42.5 109q0 80 54.5 132t129.5 52q83 0 147.5 -69.5t64.5 -192.5q0 -169 -115.5 -286.5
t-276.5 -151.5z" />
    <glyph glyph-name="colon" unicode=":" horiz-adv-x="198" 
d="M45 369q0 24 15.5 39t38.5 15t38.5 -15t15.5 -39q0 -23 -15.5 -38.5t-38.5 -15.5t-38.5 15.5t-15.5 38.5zM45 44q0 24 15.5 39t38.5 15t38.5 -15t15.5 -39q0 -23 -15.5 -38.5t-38.5 -15.5t-38.5 15.5t-15.5 38.5z" />
    <glyph glyph-name="semicolon" unicode=";" horiz-adv-x="198" 
d="M44 59q0 23 15.5 36.5t37.5 13.5q28 0 45 -20.5t17 -57.5q0 -55 -34.5 -104.5t-82.5 -81.5l-12 5q70 90 78 164q-1 -1 -4 -1h-10q-22 0 -36 12.5t-14 33.5zM45 369q0 24 15.5 39t38.5 15t38.5 -15t15.5 -39q0 -23 -15.5 -38.5t-38.5 -15.5t-38.5 15.5t-15.5 38.5z" />
    <glyph glyph-name="less" unicode="&#x3c;" horiz-adv-x="433" 
d="M386 136v-37l-341 129v36l341 131v-37l-294 -112z" />
    <glyph glyph-name="equal" unicode="=" horiz-adv-x="459" 
d="M409 178h-358v35h358v-35zM409 270h-358v35h358v-35z" />
    <glyph glyph-name="greater" unicode="&#x3e;" horiz-adv-x="433" 
d="M47 99v37l293 110l-293 112v37l341 -131v-36z" />
    <glyph glyph-name="question" unicode="?" horiz-adv-x="342" 
d="M318 550q0 -36 -14 -64t-50 -64l-71 -70q-18 -19 -24 -32t-6 -35q0 -12 0.5 -26t2 -28.5t1.5 -20.5h-14q-48 100 -48 128q0 26 34 65q28 28 61 68q38 45 38 85q0 37 -22 58t-55 21q-62 0 -112 -84h-7v109q36 12 115 12q73 0 122 -30t49 -92zM97 44q0 24 15.5 39t38.5 15
t38.5 -15t15.5 -39q0 -23 -15.5 -38.5t-38.5 -15.5t-38.5 15.5t-15.5 38.5z" />
    <glyph glyph-name="at" unicode="@" horiz-adv-x="882" 
d="M628 438l-78 -394q41 3 80 19.5t74 47t56 81t21 114.5q0 52 -16 98t-49 85t-92 61.5t-137 22.5q-85 0 -157 -35t-118 -91t-71.5 -125t-25.5 -140q0 -159 92 -252.5t236 -93.5q162 0 275 94l9 -10q-47 -50 -122 -89t-177 -39q-170 0 -277 101t-107 268q0 187 135 320
t328 133q160 0 250.5 -83t90.5 -201q0 -157 -113 -242t-275 -75l28 142q-98 -139 -167 -139q-25 0 -45.5 26t-20.5 71q0 46 18.5 93.5t53 90t90.5 71.5t123 35zM360 79q21 0 63 38t75 87l34 165q-79 -6 -135 -81t-56 -168q0 -41 19 -41z" />
    <glyph glyph-name="A" unicode="A" horiz-adv-x="639" 
d="M107 57l70 -51v-6h-172v6l57 50l240 619h15l260 -619l57 -50v-6h-229v6l70 50l-88 211h-199zM283 514l-81 -210h169z" />
    <glyph glyph-name="B" unicode="B" horiz-adv-x="575" 
d="M543 206q0 -68 -37 -116.5t-90.5 -69t-115.5 -20.5h-258v6l67 50v550l-67 50v6h239q93 0 147.5 -34.5t54.5 -105.5q0 -48 -36 -90t-81 -57q73 -6 125 -51t52 -118zM277 342h-69v-290q45 -18 93 -18q56 0 98 43.5t42 113.5q0 75 -45 113t-119 38zM263 627h-55v-251h85
q36 0 66 39.5t30 92.5q0 59 -33.5 89t-92.5 30z" />
    <glyph glyph-name="C" unicode="C" horiz-adv-x="670" 
d="M399 -11q-156 0 -258.5 94t-102.5 244q0 142 99.5 244t262.5 102q106 0 204 -29v-116h-6q-82 107 -205 107q-109 0 -176.5 -85.5t-67.5 -211.5q0 -136 73.5 -223.5t180.5 -87.5q120 0 209 114h5v-107q-87 -45 -218 -45z" />
    <glyph glyph-name="D" unicode="D" horiz-adv-x="726" 
d="M42 662h275q160 0 266.5 -86t106.5 -238q0 -149 -95.5 -243.5t-250.5 -94.5h-302v6l67 50v550l-67 50v6zM308 626h-100v-567q48 -23 130 -23q108 0 175 82t67 217q0 132 -77.5 211.5t-194.5 79.5z" />
    <glyph glyph-name="E" unicode="E" horiz-adv-x="558" 
d="M508 0h-466v6l67 50v550l-67 50v6h443v-122h-6l-69 85h-202v-255h208l47 70h6v-175h-6l-47 68h-208v-295h222l72 106h6v-144z" />
    <glyph glyph-name="F" unicode="F" horiz-adv-x="532" 
d="M416 371l47 69h6v-176h-6l-47 69h-208v-276l97 -51v-6h-263v6l67 50v550l-67 50v6h443v-129h-6l-71 92h-200v-254h208z" />
    <glyph glyph-name="G" unicode="G" horiz-adv-x="719" 
d="M637 288v-245q-3 -1 -51 -18t-92 -26.5t-92 -9.5q-161 0 -262.5 95.5t-101.5 244.5q0 141 99.5 242.5t262.5 101.5q98 0 214 -29v-115h-5q-85 106 -213 106q-113 0 -180.5 -85.5t-67.5 -211.5q0 -132 73 -221t188 -89q78 0 128 34v226l-81 50v6h234v-6z" />
    <glyph glyph-name="H" unicode="H" horiz-adv-x="777" 
d="M208 606v-250h361v250l-66 50v6h233v-6l-67 -50v-550l67 -50v-6h-233v6l66 50v261h-361v-261l67 -50v-6h-233v6l67 50v550l-67 50v6h233v-6z" />
    <glyph glyph-name="I" unicode="I" horiz-adv-x="317" 
d="M275 0h-233v6l67 50v550l-67 50v6h233v-6l-67 -50v-550l67 -50v-6z" />
    <glyph glyph-name="J" unicode="J" horiz-adv-x="300" 
d="M101 606l-67 50v6h233v-6l-66 -50v-509q0 -72 -51.5 -164t-127.5 -153l-10 7q89 136 89 348v471z" />
    <glyph glyph-name="K" unicode="K" horiz-adv-x="666" 
d="M276 0h-234v6l67 50v550l-67 50v6h234v-6l-68 -50v-550l68 -50v-6zM663 6v-6h-255v6l66 50l-217 276h-35l257 274l-67 50v6h205v-6l-77 -46l-209 -215l258 -339z" />
    <glyph glyph-name="L" unicode="L" horiz-adv-x="564" 
d="M431 38l91 130h6v-168h-486v6l67 50v550l-67 50v6h234v-6l-68 -50v-568h223z" />
    <glyph glyph-name="M" unicode="M" horiz-adv-x="868" 
d="M819 662v-6l-66 -51v-544l72 -55v-6h-245v6l73 55v459l-247 -464h-10l-246 462v-457l73 -55v-6h-187v6l73 55v517q-34 55 -56 78v6h129l250 -474l248 474h139z" />
    <glyph glyph-name="N" unicode="N" horiz-adv-x="766" 
d="M234 0h-198v6l73 55v519q-51 54 -78 76v6h138l448 -509v448l-78 55v6h197v-6l-73 -55v-601h-37l-471 528v-467l79 -55v-6z" />
    <glyph glyph-name="O" unicode="O" horiz-adv-x="746" 
d="M40 323q0 149 96.5 249.5t235.5 100.5q141 0 237.5 -94t96.5 -241q0 -150 -97.5 -249.5t-235.5 -99.5t-235.5 93.5t-97.5 240.5zM150 330q0 -136 65 -219.5t158 -83.5t158.5 83.5t65.5 219.5t-66 220.5t-159 84.5t-157.5 -84.5t-64.5 -220.5z" />
    <glyph glyph-name="P" unicode="P" horiz-adv-x="551" 
d="M522 479q0 -102 -80 -159.5t-190 -55.5v10q70 13 119.5 63t49.5 129q0 74 -44 117.5t-125 43.5h-44v-571l78 -50v-6h-244v6l67 50v550l-67 50v6h244q105 0 170.5 -47.5t65.5 -135.5z" />
    <glyph glyph-name="Q" unicode="Q" horiz-adv-x="744" 
d="M705 338q0 -117 -68.5 -209.5t-188.5 -127.5q202 -95 309 -131t237 -36q51 0 79 7l3 -7q-26 -21 -86 -41t-129 -20q-90 0 -217.5 50t-357.5 171q-39 17 -71 35t-66 47t-56.5 62.5t-37.5 81t-15 103.5q0 150 96.5 250t235.5 100q140 0 236.5 -94t96.5 -241zM150 330
q0 -137 65.5 -219.5t164.5 -82.5q88 0 152.5 83t64.5 219q0 137 -65.5 221t-159.5 84t-158 -83.5t-64 -221.5z" />
    <glyph glyph-name="R" unicode="R" horiz-adv-x="620" 
d="M284 0h-242v6l67 50v550l-67 50v6h253q98 0 152 -38t54 -105q0 -58 -36 -101t-83 -66l117 -198q40 -67 77 -102.5t59 -45.5v-6q-42 -6 -54 -6q-53 0 -91.5 23.5t-75.5 90.5l-126 221h-80v-273l76 -50v-6zM269 627h-61v-264h91q44 0 74 39t30 92q0 68 -38 100.5t-96 32.5z
" />
    <glyph glyph-name="S" unicode="S" horiz-adv-x="474" 
d="M256 673q78 0 130 -19v-104h-6q-55 86 -132 86q-43 0 -70 -24t-27 -65q0 -33 17.5 -61t37.5 -44.5t69 -52.5q82 -58 119.5 -103t37.5 -111q0 -80 -55.5 -132.5t-149.5 -52.5q-98 0 -174 41q-13 86 -8 172h7q9 -25 16 -43.5t22.5 -45t33 -43t44.5 -29t59 -12.5
q50 0 81.5 31.5t31.5 79.5q0 52 -27 85.5t-96 80.5q-80 54 -116.5 100.5t-36.5 107.5q0 73 53 115.5t139 42.5z" />
    <glyph glyph-name="T" unicode="T" horiz-adv-x="642" 
d="M31 662h580v-134h-6l-76 96h-159v-566l70 -52v-6h-239v6l69 52v566h-158l-75 -96h-6v134z" />
    <glyph glyph-name="U" unicode="U" horiz-adv-x="726" 
d="M632 606v-371q0 -104 -70 -175t-185 -71q-131 0 -206.5 63t-75.5 182v372l-68 50v6h237v-6l-69 -50v-370q0 -92 52.5 -139.5t148.5 -47.5q88 0 139 52.5t51 135.5v369l-70 50v6h182v-6z" />
    <glyph glyph-name="V" unicode="V" horiz-adv-x="634" 
d="M525 605l-69 51v6h173v-6l-57 -50l-238 -618h-14l-259 618l-56 50v6h234v-6l-70 -50l183 -455z" />
    <glyph glyph-name="W" unicode="W" horiz-adv-x="953" 
d="M527 656l-49 -50l59 -142l61 142l-49 50v6h146v-6l-54 -50l-84 -191l116 -279l172 470l-65 50v6h168v-6l-57 -50l-228 -618h-15l-154 352l-158 -352h-16l-259 618l-56 50v6h226v-6l-65 -50l191 -470l115 255l-94 215l-55 50v6h204v-6z" />
    <glyph glyph-name="X" unicode="X" horiz-adv-x="655" 
d="M195 0h-189v6l69 50l204 269l-199 281l-67 50v6h252v-6l-67 -50l144 -207l154 206l-67 51v6h189v-6l-69 -50l-182 -243l215 -307l67 -50v-6h-246v6l67 50l-166 233l-176 -233l67 -50v-6z" />
    <glyph glyph-name="Y" unicode="Y" horiz-adv-x="598" 
d="M489 605l-67 51v6h171v-6l-57 -50l-180 -276v-273l67 -51v-6h-233v6l67 51v255l-196 294l-56 50v6h238v-6l-67 -50l156 -242z" />
    <glyph glyph-name="Z" unicode="Z" horiz-adv-x="628" 
d="M580 654l-419 -615h340l86 114h6v-153h-560v9l412 616h-301l-78 -104h-7v141h521v-8z" />
    <glyph glyph-name="bracketleft" unicode="[" horiz-adv-x="243" 
d="M225 738v-24h-87v-848h87v-24h-161v896h161z" />
    <glyph glyph-name="backslash" unicode="\" horiz-adv-x="332" 
d="M57 755l295 -981l-36 -12l-296 981z" />
    <glyph glyph-name="bracketright" unicode="]" horiz-adv-x="244" 
d="M18 714v24h161v-896h-161v24h87v848h-87z" />
    <glyph glyph-name="asciicircum" unicode="^" horiz-adv-x="411" 
d="M206 524l-157 -207l-6 3l161 354h3l162 -354l-6 -3z" />
    <glyph glyph-name="underscore" unicode="_" horiz-adv-x="366" 
d="M371 -123h-376v37h376v-37z" />
    <glyph glyph-name="grave" unicode="`" 
d="M282 498l-8 -4l-159 173l68 45z" />
    <glyph glyph-name="a" unicode="a" horiz-adv-x="415" 
d="M256 218v84q0 34 -17.5 54t-52.5 20q-34 0 -62 -28v-64l-85 26v5q89 112 188 112q55 0 85.5 -30t30.5 -69q0 -35 -2 -140t-2 -114q38 -25 73 -34v-6l-65 -50q-57 21 -88 57q-63 -52 -107 -52q-55 0 -88 29.5t-33 73.5q0 27 12 46.5t26 23.5q53 14 187 56zM255 65
q0 15 0.5 54.5t0.5 63.5q-117 -38 -133 -46q-9 -5 -9 -29q0 -26 19 -45t53 -19q40 0 69 21z" />
    <glyph glyph-name="b" unicode="b" horiz-adv-x="476" 
d="M59 634l-58 34v7q2 0 24 8.5t58 21t66 20.5v-366q61 65 131 65q78 0 123.5 -54t45.5 -140q0 -96 -63 -167.5t-167 -71.5q-32 0 -85 4.5t-73 4.5h-2v634zM238 366q-55 0 -89 -34v-286q31 -18 70 -18q62 0 99.5 50t37.5 127q0 78 -33 119.5t-85 41.5z" />
    <glyph glyph-name="c" unicode="c" horiz-adv-x="414" 
d="M254 424q50 0 121 -15v-101h-6q-24 31 -60 54.5t-75 23.5q-52 0 -87 -46t-35 -112q0 -83 46.5 -129.5t120.5 -46.5q68 0 115 30l4 -7q-60 -85 -168 -85q-87 0 -146 57t-59 153q0 93 62.5 158.5t166.5 65.5z" />
    <glyph glyph-name="d" unicode="d" horiz-adv-x="488" 
d="M327 634l-68 34v6q2 2 25 10.5t61 20.5t70 20v-658l70 -29v-7q-10 -2 -25 -6.5t-26.5 -7.5t-21.5 -5q-16 -5 -35.5 -9.5l-32.5 -7.5t-16 -4v57q-20 -22 -54.5 -40t-59.5 -18q-80 0 -133.5 58t-53.5 144q0 94 62 162t171 68q47 0 67 -5v217zM257 49q45 0 70 25v290
q-25 22 -71 22q-61 0 -99 -49.5t-38 -123.5q0 -76 39 -120t99 -44z" />
    <glyph glyph-name="e" unicode="e" horiz-adv-x="397" 
d="M111 229q0 -83 44.5 -129.5t116.5 -46.5q60 0 108 21l4 -7q-24 -27 -69 -52t-95 -25q-85 0 -140 57.5t-55 153.5q0 91 58 157t136 66q36 0 63.5 -12.5t45 -35.5t27.5 -44t20 -50v-1h-260q-4 -21 -4 -52zM214 389q-27 0 -51.5 -19.5t-38.5 -56.5h159q-3 40 -24.5 58
t-44.5 18z" />
    <glyph glyph-name="f" unicode="f" horiz-adv-x="300" 
d="M165 55l86 -49v-6h-234v6l60 44v312h-66v7l66 41v42q0 113 71.5 188t178.5 75q56 0 90 -10l-30 -69q-63 36 -107 36q-41 0 -78 -46t-37 -130v-85h141l-39 -49h-102v-307z" />
    <glyph glyph-name="g" unicode="g" horiz-adv-x="435" 
d="M33 279q0 60 50 102.5t120 42.5q38 0 68 -10h155v-41h-95q44 -36 44 -89q0 -63 -49 -104.5t-123 -41.5q-32 0 -54 7q-37 -28 -37 -49q0 -37 42 -37h175q29 0 62.5 -31.5t33.5 -85.5q0 -82 -77 -148.5t-174 -66.5q-74 0 -119 30.5t-45 76.5q0 34 26.5 73.5t69.5 74.5
q-28 10 -46.5 32t-18.5 53q0 29 12 41l68 47q-40 18 -64 50t-24 74zM271 -25h-131q-8 0 -11 1q-18 -18 -33.5 -50t-15.5 -61q0 -38 35.5 -61.5t94.5 -23.5q60 0 105.5 35t45.5 83q0 38 -24 57.5t-66 19.5zM122 281q0 -46 23.5 -78.5t58.5 -32.5t58 32t23 79t-23 79.5
t-58 32.5q-36 0 -59 -32t-23 -80z" />
    <glyph glyph-name="h" unicode="h" horiz-adv-x="517" 
d="M226 0h-207v6l59 44v584l-59 34v7q1 0 23.5 8.5t58.5 21t66 20.5v-371q27 27 68 48t82 21q51 0 88.5 -32t37.5 -73v-268l59 -44v-6h-206v6l59 44v241q0 32 -23 54t-65 22q-48 0 -100 -45v-272l59 -44v-6z" />
    <glyph glyph-name="i" unicode="i" horiz-adv-x="245" 
d="M226 0h-206v6l58 44v292l-55 32v6q2 2 22 9.5t55 19t67 19.5v-378l59 -44v-6zM68 582q0 22 14.5 36.5t35.5 14.5q22 0 36 -14.5t14 -36.5q0 -21 -14 -35t-36 -14q-21 0 -35.5 14t-14.5 35z" />
    <glyph glyph-name="j" unicode="j" horiz-adv-x="224" 
d="M110 533q-21 0 -35.5 14t-14.5 35q0 22 14.5 36.5t35.5 14.5t35.5 -14.5t14.5 -36.5q0 -21 -14.5 -35t-35.5 -14zM70 342l-56 32v7q1 0 22 7.5t56.5 19.5t65.5 20v-376q0 -29 -6.5 -64t-42 -104.5t-97.5 -131.5l-9 6q67 138 67 294v290z" />
    <glyph glyph-name="k" unicode="k" horiz-adv-x="483" 
d="M167 721v-671l58 -44v-6h-205v6l58 44v580l-59 34v6q2 2 23.5 10.5t57.5 20.5t67 20zM287 83l-109 144v6l129 127l-54 48v6h202v-6l-91 -45l-110 -100l100 -134q69 -93 128 -123v-6q-21 -9 -59 -9q-42 0 -69.5 19.5t-66.5 72.5z" />
    <glyph glyph-name="l" unicode="l" horiz-adv-x="245" 
d="M167 725v-675l59 -44v-6h-206v6l58 44v584l-59 34v7q1 0 17 6t34.5 13t45.5 15.5t51 15.5z" />
    <glyph glyph-name="m" unicode="m" horiz-adv-x="759" 
d="M167 428v-75q71 71 142 71q40 0 69.5 -21t41.5 -55q76 76 150 76q49 0 82.5 -30.5t33.5 -71.5v-272l59 -44v-6h-205v6l59 44v239q0 34 -19.5 56t-59.5 22q-43 0 -94 -47v-270l60 -44v-6h-206v6l58 44v239q0 34 -19.5 56t-59.5 22q-42 0 -92 -46v-271l58 -44v-6h-205v6
l58 44v292l-55 32v6q2 2 22 9.5t55 19t67 19.5z" />
    <glyph glyph-name="n" unicode="n" horiz-adv-x="517" 
d="M226 0h-206v6l58 44v292l-55 32v6q2 2 22 9.5t55 19t67 19.5v-74q28 28 68 49t81 21q52 0 89.5 -31t37.5 -72v-271l59 -44v-6h-205v6l57 44v241q0 32 -22.5 54t-65.5 22q-52 0 -99 -45v-272l59 -44v-6z" />
    <glyph glyph-name="o" unicode="o" horiz-adv-x="473" 
d="M25 202q0 94 63 158t148 64q87 0 149.5 -59.5t62.5 -153.5q0 -96 -63 -158.5t-149 -62.5t-148.5 59t-62.5 153zM122 207q0 -78 33.5 -129.5t80.5 -51.5t81.5 52t34.5 129q0 76 -34 128.5t-82 52.5q-46 0 -80 -52.5t-34 -128.5z" />
    <glyph glyph-name="p" unicode="p" horiz-adv-x="482" 
d="M154 -216l89 -44v-6h-237v6l59 44v558l-55 31v7q2 2 22 9.5t54.5 18.5t67.5 20v-70q58 66 131 66q79 0 124 -55t45 -140q0 -95 -60 -166.5t-169 -71.5q-35 0 -71 4v-211zM243 364q-57 0 -89 -32v-286q29 -17 69 -17q62 0 100 50t38 127t-32.5 117.5t-85.5 40.5z" />
    <glyph glyph-name="q" unicode="q" horiz-adv-x="481" 
d="M418 -216l59 -44v-6h-237v6l88 44v263q-21 -24 -52.5 -40.5t-60.5 -16.5q-87 0 -137.5 57.5t-50.5 142.5q0 91 60 162t170 71q58 0 104 -13l57 28v-654zM257 48q43 0 71 26v295q-33 16 -71 16q-62 0 -99.5 -48t-37.5 -123q0 -79 37.5 -122.5t99.5 -43.5z" />
    <glyph glyph-name="r" unicode="r" horiz-adv-x="352" 
d="M78 342l-55 32v6q2 2 22 9.5t55 19t67 19.5v-90q79 89 112 89q17 0 61 -12l-29 -85q-35 16 -59 16q-42 0 -85 -35v-260l81 -45v-6h-228v6l58 44v292z" />
    <glyph glyph-name="s" unicode="s" horiz-adv-x="334" 
d="M180 424q55 0 91 -13v-86h-6q-42 64 -94 64q-22 0 -36.5 -12.5t-14.5 -35.5q0 -14 4 -24t17 -21.5t20.5 -16.5l31.5 -21q62 -40 80 -61q30 -34 30 -80q0 -56 -40.5 -91.5t-109.5 -35.5q-64 0 -115 24q-12 58 -7 135h7q15 -48 45 -84.5t74 -36.5q29 0 47.5 17.5t18.5 46.5
q0 28 -18 46.5t-63 45.5q-49 32 -72.5 60t-23.5 72q0 50 37.5 79t96.5 29z" />
    <glyph glyph-name="t" unicode="t" horiz-adv-x="360" 
d="M324 362h-167v-242q0 -32 21.5 -52.5t64.5 -20.5q47 0 87 19l4 -7q-60 -68 -141 -68q-63 0 -94 32t-31 73v266h-55v7l144 112v-69h198z" />
    <glyph glyph-name="u" unicode="u" horiz-adv-x="502" 
d="M69 342l-55 31v7q1 1 21.5 8.5t55.5 19t67 19.5v-303q0 -32 20.5 -54t60.5 -22q43 0 98 44v249l-64 33v7q1 0 23.5 7.5t60.5 19t69 19.5v-361l66 -29v-7l-73 -18l-82 -21v70q-69 -69 -143 -69q-52 0 -88.5 32.5t-36.5 80.5v237z" />
    <glyph glyph-name="v" unicode="v" horiz-adv-x="429" 
d="M430 408l-51 -43l-138 -350q-1 -1 -7 -19l-6 -18h-14l-7 17q-2 5 -8 16.5t-8 18.5l-142 335l-50 43v6h205v-6l-58 -43l96 -245l93 245l-59 43v6h154v-6z" />
    <glyph glyph-name="w" unicode="w" horiz-adv-x="651" 
d="M332 294l-99 -269q-2 -5 -5.5 -13.5t-4.5 -11.5q-5 -12 -5 -13h-14l-7 16q-7 20 -16 40l-132 322l-50 43v6h199v-6l-55 -43l91 -233l78 215l-7 18l-50 43v6h187v-6l-50 -43l85 -232l82 232l-57 43v6h150v-6l-51 -43l-124 -341l-9 -23q-4 -11 -5 -14h-14l-5 13l-16 43z
" />
    <glyph glyph-name="x" unicode="x" horiz-adv-x="442" 
d="M393 49l44 -43v-6h-194v6l56 43l-93 121l-99 -121l59 -43v-6h-160v6l52 44l125 151l-125 164l-49 43v6h207v-6l-57 -43l80 -109l85 109l-57 43v6h157v-6l-52 -45l-111 -136z" />
    <glyph glyph-name="y" unicode="y" horiz-adv-x="428" 
d="M379 364l-170 -436q-50 -133 -57 -194h-106v5q74 65 127 200l28 73l-152 352l-50 44v6h203v-6l-56 -44l98 -241l91 241l-59 44v6h153v-6z" />
    <glyph glyph-name="z" unicode="z" horiz-adv-x="402" 
d="M371 117h6v-117h-357v8l235 373h-143l-64 -76h-6v109h326v-7l-239 -373h174z" />
    <glyph glyph-name="braceleft" unicode="{" horiz-adv-x="285" 
d="M141 -36q0 -88 112 -139l-5 -7q-178 51 -178 165q0 37 38 112t38 107q0 78 -114 79v21q115 1 115 79q0 33 -38.5 105t-38.5 108q0 114 178 161l5 -7q-63 -28 -87.5 -61t-24.5 -74q0 -35 34 -107.5t34 -105.5q0 -40 -30 -69.5t-87 -38.5q57 -9 87 -38.5t30 -69.5
q0 -34 -34 -109.5t-34 -110.5z" />
    <glyph glyph-name="bar" unicode="|" horiz-adv-x="257" 
d="M109 -232v977h39v-977h-39z" />
    <glyph glyph-name="braceright" unicode="}" horiz-adv-x="284" 
d="M143 -36q0 35 -34 110.5t-34 109.5q0 40 30 69.5t87 38.5q-57 9 -87 38.5t-30 69.5q0 33 34 105.5t34 107.5q0 41 -24.5 74t-87.5 61l5 7q178 -47 178 -161q0 -36 -38.5 -108t-38.5 -105q0 -78 115 -79v-21q-114 -1 -114 -79q0 -32 38 -107t38 -112q0 -114 -178 -165
l-5 7q112 51 112 139z" />
    <glyph glyph-name="asciitilde" unicode="~" horiz-adv-x="477" 
d="M338 282q68 0 101 110l6 -1q-4 -78 -35 -130.5t-80 -52.5q-34 0 -100 40t-95 40q-60 0 -97 -110l-6 1q2 73 33 128.5t79 55.5q34 0 100.5 -40.5t93.5 -40.5z" />
    <glyph glyph-name="exclamdown" unicode="&#xa1;" horiz-adv-x="206" 
d="M154 -248h-102q13 101 44 452h14q7 -59 17 -165.5t18 -191t9 -95.5zM157 370q0 -24 -15.5 -39t-38.5 -15t-38.5 15t-15.5 39q0 23 15.5 38.5t38.5 15.5t38.5 -15.5t15.5 -38.5z" />
    <glyph glyph-name="cent" unicode="&#xa2;" horiz-adv-x="421" 
d="M252 502h33l-8 -79q61 -4 104 -14v-101h-5q-49 57 -104 73l-34 -327q17 -4 45 -4q70 0 117 30l5 -7q-65 -83 -172 -83h-1l-8 -78h-34l8 81q-76 10 -124.5 65t-48.5 142q0 91 59.5 155.5t159.5 68.5zM112 228q0 -122 94 -163l34 321h-3q-53 0 -89 -46t-36 -112z" />
    <glyph glyph-name="sterling" unicode="&#xa3;" horiz-adv-x="506" 
d="M9 -16l-7 6q14 22 35 51t31.5 44t21.5 41t18 57q9 40 14 101h-91v36h93q0 4 3.5 59.5t5.5 83.5q6 91 67 150.5t145 59.5q54 0 115 -14v-105h-7q-47 80 -115 80q-86 0 -101 -142q-4 -29 -10 -87t-10 -85h150v-36h-155q-8 -53 -16 -73q-20 -62 -79 -116q31 17 65 17
q32 0 95 -21t94 -21q65 0 117 83l5 -2q-12 -69 -50 -114t-88 -45q-34 0 -102.5 29.5t-105.5 29.5q-65 0 -138 -67z" />
    <glyph glyph-name="yen" unicode="&#xa5;" horiz-adv-x="560" 
d="M452 605l-68 51v6h170v-6l-55 -50l-155 -244h154v-34h-161v-61h161v-34h-161v-176l67 -51v-6h-232l-1 6l66 51v176h-161v34h161v61h-161v34h143l-157 244l-57 50v6h236v-6l-68 -50l139 -222z" />
    <glyph glyph-name="brokenbar" unicode="&#xa6;" horiz-adv-x="257" 
d="M109 312v433h39v-433h-39zM109 -233v448h39v-448h-39z" />
    <glyph glyph-name="section" unicode="&#xa7;" horiz-adv-x="444" 
d="M33 301q0 46 29 76.5t70 44.5q-40 55 -40 113q0 61 44.5 99.5t111.5 38.5q51 0 90 -9v-97h-7q-46 70 -99 70q-30 0 -51.5 -20.5t-21.5 -55.5q0 -38 25.5 -74t103.5 -119q74 -79 102.5 -121.5t28.5 -89.5q0 -46 -28.5 -77t-65.5 -46q35 -53 35 -107q0 -68 -47.5 -115.5
t-121.5 -47.5q-40 0 -78 10t-48 18q-10 49 -4 145h7q15 -55 49 -95.5t79 -40.5q40 0 67 28.5t27 73.5q0 31 -16.5 62t-35.5 52t-77 81q-71 71 -99.5 114t-28.5 89zM217 159q76 -82 94 -106q39 27 39 72q0 40 -20 70.5t-81 95.5q-11 11 -16 17q-68 72 -88 96q-47 -22 -47 -71
q0 -12 2 -22.5t8.5 -22.5t11.5 -20t18.5 -23.5t21 -24t27.5 -29.5t30 -32z" />
    <glyph glyph-name="dieresis" unicode="&#xa8;" 
d="M285 624q19 0 31.5 -13t12.5 -33q0 -19 -12.5 -31t-31.5 -12q-20 0 -32.5 12t-12.5 31q0 20 12.5 33t32.5 13zM116 625q19 0 32.5 -13.5t13.5 -33.5q0 -19 -13.5 -31.5t-32.5 -12.5q-20 0 -32.5 12.5t-12.5 31.5q0 20 12.5 33.5t32.5 13.5z" />
    <glyph glyph-name="copyright" unicode="&#xa9;" horiz-adv-x="760" 
d="M380 637q-126 0 -209.5 -88.5t-83.5 -216.5q0 -126 86 -215.5t207 -89.5q125 0 209 88t84 217q0 125 -85.5 215t-207.5 90zM396 162q-83 0 -139 48.5t-56 125.5q0 73 54.5 125t141.5 52q46 0 108 -13v-89h-4q-48 70 -108 70q-50 0 -80.5 -39.5t-30.5 -100.5
q0 -64 35 -104.5t82 -40.5q59 0 110 66h3v-77q-53 -23 -116 -23zM380 674q141 0 240.5 -100.5t99.5 -241.5q0 -144 -98 -243t-242 -99q-145 0 -242.5 98.5t-97.5 243.5q0 144 98 243t242 99z" />
    <glyph glyph-name="ordfeminine" unicode="&#xaa;" horiz-adv-x="320" 
d="M187 530v53q0 50 -46 50q-30 0 -41 -19v-42l-67 21v4q65 74 135 74q39 0 64 -21.5t25 -47.5q0 -23 -1.5 -95t-1.5 -77q16 -13 48 -25v-4l-50 -35q-30 9 -60 39q-49 -37 -74 -37q-40 0 -65 22t-25 52q0 43 25 53q32 7 134 35zM144 412q23 0 42 12q0 11 0.5 37t0.5 41
l-86 -26q-7 -5 -7 -22q0 -18 13.5 -30t36.5 -12z" />
    <glyph glyph-name="guillemotleft" unicode="&#xab;" horiz-adv-x="347" 
d="M317 69l-9 -5l-141 159v1l141 158l9 -5l-70 -154zM166 64l-141 159v1l141 158l9 -5l-70 -154l70 -154z" />
    <glyph glyph-name="registered" unicode="&#xae;" horiz-adv-x="397" 
d="M199 684q72 0 124 -52t52 -125q0 -75 -51 -126t-125 -51q-75 0 -126 51t-51 126t51 126t126 51zM199 657q-61 0 -102.5 -43.5t-41.5 -106.5q0 -62 42.5 -105.5t101.5 -43.5q61 0 102.5 43t41.5 106q0 62 -41.5 106t-102.5 44zM205 425h-88v5l20 16v137l-20 16v5h95
q26 0 41.5 -11.5t15.5 -31.5q0 -25 -29 -42l28 -47q14 -25 32 -41v-5q-14 -2 -27 -2q-18 0 -27.5 7.5t-18.5 24.5l-27 51h-18v-61l23 -16v-5zM194 583h-12v-56h21q9 0 15 7.5t6 19.5q0 29 -30 29z" />
    <glyph glyph-name="overscore" unicode="&#xaf;" 
d="M99 532v50h203v-50h-203z" />
    <glyph glyph-name="degree" unicode="&#xb0;" horiz-adv-x="252" 
d="M126 460q-45 0 -75.5 30t-30.5 75t30.5 75.5t75.5 30.5t75.5 -30t30.5 -75t-30.5 -75.5t-75.5 -30.5zM194 566q0 32 -19 51.5t-49 19.5q-29 0 -48.5 -19.5t-19.5 -50.5q0 -33 19 -53t49 -20t49 19.5t19 52.5z" />
    <glyph glyph-name="twosuperior" unicode="&#xb2;" horiz-adv-x="249" 
d="M186 477l34 48h6v-99h-217v13q76 90 100 124.5t24 64.5q0 23 -13 36t-35 13q-37 0 -60 -28l-7 4q26 68 98 68q42 0 65.5 -21t23.5 -57q0 -39 -34 -77.5t-102 -88.5h117z" />
    <glyph glyph-name="threesuperior" unicode="&#xb3;" horiz-adv-x="213" 
d="M35 571l-3 9q37 21 54 36.5t17 34.5q0 31 -36 31q-29 0 -50 -21l-5 5q29 55 90 55q32 0 49.5 -14t17.5 -38q0 -40 -59 -61q36 -1 61 -19.5t25 -51.5q0 -50 -46 -82t-141 -38l-3 8q117 45 117 101q0 23 -17 35t-43 12q-14 0 -28 -2z" />
    <glyph glyph-name="acute" unicode="&#xb4;" 
d="M285 667l-159 -174l-8 5l99 214z" />
    <glyph glyph-name="paragraph" unicode="&#xb6;" horiz-adv-x="473" 
d="M214 356h-4q-86 0 -137 43t-51 112q0 66 45.5 108.5t126.5 42.5h71v-662h-117v6l66 50v300zM431 656l-67 -49v-551l67 -50v-6h-118v662h118v-6z" />
    <glyph glyph-name="middot" unicode="&#xb7;" horiz-adv-x="190" 
d="M41 251q0 24 15.5 39t38.5 15t38.5 -15t15.5 -39q0 -23 -15.5 -38.5t-38.5 -15.5t-38.5 15.5t-15.5 38.5z" />
    <glyph glyph-name="cedilla" unicode="&#xb8;" 
d="M211 0h30l-36 -72q32 -7 56.5 -28t24.5 -54q0 -87 -163 -124l-5 10q103 53 103 100q0 21 -21.5 34t-44.5 16l-2 3l29 57q29 54 29 58z" />
    <glyph glyph-name="onesuperior" unicode="&#xb9;" horiz-adv-x="175" 
d="M158 426h-140v4l38 27v203l-41 21v4l107 38v-266l36 -27v-4z" />
    <glyph glyph-name="ordmasculine" unicode="&#xba;" horiz-adv-x="346" 
d="M26 517q0 64 43.5 109t103.5 45t103.5 -42.5t43.5 -105.5t-44 -108.5t-104 -45.5q-61 0 -103.5 42t-42.5 106zM101 521q0 -51 21.5 -87.5t50.5 -36.5q28 0 50 36.5t22 87.5q0 49 -22 85.5t-50 36.5q-29 0 -50.5 -36.5t-21.5 -85.5z" />
    <glyph glyph-name="guillemotright" unicode="&#xbb;" horiz-adv-x="347" 
d="M38 64l-9 5l70 154l-70 154l9 5l141 -158v-1zM321 223l-141 -159l-9 5l70 154l-70 154l9 5l141 -158v-1z" />
    <glyph glyph-name="onequarter" unicode="&#xbc;" horiz-adv-x="523" 
d="M176 373h-140v4l38 27v203l-41 21v4l107 38v-266l36 -27v-4zM18 0l436 662h46l-437 -662h-45zM460 30l34 -26v-4h-133v4l35 26v45h-138v11l155 205h47v-177h59l-25 -39h-34v-45zM313 114h83v110z" />
    <glyph glyph-name="onehalf" unicode="&#xbd;" horiz-adv-x="541" 
d="M18 0l436 662h46l-437 -662h-45zM176 373h-140v4l38 27v203l-41 21v4l107 38v-266l36 -27v-4zM482 51l34 48h6v-99h-217v13q76 90 100 124.5t24 64.5q0 23 -13 36t-35 13q-37 0 -60 -28l-7 4q26 68 98 68q42 0 65.5 -21t23.5 -57q0 -40 -34 -78t-102 -88h117z" />
    <glyph glyph-name="threequarters" unicode="&#xbe;" horiz-adv-x="541" 
d="M12 0l436 662h46l-437 -662h-45zM44 518l-3 9q37 21 54 36.5t17 34.5q0 31 -36 31q-29 0 -50 -21l-5 5q29 55 90 55q32 0 49.5 -14t17.5 -38q0 -40 -59 -61q36 -1 61 -19.5t25 -51.5q0 -50 -46 -82t-141 -38l-3 8q117 45 117 101q0 23 -17 35t-43 12q-14 0 -28 -2z
M453 30l34 -26v-4h-133v4l35 26v45h-138v11l155 205h47v-177h59l-25 -39h-34v-45zM306 114h83v110z" />
    <glyph glyph-name="questiondown" unicode="&#xbf;" horiz-adv-x="342" 
d="M24 -136q0 36 14 64t50 64l71 70q18 19 24 32t6 35q0 12 -0.5 26t-2 28.5t-1.5 20.5h14q48 -100 48 -128q0 -26 -34 -65q-28 -28 -61 -68q-38 -45 -38 -85q0 -37 22 -58t55 -21q62 0 112 84h7v-109q-36 -12 -115 -12q-73 0 -122 30t-49 92zM245 370q0 -24 -15.5 -39
t-38.5 -15t-38.5 15t-15.5 39q0 23 15.5 38.5t38.5 15.5t38.5 -15.5t15.5 -38.5z" />
    <glyph glyph-name="Agrave" unicode="&#xc0;" horiz-adv-x="639" 
d="M107 57l70 -51v-6h-172v6l57 50l240 619h15l260 -619l57 -50v-6h-229v6l70 50l-88 211h-199zM283 514l-81 -210h169zM430 712l-5 -9l-237 69l32 71z" />
    <glyph glyph-name="Aacute" unicode="&#xc1;" horiz-adv-x="639" 
d="M107 57l70 -51v-6h-172v6l57 50l240 619h15l260 -619l57 -50v-6h-229v6l70 50l-88 211h-199zM283 514l-81 -210h169zM435 772l-237 -69l-5 9l210 131z" />
    <glyph glyph-name="Acircumflex" unicode="&#xc2;" horiz-adv-x="639" 
d="M107 57l70 -51v-6h-172v6l57 50l240 619h15l260 -619l57 -50v-6h-229v6l70 50l-88 211h-199zM283 514l-81 -210h169zM167 712l143 125l139 -125l-4 -7l-135 53l-138 -53z" />
    <glyph glyph-name="Atilde" unicode="&#xc3;" horiz-adv-x="639" 
d="M107 57l70 -51v-6h-172v6l57 50l240 619h15l260 -619l57 -50v-6h-229v6l70 50l-88 211h-199zM283 514l-81 -210h169zM256 806q12 0 66 -9t68 -9q27 0 67 48l6 -3q-10 -33 -34 -69t-46 -36q-16 0 -68.5 9t-64.5 9q-5 0 -11.5 -3t-11.5 -6t-13 -9.5t-11.5 -10t-11 -11.5
t-8.5 -9l-6 3q10 33 34 69.5t45 36.5z" />
    <glyph glyph-name="Adieresis" unicode="&#xc4;" horiz-adv-x="639" 
d="M107 57l70 -51v-6h-172v6l57 50l240 619h15l260 -619l57 -50v-6h-229v6l70 50l-88 211h-199zM283 514l-81 -210h169zM217 719q-20 0 -33.5 13.5t-13.5 32.5q0 20 13.5 33.5t33.5 13.5q19 0 32.5 -13.5t13.5 -33.5q0 -19 -13.5 -32.5t-32.5 -13.5zM450 765q0 -19 -13 -32
t-32 -13q-20 0 -33 13t-13 32q0 20 13 33t33 13q19 0 32 -13t13 -33z" />
    <glyph glyph-name="Aring" unicode="&#xc5;" horiz-adv-x="639" 
d="M107 57l70 -51v-6h-172v6l57 50l240 619h15l260 -619l57 -50v-6h-229v6l70 50l-88 211h-199zM283 514l-81 -210h169zM261 778q0 -21 13.5 -36t34.5 -15t34.5 15t13.5 36t-13.5 35.5t-34.5 14.5t-34.5 -14.5t-13.5 -35.5zM229 778q0 33 23.5 56t56.5 23t56.5 -23t23.5 -56
q0 -35 -23 -57t-57 -22t-57 22t-23 57z" />
    <glyph glyph-name="AE" unicode="&#xc6;" horiz-adv-x="863" 
d="M303 656v6h485v-123h-6l-69 86h-194v-255h200l47 69h5v-174h-5l-47 69h-200v-296h214l73 107h7v-145h-461v6l67 50v254h-173l-147 -253l70 -51v-6h-174v6l56 50l318 550zM419 608l-152 -262h152v262z" />
    <glyph glyph-name="Ccedilla" unicode="&#xc7;" horiz-adv-x="670" 
d="M399 -11h-9l-30 -61q32 -7 56.5 -28t24.5 -54q0 -87 -163 -124l-5 10q103 53 103 100q0 21 -21.5 34t-44.5 16l-2 3l29 57l20 39l5 10q-59 5 -106 22q-100 38 -159 120t-59 194q0 142 99.5 244t262.5 102q106 0 204 -29v-116h-6q-82 107 -205 107q-109 0 -176.5 -85.5
t-67.5 -211.5q0 -136 73.5 -223.5t180.5 -87.5q120 0 209 114h5v-107q-87 -45 -218 -45z" />
    <glyph glyph-name="Egrave" unicode="&#xc8;" horiz-adv-x="558" 
d="M409 712l-5 -9l-237 69l32 71zM508 0h-466v6l67 50v550l-67 50v6h443v-122h-6l-69 85h-202v-255h208l47 70h6v-175h-6l-47 68h-208v-295h222l72 106h6v-144z" />
    <glyph glyph-name="Eacute" unicode="&#xc9;" horiz-adv-x="558" 
d="M417 772l-237 -69l-5 9l210 131zM508 0h-466v6l67 50v550l-67 50v6h443v-122h-6l-69 85h-202v-255h208l47 70h6v-175h-6l-47 68h-208v-295h222l72 106h6v-144z" />
    <glyph glyph-name="Ecircumflex" unicode="&#xca;" horiz-adv-x="558" 
d="M143 712l143 125l139 -125l-4 -7l-135 53l-138 -53zM508 0h-466v6l67 50v550l-67 50v6h443v-122h-6l-69 85h-202v-255h208l47 70h6v-175h-6l-47 68h-208v-295h222l72 106h6v-144z" />
    <glyph glyph-name="Edieresis" unicode="&#xcb;" horiz-adv-x="558" 
d="M508 0h-466v6l67 50v550l-67 50v6h443v-122h-6l-69 85h-202v-255h208l47 70h6v-175h-6l-47 68h-208v-295h222l72 106h6v-144zM197 719q-20 0 -33.5 13.5t-13.5 32.5q0 20 13.5 33.5t33.5 13.5q19 0 32.5 -13.5t13.5 -33.5q0 -19 -13.5 -32.5t-32.5 -13.5zM430 765
q0 -19 -13 -32t-32 -13q-20 0 -33 13t-13 32q0 20 13 33t33 13q19 0 32 -13t13 -33z" />
    <glyph glyph-name="Igrave" unicode="&#xcc;" horiz-adv-x="317" 
d="M275 0h-233v6l67 50v550l-67 50v6h233v-6l-67 -50v-550l67 -50v-6zM279 712l-5 -9l-237 69l32 71z" />
    <glyph glyph-name="Iacute" unicode="&#xcd;" horiz-adv-x="317" 
d="M275 0h-233v6l67 50v550l-67 50v6h233v-6l-67 -50v-550l67 -50v-6zM282 772l-237 -69l-5 9l210 131z" />
    <glyph glyph-name="Icircumflex" unicode="&#xce;" horiz-adv-x="317" 
d="M275 0h-233v6l67 50v550l-67 50v6h233v-6l-67 -50v-550l67 -50v-6zM16 712l143 125l139 -125l-4 -7l-135 53l-138 -53z" />
    <glyph glyph-name="Idieresis" unicode="&#xcf;" horiz-adv-x="317" 
d="M275 0h-233v6l67 50v550l-67 50v6h233v-6l-67 -50v-550l67 -50v-6zM66 719q-20 0 -33.5 13.5t-13.5 32.5q0 20 13.5 33.5t33.5 13.5q19 0 32.5 -13.5t13.5 -33.5q0 -19 -13.5 -32.5t-32.5 -13.5zM299 765q0 -19 -13 -32t-32 -13q-20 0 -33 13t-13 32q0 20 13 33t33 13
q19 0 32 -13t13 -33z" />
    <glyph glyph-name="Eth" unicode="&#xd0;" horiz-adv-x="726" 
d="M21 318v38h87v250l-67 50v6h275q160 0 266.5 -86t106.5 -238q0 -149 -95.5 -243.5t-250.5 -94.5h-302v6l67 50v262h-87zM412 318h-205v-260l1 1q48 -23 130 -23q108 0 174.5 82t66.5 217q0 133 -77.5 212t-194.5 79h-100v-270h205v-38z" />
    <glyph glyph-name="Ntilde" unicode="&#xd1;" horiz-adv-x="766" 
d="M347 806q12 0 66 -9t68 -9q27 0 67 48l6 -3q-10 -33 -34 -69t-46 -36q-16 0 -68.5 9t-64.5 9q-5 0 -11.5 -3t-11.5 -6t-13 -9.5t-11.5 -10t-11 -11.5t-8.5 -9l-6 3q10 33 34 69.5t45 36.5zM234 0h-198v6l73 55v519q-51 54 -78 76v6h138l448 -509v448l-78 55v6h197v-6
l-73 -55v-601h-37l-471 528v-467l79 -55v-6z" />
    <glyph glyph-name="Ograve" unicode="&#xd2;" horiz-adv-x="746" 
d="M494 712l-5 -9l-237 69l32 71zM40 323q0 149 96.5 249.5t235.5 100.5q141 0 237.5 -94t96.5 -241q0 -150 -97.5 -249.5t-235.5 -99.5t-235.5 93.5t-97.5 240.5zM150 330q0 -136 65 -219.5t158 -83.5t158.5 83.5t65.5 219.5t-66 220.5t-159 84.5t-157.5 -84.5
t-64.5 -220.5z" />
    <glyph glyph-name="Oacute" unicode="&#xd3;" horiz-adv-x="746" 
d="M496 772l-237 -69l-5 9l210 131zM40 323q0 149 96.5 249.5t235.5 100.5q141 0 237.5 -94t96.5 -241q0 -150 -97.5 -249.5t-235.5 -99.5t-235.5 93.5t-97.5 240.5zM150 330q0 -136 65 -219.5t158 -83.5t158.5 83.5t65.5 219.5t-66 220.5t-159 84.5t-157.5 -84.5
t-64.5 -220.5z" />
    <glyph glyph-name="Ocircumflex" unicode="&#xd4;" horiz-adv-x="746" 
d="M230 712l143 125l139 -125l-4 -7l-135 53l-138 -53zM40 323q0 149 96.5 249.5t235.5 100.5q141 0 237.5 -94t96.5 -241q0 -150 -97.5 -249.5t-235.5 -99.5t-235.5 93.5t-97.5 240.5zM150 330q0 -136 65 -219.5t158 -83.5t158.5 83.5t65.5 219.5t-66 220.5t-159 84.5
t-157.5 -84.5t-64.5 -220.5z" />
    <glyph glyph-name="Otilde" unicode="&#xd5;" horiz-adv-x="746" 
d="M314 806q12 0 66 -9t68 -9q27 0 67 48l6 -3q-10 -33 -34 -69t-46 -36q-16 0 -68.5 9t-64.5 9q-5 0 -11.5 -3t-11.5 -6t-13 -9.5t-11.5 -10t-11 -11.5t-8.5 -9l-6 3q10 33 34 69.5t45 36.5zM40 323q0 149 96.5 249.5t235.5 100.5q141 0 237.5 -94t96.5 -241
q0 -150 -97.5 -249.5t-235.5 -99.5t-235.5 93.5t-97.5 240.5zM150 330q0 -136 65 -219.5t158 -83.5t158.5 83.5t65.5 219.5t-66 220.5t-159 84.5t-157.5 -84.5t-64.5 -220.5z" />
    <glyph glyph-name="Odieresis" unicode="&#xd6;" horiz-adv-x="746" 
d="M280 719q-20 0 -33.5 13.5t-13.5 32.5q0 20 13.5 33.5t33.5 13.5q19 0 32.5 -13.5t13.5 -33.5q0 -19 -13.5 -32.5t-32.5 -13.5zM513 765q0 -19 -13 -32t-32 -13q-20 0 -33 13t-13 32q0 20 13 33t33 13q19 0 32 -13t13 -33zM40 323q0 149 96.5 249.5t235.5 100.5
q141 0 237.5 -94t96.5 -241q0 -150 -97.5 -249.5t-235.5 -99.5t-235.5 93.5t-97.5 240.5zM150 330q0 -136 65 -219.5t158 -83.5t158.5 83.5t65.5 219.5t-66 220.5t-159 84.5t-157.5 -84.5t-64.5 -220.5z" />
    <glyph glyph-name="multiply" unicode="&#xd7;" horiz-adv-x="418" 
d="M76 82l-26 25l133 138l-133 137l27 27l132 -137l132 137l27 -26l-134 -138l134 -138l-27 -25l-133 136z" />
    <glyph glyph-name="Oslash" unicode="&#xd8;" horiz-adv-x="746" 
d="M40 323q0 149 96.5 249.5t235.5 100.5q90 0 170 -44l52 81l31 -19l-52 -81q133 -99 133 -272q0 -150 -97.5 -249.5t-235.5 -99.5q-93 0 -172 45l-62 -96l-32 20l63 97q-130 96 -130 268zM597 330q0 131 -64 218l-298 -461q60 -60 138 -60q93 0 158.5 83.5t65.5 219.5z
M150 330q0 -129 60 -213l298 460q-61 58 -136 58q-93 0 -157.5 -84.5t-64.5 -220.5z" />
    <glyph glyph-name="Ugrave" unicode="&#xd9;" horiz-adv-x="726" 
d="M508 712l-5 -9l-237 69l32 71zM632 606v-371q0 -104 -70 -175t-185 -71q-131 0 -206.5 63t-75.5 182v372l-68 50v6h237v-6l-69 -50v-370q0 -92 52.5 -139.5t148.5 -47.5q88 0 139 52.5t51 135.5v369l-70 50v6h182v-6z" />
    <glyph glyph-name="Uacute" unicode="&#xda;" horiz-adv-x="726" 
d="M515 772l-237 -69l-5 9l210 131zM632 606v-371q0 -104 -70 -175t-185 -71q-131 0 -206.5 63t-75.5 182v372l-68 50v6h237v-6l-69 -50v-370q0 -92 52.5 -139.5t148.5 -47.5q88 0 139 52.5t51 135.5v369l-70 50v6h182v-6z" />
    <glyph glyph-name="Ucircumflex" unicode="&#xdb;" horiz-adv-x="726" 
d="M249 712l143 125l139 -125l-4 -7l-135 53l-138 -53zM632 606v-371q0 -104 -70 -175t-185 -71q-131 0 -206.5 63t-75.5 182v372l-68 50v6h237v-6l-69 -50v-370q0 -92 52.5 -139.5t148.5 -47.5q88 0 139 52.5t51 135.5v369l-70 50v6h182v-6z" />
    <glyph glyph-name="Udieresis" unicode="&#xdc;" horiz-adv-x="726" 
d="M632 606v-371q0 -104 -70 -175t-185 -71q-131 0 -206.5 63t-75.5 182v372l-68 50v6h237v-6l-69 -50v-370q0 -92 52.5 -139.5t148.5 -47.5q88 0 139 52.5t51 135.5v369l-70 50v6h182v-6zM298 719q-20 0 -33.5 13.5t-13.5 32.5q0 20 13.5 33.5t33.5 13.5q19 0 32.5 -13.5
t13.5 -33.5q0 -19 -13.5 -32.5t-32.5 -13.5zM531 765q0 -19 -13 -32t-32 -13q-20 0 -33 13t-13 32q0 20 13 33t33 13q19 0 32 -13t13 -33z" />
    <glyph glyph-name="Yacute" unicode="&#xdd;" horiz-adv-x="598" 
d="M489 605l-67 51v6h171v-6l-57 -50l-180 -276v-273l67 -51v-6h-233v6l67 51v255l-196 294l-56 50v6h238v-6l-67 -50l156 -242zM469 772l-237 -69l-5 9l210 131z" />
    <glyph glyph-name="Thorn" unicode="&#xde;" horiz-adv-x="560" 
d="M209 606v-101h80q110 0 175.5 -35.5t65.5 -110.5q0 -86 -81 -131t-197 -43v9q45 9 81 25t66 49.5t30 78.5q0 123 -174 123h-46v-414l70 -50v-6h-237v6l67 50v550l-67 50v6h234v-6z" />
    <glyph glyph-name="germandbls" unicode="&#xdf;" horiz-adv-x="520" 
d="M298 718q69 0 108 -36t39 -90q0 -33 -20.5 -64.5t-45.5 -52t-45.5 -45t-20.5 -44.5q0 -23 16.5 -42t60.5 -53q62 -50 86 -82t24 -79q0 -59 -42 -99.5t-108 -40.5q-63 0 -108 26q-8 51 -6 122h7q43 -109 109 -109q30 0 49.5 22t19.5 55q0 21 -11.5 40t-24.5 30.5t-47 39.5
q-48 39 -68.5 66t-20.5 65q0 23 11.5 46t28.5 42.5t33.5 41t28 50t11.5 59.5q0 45 -24 68t-60 23q-47 0 -80.5 -44.5t-33.5 -135.5v-447l55 -44v-6h-202v6l59 44v312h-63v7l63 41v45q0 113 64.5 188t157.5 75z" />
    <glyph glyph-name="agrave" unicode="&#xe0;" horiz-adv-x="415" 
d="M256 218v84q0 34 -17.5 54t-52.5 20q-34 0 -62 -28v-64l-85 26v5q89 112 188 112q55 0 85.5 -30t30.5 -69q0 -35 -2 -140t-2 -114q38 -25 73 -34v-6l-65 -50q-57 21 -88 57q-63 -52 -107 -52q-55 0 -88 29.5t-33 73.5q0 27 12 46.5t26 23.5q53 14 187 56zM255 65
q0 15 0.5 54.5t0.5 63.5q-117 -38 -133 -46q-9 -5 -9 -29q0 -26 19 -45t53 -19q40 0 69 21zM257 498l-8 -4l-159 173l68 45z" />
    <glyph glyph-name="aacute" unicode="&#xe1;" horiz-adv-x="415" 
d="M256 218v84q0 34 -17.5 54t-52.5 20q-34 0 -62 -28v-64l-85 26v5q89 112 188 112q55 0 85.5 -30t30.5 -69q0 -35 -2 -140t-2 -114q38 -25 73 -34v-6l-65 -50q-57 21 -88 57q-63 -52 -107 -52q-55 0 -88 29.5t-33 73.5q0 27 12 46.5t26 23.5q53 14 187 56zM255 65
q0 15 0.5 54.5t0.5 63.5q-117 -38 -133 -46q-9 -5 -9 -29q0 -26 19 -45t53 -19q40 0 69 21zM311 667l-159 -174l-8 5l99 214z" />
    <glyph glyph-name="acircumflex" unicode="&#xe2;" horiz-adv-x="415" 
d="M256 218v84q0 34 -17.5 54t-52.5 20q-34 0 -62 -28v-64l-85 26v5q89 112 188 112q55 0 85.5 -30t30.5 -69q0 -35 -2 -140t-2 -114q38 -25 73 -34v-6l-65 -50q-57 21 -88 57q-63 -52 -107 -52q-55 0 -88 29.5t-33 73.5q0 27 12 46.5t26 23.5q53 14 187 56zM255 65
q0 15 0.5 54.5t0.5 63.5q-117 -38 -133 -46q-9 -5 -9 -29q0 -26 19 -45t53 -19q40 0 69 21zM92 489l108 218l108 -218l-8 -5l-100 107l-100 -107z" />
    <glyph glyph-name="atilde" unicode="&#xe3;" horiz-adv-x="415" 
d="M256 218v84q0 34 -17.5 54t-52.5 20q-34 0 -62 -28v-64l-85 26v5q89 112 188 112q55 0 85.5 -30t30.5 -69q0 -35 -2 -140t-2 -114q38 -25 73 -34v-6l-65 -50q-57 21 -88 57q-63 -52 -107 -52q-55 0 -88 29.5t-33 73.5q0 27 12 46.5t26 23.5q53 14 187 56zM255 65
q0 15 0.5 54.5t0.5 63.5q-117 -38 -133 -46q-9 -5 -9 -29q0 -26 19 -45t53 -19q40 0 69 21zM149 614q13 0 59.5 -13t58.5 -13q16 0 59 52l7 -3q-9 -38 -29.5 -74t-39.5 -36q-16 0 -62 13t-56 13q-20 0 -60 -51l-7 2q10 40 30 75t40 35z" />
    <glyph glyph-name="adieresis" unicode="&#xe4;" horiz-adv-x="415" 
d="M256 218v84q0 34 -17.5 54t-52.5 20q-34 0 -62 -28v-64l-85 26v5q89 112 188 112q55 0 85.5 -30t30.5 -69q0 -35 -2 -140t-2 -114q38 -25 73 -34v-6l-65 -50q-57 21 -88 57q-63 -52 -107 -52q-55 0 -88 29.5t-33 73.5q0 27 12 46.5t26 23.5q53 14 187 56zM255 65
q0 15 0.5 54.5t0.5 63.5q-117 -38 -133 -46q-9 -5 -9 -29q0 -26 19 -45t53 -19q40 0 69 21zM288 624q19 0 31.5 -13t12.5 -33q0 -19 -12.5 -31t-31.5 -12q-20 0 -32.5 12t-12.5 31q0 20 12.5 33t32.5 13zM119 625q19 0 32.5 -13.5t13.5 -33.5q0 -19 -13.5 -31.5t-32.5 -12.5
q-20 0 -32.5 12.5t-12.5 31.5q0 20 12.5 33.5t32.5 13.5z" />
    <glyph glyph-name="aring" unicode="&#xe5;" horiz-adv-x="415" 
d="M256 218v84q0 34 -17.5 54t-52.5 20q-34 0 -62 -28v-64l-85 26v5q89 112 188 112q55 0 85.5 -30t30.5 -69q0 -35 -2 -140t-2 -114q38 -25 73 -34v-6l-65 -50q-57 21 -88 57q-63 -52 -107 -52q-55 0 -88 29.5t-33 73.5q0 27 12 46.5t26 23.5q53 14 187 56zM255 65
q0 15 0.5 54.5t0.5 63.5q-117 -38 -133 -46q-9 -5 -9 -29q0 -26 19 -45t53 -19q40 0 69 21zM152 576q0 -21 13.5 -36t34.5 -15t34.5 15t13.5 36t-13.5 35.5t-34.5 14.5t-34.5 -14.5t-13.5 -35.5zM120 576q0 33 23.5 56t56.5 23t56.5 -23t23.5 -56q0 -35 -23 -57t-57 -22
t-57 22t-23 57z" />
    <glyph glyph-name="ae" unicode="&#xe6;" horiz-adv-x="612" 
d="M63 164q8 3 35.5 12t72 23t79.5 26q1 29 1 79q0 72 -68 72q-33 0 -61 -28v-64l-85 26v5q20 24 30.5 35t36.5 33.5t55.5 33t62.5 10.5q73 0 100 -57q54 54 119 54q101 0 156 -120v-3l-260 -85q4 -76 46.5 -119.5t106.5 -43.5q54 0 106 21l4 -7q-26 -28 -69 -52.5
t-93 -24.5q-93 0 -146 71q-22 -27 -58 -49.5t-73 -22.5q-61 0 -96.5 29t-35.5 74q0 28 10.5 47t23.5 25zM188 44q45 0 89 39q-26 50 -27 107q-40 -16 -128 -49q-10 -6 -10 -32q0 -28 19 -46.5t57 -18.5zM436 389q-32 0 -62 -37t-36 -102l166 61q-4 31 -23 54.5t-45 23.5z
" />
    <glyph glyph-name="ccedilla" unicode="&#xe7;" horiz-adv-x="414" 
d="M254 424q50 0 121 -15v-101h-6q-24 31 -60 54.5t-75 23.5q-52 0 -87 -46t-35 -112q0 -83 46.5 -129.5t120.5 -46.5q68 0 115 30l4 -7q-39 -56 -109 -77q-20 -6 -53 -8l-31 -62q32 -7 56.5 -28t24.5 -54q0 -87 -163 -124l-5 10q103 53 103 100q0 21 -21.5 34t-44.5 16
l-2 3l29 57l20 39l5 10q-32 3 -56 13q-57 22 -91.5 73t-34.5 123q0 93 62.5 158.5t166.5 65.5z" />
    <glyph glyph-name="egrave" unicode="&#xe8;" horiz-adv-x="397" 
d="M111 229q0 -83 44.5 -129.5t116.5 -46.5q60 0 108 21l4 -7q-24 -27 -69 -52t-95 -25q-85 0 -140 57.5t-55 153.5q0 91 58 157t136 66q36 0 63.5 -12.5t45 -35.5t27.5 -44t20 -50v-1h-260q-4 -21 -4 -52zM214 389q-27 0 -51.5 -19.5t-38.5 -56.5h159q-3 40 -24.5 58
t-44.5 18zM264 498l-8 -4l-159 173l68 45z" />
    <glyph glyph-name="eacute" unicode="&#xe9;" horiz-adv-x="397" 
d="M321 667l-159 -174l-8 5l99 214zM111 229q0 -83 44.5 -129.5t116.5 -46.5q60 0 108 21l4 -7q-24 -27 -69 -52t-95 -25q-85 0 -140 57.5t-55 153.5q0 91 58 157t136 66q36 0 63.5 -12.5t45 -35.5t27.5 -44t20 -50v-1h-260q-4 -21 -4 -52zM214 389q-27 0 -51.5 -19.5
t-38.5 -56.5h159q-3 40 -24.5 58t-44.5 18z" />
    <glyph glyph-name="ecircumflex" unicode="&#xea;" horiz-adv-x="397" 
d="M98 489l108 218l108 -218l-8 -5l-100 107l-100 -107zM111 229q0 -83 44.5 -129.5t116.5 -46.5q60 0 108 21l4 -7q-24 -27 -69 -52t-95 -25q-85 0 -140 57.5t-55 153.5q0 91 58 157t136 66q36 0 63.5 -12.5t45 -35.5t27.5 -44t20 -50v-1h-260q-4 -21 -4 -52zM214 389
q-27 0 -51.5 -19.5t-38.5 -56.5h159q-3 40 -24.5 58t-44.5 18z" />
    <glyph glyph-name="edieresis" unicode="&#xeb;" horiz-adv-x="397" 
d="M292 624q19 0 31.5 -13t12.5 -33q0 -19 -12.5 -31t-31.5 -12q-20 0 -32.5 12t-12.5 31q0 20 12.5 33t32.5 13zM123 625q19 0 32.5 -13.5t13.5 -33.5q0 -19 -13.5 -31.5t-32.5 -12.5q-20 0 -32.5 12.5t-12.5 31.5q0 20 12.5 33.5t32.5 13.5zM111 229q0 -83 44.5 -129.5
t116.5 -46.5q60 0 108 21l4 -7q-24 -27 -69 -52t-95 -25q-85 0 -140 57.5t-55 153.5q0 91 58 157t136 66q36 0 63.5 -12.5t45 -35.5t27.5 -44t20 -50v-1h-260q-4 -21 -4 -52zM214 389q-27 0 -51.5 -19.5t-38.5 -56.5h159q-3 40 -24.5 58t-44.5 18z" />
    <glyph glyph-name="igrave" unicode="&#xec;" horiz-adv-x="245" 
d="M226 0h-206v6l58 44v292l-55 32v6q2 2 22 9.5t55 19t67 19.5v-378l59 -44v-6zM170 498l-8 -4l-159 173l68 45z" />
    <glyph glyph-name="iacute" unicode="&#xed;" horiz-adv-x="245" 
d="M234 667l-159 -174l-8 5l99 214zM226 0h-206v6l58 44v292l-55 32v6q2 2 22 9.5t55 19t67 19.5v-378l59 -44v-6z" />
    <glyph glyph-name="icircumflex" unicode="&#xee;" horiz-adv-x="245" 
d="M7 489l108 218l108 -218l-8 -5l-100 107l-100 -107zM226 0h-206v6l58 44v292l-55 32v6q2 2 22 9.5t55 19t67 19.5v-378l59 -44v-6z" />
    <glyph glyph-name="idieresis" unicode="&#xef;" horiz-adv-x="245" 
d="M226 0h-206v6l58 44v292l-55 32v6q2 2 22 9.5t55 19t67 19.5v-378l59 -44v-6zM198 624q19 0 32 -13t13 -33q0 -19 -13 -31t-32 -12q-20 0 -32.5 12t-12.5 31q0 20 12.5 33t32.5 13zM41 625q19 0 32.5 -13.5t13.5 -33.5q0 -19 -13.5 -31.5t-32.5 -12.5q-20 0 -33 12.5
t-13 31.5q0 20 13 33.5t33 13.5z" />
    <glyph glyph-name="eth" unicode="&#xf0;" horiz-adv-x="473" 
d="M40 711l3 8q113 -28 205 -94l104 61l16 -29l-91 -54q165 -141 165 -341q0 -121 -61 -196.5t-145 -75.5q-85 0 -148.5 59t-63.5 162q0 89 54.5 148.5t140.5 59.5q68 0 110 -38q-32 103 -109 189l-140 -83l-17 28l134 79q-72 72 -157 117zM350 245q0 40 -9 90
q-41 47 -103 47q-56 0 -87 -46.5t-31 -118.5q0 -84 36.5 -137.5t80.5 -53.5q45 0 79 63t34 156z" />
    <glyph glyph-name="ntilde" unicode="&#xf1;" horiz-adv-x="517" 
d="M226 0h-206v6l58 44v292l-55 32v6q2 2 22 9.5t55 19t67 19.5v-74q28 28 68 49t81 21q52 0 89.5 -31t37.5 -72v-271l59 -44v-6h-205v6l57 44v241q0 32 -22.5 54t-65.5 22q-52 0 -99 -45v-272l59 -44v-6zM208 614q13 0 59.5 -13t58.5 -13q16 0 59 52l7 -3q-9 -38 -29.5 -74
t-39.5 -36q-16 0 -62 13t-56 13q-20 0 -60 -51l-7 2q10 40 30 75t40 35z" />
    <glyph glyph-name="ograve" unicode="&#xf2;" horiz-adv-x="473" 
d="M25 202q0 94 63 158t148 64q87 0 149.5 -59.5t62.5 -153.5q0 -96 -63 -158.5t-149 -62.5t-148.5 59t-62.5 153zM122 207q0 -78 33.5 -129.5t80.5 -51.5t81.5 52t34.5 129q0 76 -34 128.5t-82 52.5q-46 0 -80 -52.5t-34 -128.5zM280 498l-8 -4l-159 173l68 45z" />
    <glyph glyph-name="oacute" unicode="&#xf3;" horiz-adv-x="473" 
d="M346 667l-159 -174l-8 5l99 214zM25 202q0 94 63 158t148 64q87 0 149.5 -59.5t62.5 -153.5q0 -96 -63 -158.5t-149 -62.5t-148.5 59t-62.5 153zM122 207q0 -78 33.5 -129.5t80.5 -51.5t81.5 52t34.5 129q0 76 -34 128.5t-82 52.5q-46 0 -80 -52.5t-34 -128.5z" />
    <glyph glyph-name="ocircumflex" unicode="&#xf4;" horiz-adv-x="473" 
d="M127 489l108 218l108 -218l-8 -5l-100 107l-100 -107zM25 202q0 94 63 158t148 64q87 0 149.5 -59.5t62.5 -153.5q0 -96 -63 -158.5t-149 -62.5t-148.5 59t-62.5 153zM122 207q0 -78 33.5 -129.5t80.5 -51.5t81.5 52t34.5 129q0 76 -34 128.5t-82 52.5q-46 0 -80 -52.5
t-34 -128.5z" />
    <glyph glyph-name="otilde" unicode="&#xf5;" horiz-adv-x="473" 
d="M25 202q0 94 63 158t148 64q87 0 149.5 -59.5t62.5 -153.5q0 -96 -63 -158.5t-149 -62.5t-148.5 59t-62.5 153zM122 207q0 -78 33.5 -129.5t80.5 -51.5t81.5 52t34.5 129q0 76 -34 128.5t-82 52.5q-46 0 -80 -52.5t-34 -128.5zM180 614q13 0 59.5 -13t58.5 -13
q16 0 59 52l7 -3q-9 -38 -29.5 -74t-39.5 -36q-16 0 -62 13t-56 13q-20 0 -60 -51l-7 2q10 40 30 75t40 35z" />
    <glyph glyph-name="odieresis" unicode="&#xf6;" horiz-adv-x="473" 
d="M320 624q19 0 31.5 -13t12.5 -33q0 -19 -12.5 -31t-31.5 -12q-20 0 -32.5 12t-12.5 31q0 20 12.5 33t32.5 13zM151 625q19 0 32.5 -13.5t13.5 -33.5q0 -19 -13.5 -31.5t-32.5 -12.5q-20 0 -32.5 12.5t-12.5 31.5q0 20 12.5 33.5t32.5 13.5zM25 202q0 94 63 158t148 64
q87 0 149.5 -59.5t62.5 -153.5q0 -96 -63 -158.5t-149 -62.5t-148.5 59t-62.5 153zM122 207q0 -78 33.5 -129.5t80.5 -51.5t81.5 52t34.5 129q0 76 -34 128.5t-82 52.5q-46 0 -80 -52.5t-34 -128.5z" />
    <glyph glyph-name="divide" unicode="&#xf7;" horiz-adv-x="469" 
d="M184 87q0 23 14.5 37t35.5 14q22 0 36.5 -14t14.5 -37q0 -21 -15 -35.5t-36 -14.5t-35.5 14.5t-14.5 35.5zM184 404q0 22 14.5 37t35.5 15t36 -15t15 -37q0 -21 -15 -35.5t-36 -14.5t-35.5 14.5t-14.5 35.5zM45 227v38h378v-38h-378z" />
    <glyph glyph-name="oslash" unicode="&#xf8;" horiz-adv-x="473" 
d="M25 202q0 95 63 158.5t148 63.5q53 0 100 -25l46 72l30 -17l-47 -74q82 -63 82 -169q0 -96 -62.5 -158.5t-148.5 -62.5q-54 0 -101 25l-48 -77l-31 17l50 79q-81 61 -81 168zM354 207q0 69 -25 115l-164 -261q30 -35 71 -35q48 0 83 52t35 129zM121 207q0 -65 23 -113
l164 260q-31 34 -72 34q-47 0 -81 -52.5t-34 -128.5z" />
    <glyph glyph-name="ugrave" unicode="&#xf9;" horiz-adv-x="502" 
d="M69 342l-55 31v7q1 1 21.5 8.5t55.5 19t67 19.5v-303q0 -32 20.5 -54t60.5 -22q43 0 98 44v249l-64 33v7q1 0 23.5 7.5t60.5 19t69 19.5v-361l66 -29v-7l-73 -18l-82 -21v70q-69 -69 -143 -69q-52 0 -88.5 32.5t-36.5 80.5v237zM295 498l-8 -4l-159 173l68 45z" />
    <glyph glyph-name="uacute" unicode="&#xfa;" horiz-adv-x="502" 
d="M369 667l-159 -174l-8 5l99 214zM69 342l-55 31v7q1 1 21.5 8.5t55.5 19t67 19.5v-303q0 -32 20.5 -54t60.5 -22q43 0 98 44v249l-64 33v7q1 0 23.5 7.5t60.5 19t69 19.5v-361l66 -29v-7l-73 -18l-82 -21v70q-69 -69 -143 -69q-52 0 -88.5 32.5t-36.5 80.5v237z" />
    <glyph glyph-name="ucircumflex" unicode="&#xfb;" horiz-adv-x="502" 
d="M133 489l108 218l108 -218l-8 -5l-100 107l-100 -107zM69 342l-55 31v7q1 1 21.5 8.5t55.5 19t67 19.5v-303q0 -32 20.5 -54t60.5 -22q43 0 98 44v249l-64 33v7q1 0 23.5 7.5t60.5 19t69 19.5v-361l66 -29v-7l-73 -18l-82 -21v70q-69 -69 -143 -69q-52 0 -88.5 32.5
t-36.5 80.5v237z" />
    <glyph glyph-name="udieresis" unicode="&#xfc;" horiz-adv-x="502" 
d="M326 624q19 0 31.5 -13t12.5 -33q0 -19 -12.5 -31t-31.5 -12q-20 0 -32.5 12t-12.5 31q0 20 12.5 33t32.5 13zM157 625q19 0 32.5 -13.5t13.5 -33.5q0 -19 -13.5 -31.5t-32.5 -12.5q-20 0 -32.5 12.5t-12.5 31.5q0 20 12.5 33.5t32.5 13.5zM69 342l-55 31v7q1 1 21.5 8.5
t55.5 19t67 19.5v-303q0 -32 20.5 -54t60.5 -22q43 0 98 44v249l-64 33v7q1 0 23.5 7.5t60.5 19t69 19.5v-361l66 -29v-7l-73 -18l-82 -21v70q-69 -69 -143 -69q-52 0 -88.5 32.5t-36.5 80.5v237z" />
    <glyph glyph-name="yacute" unicode="&#xfd;" horiz-adv-x="428" 
d="M379 364l-170 -436q-50 -133 -57 -194h-106v5q74 65 127 200l28 73l-152 352l-50 44v6h203v-6l-56 -44l98 -241l91 241l-59 44v6h153v-6zM355 667l-159 -174l-8 5l99 214z" />
    <glyph glyph-name="thorn" unicode="&#xfe;" horiz-adv-x="477" 
d="M60 633l-58 35v7q1 0 23 8.5t58 21t66 20.5v-367q58 66 132 66q79 0 123.5 -55t44.5 -140q0 -95 -60 -166.5t-169 -71.5q-44 0 -71 3v-210l89 -44v-6h-237v6l59 44v849zM238 364q-55 0 -89 -32v-286q29 -17 69 -17q62 0 100 50t38 127t-32.5 117.5t-85.5 40.5z" />
    <glyph glyph-name="ydieresis" unicode="&#xff;" horiz-adv-x="428" 
d="M379 364l-170 -436q-50 -133 -57 -194h-106v5q74 65 127 200l28 73l-152 352l-50 44v6h203v-6l-56 -44l98 -241l91 241l-59 44v6h153v-6zM314 624q19 0 31.5 -13t12.5 -33q0 -19 -12.5 -31t-31.5 -12q-20 0 -32.5 12t-12.5 31q0 20 12.5 33t32.5 13zM145 625
q19 0 32.5 -13.5t13.5 -33.5q0 -19 -13.5 -31.5t-32.5 -12.5q-20 0 -32.5 12.5t-12.5 31.5q0 20 12.5 33.5t32.5 13.5z" />
    <glyph glyph-name="Amacron" unicode="&#x100;" horiz-adv-x="639" 
d="M107 57l70 -51v-6h-172v6l57 50l240 619h15l260 -619l57 -50v-6h-229v6l70 50l-88 211h-199zM283 514l-81 -210h169zM195 725v50h231v-50h-231z" />
    <glyph glyph-name="amacron" unicode="&#x101;" horiz-adv-x="415" 
d="M256 218v84q0 34 -17.5 54t-52.5 20q-34 0 -62 -28v-64l-85 26v5q89 112 188 112q55 0 85.5 -30t30.5 -69q0 -35 -2 -140t-2 -114q38 -25 73 -34v-6l-65 -50q-57 21 -88 57q-63 -52 -107 -52q-55 0 -88 29.5t-33 73.5q0 27 12 46.5t26 23.5q53 14 187 56zM255 65
q0 15 0.5 54.5t0.5 63.5q-117 -38 -133 -46q-9 -5 -9 -29q0 -26 19 -45t53 -19q40 0 69 21zM94 532v50h203v-50h-203z" />
    <glyph glyph-name="Abreve" unicode="&#x102;" horiz-adv-x="639" 
d="M107 57l70 -51v-6h-172v6l57 50l240 619h15l260 -619l57 -50v-6h-229v6l70 50l-88 211h-199zM283 514l-81 -210h169zM310 711q-51 0 -81 36.5t-32 86.5l7 1q34 -63 106 -63t106 63l7 -1q-2 -49 -32 -86t-81 -37z" />
    <glyph glyph-name="abreve" unicode="&#x103;" horiz-adv-x="415" 
d="M256 218v84q0 34 -17.5 54t-52.5 20q-34 0 -62 -28v-64l-85 26v5q89 112 188 112q55 0 85.5 -30t30.5 -69q0 -35 -2 -140t-2 -114q38 -25 73 -34v-6l-65 -50q-57 21 -88 57q-63 -52 -107 -52q-55 0 -88 29.5t-33 73.5q0 27 12 46.5t26 23.5q53 14 187 56zM255 65
q0 15 0.5 54.5t0.5 63.5q-117 -38 -133 -46q-9 -5 -9 -29q0 -26 19 -45t53 -19q40 0 69 21zM200 565q32 0 55.5 20t35.5 52l8 -1q0 -57 -25.5 -94t-73.5 -37t-73.5 36t-25.5 95l8 1q10 -32 34 -52t57 -20z" />
    <glyph glyph-name="Aogonek" unicode="&#x104;" horiz-adv-x="639" 
d="M499 0l-113 267h-198l-81 -210l70 -51v-6h-172v6l57 50l240 619h15l260 -619l57 -50v-6h-113q-89 -89 -89 -158q0 -33 19.5 -50.5t53.5 -17.5q25 0 50 11l4 -5q-43 -53 -107 -53q-45 0 -72 26.5t-27 68.5q0 89 146 178zM283 514l-81 -210h169z" />
    <glyph glyph-name="aogonek" unicode="&#x105;" horiz-adv-x="415" 
d="M339 74q38 -25 73 -34v-6q-138 -94 -138 -192q0 -68 73 -68q25 0 50 11l4 -5q-43 -53 -107 -53q-45 0 -72 26.5t-27 68.5q0 86 133 169q-46 21 -69 49q-62 -51 -107 -51q-55 0 -88 29.5t-33 73.5q0 27 12 46.5t26 23.5q53 14 187 56v84q0 34 -17.5 54t-52.5 20
q-34 0 -62 -28v-64l-85 26v5q89 112 188 112q55 0 85.5 -30t30.5 -69q0 -35 -2 -140t-2 -114zM186 44q40 0 69 21q0 15 0.5 54.5t0.5 63.5q-117 -38 -133 -46q-9 -5 -9 -29q0 -26 19 -45t53 -19z" />
    <glyph glyph-name="Cacute" unicode="&#x106;" horiz-adv-x="670" 
d="M399 -11q-156 0 -258.5 94t-102.5 244q0 142 99.5 244t262.5 102q106 0 204 -29v-116h-6q-82 107 -205 107q-109 0 -176.5 -85.5t-67.5 -211.5q0 -136 73.5 -223.5t180.5 -87.5q120 0 209 114h5v-107q-87 -45 -218 -45zM508 772l-237 -69l-5 9l210 131z" />
    <glyph glyph-name="cacute" unicode="&#x107;" horiz-adv-x="414" 
d="M344 667l-159 -174l-8 5l99 214zM254 424q50 0 121 -15v-101h-6q-24 31 -60 54.5t-75 23.5q-52 0 -87 -46t-35 -112q0 -83 46.5 -129.5t120.5 -46.5q68 0 115 30l4 -7q-60 -85 -168 -85q-87 0 -146 57t-59 153q0 93 62.5 158.5t166.5 65.5z" />
    <glyph glyph-name="Ccircumflex" unicode="&#x108;" horiz-adv-x="670" 
d="M242 712l143 125l139 -125l-4 -7l-135 53l-138 -53zM399 -11q-156 0 -258.5 94t-102.5 244q0 142 99.5 244t262.5 102q106 0 204 -29v-116h-6q-82 107 -205 107q-109 0 -176.5 -85.5t-67.5 -211.5q0 -136 73.5 -223.5t180.5 -87.5q120 0 209 114h5v-107q-87 -45 -218 -45
z" />
    <glyph glyph-name="ccircumflex" unicode="&#x109;" horiz-adv-x="414" 
d="M117 489l108 218l108 -218l-8 -5l-100 107l-100 -107zM254 424q50 0 121 -15v-101h-6q-24 31 -60 54.5t-75 23.5q-52 0 -87 -46t-35 -112q0 -83 46.5 -129.5t120.5 -46.5q68 0 115 30l4 -7q-60 -85 -168 -85q-87 0 -146 57t-59 153q0 93 62.5 158.5t166.5 65.5z" />
    <glyph glyph-name="Cdotaccent" unicode="&#x10a;" horiz-adv-x="670" 
d="M399 -11q-156 0 -258.5 94t-102.5 244q0 142 99.5 244t262.5 102q106 0 204 -29v-116h-6q-82 107 -205 107q-109 0 -176.5 -85.5t-67.5 -211.5q0 -136 73.5 -223.5t180.5 -87.5q120 0 209 114h5v-107q-87 -45 -218 -45zM335 769q0 22 15 36.5t36 14.5t35.5 -14.5
t14.5 -36.5q0 -21 -14.5 -35.5t-35.5 -14.5t-36 14.5t-15 35.5z" />
    <glyph glyph-name="cdotaccent" unicode="&#x10b;" horiz-adv-x="414" 
d="M254 424q50 0 121 -15v-101h-6q-24 31 -60 54.5t-75 23.5q-52 0 -87 -46t-35 -112q0 -83 46.5 -129.5t120.5 -46.5q68 0 115 30l4 -7q-60 -85 -168 -85q-87 0 -146 57t-59 153q0 93 62.5 158.5t166.5 65.5zM174 582q0 22 15 36.5t36 14.5t35.5 -14.5t14.5 -36.5
q0 -21 -14.5 -34.5t-35.5 -13.5t-36 13.5t-15 34.5z" />
    <glyph glyph-name="Ccaron" unicode="&#x10c;" horiz-adv-x="670" 
d="M242 827l5 7l138 -54l135 54l4 -7l-139 -126zM399 -11q-156 0 -258.5 94t-102.5 244q0 142 99.5 244t262.5 102q106 0 204 -29v-116h-6q-82 107 -205 107q-109 0 -176.5 -85.5t-67.5 -211.5q0 -136 73.5 -223.5t180.5 -87.5q120 0 209 114h5v-107q-87 -45 -218 -45z" />
    <glyph glyph-name="ccaron" unicode="&#x10d;" horiz-adv-x="414" 
d="M117 701l8 5l100 -107l100 107l8 -5l-108 -218zM254 424q50 0 121 -15v-101h-6q-24 31 -60 54.5t-75 23.5q-52 0 -87 -46t-35 -112q0 -83 46.5 -129.5t120.5 -46.5q68 0 115 30l4 -7q-60 -85 -168 -85q-87 0 -146 57t-59 153q0 93 62.5 158.5t166.5 65.5z" />
    <glyph glyph-name="Dcaron" unicode="&#x10e;" horiz-adv-x="726" 
d="M213 827l5 7l138 -54l135 54l4 -7l-139 -126zM42 662h275q160 0 266.5 -86t106.5 -238q0 -149 -95.5 -243.5t-250.5 -94.5h-302v6l67 50v550l-67 50v6zM308 626h-100v-567q48 -23 130 -23q108 0 175 82t67 217q0 132 -77.5 211.5t-194.5 79.5z" />
    <glyph glyph-name="dcaron" unicode="&#x10f;" horiz-adv-x="488" 
d="M475 507h-10l20 208h73zM327 634l-68 34v6q2 2 25 10.5t61 20.5t70 20v-658l70 -29v-7q-10 -2 -25 -6.5t-26.5 -7.5t-21.5 -5q-16 -5 -35.5 -9.5l-32.5 -7.5t-16 -4v57q-20 -22 -54.5 -40t-59.5 -18q-80 0 -133.5 58t-53.5 144q0 94 62 162t171 68q47 0 67 -5v217z
M257 49q45 0 70 25v290q-25 22 -71 22q-61 0 -99 -49.5t-38 -123.5q0 -76 39 -120t99 -44z" />
    <glyph glyph-name="Dcroat" unicode="&#x110;" horiz-adv-x="726" 
d="M21 318v38h87v250l-67 50v6h275q160 0 266.5 -86t106.5 -238q0 -149 -95.5 -243.5t-250.5 -94.5h-302v6l67 50v262h-87zM412 318h-205v-260l1 1q48 -23 130 -23q108 0 174.5 82t66.5 217q0 133 -77.5 212t-194.5 79h-100v-270h205v-38z" />
    <glyph glyph-name="dslash" unicode="&#x111;" horiz-adv-x="488" 
d="M496 531h-336v33h336v-33zM327 634l-68 34v6q2 2 25 10.5t61 20.5t70 20v-658l70 -29v-7q-10 -2 -25 -6.5t-26.5 -7.5t-21.5 -5q-16 -5 -35.5 -9.5l-32.5 -7.5t-16 -4v57q-20 -22 -54.5 -40t-59.5 -18q-80 0 -133.5 58t-53.5 144q0 94 62 162t171 68q47 0 67 -5v217z
M257 49q45 0 70 25v290q-25 22 -71 22q-61 0 -99 -49.5t-38 -123.5q0 -76 39 -120t99 -44z" />
    <glyph glyph-name="Emacron" unicode="&#x112;" horiz-adv-x="558" 
d="M508 0h-466v6l67 50v550l-67 50v6h443v-122h-6l-69 85h-202v-255h208l47 70h6v-175h-6l-47 68h-208v-295h222l72 106h6v-144zM177 725v50h231v-50h-231z" />
    <glyph glyph-name="emacron" unicode="&#x113;" horiz-adv-x="397" 
d="M111 229q0 -83 44.5 -129.5t116.5 -46.5q60 0 108 21l4 -7q-24 -27 -69 -52t-95 -25q-85 0 -140 57.5t-55 153.5q0 91 58 157t136 66q36 0 63.5 -12.5t45 -35.5t27.5 -44t20 -50v-1h-260q-4 -21 -4 -52zM214 389q-27 0 -51.5 -19.5t-38.5 -56.5h159q-3 40 -24.5 58
t-44.5 18zM110 532v50h203v-50h-203z" />
    <glyph glyph-name="Ebreve" unicode="&#x114;" horiz-adv-x="558" 
d="M508 0h-466v6l67 50v550l-67 50v6h443v-122h-6l-69 85h-202v-255h208l47 70h6v-175h-6l-47 68h-208v-295h222l72 106h6v-144zM291 711q-51 0 -81 36.5t-32 86.5l7 1q34 -63 106 -63t106 63l7 -1q-2 -49 -32 -86t-81 -37z" />
    <glyph glyph-name="ebreve" unicode="&#x115;" horiz-adv-x="397" 
d="M111 229q0 -83 44.5 -129.5t116.5 -46.5q60 0 108 21l4 -7q-24 -27 -69 -52t-95 -25q-85 0 -140 57.5t-55 153.5q0 91 58 157t136 66q36 0 63.5 -12.5t45 -35.5t27.5 -44t20 -50v-1h-260q-4 -21 -4 -52zM214 389q-27 0 -51.5 -19.5t-38.5 -56.5h159q-3 40 -24.5 58
t-44.5 18zM208 565q32 0 55.5 20t35.5 52l8 -1q0 -57 -25.5 -94t-73.5 -37t-73.5 36t-25.5 95l8 1q10 -32 34 -52t57 -20z" />
    <glyph glyph-name="Edotaccent" unicode="&#x116;" horiz-adv-x="558" 
d="M242 769q0 22 15 36.5t36 14.5t35.5 -14.5t14.5 -36.5q0 -21 -14.5 -35.5t-35.5 -14.5t-36 14.5t-15 35.5zM508 0h-466v6l67 50v550l-67 50v6h443v-122h-6l-69 85h-202v-255h208l47 70h6v-175h-6l-47 68h-208v-295h222l72 106h6v-144z" />
    <glyph glyph-name="edotaccent" unicode="&#x117;" horiz-adv-x="397" 
d="M111 229q0 -83 44.5 -129.5t116.5 -46.5q60 0 108 21l4 -7q-24 -27 -69 -52t-95 -25q-85 0 -140 57.5t-55 153.5q0 91 58 157t136 66q36 0 63.5 -12.5t45 -35.5t27.5 -44t20 -50v-1h-260q-4 -21 -4 -52zM214 389q-27 0 -51.5 -19.5t-38.5 -56.5h159q-3 40 -24.5 58
t-44.5 18zM160 582q0 22 15 36.5t36 14.5t35.5 -14.5t14.5 -36.5q0 -21 -14.5 -34.5t-35.5 -13.5t-36 13.5t-15 34.5z" />
    <glyph glyph-name="Eogonek" unicode="&#x118;" horiz-adv-x="558" 
d="M372 -273q-45 0 -72 26.5t-27 68.5q0 89 146 178h22q-89 -89 -89 -158q0 -33 19.5 -50.5t53.5 -17.5q25 0 50 11l4 -5q-43 -53 -107 -53zM508 0h-466v6l67 50v550l-67 50v6h443v-122h-6l-69 85h-202v-255h208l47 70h6v-175h-6l-47 68h-208v-295h222l72 106h6v-144z" />
    <glyph glyph-name="eogonek" unicode="&#x119;" horiz-adv-x="397" 
d="M152 -178q0 34 23 68.5t47 55.5t72 59q-43 -15 -74 -15q-85 0 -140 57.5t-55 153.5q0 91 58 157t136 66q36 0 63.5 -12.5t45 -35.5t27.5 -44t20 -50v-1h-260q-4 -21 -4 -52q0 -83 44.5 -129.5t116.5 -46.5q60 0 108 21l4 -7l-69 -71q-84 -84 -84 -154q0 -33 19 -50.5
t53 -17.5q26 0 51 11l4 -5q-43 -53 -107 -53q-45 0 -72 26.5t-27 68.5zM214 389q-27 0 -51.5 -19.5t-38.5 -56.5h159q-3 40 -24.5 58t-44.5 18z" />
    <glyph glyph-name="Ecaron" unicode="&#x11a;" horiz-adv-x="558" 
d="M151 827l5 7l138 -54l135 54l4 -7l-139 -126zM508 0h-466v6l67 50v550l-67 50v6h443v-122h-6l-69 85h-202v-255h208l47 70h6v-175h-6l-47 68h-208v-295h222l72 106h6v-144z" />
    <glyph glyph-name="ecaron" unicode="&#x11b;" horiz-adv-x="397" 
d="M99 701l8 5l100 -107l100 107l8 -5l-108 -218zM111 229q0 -83 44.5 -129.5t116.5 -46.5q60 0 108 21l4 -7q-24 -27 -69 -52t-95 -25q-85 0 -140 57.5t-55 153.5q0 91 58 157t136 66q36 0 63.5 -12.5t45 -35.5t27.5 -44t20 -50v-1h-260q-4 -21 -4 -52zM214 389
q-27 0 -51.5 -19.5t-38.5 -56.5h159q-3 40 -24.5 58t-44.5 18z" />
    <glyph glyph-name="Gcircumflex" unicode="&#x11c;" horiz-adv-x="719" 
d="M237 712l143 125l139 -125l-4 -7l-135 53l-138 -53zM637 288v-245q-3 -1 -51 -18t-92 -26.5t-92 -9.5q-161 0 -262.5 95.5t-101.5 244.5q0 141 99.5 242.5t262.5 101.5q98 0 214 -29v-115h-5q-85 106 -213 106q-113 0 -180.5 -85.5t-67.5 -211.5q0 -132 73 -221t188 -89
q78 0 128 34v226l-81 50v6h234v-6z" />
    <glyph glyph-name="gcircumflex" unicode="&#x11d;" horiz-adv-x="435" 
d="M95 489l108 218l108 -218l-8 -5l-100 107l-100 -107zM33 279q0 60 50 102.5t120 42.5q38 0 68 -10h155v-41h-95q44 -36 44 -89q0 -63 -49 -104.5t-123 -41.5q-32 0 -54 7q-37 -28 -37 -49q0 -37 42 -37h175q29 0 62.5 -31.5t33.5 -85.5q0 -82 -77 -148.5t-174 -66.5
q-74 0 -119 30.5t-45 76.5q0 34 26.5 73.5t69.5 74.5q-28 10 -46.5 32t-18.5 53q0 29 12 41l68 47q-40 18 -64 50t-24 74zM271 -25h-131q-8 0 -11 1q-18 -18 -33.5 -50t-15.5 -61q0 -38 35.5 -61.5t94.5 -23.5q60 0 105.5 35t45.5 83q0 38 -24 57.5t-66 19.5zM122 281
q0 -46 23.5 -78.5t58.5 -32.5t58 32t23 79t-23 79.5t-58 32.5q-36 0 -59 -32t-23 -80z" />
    <glyph glyph-name="Gbreve" unicode="&#x11e;" horiz-adv-x="719" 
d="M380 711q-51 0 -81 36.5t-32 86.5l7 1q34 -63 106 -63t106 63l7 -1q-2 -49 -32 -86t-81 -37zM637 288v-245q-3 -1 -51 -18t-92 -26.5t-92 -9.5q-161 0 -262.5 95.5t-101.5 244.5q0 141 99.5 242.5t262.5 101.5q98 0 214 -29v-115h-5q-85 106 -213 106
q-113 0 -180.5 -85.5t-67.5 -211.5q0 -132 73 -221t188 -89q78 0 128 34v226l-81 50v6h234v-6z" />
    <glyph glyph-name="gbreve" unicode="&#x11f;" horiz-adv-x="435" 
d="M33 279q0 60 50 102.5t120 42.5q38 0 68 -10h155v-41h-95q44 -36 44 -89q0 -63 -49 -104.5t-123 -41.5q-32 0 -54 7q-37 -28 -37 -49q0 -37 42 -37h175q29 0 62.5 -31.5t33.5 -85.5q0 -82 -77 -148.5t-174 -66.5q-74 0 -119 30.5t-45 76.5q0 34 26.5 73.5t69.5 74.5
q-28 10 -46.5 32t-18.5 53q0 29 12 41l68 47q-40 18 -64 50t-24 74zM271 -25h-131q-8 0 -11 1q-18 -18 -33.5 -50t-15.5 -61q0 -38 35.5 -61.5t94.5 -23.5q60 0 105.5 35t45.5 83q0 38 -24 57.5t-66 19.5zM122 281q0 -46 23.5 -78.5t58.5 -32.5t58 32t23 79t-23 79.5
t-58 32.5q-36 0 -59 -32t-23 -80zM202 565q32 0 55.5 20t35.5 52l8 -1q0 -57 -25.5 -94t-73.5 -37t-73.5 36t-25.5 95l8 1q10 -32 34 -52t57 -20z" />
    <glyph glyph-name="Gdotaccent" unicode="&#x120;" horiz-adv-x="719" 
d="M328 769q0 22 15 36.5t36 14.5t35.5 -14.5t14.5 -36.5q0 -21 -14.5 -35.5t-35.5 -14.5t-36 14.5t-15 35.5zM637 288v-245q-3 -1 -51 -18t-92 -26.5t-92 -9.5q-161 0 -262.5 95.5t-101.5 244.5q0 141 99.5 242.5t262.5 101.5q98 0 214 -29v-115h-5q-85 106 -213 106
q-113 0 -180.5 -85.5t-67.5 -211.5q0 -132 73 -221t188 -89q78 0 128 34v226l-81 50v6h234v-6z" />
    <glyph glyph-name="gdotaccent" unicode="&#x121;" horiz-adv-x="435" 
d="M33 279q0 60 50 102.5t120 42.5q38 0 68 -10h155v-41h-95q44 -36 44 -89q0 -63 -49 -104.5t-123 -41.5q-32 0 -54 7q-37 -28 -37 -49q0 -37 42 -37h175q29 0 62.5 -31.5t33.5 -85.5q0 -82 -77 -148.5t-174 -66.5q-74 0 -119 30.5t-45 76.5q0 34 26.5 73.5t69.5 74.5
q-28 10 -46.5 32t-18.5 53q0 29 12 41l68 47q-40 18 -64 50t-24 74zM271 -25h-131q-8 0 -11 1q-18 -18 -33.5 -50t-15.5 -61q0 -38 35.5 -61.5t94.5 -23.5q60 0 105.5 35t45.5 83q0 38 -24 57.5t-66 19.5zM122 281q0 -46 23.5 -78.5t58.5 -32.5t58 32t23 79t-23 79.5
t-58 32.5q-36 0 -59 -32t-23 -80zM152 582q0 22 15 36.5t36 14.5t35.5 -14.5t14.5 -36.5q0 -21 -14.5 -34.5t-35.5 -13.5t-36 13.5t-15 34.5z" />
    <glyph glyph-name="Gcommaaccent" unicode="&#x122;" horiz-adv-x="719" 
d="M437 -138q0 -45 -27.5 -86t-65.5 -63l-10 4q19 23 36.5 60t19.5 65q-1 -1 -4 -1q-2 -1 -10 -1q-18 0 -29.5 11.5t-11.5 30.5q0 20 13.5 32t32.5 12q26 0 41 -17t15 -47zM637 288v-245q-3 -1 -51 -18t-92 -26.5t-92 -9.5q-161 0 -262.5 95.5t-101.5 244.5
q0 141 99.5 242.5t262.5 101.5q98 0 214 -29v-115h-5q-85 106 -213 106q-113 0 -180.5 -85.5t-67.5 -211.5q0 -132 73 -221t188 -89q78 0 128 34v226l-81 50v6h234v-6z" />
    <glyph glyph-name="gcommaaccent" unicode="&#x123;" horiz-adv-x="435" 
d="M147 563q0 45 27.5 86t65.5 63l10 -4q-20 -25 -37 -61t-19 -63h4q1 0 4.5 0.5t5.5 0.5q19 0 30 -11.5t11 -29.5q0 -20 -13.5 -32.5t-32.5 -12.5q-26 0 -41 17t-15 47zM33 279q0 60 50 102.5t120 42.5q38 0 68 -10h155v-41h-95q44 -36 44 -89q0 -63 -49 -104.5t-123 -41.5
q-32 0 -54 7q-37 -28 -37 -49q0 -37 42 -37h175q29 0 62.5 -31.5t33.5 -85.5q0 -82 -77 -148.5t-174 -66.5q-74 0 -119 30.5t-45 76.5q0 34 26.5 73.5t69.5 74.5q-28 10 -46.5 32t-18.5 53q0 29 12 41l68 47q-40 18 -64 50t-24 74zM271 -25h-131q-8 0 -11 1
q-18 -18 -33.5 -50t-15.5 -61q0 -38 35.5 -61.5t94.5 -23.5q60 0 105.5 35t45.5 83q0 38 -24 57.5t-66 19.5zM122 281q0 -46 23.5 -78.5t58.5 -32.5t58 32t23 79t-23 79.5t-58 32.5q-36 0 -59 -32t-23 -80z" />
    <glyph glyph-name="Hcircumflex" unicode="&#x124;" horiz-adv-x="777" 
d="M208 606v-250h361v250l-66 50v6h233v-6l-67 -50v-550l67 -50v-6h-233v6l66 50v261h-361v-261l67 -50v-6h-233v6l67 50v550l-67 50v6h233v-6zM245 712l143 125l139 -125l-4 -7l-135 53l-138 -53z" />
    <glyph glyph-name="hcircumflex" unicode="&#x125;" horiz-adv-x="517" 
d="M226 0h-207v6l59 44v584l-59 34v7q1 0 23.5 8.5t58.5 21t66 20.5v-371q27 27 68 48t82 21q51 0 88.5 -32t37.5 -73v-268l59 -44v-6h-206v6l59 44v241q0 32 -23 54t-65 22q-48 0 -100 -45v-272l59 -44v-6zM118 761l143 125l139 -125l-4 -7l-135 53l-138 -53z" />
    <glyph glyph-name="Hbar" unicode="&#x126;" horiz-adv-x="777" 
d="M756 473h-735v37h735v-37zM208 606v-250h361v250l-66 50v6h233v-6l-67 -50v-550l67 -50v-6h-233v6l66 50v261h-361v-261l67 -50v-6h-233v6l67 50v550l-67 50v6h233v-6z" />
    <glyph glyph-name="hbar" unicode="&#x127;" horiz-adv-x="517" 
d="M328 531h-331v33h331v-33zM226 0h-207v6l59 44v584l-59 34v7q1 0 23.5 8.5t58.5 21t66 20.5v-371q27 27 68 48t82 21q51 0 88.5 -32t37.5 -73v-268l59 -44v-6h-206v6l59 44v241q0 32 -23 54t-65 22q-48 0 -100 -45v-272l59 -44v-6z" />
    <glyph glyph-name="Itilde" unicode="&#x128;" horiz-adv-x="317" 
d="M275 0h-233v6l67 50v550l-67 50v6h233v-6l-67 -50v-550l67 -50v-6zM104 806q12 0 66 -9t68 -9q27 0 67 48l6 -3q-10 -33 -34 -69t-46 -36q-16 0 -68.5 9t-64.5 9q-5 0 -11.5 -3t-11.5 -6t-13 -9.5t-11.5 -10t-11 -11.5t-8.5 -9l-6 3q10 33 34 69.5t45 36.5z" />
    <glyph glyph-name="itilde" unicode="&#x129;" horiz-adv-x="245" 
d="M226 0h-206v6l58 44v292l-55 32v6q2 2 22 9.5t55 19t67 19.5v-378l59 -44v-6zM65 614q13 0 59.5 -13t58.5 -13q16 0 59 52l7 -3q-9 -38 -29.5 -74t-39.5 -36q-16 0 -62 13t-56 13q-20 0 -60 -51l-7 2q10 40 30 75t40 35z" />
    <glyph glyph-name="Imacron" unicode="&#x12a;" horiz-adv-x="317" 
d="M275 0h-233v6l67 50v550l-67 50v6h233v-6l-67 -50v-550l67 -50v-6zM43 725v50h231v-50h-231z" />
    <glyph glyph-name="imacron" unicode="&#x12b;" horiz-adv-x="245" 
d="M226 0h-206v6l58 44v292l-55 32v6q2 2 22 9.5t55 19t67 19.5v-378l59 -44v-6zM16 532v50h203v-50h-203z" />
    <glyph glyph-name="Ibreve" unicode="&#x12c;" horiz-adv-x="317" 
d="M275 0h-233v6l67 50v550l-67 50v6h233v-6l-67 -50v-550l67 -50v-6zM159 711q-51 0 -81 36.5t-32 86.5l7 1q34 -63 106 -63t106 63l7 -1q-2 -49 -32 -86t-81 -37z" />
    <glyph glyph-name="ibreve" unicode="&#x12d;" horiz-adv-x="245" 
d="M226 0h-206v6l58 44v292l-55 32v6q2 2 22 9.5t55 19t67 19.5v-378l59 -44v-6zM116 565q32 0 55.5 20t35.5 52l8 -1q0 -57 -25.5 -94t-73.5 -37t-73.5 36t-25.5 95l8 1q10 -32 34 -52t57 -20z" />
    <glyph glyph-name="Iogonek" unicode="&#x12e;" horiz-adv-x="317" 
d="M176 -273q-44 0 -71.5 26.5t-27.5 68.5q0 12 2 24t7.5 24t9.5 21.5t13 22.5t13.5 20t15.5 20t14.5 16.5t15.5 16.5l12 13h23q-47 -88 -47 -154q0 -35 19.5 -53.5t53.5 -18.5q25 0 50 11l4 -5q-12 -18 -40 -35.5t-67 -17.5zM275 0h-233v6l67 50v550l-67 50v6h233v-6
l-67 -50v-550l67 -50v-6z" />
    <glyph glyph-name="iogonek" unicode="&#x12f;" horiz-adv-x="245" 
d="M152 -273q-45 0 -72.5 27.5t-27.5 70.5q0 83 92 175h22q-35 -80 -35 -137q0 -89 73 -89q19 0 49 10l4 -5q-41 -52 -105 -52zM226 0h-206v6l58 44v292l-55 32v6q2 2 22 9.5t55 19t67 19.5v-378l59 -44v-6zM68 582q0 22 14.5 36.5t35.5 14.5q22 0 36 -14.5t14 -36.5
q0 -21 -14 -35t-36 -14q-21 0 -35.5 14t-14.5 35z" />
    <glyph glyph-name="Idot" unicode="&#x130;" horiz-adv-x="317" 
d="M275 0h-233v6l67 50v550l-67 50v6h233v-6l-67 -50v-550l67 -50v-6zM109 769q0 22 15 36.5t36 14.5t35.5 -14.5t14.5 -36.5q0 -21 -14.5 -35.5t-35.5 -14.5t-36 14.5t-15 35.5z" />
    <glyph glyph-name="dotlessi" unicode="&#x131;" horiz-adv-x="245" 
d="M226 0h-206v6l58 44v292l-55 32v6q2 2 22 9.5t55 19t67 19.5v-378l59 -44v-6z" />
    <glyph glyph-name="IJ" unicode="&#x132;" horiz-adv-x="617" 
d="M275 0h-233v6l67 50v550l-67 50v6h233v-6l-67 -50v-550l67 -50v-6zM417 606l-67 50v6h233v-6l-66 -50v-509q0 -72 -51.5 -164t-127.5 -153l-10 7q89 136 89 348v471z" />
    <glyph glyph-name="ij" unicode="&#x133;" horiz-adv-x="469" 
d="M226 0h-206v6l58 44v292l-55 32v6q2 2 22 9.5t55 19t67 19.5v-378l59 -44v-6zM68 582q0 22 14.5 36.5t35.5 14.5q22 0 36 -14.5t14 -36.5q0 -21 -14 -35t-36 -14q-21 0 -35.5 14t-14.5 35zM354 533q-21 0 -35.5 14t-14.5 35q0 22 14.5 36.5t35.5 14.5t35.5 -14.5
t14.5 -36.5q0 -21 -14.5 -35t-35.5 -14zM314 342l-56 32v7q1 0 22 7.5t56.5 19.5t65.5 20v-376q0 -29 -6.5 -64t-42 -104.5t-97.5 -131.5l-9 6q67 138 67 294v290z" />
    <glyph glyph-name="Jcircumflex" unicode="&#x134;" horiz-adv-x="300" 
d="M8 712l143 125l139 -125l-4 -7l-135 53l-138 -53zM101 606l-67 50v6h233v-6l-66 -50v-509q0 -72 -51.5 -164t-127.5 -153l-10 7q89 136 89 348v471z" />
    <glyph glyph-name="jcircumflex" unicode="&#x135;" horiz-adv-x="224" 
d="M70 343l-56 31v7q1 0 22 7.5t56.5 19.5t65.5 20v-376q0 -29 -6.5 -64t-42 -104.5t-97.5 -131.5l-9 6q67 138 67 294v291zM-4 489l108 218l108 -218l-8 -5l-100 107l-100 -107z" />
    <glyph glyph-name="Kcommaaccent" unicode="&#x136;" horiz-adv-x="666" 
d="M408 -138q0 -45 -27.5 -86t-65.5 -63l-10 4q19 23 36.5 60t19.5 65q-1 -1 -4 -1q-2 -1 -10 -1q-18 0 -29.5 11.5t-11.5 30.5q0 20 13.5 32t32.5 12q26 0 41 -17t15 -47zM276 0h-234v6l67 50v550l-67 50v6h234v-6l-68 -50v-550l68 -50v-6zM663 6v-6h-255v6l66 50l-217 276
h-35l257 274l-67 50v6h205v-6l-77 -46l-209 -215l258 -339z" />
    <glyph glyph-name="kcommaaccent" unicode="&#x137;" horiz-adv-x="483" 
d="M324 -138q0 -45 -27.5 -86t-65.5 -63l-10 4q19 23 36.5 60t19.5 65q-1 -1 -4 -1q-2 -1 -10 -1q-18 0 -29.5 11.5t-11.5 30.5q0 20 13.5 32t32.5 12q26 0 41 -17t15 -47zM167 721v-671l58 -44v-6h-205v6l58 44v580l-59 34v6q2 2 23.5 10.5t57.5 20.5t67 20zM287 83
l-109 144v6l129 127l-54 48v6h202v-6l-91 -45l-110 -100l100 -134q69 -93 128 -123v-6q-21 -9 -59 -9q-42 0 -69.5 19.5t-66.5 72.5z" />
    <glyph glyph-name="Lacute" unicode="&#x139;" horiz-adv-x="564" 
d="M294 772l-237 -69l-5 9l210 131zM431 38l91 130h6v-168h-486v6l67 50v550l-67 50v6h234v-6l-68 -50v-568h223z" />
    <glyph glyph-name="lacute" unicode="&#x13a;" horiz-adv-x="245" 
d="M247 801l-237 -69l-5 9l210 131zM167 725v-675l59 -44v-6h-206v6l58 44v584l-59 34v7q1 0 17 6t34.5 13t45.5 15.5t51 15.5z" />
    <glyph glyph-name="Lcommaaccent" unicode="&#x13b;" horiz-adv-x="564" 
d="M373 -138q0 -45 -27.5 -86t-65.5 -63l-10 4q19 23 36.5 60t19.5 65q-1 -1 -4 -1q-2 -1 -10 -1q-18 0 -29.5 11.5t-11.5 30.5q0 20 13.5 32t32.5 12q26 0 41 -17t15 -47zM431 38l91 130h6v-168h-486v6l67 50v550l-67 50v6h234v-6l-68 -50v-568h223z" />
    <glyph glyph-name="lcommaaccent" unicode="&#x13c;" horiz-adv-x="245" 
d="M179 -138q0 -45 -27.5 -86t-65.5 -63l-10 4q19 23 36.5 60t19.5 65q-1 -1 -4 -1q-2 -1 -10 -1q-18 0 -29.5 11.5t-11.5 30.5q0 20 13.5 32t32.5 12q26 0 41 -17t15 -47zM167 725v-675l59 -44v-6h-206v6l58 44v584l-59 34v7q1 0 17 6t34.5 13t45.5 15.5t51 15.5z" />
    <glyph glyph-name="Lcaron" unicode="&#x13d;" horiz-adv-x="564" 
d="M332 507h-10l20 208h73zM431 38l91 130h6v-168h-486v6l67 50v550l-67 50v6h234v-6l-68 -50v-568h223z" />
    <glyph glyph-name="lcaron" unicode="&#x13e;" horiz-adv-x="245" 
d="M226 507h-10l20 208h73zM167 725v-675l59 -44v-6h-206v6l58 44v584l-59 34v7q1 0 17 6t34.5 13t45.5 15.5t51 15.5z" />
    <glyph glyph-name="Ldot" unicode="&#x13f;" horiz-adv-x="564" 
d="M430 355q0 24 15.5 39t38.5 15q24 0 39 -15t15 -39q0 -23 -15 -38.5t-39 -15.5q-23 0 -38.5 15.5t-15.5 38.5zM431 38l91 130h6v-168h-486v6l67 50v550l-67 50v6h234v-6l-68 -50v-568h223z" />
    <glyph glyph-name="ldot" unicode="&#x140;" horiz-adv-x="361" 
d="M249 343q0 24 15.5 39t38.5 15q24 0 39 -15t15 -39q0 -23 -15 -38.5t-39 -15.5q-23 0 -38.5 15.5t-15.5 38.5zM167 725v-675l59 -44v-6h-206v6l58 44v584l-59 34v7q1 0 17 6t34.5 13t45.5 15.5t51 15.5z" />
    <glyph glyph-name="Lslash" unicode="&#x141;" horiz-adv-x="564" 
d="M431 38l91 130h6v-168h-486v6l67 50v168l-97 -51v42l97 51v340l-67 50v6h234v-6l-68 -50v-287l212 112v-44l-212 -111v-238h223z" />
    <glyph glyph-name="lslash" unicode="&#x142;" horiz-adv-x="245" 
d="M167 333v-283l59 -44v-6h-206v6l58 44v225l-77 -49v40l77 50v318l-59 34v7q1 0 17 6t34.5 13t45.5 15.5t51 15.5v-351l77 51v-42z" />
    <glyph glyph-name="Nacute" unicode="&#x143;" horiz-adv-x="766" 
d="M522 772l-237 -69l-5 9l210 131zM234 0h-198v6l73 55v519q-51 54 -78 76v6h138l448 -509v448l-78 55v6h197v-6l-73 -55v-601h-37l-471 528v-467l79 -55v-6z" />
    <glyph glyph-name="nacute" unicode="&#x144;" horiz-adv-x="517" 
d="M385 667l-159 -174l-8 5l99 214zM226 0h-206v6l58 44v292l-55 32v6q2 2 22 9.5t55 19t67 19.5v-74q28 28 68 49t81 21q52 0 89.5 -31t37.5 -72v-271l59 -44v-6h-205v6l57 44v241q0 32 -22.5 54t-65.5 22q-52 0 -99 -45v-272l59 -44v-6z" />
    <glyph glyph-name="Ncommaaccent" unicode="&#x145;" horiz-adv-x="766" 
d="M441 -138q0 -45 -27.5 -86t-65.5 -63l-10 4q19 23 36.5 60t19.5 65q-1 -1 -4 -1q-2 -1 -10 -1q-18 0 -29.5 11.5t-11.5 30.5q0 20 13.5 32t32.5 12q26 0 41 -17t15 -47zM234 0h-198v6l73 55v519q-51 54 -78 76v6h138l448 -509v448l-78 55v6h197v-6l-73 -55v-601h-37
l-471 528v-467l79 -55v-6z" />
    <glyph glyph-name="ncommaaccent" unicode="&#x146;" horiz-adv-x="517" 
d="M323 -138q0 -45 -27.5 -86t-65.5 -63l-10 4q19 23 36.5 60t19.5 65q-1 -1 -4 -1q-2 -1 -10 -1q-18 0 -29.5 11.5t-11.5 30.5q0 20 13.5 32t32.5 12q26 0 41 -17t15 -47zM226 0h-206v6l58 44v292l-55 32v6q2 2 22 9.5t55 19t67 19.5v-74q28 28 68 49t81 21q52 0 89.5 -31
t37.5 -72v-271l59 -44v-6h-205v6l57 44v241q0 32 -22.5 54t-65.5 22q-52 0 -99 -45v-272l59 -44v-6z" />
    <glyph glyph-name="Ncaron" unicode="&#x147;" horiz-adv-x="766" 
d="M245 827l5 7l138 -54l135 54l4 -7l-139 -126zM234 0h-198v6l73 55v519q-51 54 -78 76v6h138l448 -509v448l-78 55v6h197v-6l-73 -55v-601h-37l-471 528v-467l79 -55v-6z" />
    <glyph glyph-name="ncaron" unicode="&#x148;" horiz-adv-x="517" 
d="M148 701l8 5l100 -107l100 107l8 -5l-108 -218zM226 0h-206v6l58 44v292l-55 32v6q2 2 22 9.5t55 19t67 19.5v-74q28 28 68 49t81 21q52 0 89.5 -31t37.5 -72v-271l59 -44v-6h-205v6l57 44v241q0 32 -22.5 54t-65.5 22q-52 0 -99 -45v-272l59 -44v-6z" />
    <glyph glyph-name="napostrophe" unicode="&#x149;" horiz-adv-x="550" 
d="M100 624q0 -49 -28.5 -96.5t-75.5 -80.5l-12 4q61 84 66 155q-1 -1 -4 -1q-2 -1 -11 -1q-20 0 -32.5 12t-12.5 31q0 20 14 33t35 13q27 0 44 -18t17 -51zM259 0h-206v6l58 44v292l-55 32v6q2 2 22 9.5t55 19t67 19.5v-74q28 28 68 49t81 21q52 0 89.5 -31t37.5 -72v-271
l59 -44v-6h-205v6l57 44v241q0 32 -22.5 54t-65.5 22q-52 0 -99 -45v-272l59 -44v-6z" />
    <glyph glyph-name="Eng" unicode="&#x14a;" horiz-adv-x="767" 
d="M667 601v-530q0 -63 -36 -145t-109 -146l-11 7q61 96 61 185q0 52 -21.5 95.5t-77.5 107.5l-314 353v-467l79 -55v-6h-198v6l73 55v518q-48 53 -78 77v6h139l393 -448q45 -52 54 -81v468l-77 55v6h195v-6z" />
    <glyph glyph-name="eng" unicode="&#x14b;" horiz-adv-x="504" 
d="M226 0h-206v6l58 44v292l-55 32v6q2 2 22 9.5t55 19t67 19.5v-74q28 28 68.5 49t81.5 21q51 0 88.5 -31t37.5 -71v-270q0 -19 -4.5 -44t-17.5 -66.5t-45 -92t-79 -97.5l-10 6q67 138 67 294v239q0 32 -22.5 54t-65.5 22q-49 0 -99 -46v-271l59 -44v-6z" />
    <glyph glyph-name="Omacron" unicode="&#x14c;" horiz-adv-x="746" 
d="M258 725v50h231v-50h-231zM40 323q0 149 96.5 249.5t235.5 100.5q141 0 237.5 -94t96.5 -241q0 -150 -97.5 -249.5t-235.5 -99.5t-235.5 93.5t-97.5 240.5zM150 330q0 -136 65 -219.5t158 -83.5t158.5 83.5t65.5 219.5t-66 220.5t-159 84.5t-157.5 -84.5t-64.5 -220.5z
" />
    <glyph glyph-name="omacron" unicode="&#x14d;" horiz-adv-x="473" 
d="M134 532v50h203v-50h-203zM25 202q0 94 63 158t148 64q87 0 149.5 -59.5t62.5 -153.5q0 -96 -63 -158.5t-149 -62.5t-148.5 59t-62.5 153zM122 207q0 -78 33.5 -129.5t80.5 -51.5t81.5 52t34.5 129q0 76 -34 128.5t-82 52.5q-46 0 -80 -52.5t-34 -128.5z" />
    <glyph glyph-name="Obreve" unicode="&#x14e;" horiz-adv-x="746" 
d="M373 711q-51 0 -81 36.5t-32 86.5l7 1q34 -63 106 -63t106 63l7 -1q-2 -49 -32 -86t-81 -37zM40 323q0 149 96.5 249.5t235.5 100.5q141 0 237.5 -94t96.5 -241q0 -150 -97.5 -249.5t-235.5 -99.5t-235.5 93.5t-97.5 240.5zM150 330q0 -136 65 -219.5t158 -83.5
t158.5 83.5t65.5 219.5t-66 220.5t-159 84.5t-157.5 -84.5t-64.5 -220.5z" />
    <glyph glyph-name="obreve" unicode="&#x14f;" horiz-adv-x="473" 
d="M25 202q0 94 63 158t148 64q87 0 149.5 -59.5t62.5 -153.5q0 -96 -63 -158.5t-149 -62.5t-148.5 59t-62.5 153zM122 207q0 -78 33.5 -129.5t80.5 -51.5t81.5 52t34.5 129q0 76 -34 128.5t-82 52.5q-46 0 -80 -52.5t-34 -128.5zM236 565q32 0 55.5 20t35.5 52l8 -1
q0 -57 -25.5 -94t-73.5 -37t-73.5 36t-25.5 95l8 1q10 -32 34 -52t57 -20z" />
    <glyph glyph-name="Ohungarumlaut" unicode="&#x150;" horiz-adv-x="746" 
d="M408 712l145 143l43 -58l-182 -93zM431 797l-182 -93l-6 8l146 143zM40 323q0 149 96.5 249.5t235.5 100.5q141 0 237.5 -94t96.5 -241q0 -150 -97.5 -249.5t-235.5 -99.5t-235.5 93.5t-97.5 240.5zM150 330q0 -136 65 -219.5t158 -83.5t158.5 83.5t65.5 219.5t-66 220.5
t-159 84.5t-157.5 -84.5t-64.5 -220.5z" />
    <glyph glyph-name="ohungarumlaut" unicode="&#x151;" horiz-adv-x="473" 
d="M405 685l-115 -193l-10 4l62 216zM280 685l-115 -193l-10 4l61 216zM25 202q0 94 63 158t148 64q87 0 149.5 -59.5t62.5 -153.5q0 -96 -63 -158.5t-149 -62.5t-148.5 59t-62.5 153zM122 207q0 -78 33.5 -129.5t80.5 -51.5t81.5 52t34.5 129q0 76 -34 128.5t-82 52.5
q-46 0 -80 -52.5t-34 -128.5z" />
    <glyph glyph-name="OE" unicode="&#x152;" horiz-adv-x="914" 
d="M770 370l47 70h5v-175h-5l-47 69h-201v-296h215l74 107h6v-145h-470q-152 0 -254.5 90t-102.5 232q0 145 102.5 242.5t252.5 97.5h447v-123h-6l-69 86h-195v-255h201zM469 625h-75q-107 0 -177 -81t-70 -214q0 -131 71 -211t178 -80h73v586z" />
    <glyph glyph-name="oe" unicode="&#x153;" horiz-adv-x="726" 
d="M25 202q0 93 61.5 157.5t144.5 64.5q107 0 164 -88q58 88 150 88q36 0 63.5 -12.5t45 -35.5t27.5 -44t20 -50v-1h-259q-4 -21 -4 -52q0 -83 44 -129.5t116 -46.5q60 0 108 21l4 -7q-24 -27 -69 -52t-95 -25q-105 0 -157 83q-59 -83 -158 -83q-84 0 -145 59.5t-61 152.5z
M122 207q0 -77 32 -129t77 -52t78 52.5t33 128.5q0 75 -33 128t-78 53q-44 0 -76.5 -53t-32.5 -128zM540 389q-27 0 -51 -19.5t-38 -56.5h158q-3 40 -24.5 58t-44.5 18z" />
    <glyph glyph-name="Racute" unicode="&#x154;" horiz-adv-x="620" 
d="M416 772l-237 -69l-5 9l210 131zM284 0h-242v6l67 50v550l-67 50v6h253q98 0 152 -38t54 -105q0 -58 -36 -101t-83 -66l117 -198q40 -67 77 -102.5t59 -45.5v-6q-42 -6 -54 -6q-53 0 -91.5 23.5t-75.5 90.5l-126 221h-80v-273l76 -50v-6zM269 627h-61v-264h91q44 0 74 39
t30 92q0 68 -38 100.5t-96 32.5z" />
    <glyph glyph-name="racute" unicode="&#x155;" horiz-adv-x="352" 
d="M329 667l-159 -174l-8 5l99 214zM78 342l-55 32v6q2 2 22 9.5t55 19t67 19.5v-90q79 89 112 89q17 0 61 -12l-29 -85q-35 16 -59 16q-42 0 -85 -35v-260l81 -45v-6h-228v6l58 44v292z" />
    <glyph glyph-name="Rcommaaccent" unicode="&#x156;" horiz-adv-x="620" 
d="M409 -138q0 -45 -27.5 -86t-65.5 -63l-10 4q19 23 36.5 60t19.5 65q-1 -1 -4 -1q-2 -1 -10 -1q-18 0 -29.5 11.5t-11.5 30.5q0 20 13.5 32t32.5 12q26 0 41 -17t15 -47zM284 0h-242v6l67 50v550l-67 50v6h253q98 0 152 -38t54 -105q0 -58 -36 -101t-83 -66l117 -198
q40 -67 77 -102.5t59 -45.5v-6q-42 -6 -54 -6q-53 0 -91.5 23.5t-75.5 90.5l-126 221h-80v-273l76 -50v-6zM269 627h-61v-264h91q44 0 74 39t30 92q0 68 -38 100.5t-96 32.5z" />
    <glyph glyph-name="rcommaaccent" unicode="&#x157;" horiz-adv-x="352" 
d="M179 -138q0 -45 -27.5 -86t-65.5 -63l-10 4q19 23 36.5 60t19.5 65q-1 -1 -4 -1q-2 -1 -10 -1q-18 0 -29.5 11.5t-11.5 30.5q0 20 13.5 32t32.5 12q26 0 41 -17t15 -47zM78 342l-55 32v6q2 2 22 9.5t55 19t67 19.5v-90q79 89 112 89q17 0 61 -12l-29 -85q-35 16 -59 16
q-42 0 -85 -35v-260l81 -45v-6h-228v6l58 44v292z" />
    <glyph glyph-name="Rcaron" unicode="&#x158;" horiz-adv-x="620" 
d="M139 827l5 7l138 -54l135 54l4 -7l-139 -126zM284 0h-242v6l67 50v550l-67 50v6h253q98 0 152 -38t54 -105q0 -58 -36 -101t-83 -66l117 -198q40 -67 77 -102.5t59 -45.5v-6q-42 -6 -54 -6q-53 0 -91.5 23.5t-75.5 90.5l-126 221h-80v-273l76 -50v-6zM269 627h-61v-264
h91q44 0 74 39t30 92q0 68 -38 100.5t-96 32.5z" />
    <glyph glyph-name="rcaron" unicode="&#x159;" horiz-adv-x="352" 
d="M99 701l8 5l100 -107l100 107l8 -5l-108 -218zM78 342l-55 32v6q2 2 22 9.5t55 19t67 19.5v-90q79 89 112 89q17 0 61 -12l-29 -85q-35 16 -59 16q-42 0 -85 -35v-260l81 -45v-6h-228v6l58 44v292z" />
    <glyph glyph-name="Sacute" unicode="&#x15a;" horiz-adv-x="474" 
d="M256 673q78 0 130 -19v-104h-6q-55 86 -132 86q-43 0 -70 -24t-27 -65q0 -33 17.5 -61t37.5 -44.5t69 -52.5q82 -58 119.5 -103t37.5 -111q0 -80 -55.5 -132.5t-149.5 -52.5q-98 0 -174 41q-13 86 -8 172h7q9 -25 16 -43.5t22.5 -45t33 -43t44.5 -29t59 -12.5
q50 0 81.5 31.5t31.5 79.5q0 52 -27 85.5t-96 80.5q-80 54 -116.5 100.5t-36.5 107.5q0 73 53 115.5t139 42.5zM355 772l-237 -69l-5 9l210 131z" />
    <glyph glyph-name="sacute" unicode="&#x15b;" horiz-adv-x="334" 
d="M282 667l-159 -174l-8 5l99 214zM180 424q55 0 91 -13v-86h-6q-42 64 -94 64q-22 0 -36.5 -12.5t-14.5 -35.5q0 -14 4 -24t17 -21.5t20.5 -16.5l31.5 -21q62 -40 80 -61q30 -34 30 -80q0 -56 -40.5 -91.5t-109.5 -35.5q-64 0 -115 24q-12 58 -7 135h7q15 -48 45 -84.5
t74 -36.5q29 0 47.5 17.5t18.5 46.5q0 28 -18 46.5t-63 45.5q-49 32 -72.5 60t-23.5 72q0 50 37.5 79t96.5 29z" />
    <glyph glyph-name="Scircumflex" unicode="&#x15c;" horiz-adv-x="474" 
d="M94 712l143 125l139 -125l-4 -7l-135 53l-138 -53zM256 673q78 0 130 -19v-104h-6q-55 86 -132 86q-43 0 -70 -24t-27 -65q0 -33 17.5 -61t37.5 -44.5t69 -52.5q82 -58 119.5 -103t37.5 -111q0 -80 -55.5 -132.5t-149.5 -52.5q-98 0 -174 41q-13 86 -8 172h7
q9 -25 16 -43.5t22.5 -45t33 -43t44.5 -29t59 -12.5q50 0 81.5 31.5t31.5 79.5q0 52 -27 85.5t-96 80.5q-80 54 -116.5 100.5t-36.5 107.5q0 73 53 115.5t139 42.5z" />
    <glyph glyph-name="scircumflex" unicode="&#x15d;" horiz-adv-x="334" 
d="M59 489l108 218l108 -218l-8 -5l-100 107l-100 -107zM180 424q55 0 91 -13v-86h-6q-42 64 -94 64q-22 0 -36.5 -12.5t-14.5 -35.5q0 -14 4 -24t17 -21.5t20.5 -16.5l31.5 -21q62 -40 80 -61q30 -34 30 -80q0 -56 -40.5 -91.5t-109.5 -35.5q-64 0 -115 24q-12 58 -7 135h7
q15 -48 45 -84.5t74 -36.5q29 0 47.5 17.5t18.5 46.5q0 28 -18 46.5t-63 45.5q-49 32 -72.5 60t-23.5 72q0 50 37.5 79t96.5 29z" />
    <glyph glyph-name="Scedilla" unicode="&#x15e;" horiz-adv-x="474" 
d="M256 673q78 0 130 -19v-104h-6q-55 86 -132 86q-43 0 -70 -24t-27 -65q0 -33 17.5 -61t37.5 -44.5t69 -52.5q82 -58 119.5 -103t37.5 -111q0 -80 -55.5 -132.5t-149.5 -52.5q-98 0 -174 41q-13 86 -8 172h7q9 -25 16 -43.5t22.5 -45t33 -43t44.5 -29t59 -12.5
q50 0 81.5 31.5t31.5 79.5q0 52 -27 85.5t-96 80.5q-80 54 -116.5 100.5t-36.5 107.5q0 73 53 115.5t139 42.5zM215 0h30l-36 -72q32 -7 56.5 -28t24.5 -54q0 -87 -163 -124l-5 10q103 53 103 100q0 21 -21.5 34t-44.5 16l-2 3l29 57q29 54 29 58z" />
    <glyph glyph-name="scedilla" unicode="&#x15f;" horiz-adv-x="334" 
d="M180 424q55 0 91 -13v-86h-6q-42 64 -94 64q-22 0 -36.5 -12.5t-14.5 -35.5q0 -14 4 -24t17 -21.5t20.5 -16.5l31.5 -21q62 -40 80 -61q30 -34 30 -80q0 -56 -40.5 -91.5t-109.5 -35.5q-64 0 -115 24q-12 58 -7 135h7q15 -48 45 -84.5t74 -36.5q29 0 47.5 17.5t18.5 46.5
q0 28 -18 46.5t-63 45.5q-49 32 -72.5 60t-23.5 72q0 50 37.5 79t96.5 29zM150 0h30l-36 -72q32 -7 56.5 -28t24.5 -54q0 -87 -163 -124l-5 10q103 53 103 100q0 21 -21.5 34t-44.5 16l-2 3l29 57q29 54 29 58z" />
    <glyph glyph-name="Scaron" unicode="&#x160;" horiz-adv-x="474" 
d="M96 827l5 7l138 -54l135 54l4 -7l-139 -126zM256 673q78 0 130 -19v-104h-6q-55 86 -132 86q-43 0 -70 -24t-27 -65q0 -33 17.5 -61t37.5 -44.5t69 -52.5q82 -58 119.5 -103t37.5 -111q0 -80 -55.5 -132.5t-149.5 -52.5q-98 0 -174 41q-13 86 -8 172h7q9 -25 16 -43.5
t22.5 -45t33 -43t44.5 -29t59 -12.5q50 0 81.5 31.5t31.5 79.5q0 52 -27 85.5t-96 80.5q-80 54 -116.5 100.5t-36.5 107.5q0 73 53 115.5t139 42.5z" />
    <glyph glyph-name="scaron" unicode="&#x161;" horiz-adv-x="334" 
d="M58 701l8 5l100 -107l100 107l8 -5l-108 -218zM180 424q55 0 91 -13v-86h-6q-42 64 -94 64q-22 0 -36.5 -12.5t-14.5 -35.5q0 -14 4 -24t17 -21.5t20.5 -16.5l31.5 -21q62 -40 80 -61q30 -34 30 -80q0 -56 -40.5 -91.5t-109.5 -35.5q-64 0 -115 24q-12 58 -7 135h7
q15 -48 45 -84.5t74 -36.5q29 0 47.5 17.5t18.5 46.5q0 28 -18 46.5t-63 45.5q-49 32 -72.5 60t-23.5 72q0 50 37.5 79t96.5 29z" />
    <glyph glyph-name="Tcommaaccent" unicode="&#x162;" horiz-adv-x="642" 
d="M377 -138q0 -45 -27.5 -86t-65.5 -63l-10 4q19 23 36.5 60t19.5 65q-1 -1 -4 -1q-2 -1 -10 -1q-18 0 -29.5 11.5t-11.5 30.5q0 20 13.5 32t32.5 12q26 0 41 -17t15 -47zM31 662h580v-134h-6l-76 96h-159v-566l70 -52v-6h-239v6l69 52v566h-158l-75 -96h-6v134z" />
    <glyph glyph-name="tcommaaccent" unicode="&#x163;" horiz-adv-x="360" 
d="M254 -138q0 -45 -27.5 -86t-65.5 -63l-10 4q19 23 36.5 60t19.5 65q-1 -1 -4 -1q-2 -1 -10 -1q-18 0 -29.5 11.5t-11.5 30.5q0 20 13.5 32t32.5 12q26 0 41 -17t15 -47zM324 362h-167v-242q0 -32 21.5 -52.5t64.5 -20.5q47 0 87 19l4 -7q-60 -68 -141 -68q-63 0 -94 32
t-31 73v266h-55v7l144 112v-69h198z" />
    <glyph glyph-name="Tcaron" unicode="&#x164;" horiz-adv-x="642" 
d="M178 827l5 7l138 -54l135 54l4 -7l-139 -126zM31 662h580v-134h-6l-76 96h-159v-566l70 -52v-6h-239v6l69 52v566h-158l-75 -96h-6v134z" />
    <glyph glyph-name="tcaron" unicode="&#x165;" horiz-adv-x="360" 
d="M217 507h-10l20 208h73zM324 362h-167v-242q0 -32 21.5 -52.5t64.5 -20.5q47 0 87 19l4 -7q-60 -68 -141 -68q-63 0 -94 32t-31 73v266h-55v7l144 112v-69h198z" />
    <glyph glyph-name="Tbar" unicode="&#x166;" horiz-adv-x="642" 
d="M535 352h-429v37h429v-37zM31 662h580v-134h-6l-76 96h-159v-566l70 -52v-6h-239v6l69 52v566h-158l-75 -96h-6v134z" />
    <glyph glyph-name="tbar" unicode="&#x167;" horiz-adv-x="361" 
d="M323 235h-315v33h315v-33zM324 362h-167v-242q0 -32 21.5 -52.5t64.5 -20.5q47 0 87 19l4 -7q-60 -68 -141 -68q-63 0 -94 32t-31 73v266h-55v7l144 112v-69h198z" />
    <glyph glyph-name="Utilde" unicode="&#x168;" horiz-adv-x="726" 
d="M632 606v-371q0 -104 -70 -175t-185 -71q-131 0 -206.5 63t-75.5 182v372l-68 50v6h237v-6l-69 -50v-370q0 -92 52.5 -139.5t148.5 -47.5q88 0 139 52.5t51 135.5v369l-70 50v6h182v-6zM338 806q12 0 66 -9t68 -9q27 0 67 48l6 -3q-10 -33 -34 -69t-46 -36q-16 0 -68.5 9
t-64.5 9q-5 0 -11.5 -3t-11.5 -6t-13 -9.5t-11.5 -10t-11 -11.5t-8.5 -9l-6 3q10 33 34 69.5t45 36.5z" />
    <glyph glyph-name="utilde" unicode="&#x169;" horiz-adv-x="502" 
d="M69 342l-55 31v7q1 1 21.5 8.5t55.5 19t67 19.5v-303q0 -32 20.5 -54t60.5 -22q43 0 98 44v249l-64 33v7q1 0 23.5 7.5t60.5 19t69 19.5v-361l66 -29v-7l-73 -18l-82 -21v70q-69 -69 -143 -69q-52 0 -88.5 32.5t-36.5 80.5v237zM196 614q13 0 59.5 -13t58.5 -13
q16 0 59 52l7 -3q-9 -38 -29.5 -74t-39.5 -36q-16 0 -62 13t-56 13q-20 0 -60 -51l-7 2q10 40 30 75t40 35z" />
    <glyph glyph-name="Umacron" unicode="&#x16a;" horiz-adv-x="726" 
d="M632 606v-371q0 -104 -70 -175t-185 -71q-131 0 -206.5 63t-75.5 182v372l-68 50v6h237v-6l-69 -50v-370q0 -92 52.5 -139.5t148.5 -47.5q88 0 139 52.5t51 135.5v369l-70 50v6h182v-6zM278 725v50h231v-50h-231z" />
    <glyph glyph-name="umacron" unicode="&#x16b;" horiz-adv-x="502" 
d="M69 342l-55 31v7q1 1 21.5 8.5t55.5 19t67 19.5v-303q0 -32 20.5 -54t60.5 -22q43 0 98 44v249l-64 33v7q1 0 23.5 7.5t60.5 19t69 19.5v-361l66 -29v-7l-73 -18l-82 -21v70q-69 -69 -143 -69q-52 0 -88.5 32.5t-36.5 80.5v237zM144 532v50h203v-50h-203z" />
    <glyph glyph-name="Ubreve" unicode="&#x16c;" horiz-adv-x="726" 
d="M632 606v-371q0 -104 -70 -175t-185 -71q-131 0 -206.5 63t-75.5 182v372l-68 50v6h237v-6l-69 -50v-370q0 -92 52.5 -139.5t148.5 -47.5q88 0 139 52.5t51 135.5v369l-70 50v6h182v-6zM386 711q-51 0 -81 36.5t-32 86.5l7 1q34 -63 106 -63t106 63l7 -1q-2 -49 -32 -86
t-81 -37z" />
    <glyph glyph-name="ubreve" unicode="&#x16d;" horiz-adv-x="502" 
d="M69 342l-55 31v7q1 1 21.5 8.5t55.5 19t67 19.5v-303q0 -32 20.5 -54t60.5 -22q43 0 98 44v249l-64 33v7q1 0 23.5 7.5t60.5 19t69 19.5v-361l66 -29v-7l-73 -18l-82 -21v70q-69 -69 -143 -69q-52 0 -88.5 32.5t-36.5 80.5v237zM248 565q32 0 55.5 20t35.5 52l8 -1
q0 -57 -25.5 -94t-73.5 -37t-73.5 36t-25.5 95l8 1q10 -32 34 -52t57 -20z" />
    <glyph glyph-name="Uring" unicode="&#x16e;" horiz-adv-x="726" 
d="M632 606v-371q0 -104 -70 -175t-185 -71q-131 0 -206.5 63t-75.5 182v372l-68 50v6h237v-6l-69 -50v-370q0 -92 52.5 -139.5t148.5 -47.5q88 0 139 52.5t51 135.5v369l-70 50v6h182v-6zM345 760q0 -21 13.5 -36t34.5 -15t34.5 15t13.5 36t-13.5 35.5t-34.5 14.5
t-34.5 -14.5t-13.5 -35.5zM313 760q0 33 23.5 56t56.5 23t56.5 -23t23.5 -56q0 -35 -23 -57t-57 -22t-57 22t-23 57z" />
    <glyph glyph-name="uring" unicode="&#x16f;" horiz-adv-x="502" 
d="M195 576q0 -21 13.5 -36t34.5 -15t34.5 15t13.5 36t-13.5 35.5t-34.5 14.5t-34.5 -14.5t-13.5 -35.5zM163 576q0 33 23.5 56t56.5 23t56.5 -23t23.5 -56q0 -35 -23 -57t-57 -22t-57 22t-23 57zM69 342l-55 31v7q1 1 21.5 8.5t55.5 19t67 19.5v-303q0 -32 20.5 -54
t60.5 -22q43 0 98 44v249l-64 33v7q1 0 23.5 7.5t60.5 19t69 19.5v-361l66 -29v-7l-73 -18l-82 -21v70q-69 -69 -143 -69q-52 0 -88.5 32.5t-36.5 80.5v237z" />
    <glyph glyph-name="Uhungarumlaut" unicode="&#x170;" horiz-adv-x="726" 
d="M420 712l145 143l43 -58l-182 -93zM443 797l-182 -93l-6 8l146 143zM632 606v-371q0 -104 -70 -175t-185 -71q-131 0 -206.5 63t-75.5 182v372l-68 50v6h237v-6l-69 -50v-370q0 -92 52.5 -139.5t148.5 -47.5q88 0 139 52.5t51 135.5v369l-70 50v6h182v-6z" />
    <glyph glyph-name="uhungarumlaut" unicode="&#x171;" horiz-adv-x="502" 
d="M69 342l-55 31v7q1 1 21.5 8.5t55.5 19t67 19.5v-303q0 -32 20.5 -54t60.5 -22q43 0 98 44v249l-64 33v7q1 0 23.5 7.5t60.5 19t69 19.5v-361l66 -29v-7l-73 -18l-82 -21v70q-69 -69 -143 -69q-52 0 -88.5 32.5t-36.5 80.5v237zM415 685l-115 -193l-10 4l62 216zM290 685
l-115 -193l-10 4l61 216z" />
    <glyph glyph-name="Uogonek" unicode="&#x172;" horiz-adv-x="726" 
d="M331 -178q0 84 146 184q-42 -17 -100 -17q-131 0 -206.5 63t-75.5 182v372l-68 50v6h237v-6l-69 -50v-370q0 -92 52.5 -139.5t148.5 -47.5q88 0 139 52.5t51 135.5v369l-70 50v6h182v-6l-66 -50v-371q0 -69 -28.5 -118.5t-82.5 -99.5q-111 -95 -111 -175q0 -33 19 -50.5
t53 -17.5q26 0 51 11l4 -5q-43 -53 -107 -53q-45 0 -72 26.5t-27 68.5z" />
    <glyph glyph-name="uogonek" unicode="&#x173;" horiz-adv-x="502" 
d="M337 -1v62q-69 -69 -143 -69q-52 0 -88.5 32.5t-36.5 80.5v237l-56 32v6q2 2 22.5 9.5t55 18.5t66.5 20v-304q0 -32 21 -54t61 -22q43 0 98 44v249l-64 33v6q2 2 24 9.5t58.5 19t69.5 19.5v-363l67 -27v-7q-21 -6 -50 -13q-11 -3 -41 -11t-43 -11q-84 -84 -84 -154
q0 -68 73 -68q25 0 50 11l4 -5q-43 -53 -107 -53q-45 0 -72 26.5t-27 68.5q0 88 142 177z" />
    <glyph glyph-name="Wcircumflex" unicode="&#x174;" horiz-adv-x="953" 
d="M373 712l143 125l139 -125l-4 -7l-135 53l-138 -53zM527 656l-49 -50l59 -142l61 142l-49 50v6h146v-6l-54 -50l-84 -191l116 -279l172 470l-65 50v6h168v-6l-57 -50l-228 -618h-15l-154 352l-158 -352h-16l-259 618l-56 50v6h226v-6l-65 -50l191 -470l115 255l-94 215
l-55 50v6h204v-6z" />
    <glyph glyph-name="wcircumflex" unicode="&#x175;" horiz-adv-x="651" 
d="M239 489l108 218l108 -218l-8 -5l-100 107l-100 -107zM332 294l-99 -269q-2 -5 -5.5 -13.5t-4.5 -11.5q-5 -12 -5 -13h-14l-7 16q-7 20 -16 40l-132 322l-50 43v6h199v-6l-55 -43l91 -233l78 215l-7 18l-50 43v6h187v-6l-50 -43l85 -232l82 232l-57 43v6h150v-6l-51 -43
l-124 -341l-9 -23q-4 -11 -5 -14h-14l-5 13l-16 43z" />
    <glyph glyph-name="Ycircumflex" unicode="&#x176;" horiz-adv-x="598" 
d="M489 605l-67 51v6h171v-6l-57 -50l-180 -276v-273l67 -51v-6h-233v6l67 51v255l-196 294l-56 50v6h238v-6l-67 -50l156 -242zM183 712l143 125l139 -125l-4 -7l-135 53l-138 -53z" />
    <glyph glyph-name="ycircumflex" unicode="&#x177;" horiz-adv-x="428" 
d="M379 364l-170 -436q-50 -133 -57 -194h-106v5q74 65 127 200l28 73l-152 352l-50 44v6h203v-6l-56 -44l98 -241l91 241l-59 44v6h153v-6zM120 489l108 218l108 -218l-8 -5l-100 107l-100 -107z" />
    <glyph glyph-name="Ydieresis" unicode="&#x178;" horiz-adv-x="598" 
d="M489 605l-67 51v6h171v-6l-57 -50l-180 -276v-273l67 -51v-6h-233v6l67 51v255l-196 294l-56 50v6h238v-6l-67 -50l156 -242zM232 719q-20 0 -33.5 13.5t-13.5 32.5q0 20 13.5 33.5t33.5 13.5q19 0 32.5 -13.5t13.5 -33.5q0 -19 -13.5 -32.5t-32.5 -13.5zM465 765
q0 -19 -13 -32t-32 -13q-20 0 -33 13t-13 32q0 20 13 33t33 13q19 0 32 -13t13 -33z" />
    <glyph glyph-name="Zacute" unicode="&#x179;" horiz-adv-x="628" 
d="M455 772l-237 -69l-5 9l210 131zM580 654l-419 -615h340l86 114h6v-153h-560v9l412 616h-301l-78 -104h-7v141h521v-8z" />
    <glyph glyph-name="zacute" unicode="&#x17a;" horiz-adv-x="402" 
d="M334 667l-159 -174l-8 5l99 214zM371 117h6v-117h-357v8l235 373h-143l-64 -76h-6v109h326v-7l-239 -373h174z" />
    <glyph glyph-name="Zdotaccent" unicode="&#x17b;" horiz-adv-x="628" 
d="M580 654l-419 -615h340l86 114h6v-153h-560v9l412 616h-301l-78 -104h-7v141h521v-8zM268 769q0 22 15 36.5t36 14.5t35.5 -14.5t14.5 -36.5q0 -21 -14.5 -35.5t-35.5 -14.5t-36 14.5t-15 35.5z" />
    <glyph glyph-name="zdotaccent" unicode="&#x17c;" horiz-adv-x="402" 
d="M371 117h6v-117h-357v8l235 373h-143l-64 -76h-6v109h326v-7l-239 -373h174zM149 582q0 22 15 36.5t36 14.5t35.5 -14.5t14.5 -36.5q0 -21 -14.5 -34.5t-35.5 -13.5t-36 13.5t-15 34.5z" />
    <glyph glyph-name="Zcaron" unicode="&#x17d;" horiz-adv-x="628" 
d="M179 827l5 7l138 -54l135 54l4 -7l-139 -126zM580 654l-419 -615h340l86 114h6v-153h-560v9l412 616h-301l-78 -104h-7v141h521v-8z" />
    <glyph glyph-name="zcaron" unicode="&#x17e;" horiz-adv-x="402" 
d="M95 701l8 5l100 -107l100 107l8 -5l-108 -218zM371 117h6v-117h-357v8l235 373h-143l-64 -76h-6v109h326v-7l-239 -373h174z" />
    <glyph glyph-name="florin" unicode="&#x192;" horiz-adv-x="428" 
d="M65 388h67q2 19 11 90q9 78 61.5 136t141.5 58q55 0 96 -15l-32 -63h-2q-55 38 -85 38q-34 0 -57 -34t-29 -85l-17 -125h126l-32 -46h-99l-34 -260q-6 -43 -19.5 -84t-38.5 -84.5t-69 -71t-101 -30.5l-15 64l1 1q30 -6 48 -6q48 0 71.5 44t38.5 180q9 66 29 247h-88v5z
" />
    <glyph glyph-name="Aringacute" unicode="&#x1fa;" horiz-adv-x="639" 
d="M107 57l70 -51v-6h-172v6l57 50l240 619h15l260 -619l57 -50v-6h-229v6l70 50l-88 211h-199zM283 514l-81 -210h169zM449 925l-237 -69l-5 9l210 131zM261 778q0 -21 13.5 -36t34.5 -15t34.5 15t13.5 36t-13.5 35.5t-34.5 14.5t-34.5 -14.5t-13.5 -35.5zM229 778
q0 33 23.5 56t56.5 23t56.5 -23t23.5 -56q0 -35 -23 -57t-57 -22t-57 22t-23 57z" />
    <glyph glyph-name="aringacute" unicode="&#x1fb;" horiz-adv-x="415" 
d="M256 218v84q0 34 -17.5 54t-52.5 20q-34 0 -62 -28v-64l-85 26v5q89 112 188 112q55 0 85.5 -30t30.5 -69q0 -35 -2 -140t-2 -114q38 -25 73 -34v-6l-65 -50q-57 21 -88 57q-63 -52 -107 -52q-55 0 -88 29.5t-33 73.5q0 27 12 46.5t26 23.5q53 14 187 56zM255 65
q0 15 0.5 54.5t0.5 63.5q-117 -38 -133 -46q-9 -5 -9 -29q0 -26 19 -45t53 -19q40 0 69 21zM298 837l-159 -174l-8 5l99 214zM149 571q0 -21 13.5 -36t34.5 -15t34.5 15t13.5 36t-13.5 35.5t-34.5 14.5t-34.5 -14.5t-13.5 -35.5zM117 571q0 33 23.5 56t56.5 23t56.5 -23
t23.5 -56q0 -35 -23 -57t-57 -22t-57 22t-23 57z" />
    <glyph glyph-name="AEacute" unicode="&#x1fc;" horiz-adv-x="863" 
d="M707 772l-237 -69l-5 9l210 131zM303 656v6h485v-123h-6l-69 86h-194v-255h200l47 69h5v-174h-5l-47 69h-200v-296h214l73 107h7v-145h-461v6l67 50v254h-173l-147 -253l70 -51v-6h-174v6l56 50l318 550zM419 608l-152 -262h152v262z" />
    <glyph glyph-name="aeacute" unicode="&#x1fd;" horiz-adv-x="612" 
d="M463 667l-159 -174l-8 5l99 214zM63 164q8 3 35.5 12t72 23t79.5 26q1 29 1 79q0 72 -68 72q-33 0 -61 -28v-64l-85 26v5q20 24 30.5 35t36.5 33.5t55.5 33t62.5 10.5q73 0 100 -57q54 54 119 54q101 0 156 -120v-3l-260 -85q4 -76 46.5 -119.5t106.5 -43.5q54 0 106 21
l4 -7q-26 -28 -69 -52.5t-93 -24.5q-93 0 -146 71q-22 -27 -58 -49.5t-73 -22.5q-61 0 -96.5 29t-35.5 74q0 28 10.5 47t23.5 25zM188 44q45 0 89 39q-26 50 -27 107q-40 -16 -128 -49q-10 -6 -10 -32q0 -28 19 -46.5t57 -18.5zM436 389q-32 0 -62 -37t-36 -102l166 61
q-4 31 -23 54.5t-45 23.5z" />
    <glyph glyph-name="Oslashacute" unicode="&#x1fe;" horiz-adv-x="746" 
d="M40 323q0 149 96.5 249.5t235.5 100.5q90 0 170 -44l52 81l31 -19l-52 -81q133 -99 133 -272q0 -150 -97.5 -249.5t-235.5 -99.5q-93 0 -172 45l-62 -96l-32 20l63 97q-130 96 -130 268zM597 330q0 131 -64 218l-298 -461q60 -60 138 -60q93 0 158.5 83.5t65.5 219.5z
M150 330q0 -129 60 -213l298 460q-61 58 -136 58q-93 0 -157.5 -84.5t-64.5 -220.5zM496 772l-237 -69l-5 9l210 131z" />
    <glyph glyph-name="oslashacute" unicode="&#x1ff;" horiz-adv-x="473" 
d="M25 202q0 95 63 158.5t148 63.5q53 0 100 -25l46 72l30 -17l-47 -74q82 -63 82 -169q0 -96 -62.5 -158.5t-148.5 -62.5q-54 0 -101 25l-48 -77l-31 17l50 79q-81 61 -81 168zM354 207q0 69 -25 115l-164 -261q30 -35 71 -35q48 0 83 52t35 129zM121 207q0 -65 23 -113
l164 260q-31 34 -72 34q-47 0 -81 -52.5t-34 -128.5zM336 667l-159 -174l-8 5l99 214z" />
    <glyph glyph-name="Scommaaccent" unicode="&#x218;" horiz-adv-x="474" 
d="M286 -138q0 -45 -27.5 -86t-65.5 -63l-10 4q19 23 36.5 60t19.5 65q-1 -1 -4 -1q-2 -1 -10 -1q-18 0 -29.5 11.5t-11.5 30.5q0 20 13.5 32t32.5 12q26 0 41 -17t15 -47zM256 673q78 0 130 -19v-104h-6q-55 86 -132 86q-43 0 -70 -24t-27 -65q0 -33 17.5 -61t37.5 -44.5
t69 -52.5q82 -58 119.5 -103t37.5 -111q0 -80 -55.5 -132.5t-149.5 -52.5q-98 0 -174 41q-13 86 -8 172h7q9 -25 16 -43.5t22.5 -45t33 -43t44.5 -29t59 -12.5q50 0 81.5 31.5t31.5 79.5q0 52 -27 85.5t-96 80.5q-80 54 -116.5 100.5t-36.5 107.5q0 73 53 115.5t139 42.5z
" />
    <glyph glyph-name="scommaaccent" unicode="&#x219;" horiz-adv-x="334" 
d="M222 -138q0 -45 -27.5 -86t-65.5 -63l-10 4q19 23 36.5 60t19.5 65q-1 -1 -4 -1q-2 -1 -10 -1q-18 0 -29.5 11.5t-11.5 30.5q0 20 13.5 32t32.5 12q26 0 41 -17t15 -47zM180 424q55 0 91 -13v-86h-6q-42 64 -94 64q-22 0 -36.5 -12.5t-14.5 -35.5q0 -14 4 -24t17 -21.5
t20.5 -16.5l31.5 -21q62 -40 80 -61q30 -34 30 -80q0 -56 -40.5 -91.5t-109.5 -35.5q-64 0 -115 24q-12 58 -7 135h7q15 -48 45 -84.5t74 -36.5q29 0 47.5 17.5t18.5 46.5q0 28 -18 46.5t-63 45.5q-49 32 -72.5 60t-23.5 72q0 50 37.5 79t96.5 29z" />
    <glyph glyph-name="uni021A" unicode="&#x21a;" horiz-adv-x="642" 
d="M377 -138q0 -45 -27.5 -86t-65.5 -63l-10 4q19 23 36.5 60t19.5 65q-1 -1 -4 -1q-2 -1 -10 -1q-18 0 -29.5 11.5t-11.5 30.5q0 20 13.5 32t32.5 12q26 0 41 -17t15 -47zM31 662h580v-134h-6l-76 96h-159v-566l70 -52v-6h-239v6l69 52v566h-158l-75 -96h-6v134z" />
    <glyph glyph-name="uni021B" unicode="&#x21b;" horiz-adv-x="360" 
d="M254 -138q0 -45 -27.5 -86t-65.5 -63l-10 4q19 23 36.5 60t19.5 65q-1 -1 -4 -1q-2 -1 -10 -1q-18 0 -29.5 11.5t-11.5 30.5q0 20 13.5 32t32.5 12q26 0 41 -17t15 -47zM324 362h-167v-242q0 -32 21.5 -52.5t64.5 -20.5q47 0 87 19l4 -7q-60 -68 -141 -68q-63 0 -94 32
t-31 73v266h-55v7l144 112v-69h198z" />
    <glyph glyph-name="uni0237" unicode="&#x237;" horiz-adv-x="224" 
d="M70 343l-56 31v7q1 0 22 7.5t56.5 19.5t65.5 20v-376q0 -29 -6.5 -64t-42 -104.5t-97.5 -131.5l-9 6q67 138 67 294v291z" />
    <glyph glyph-name="circumflex" unicode="&#x2c6;" 
d="M92 489l108 218l108 -218l-8 -5l-100 107l-100 -107z" />
    <glyph glyph-name="caron" unicode="&#x2c7;" 
d="M92 701l8 5l100 -107l100 107l8 -5l-108 -218z" />
    <glyph glyph-name="breve" unicode="&#x2d8;" 
d="M200 565q32 0 55.5 20t35.5 52l8 -1q0 -57 -25.5 -94t-73.5 -37t-73.5 36t-25.5 95l8 1q10 -32 34 -52t57 -20z" />
    <glyph glyph-name="dotaccent" unicode="&#x2d9;" 
d="M149 582q0 22 15 36.5t36 14.5t35.5 -14.5t14.5 -36.5q0 -21 -14.5 -34.5t-35.5 -13.5t-36 13.5t-15 34.5z" />
    <glyph glyph-name="ring" unicode="&#x2da;" 
d="M152 576q0 -21 13.5 -36t34.5 -15t34.5 15t13.5 36t-13.5 35.5t-34.5 14.5t-34.5 -14.5t-13.5 -35.5zM120 576q0 33 23.5 56t56.5 23t56.5 -23t23.5 -56q0 -35 -23 -57t-57 -22t-57 22t-23 57z" />
    <glyph glyph-name="ogonek" unicode="&#x2db;" 
d="M196 -273q-45 0 -72 26.5t-27 68.5q0 89 146 178h22q-89 -89 -89 -158q0 -33 19.5 -50.5t53.5 -17.5q25 0 50 11l4 -5q-43 -53 -107 -53z" />
    <glyph glyph-name="tilde" unicode="&#x2dc;" 
d="M143 614q13 0 59.5 -13t58.5 -13q16 0 59 52l7 -3q-9 -38 -29.5 -74t-39.5 -36q-16 0 -62 13t-56 13q-20 0 -60 -51l-7 2q10 40 30 75t40 35z" />
    <glyph glyph-name="hungarumlaut" unicode="&#x2dd;" 
d="M327 685l-115 -193l-10 4l62 216zM202 685l-115 -193l-10 4l61 216z" />
    <glyph glyph-name="Wgrave" unicode="&#x1e80;" horiz-adv-x="953" 
d="M631 712l-5 -9l-237 69l32 71zM527 656l-49 -50l59 -142l61 142l-49 50v6h146v-6l-54 -50l-84 -191l116 -279l172 470l-65 50v6h168v-6l-57 -50l-228 -618h-15l-154 352l-158 -352h-16l-259 618l-56 50v6h226v-6l-65 -50l191 -470l115 255l-94 215l-55 50v6h204v-6z" />
    <glyph glyph-name="wgrave" unicode="&#x1e81;" horiz-adv-x="651" 
d="M332 294l-99 -269q-2 -5 -5.5 -13.5t-4.5 -11.5q-5 -12 -5 -13h-14l-7 16q-7 20 -16 40l-132 322l-50 43v6h199v-6l-55 -43l91 -233l78 215l-7 18l-50 43v6h187v-6l-50 -43l85 -232l82 232l-57 43v6h150v-6l-51 -43l-124 -341l-9 -23q-4 -11 -5 -14h-14l-5 13l-16 43z
M395 498l-8 -4l-159 173l68 45z" />
    <glyph glyph-name="Wacute" unicode="&#x1e82;" horiz-adv-x="953" 
d="M638 772l-237 -69l-5 9l210 131zM527 656l-49 -50l59 -142l61 142l-49 50v6h146v-6l-54 -50l-84 -191l116 -279l172 470l-65 50v6h168v-6l-57 -50l-228 -618h-15l-154 352l-158 -352h-16l-259 618l-56 50v6h226v-6l-65 -50l191 -470l115 255l-94 215l-55 50v6h204v-6z
" />
    <glyph glyph-name="wacute" unicode="&#x1e83;" horiz-adv-x="651" 
d="M467 667l-159 -174l-8 5l99 214zM332 294l-99 -269q-2 -5 -5.5 -13.5t-4.5 -11.5q-5 -12 -5 -13h-14l-7 16q-7 20 -16 40l-132 322l-50 43v6h199v-6l-55 -43l91 -233l78 215l-7 18l-50 43v6h187v-6l-50 -43l85 -232l82 232l-57 43v6h150v-6l-51 -43l-124 -341l-9 -23
q-4 -11 -5 -14h-14l-5 13l-16 43z" />
    <glyph glyph-name="Wdieresis" unicode="&#x1e84;" horiz-adv-x="953" 
d="M424 719q-20 0 -33.5 13.5t-13.5 32.5q0 20 13.5 33.5t33.5 13.5q19 0 32.5 -13.5t13.5 -33.5q0 -19 -13.5 -32.5t-32.5 -13.5zM657 765q0 -19 -13 -32t-32 -13q-20 0 -33 13t-13 32q0 20 13 33t33 13q19 0 32 -13t13 -33zM527 656l-49 -50l59 -142l61 142l-49 50v6h146
v-6l-54 -50l-84 -191l116 -279l172 470l-65 50v6h168v-6l-57 -50l-228 -618h-15l-154 352l-158 -352h-16l-259 618l-56 50v6h226v-6l-65 -50l191 -470l115 255l-94 215l-55 50v6h204v-6z" />
    <glyph glyph-name="wdieresis" unicode="&#x1e85;" horiz-adv-x="651" 
d="M432 624q19 0 31.5 -13t12.5 -33q0 -19 -12.5 -31t-31.5 -12q-20 0 -32.5 12t-12.5 31q0 20 12.5 33t32.5 13zM263 625q19 0 32.5 -13.5t13.5 -33.5q0 -19 -13.5 -31.5t-32.5 -12.5q-20 0 -32.5 12.5t-12.5 31.5q0 20 12.5 33.5t32.5 13.5zM332 294l-99 -269
q-2 -5 -5.5 -13.5t-4.5 -11.5q-5 -12 -5 -13h-14l-7 16q-7 20 -16 40l-132 322l-50 43v6h199v-6l-55 -43l91 -233l78 215l-7 18l-50 43v6h187v-6l-50 -43l85 -232l82 232l-57 43v6h150v-6l-51 -43l-124 -341l-9 -23q-4 -11 -5 -14h-14l-5 13l-16 43z" />
    <glyph glyph-name="Ygrave" unicode="&#x1ef2;" horiz-adv-x="598" 
d="M489 605l-67 51v6h171v-6l-57 -50l-180 -276v-273l67 -51v-6h-233v6l67 51v255l-196 294l-56 50v6h238v-6l-67 -50l156 -242zM444 712l-5 -9l-237 69l32 71z" />
    <glyph glyph-name="ygrave" unicode="&#x1ef3;" horiz-adv-x="428" 
d="M379 364l-170 -436q-50 -133 -57 -194h-106v5q74 65 127 200l28 73l-152 352l-50 44v6h203v-6l-56 -44l98 -241l91 241l-59 44v6h153v-6zM287 498l-8 -4l-159 173l68 45z" />
    <glyph glyph-name="uni2009" unicode="&#x2009;" horiz-adv-x="44" 
 />
    <glyph glyph-name="endash" unicode="&#x2013;" horiz-adv-x="475" 
d="M46 224v37h383v-37h-383z" />
    <glyph glyph-name="emdash" unicode="&#x2014;" horiz-adv-x="739" 
d="M46 224v37h647v-37h-647z" />
    <glyph glyph-name="quoteleft" unicode="&#x2018;" horiz-adv-x="174" 
d="M28 519q0 49 28.5 96.5t75.5 80.5l12 -4q-61 -84 -66 -155q1 1 4 1q2 1 11 1q20 0 32.5 -12t12.5 -31q0 -20 -14 -33t-35 -13q-27 0 -44 18t-17 51z" />
    <glyph glyph-name="quoteright" unicode="&#x2019;" horiz-adv-x="174" 
d="M146 624q0 -49 -28.5 -96.5t-75.5 -80.5l-12 4q61 84 66 155q-1 -1 -4 -1q-2 -1 -11 -1q-20 0 -32.5 12t-12.5 31q0 20 14 33t35 13q27 0 44 -18t17 -51z" />
    <glyph glyph-name="quotesinglbase" unicode="&#x201a;" horiz-adv-x="175" 
d="M146 35q0 -49 -28.5 -96.5t-75.5 -80.5l-12 4q61 84 66 155q-1 -1 -4 -1q-2 -1 -11 -1q-20 0 -32.5 12t-12.5 31q0 20 14 33t35 13q27 0 44 -18t17 -51z" />
    <glyph glyph-name="quotedblleft" unicode="&#x201c;" horiz-adv-x="327" 
d="M180 519q0 49 28.5 96.5t75.5 80.5l12 -4q-61 -84 -66 -155q1 1 4 1q2 1 11 1q20 0 32.5 -12t12.5 -31q0 -20 -14 -33t-35 -13q-27 0 -44 18t-17 51zM28 519q0 49 28.5 96.5t75.5 80.5l12 -4q-61 -84 -66 -155q1 1 4 1q2 1 11 1q20 0 32.5 -12t12.5 -31q0 -20 -14 -33
t-35 -13q-27 0 -44 18t-17 51z" />
    <glyph glyph-name="quotedblright" unicode="&#x201d;" horiz-adv-x="327" 
d="M299 624q0 -49 -29 -96t-76 -81l-12 4q62 85 67 155q-1 -1 -4 -1q-2 -1 -11 -1q-20 0 -33 12t-13 31q0 20 14.5 33t35.5 13q27 0 44 -18t17 -51zM146 624q0 -49 -28.5 -96.5t-75.5 -80.5l-12 4q61 84 66 155q-1 -1 -4 -1q-2 -1 -11 -1q-20 0 -32.5 12t-12.5 31
q0 20 14 33t35 13q27 0 44 -18t17 -51z" />
    <glyph glyph-name="quotedblbase" unicode="&#x201e;" horiz-adv-x="331" 
d="M299 35q0 -49 -29 -96t-76 -81l-12 4q62 85 67 155q-1 -1 -4 -1q-2 -1 -11 -1q-20 0 -33 12t-13 31q0 20 14.5 33t35.5 13q27 0 44 -18t17 -51zM146 35q0 -49 -28.5 -96.5t-75.5 -80.5l-12 4q61 84 66 155q-1 -1 -4 -1q-2 -1 -11 -1q-20 0 -32.5 12t-12.5 31q0 20 14 33
t35 13q27 0 44 -18t17 -51z" />
    <glyph glyph-name="dagger" unicode="&#x2020;" horiz-adv-x="362" 
d="M208 -50l-54 -63h-5v577h-130v5l39 43h91v107l53 63h6v-170h135v-6l-39 -42h-96v-514z" />
    <glyph glyph-name="daggerdbl" unicode="&#x2021;" horiz-adv-x="371" 
d="M352 498v-5l-40 -42h-96v-220h128v-5l-39 -42h-89v-140l-54 -63h-5v203h-138v5l40 42h98v220h-130v5l39 42h91v122l53 63h6v-185h136z" />
    <glyph glyph-name="bullet" unicode="&#x2022;" horiz-adv-x="340" 
d="M58 248q0 48 32 81t80 33t80 -33t32 -81t-32 -80.5t-80 -32.5t-80 32.5t-32 80.5z" />
    <glyph glyph-name="ellipsis" unicode="&#x2026;" horiz-adv-x="571" 
d="M422 44q0 24 15.5 39t38.5 15t38.5 -15t15.5 -39q0 -23 -15.5 -38.5t-38.5 -15.5t-38.5 15.5t-15.5 38.5zM232 44q0 24 15.5 39t38.5 15t38.5 -15t15.5 -39q0 -23 -15.5 -38.5t-38.5 -15.5t-38.5 15.5t-15.5 38.5zM41 44q0 24 15.5 39t38.5 15t38.5 -15t15.5 -39
q0 -23 -15.5 -38.5t-38.5 -15.5t-38.5 15.5t-15.5 38.5z" />
    <glyph glyph-name="perthousand" unicode="&#x2030;" horiz-adv-x="981" 
d="M809 -9q-62 0 -103.5 41t-41.5 102q0 60 42.5 102.5t102.5 42.5q61 0 102.5 -41t41.5 -102q0 -60 -42 -102.5t-102 -42.5zM710 135q0 -45 28.5 -74.5t70.5 -29.5t70 29.5t28 74.5t-28 74.5t-70 29.5t-70.5 -29.5t-28.5 -74.5zM476 31q42 0 70.5 30t28.5 74
q0 45 -28.5 74.5t-70.5 29.5t-70 -29.5t-28 -74.5t28 -74.5t70 -29.5zM332 134q0 60 42.5 102.5t101.5 42.5q62 0 103.5 -41t41.5 -102t-41.5 -103t-103.5 -42t-103 41t-41 102zM28 525q0 60 42.5 102.5t101.5 42.5q62 0 103.5 -41t41.5 -102t-41.5 -103t-103.5 -42t-103 41
t-41 102zM172 630q-42 0 -70 -29.5t-28 -75.5q0 -44 28.5 -73.5t69.5 -29.5q42 0 70 29.5t28 73.5q0 46 -28 75.5t-70 29.5zM66 0l471 662h50l-470 -662h-51z" />
    <glyph glyph-name="uni2032" unicode="&#x2032;" horiz-adv-x="174" 
d="M54 687h82v-1l-86 -237h-10z" />
    <glyph glyph-name="uni2033" unicode="&#x2033;" horiz-adv-x="305" 
d="M185 687h82v-1l-86 -237h-10zM54 687h82v-1l-86 -237h-10z" />
    <glyph glyph-name="guilsinglleft" unicode="&#x2039;" horiz-adv-x="217" 
d="M180 64l-155 160v1l154 157l8 -6l-76 -151l77 -155z" />
    <glyph glyph-name="guilsinglright" unicode="&#x203a;" horiz-adv-x="217" 
d="M192 224l-155 -160l-8 6l77 155l-76 151l8 6l154 -157v-1z" />
    <glyph glyph-name="fraction" unicode="&#x2044;" horiz-adv-x="482" 
d="M0 0l436 662h46l-437 -662h-45z" />
    <glyph glyph-name="Euro" unicode="&#x20ac;" horiz-adv-x="591" 
d="M392 -10q-118 0 -205.5 77.5t-101.5 211.5h-78v34h75v16q0 15 2 45h-77v34h82q20 115 98.5 190t196.5 75q75 0 151 -18v-112h-5q-72 91 -161 91q-67 0 -114 -63t-59 -163h237v-34h-240q-1 -11 -1 -33v-28h241v-34h-238q14 -117 71 -182.5t127 -65.5q88 0 149 95h7v-103
q-73 -33 -157 -33z" />
    <glyph glyph-name="trademark" unicode="&#x2122;" horiz-adv-x="641" 
d="M624 662v-4l-30 -25v-216l30 -23v-5h-117v5l31 23v179l-99 -184h-10l-96 181v-176l33 -23v-5h-94v5l33 23v212q-23 25 -28 28v5h83l90 -176l93 176h81zM6 594v68h245v-67h-6l-33 42h-56v-221l32 -22v-5h-120v5l32 22v221h-57l-32 -43h-5z" />
    <glyph glyph-name="onethird" unicode="&#x2153;" horiz-adv-x="514" 
d="M176 373h-140v4l38 27v203l-41 21v4l107 38v-266l36 -27v-4zM18 0l436 662h46l-437 -662h-45zM339 145l-3 9q37 21 54 36.5t17 34.5q0 31 -36 31q-29 0 -50 -21l-5 5q29 55 90 55q32 0 49.5 -14t17.5 -38q0 -40 -59 -61q36 -1 61 -19.5t25 -51.5q0 -50 -46 -82t-141 -38
l-3 8q117 45 117 101q0 23 -17 35t-43 12q-14 0 -28 -2z" />
    <glyph glyph-name="twothirds" unicode="&#x2154;" horiz-adv-x="568" 
d="M196 424l34 48h6v-99h-217v13q76 90 100 124.5t24 64.5q0 23 -13 36t-35 13q-37 0 -60 -28l-7 4q26 68 98 68q42 0 65.5 -21t23.5 -57q0 -40 -34 -78t-102 -88h117zM73 0l436 662h46l-437 -662h-45zM393 145l-3 9q37 21 54 36.5t17 34.5q0 31 -36 31q-29 0 -50 -21l-5 5
q29 55 90 55q32 0 49.5 -14t17.5 -38q0 -40 -59 -61q36 -1 61 -19.5t25 -51.5q0 -50 -46 -82t-141 -38l-3 8q117 45 117 101q0 23 -17 35t-43 12q-14 0 -28 -2z" />
    <glyph glyph-name="oneeighth" unicode="&#x215b;" horiz-adv-x="537" 
d="M176 373h-140v4l38 27v203l-41 21v4l107 38v-266l36 -27v-4zM18 0l436 662h46l-437 -662h-45zM422 295q46 0 73.5 -17.5t27.5 -42.5q0 -45 -69 -67q44 -23 61.5 -44t17.5 -49q0 -34 -31.5 -57.5t-86.5 -23.5q-51 0 -81 18t-30 48q0 47 77 77q-68 35 -68 83
q0 34 29.5 54.5t79.5 20.5zM470 59q0 19 -13 32.5t-57 36.5q-39 -28 -39 -62q0 -19 14 -31.5t42 -12.5q25 0 39 10.5t14 26.5zM373 238q0 -30 63 -62q31 24 31 52q0 19 -13 30.5t-36 11.5q-22 0 -33.5 -9t-11.5 -23z" />
    <glyph glyph-name="threeeighths" unicode="&#x215c;" horiz-adv-x="539" 
d="M11 0l436 662h46l-437 -662h-45zM44 518l-3 9q37 21 54 36.5t17 34.5q0 31 -36 31q-29 0 -50 -21l-5 5q29 55 90 55q32 0 49.5 -14t17.5 -38q0 -40 -59 -61q36 -1 61 -19.5t25 -51.5q0 -50 -46 -82t-141 -38l-3 8q117 45 117 101q0 23 -17 35t-43 12q-14 0 -28 -2z
M415 295q46 0 73.5 -17.5t27.5 -42.5q0 -45 -69 -67q44 -23 61.5 -44t17.5 -49q0 -34 -31.5 -57.5t-86.5 -23.5q-51 0 -81 18t-30 48q0 47 77 77q-68 35 -68 83q0 34 29.5 54.5t79.5 20.5zM463 59q0 19 -13 32.5t-57 36.5q-39 -28 -39 -62q0 -19 14 -31.5t42 -12.5
q25 0 39 10.5t14 26.5zM366 238q0 -30 63 -62q31 24 31 52q0 19 -13 30.5t-36 11.5q-22 0 -33.5 -9t-11.5 -23z" />
    <glyph glyph-name="fiveeighths" unicode="&#x215d;" horiz-adv-x="541" 
d="M14 0l436 662h46l-437 -662h-45zM68 662h142l-22 -54h-107l-9 -36q136 -21 136 -93q0 -45 -46.5 -76t-138.5 -39l-3 8q119 43 119 90q0 21 -29.5 36t-79.5 21q33 118 38 143zM417 295q46 0 73.5 -17.5t27.5 -42.5q0 -45 -69 -67q44 -23 61.5 -44t17.5 -49
q0 -34 -31.5 -57.5t-86.5 -23.5q-51 0 -81 18t-30 48q0 47 77 77q-68 35 -68 83q0 34 29.5 54.5t79.5 20.5zM465 59q0 19 -13 32.5t-57 36.5q-39 -28 -39 -62q0 -19 14 -31.5t42 -12.5q25 0 39 10.5t14 26.5zM368 238q0 -30 63 -62q31 24 31 52q0 19 -13 30.5t-36 11.5
q-22 0 -33.5 -9t-11.5 -23z" />
    <glyph glyph-name="seveneighths" unicode="&#x215e;" horiz-adv-x="513" 
d="M17 607l24 55h196v-4l-131 -285h-41l107 234h-155zM-13 0l436 662h46l-437 -662h-45zM389 295q46 0 73.5 -17.5t27.5 -42.5q0 -45 -69 -67q44 -23 61.5 -44t17.5 -49q0 -34 -31.5 -57.5t-86.5 -23.5q-51 0 -81 18t-30 48q0 47 77 77q-68 35 -68 83q0 34 29.5 54.5
t79.5 20.5zM437 59q0 19 -13 32.5t-57 36.5q-39 -28 -39 -62q0 -19 14 -31.5t42 -12.5q25 0 39 10.5t14 26.5zM340 238q0 -30 63 -62q31 24 31 52q0 19 -13 30.5t-36 11.5q-22 0 -33.5 -9t-11.5 -23z" />
    <glyph glyph-name="minus" unicode="&#x2212;" horiz-adv-x="449" 
d="M403 228h-358v37h358v-37z" />
    <glyph glyph-name="uni24C5" unicode="&#x24c5;" horiz-adv-x="760" 
d="M380 637q-126 0 -209.5 -88.5t-83.5 -216.5q0 -126 86 -215.5t207 -89.5q125 0 209 88t84 217q0 125 -85.5 215t-207.5 90zM538 413q0 -53 -45 -82.5t-108 -29.5v5q77 27 77 96q0 38 -20.5 58.5t-56.5 20.5h-22v-279l44 -31v-4h-160v4l39 31v273l-39 30v4h158
q58 0 95.5 -25t37.5 -71zM380 674q141 0 240.5 -100.5t99.5 -241.5q0 -144 -98 -243t-242 -99q-145 0 -242.5 98.5t-97.5 243.5q0 144 98 243t242 99z" />
    <glyph glyph-name="_1" horiz-adv-x="0" 
 />
    <glyph glyph-name="W.001" horiz-adv-x="938" 
d="M490 675h15l175 -506l144 437l-69 50v6h173v-6l-57 -50l-203 -618h-15l-181 505l-180 -505h-15l-211 618l-56 50v6h229v-6l-70 -50l143 -435z" />
    <glyph glyph-name="w.001" horiz-adv-x="636" 
d="M325 276l-95 -250l-9 -26q-5 -12 -5 -13h-16q-1 7 -6 16l-16 41l-129 321l-50 43v6h198v-6l-55 -43l88 -233l109 292h16l109 -293l80 234l-57 43v6h150v-6l-51 -43l-118 -338l-10 -27l-4 -13h-16l-7 17q-8 21 -16 39z" />
    <glyph glyph-name="acute.uc" 
d="M322 772l-237 -69l-5 9l210 131z" />
    <glyph glyph-name="breve.uc" 
d="M200 711q-51 0 -81 36.5t-32 86.5l7 1q34 -63 106 -63t106 63l7 -1q-2 -49 -32 -86t-81 -37z" />
    <glyph glyph-name="circumflex.uc" 
d="M59 712l143 125l139 -125l-4 -7l-135 53l-138 -53z" />
    <glyph glyph-name="dieresis.uc" 
d="M107 719q-20 0 -33.5 13.5t-13.5 32.5q0 20 13.5 33.5t33.5 13.5q19 0 32.5 -13.5t13.5 -33.5q0 -19 -13.5 -32.5t-32.5 -13.5zM340 765q0 -19 -13 -32t-32 -13q-20 0 -33 13t-13 32q0 20 13 33t33 13q19 0 32 -13t13 -33z" />
    <glyph glyph-name="grave.uc" 
d="M321 712l-5 -9l-237 69l32 71z" />
    <glyph glyph-name="macron.uc" 
d="M85 725v50h231v-50h-231z" />
    <glyph glyph-name="ring.uc" 
d="M152 778q0 -21 13.5 -36t34.5 -15t34.5 15t13.5 36t-13.5 35.5t-34.5 14.5t-34.5 -14.5t-13.5 -35.5zM120 778q0 33 23.5 56t56.5 23t56.5 -23t23.5 -56q0 -35 -23 -57t-57 -22t-57 22t-23 57z" />
    <glyph glyph-name="tilde.uc" 
d="M136 806q12 0 66 -9t68 -9q27 0 67 48l6 -3q-10 -33 -34 -69t-46 -36q-16 0 -68.5 9t-64.5 9q-5 0 -11.5 -3t-11.5 -6t-13 -9.5t-11.5 -10t-11 -11.5t-8.5 -9l-6 3q10 33 34 69.5t45 36.5z" />
    <glyph glyph-name="Cacute.pl" horiz-adv-x="670" 
d="M399 -11q-156 0 -258.5 94t-102.5 244q0 142 99.5 244t262.5 102q106 0 204 -29v-116h-6q-82 107 -205 107q-109 0 -176.5 -85.5t-67.5 -211.5q0 -136 73.5 -223.5t180.5 -87.5q120 0 209 114h5v-107q-87 -45 -218 -45zM452 849l-84 -146l-9 1l12 168z" />
    <glyph glyph-name="acute.ucpl" 
d="M249 849l-84 -146l-9 1l12 168z" />
    <glyph glyph-name="acute.pl" 
d="M251 699l-85 -209l-11 2l19 224z" />
    <glyph glyph-name="caron.uc" 
d="M59 827l5 7l138 -54l135 54l4 -7l-139 -126z" />
    <glyph glyph-name="dotaccent.uc" 
d="M150 769q0 22 15 36.5t36 14.5t35.5 -14.5t14.5 -36.5q0 -21 -14.5 -35.5t-35.5 -14.5t-36 14.5t-15 35.5z" />
    <glyph glyph-name="space_uni0326" 
d="M252 -138q0 -45 -27.5 -86t-65.5 -63l-10 4q19 23 36.5 60t19.5 65q-1 -1 -4 -1q-2 -1 -10 -1q-18 0 -29.5 11.5t-11.5 30.5q0 20 13.5 32t32.5 12q26 0 41 -17t15 -47z" />
    <glyph glyph-name="K.001" horiz-adv-x="666" 
d="M276 0h-234v6l67 50v550l-67 50v6h234v-6l-68 -50v-550l68 -50v-6zM601 -8q-41 0 -74.5 18t-56.5 42.5t-69 82.5l-165 205v5l243 261l-67 50v6h205v-6l-77 -46l-218 -227l156 -195q117 -149 185 -183v-6q-21 -7 -62 -7z" />
    <glyph glyph-name="Kcommaaccent.001" horiz-adv-x="666" 
d="M422 -138q0 -45 -27.5 -86t-65.5 -63l-10 4q19 23 36.5 60t19.5 65q-1 -1 -4 -1q-2 -1 -10 -1q-18 0 -29.5 11.5t-11.5 30.5q0 20 13.5 32t32.5 12q26 0 41 -17t15 -47zM276 0h-234v6l67 50v550l-67 50v6h234v-6l-68 -50v-550l68 -50v-6zM601 -8q-41 0 -74.5 18
t-56.5 42.5t-69 82.5l-165 205v5l243 261l-67 50v6h205v-6l-77 -46l-218 -227l156 -195q117 -149 185 -183v-6q-21 -7 -62 -7z" />
    <glyph glyph-name="caron.alt" 
d="M164 507h-10l20 208h73z" />
    <glyph glyph-name="Nacute.pl" horiz-adv-x="766" 
d="M469 849l-84 -146l-9 1l12 168zM234 0h-198v6l73 55v519q-51 54 -78 76v6h138l448 -509v448l-78 55v6h197v-6l-73 -55v-601h-37l-471 528v-467l79 -55v-6z" />
    <glyph glyph-name="Oacute.pl" horiz-adv-x="746" 
d="M441 849l-84 -146l-9 1l12 168zM40 323q0 149 96.5 249.5t235.5 100.5q141 0 237.5 -94t96.5 -241q0 -150 -97.5 -249.5t-235.5 -99.5t-235.5 93.5t-97.5 240.5zM150 330q0 -136 65 -219.5t158 -83.5t158.5 83.5t65.5 219.5t-66 220.5t-159 84.5t-157.5 -84.5
t-64.5 -220.5z" />
    <glyph glyph-name="hungarumlaut.uc" 
d="M188 712l145 143l43 -58l-182 -93zM211 797l-182 -93l-6 8l146 143z" />
    <glyph glyph-name="Q.long" horiz-adv-x="745" 
d="M938 -223q-163 0 -394 95q-218 87 -339 159q-77 46 -121 121t-44 171q0 149 96.5 249.5t235.5 100.5q140 0 237 -94t97 -241q0 -118 -65 -210t-175 -126q161 -76 277 -113q176 -55 329 -55q118 0 204 28l4 -8q-53 -33 -144 -55t-198 -22zM150 330q0 -136 65 -219.5
t158 -83.5t158 83.5t65 219.5t-65.5 220.5t-158.5 84.5t-157.5 -84.5t-64.5 -220.5z" />
    <glyph glyph-name="Sacute.pl" horiz-adv-x="474" 
d="M256 673q78 0 130 -19v-104h-6q-55 86 -132 86q-43 0 -70 -24t-27 -65q0 -33 17.5 -61t37.5 -44.5t69 -52.5q82 -58 119.5 -103t37.5 -111q0 -80 -55.5 -132.5t-149.5 -52.5q-98 0 -174 41q-13 86 -8 172h7q9 -25 16 -43.5t22.5 -45t33 -43t44.5 -29t59 -12.5
q50 0 81.5 31.5t31.5 79.5q0 52 -27 85.5t-96 80.5q-80 54 -116.5 100.5t-36.5 107.5q0 73 53 115.5t139 42.5zM311 849l-84 -146l-9 1l12 168z" />
    <glyph glyph-name="Wacute.001" horiz-adv-x="938" 
d="M625 772l-237 -69l-5 9l210 131zM490 675h15l175 -506l144 437l-69 50v6h173v-6l-57 -50l-203 -618h-15l-181 505l-180 -505h-15l-211 618l-56 50v6h229v-6l-70 -50l143 -435z" />
    <glyph glyph-name="Wcircumflex.001" horiz-adv-x="938" 
d="M353 712l143 125l139 -125l-4 -7l-135 53l-138 -53zM490 675h15l175 -506l144 437l-69 50v6h173v-6l-57 -50l-203 -618h-15l-181 505l-180 -505h-15l-211 618l-56 50v6h229v-6l-70 -50l143 -435z" />
    <glyph glyph-name="Wdieresis.001" horiz-adv-x="938" 
d="M490 675h15l175 -506l144 437l-69 50v6h173v-6l-57 -50l-203 -618h-15l-181 505l-180 -505h-15l-211 618l-56 50v6h229v-6l-70 -50l143 -435zM402 719q-20 0 -33.5 13.5t-13.5 32.5q0 20 13.5 33.5t33.5 13.5q19 0 32.5 -13.5t13.5 -33.5q0 -19 -13.5 -32.5t-32.5 -13.5z
M635 765q0 -19 -13 -32t-32 -13q-20 0 -33 13t-13 32q0 20 13 33t33 13q19 0 32 -13t13 -33z" />
    <glyph glyph-name="Wgrave.001" horiz-adv-x="938" 
d="M613 712l-5 -9l-237 69l32 71zM490 675h15l175 -506l144 437l-69 50v6h173v-6l-57 -50l-203 -618h-15l-181 505l-180 -505h-15l-211 618l-56 50v6h229v-6l-70 -50l143 -435z" />
    <glyph glyph-name="Zacute.pl" horiz-adv-x="628" 
d="M580 654l-419 -615h340l86 114h6v-153h-560v9l412 616h-301l-78 -104h-7v141h521v-8zM394 849l-84 -146l-9 1l12 168z" />
    <glyph glyph-name="ampersand.uc" horiz-adv-x="738" 
d="M740 439v-6q-65 -37 -94 -74t-84 -141q-6 -12 -18.5 -32.5t-15.5 -25.5q71 -108 169 -108q33 0 57 9l3 -4q-57 -62 -131 -62q-87 0 -155 88q-84 -94 -199 -94q-107 0 -173.5 57t-66.5 140q0 72 49.5 131t123.5 89q-72 71 -72 139q0 50 43 89t109 39q57 0 100.5 -28.5
t43.5 -81.5q0 -21 -8.5 -40t-16.5 -30t-29.5 -26t-29.5 -19.5t-34 -18.5q103 -103 193 -233l11 19q82 150 89 162l-72 56v6h208zM446 119q-60 87 -105.5 142t-114.5 124q-96 -62 -96 -169q0 -73 45 -120t122 -47q84 0 149 70zM212 568q0 -28 16.5 -51t62.5 -69q62 44 62 109
q0 38 -19.5 60.5t-49.5 22.5q-32 0 -52 -20.5t-20 -51.5z" />
    <glyph glyph-name="at.uc" horiz-adv-x="879" 
d="M627 539l-78 -394q41 3 80 19.5t74 47t56 81t21 114.5q0 52 -16 98t-49 85t-92 61.5t-137 22.5q-85 0 -157 -35t-118 -91t-71.5 -125t-25.5 -140q0 -159 92 -252.5t236 -93.5q162 0 275 94l9 -10q-47 -50 -122 -89t-177 -39q-170 0 -277 101t-107 268q0 187 135 320
t328 133q160 0 250.5 -83t90.5 -201q0 -157 -113 -242t-275 -75l28 142q-98 -139 -167 -139q-25 0 -45.5 26t-20.5 71q0 46 18.5 93.5t53 90t90.5 71.5t123 35zM359 180q21 0 63 38t75 87l34 165q-79 -6 -135 -81t-56 -168q0 -41 19 -41z" />
    <glyph glyph-name="backslash.uc" horiz-adv-x="332" 
d="M57 754l255 -849l-37 -9l-256 848z" />
    <glyph glyph-name="slash.uc" horiz-adv-x="332" 
d="M19 -95l255 849l38 -10l-256 -848z" />
    <glyph glyph-name="bar.uc" horiz-adv-x="257" 
d="M148 -104h-39v849h39v-849z" />
    <glyph glyph-name="braceleft.uc" horiz-adv-x="264" 
d="M125 31q0 -75 106 -131l-5 -7q-99 32 -136 71t-37 86q0 31 34 98.5t34 94.5q0 74 -103 78v22q103 1 103 78q0 26 -34 91t-34 96q0 45 36.5 83.5t136.5 67.5l5 -7q-106 -51 -106 -125q0 -30 30.5 -97.5t30.5 -94.5q0 -35 -29 -65t-85 -38q56 -9 85 -38.5t29 -65.5
q0 -28 -30.5 -98t-30.5 -99z" />
    <glyph glyph-name="braceright.uc" horiz-adv-x="264" 
d="M138 31q0 29 -30.5 99t-30.5 98q0 36 29 65.5t85 38.5q-56 8 -85 38t-29 65q0 27 30.5 94.5t30.5 97.5q0 74 -106 125l5 7q100 -29 136.5 -67.5t36.5 -83.5q0 -31 -34 -96t-34 -91q0 -77 103 -78v-22q-103 -4 -103 -78q0 -27 34 -94.5t34 -98.5q0 -47 -37 -86t-136 -71
l-5 7q106 56 106 131z" />
    <glyph glyph-name="bracketleft.uc" horiz-adv-x="247" 
d="M229 749v-24h-88v-796h88v-24h-165v844h165z" />
    <glyph glyph-name="bracketright.uc" horiz-adv-x="247" 
d="M18 725v24h165v-844h-165v24h88v796h-88z" />
    <glyph glyph-name="cacute.pl" horiz-adv-x="414" 
d="M254 424q50 0 121 -15v-101h-6q-24 31 -60 54.5t-75 23.5q-52 0 -87 -46t-35 -112q0 -83 46.5 -129.5t120.5 -46.5q68 0 115 30l4 -7q-60 -85 -168 -85q-87 0 -146 57t-59 153q0 93 62.5 158.5t166.5 65.5zM301 699l-85 -209l-11 2l19 224z" />
    <glyph glyph-name="space_uni0326.alt" 
d="M148 563q0 45 27.5 86t65.5 63l10 -4q-20 -25 -37 -61t-19 -63h4q1 0 4.5 0.5t5.5 0.5q19 0 30 -11.5t11 -29.5q0 -20 -13.5 -32.5t-32.5 -12.5q-26 0 -41 17t-15 47z" />
    <glyph glyph-name="divide.lin" horiz-adv-x="469" 
d="M184 137q0 23 14.5 37t35.5 14q22 0 36.5 -14t14.5 -37q0 -21 -15 -35.5t-36 -14.5t-35.5 14.5t-14.5 35.5zM184 454q0 22 14.5 37t35.5 15t36 -15t15 -37q0 -21 -15 -35.5t-36 -14.5t-35.5 14.5t-14.5 35.5zM45 277v38h378v-38h-378z" />
    <glyph glyph-name="eight.den" horiz-adv-x="263" 
d="M135 295q46 0 73.5 -17.5t27.5 -42.5q0 -42 -68 -68q43 -23 60.5 -43.5t17.5 -48.5q0 -34 -31.5 -57.5t-86.5 -23.5q-51 0 -81 17.5t-30 47.5q0 47 76 77q-67 35 -67 83q0 35 29.5 55.5t79.5 20.5zM183 58q0 18 -13.5 33.5t-57.5 35.5q-38 -28 -38 -61q0 -19 14 -32
t42 -13q25 0 39 11t14 26zM86 238q0 -16 14 -30t49 -32q31 21 31 51q0 43 -49 43q-22 0 -33.5 -9t-11.5 -23z" />
    <glyph glyph-name="eight.lin" horiz-adv-x="490" 
d="M246 672q80 0 130.5 -39.5t50.5 -97.5q0 -93 -129 -165q80 -53 117 -98.5t37 -107.5q0 -75 -58.5 -124.5t-151.5 -49.5q-89 0 -147 41.5t-58 109.5q0 57 38 102t112 88q-72 49 -100 91t-28 95q0 68 55 111.5t132 43.5zM363 138q0 50 -32 86.5t-117 89.5q-92 -69 -92 -165
q0 -52 33.5 -87t88.5 -35q54 0 86.5 32.5t32.5 78.5zM141 544q0 -44 28 -75t105 -83q73 61 73 140q0 51 -28 80.5t-76 29.5q-47 0 -74.5 -26.5t-27.5 -65.5z" />
    <glyph glyph-name="eight.num" horiz-adv-x="263" 
d="M135 668q46 0 73.5 -17.5t27.5 -42.5q0 -45 -69 -67q44 -23 61.5 -44t17.5 -49q0 -34 -31.5 -57.5t-86.5 -23.5q-51 0 -81 18t-30 48q0 47 77 77q-68 35 -68 83q0 34 29.5 54.5t79.5 20.5zM183 432q0 19 -13 32.5t-57 36.5q-39 -28 -39 -62q0 -19 14 -31.5t42 -12.5
q25 0 39 10.5t14 26.5zM86 611q0 -31 63 -62q31 24 31 52q0 19 -13 30.5t-36 11.5q-22 0 -33.5 -9t-11.5 -23z" />
    <glyph glyph-name="eight.sub" horiz-adv-x="263" 
d="M135 189q46 0 73.5 -17.5t27.5 -42.5q0 -45 -69 -67q44 -23 61.5 -44t17.5 -49q0 -34 -31.5 -57.5t-86.5 -23.5q-51 0 -81 18t-30 48q0 47 77 77q-68 35 -68 83q0 34 29.5 54.5t79.5 20.5zM183 -47q0 19 -13 32.5t-57 36.5q-39 -28 -39 -62q0 -19 14 -31.5t42 -12.5
q25 0 39 10.5t14 26.5zM86 132q0 -30 63 -62q31 24 31 52q0 19 -13 30.5t-36 11.5q-22 0 -33.5 -9t-11.5 -23z" />
    <glyph glyph-name="eight.sup" horiz-adv-x="263" 
d="M135 721q46 0 73.5 -17.5t27.5 -42.5q0 -45 -69 -67q44 -23 61.5 -44t17.5 -49q0 -34 -31.5 -57.5t-86.5 -23.5q-51 0 -81 18t-30 48q0 47 77 77q-68 35 -68 83q0 34 29.5 54.5t79.5 20.5zM183 485q0 19 -13 32.5t-57 36.5q-39 -28 -39 -62q0 -19 14 -31.5t42 -12.5
q25 0 39 10.5t14 26.5zM86 664q0 -30 63 -62q31 24 31 52q0 19 -13 30.5t-36 11.5q-22 0 -33.5 -9t-11.5 -23z" />
    <glyph glyph-name="emdash.uc" horiz-adv-x="739" 
d="M46 289v37h647v-37h-647z" />
    <glyph glyph-name="endash.uc" horiz-adv-x="475" 
d="M46 289v37h383v-37h-383z" />
    <glyph glyph-name="equal.lin" horiz-adv-x="460" 
d="M409 228h-358v35h358v-35zM409 320h-358v35h358v-35z" />
    <glyph glyph-name="exclamdown.uc" horiz-adv-x="206" 
d="M154 0h-102q13 101 44 452h14q7 -59 17 -165.5t18 -191t9 -95.5zM157 618q0 -24 -15.5 -39t-38.5 -15t-38.5 15t-15.5 39q0 23 15.5 38.5t38.5 15.5t38.5 -15.5t15.5 -38.5z" />
    <glyph glyph-name="f.short" horiz-adv-x="300" 
d="M165 55l86 -49v-6h-234v6l60 44v312h-66v7l66 41v42q0 113 69.5 188t170.5 75q36 0 76 -10l-30 -69q-56 36 -93 36q-33 0 -69 -47.5t-36 -128.5v-85h141l-39 -49h-102v-307z" />
    <glyph glyph-name="f_f.short" horiz-adv-x="564" 
d="M165 54l78 -48v-6h-226v6l59 44v312h-65v7l65 41v36q0 111 68 187t167 76q38 0 71 -7l-29 -66q-54 30 -86 30q-35 0 -68.5 -45.5t-33.5 -126.5v-83h175v41q0 113 69.5 188t171.5 75q33 0 76 -10l-31 -69q-54 36 -92 36q-34 0 -69.5 -47t-35.5 -129v-85h141l-39 -49h-102
v-307l85 -49v-6h-233v6l59 44v312h-175v-308z" />
    <glyph glyph-name="f_f_k.001" horiz-adv-x="1010" 
d="M165 54l78 -48v-6h-226v6l59 44v312h-65v7l65 41v36q0 111 68 187t167 76q38 0 71 -7l-29 -66q-54 30 -86 30q-35 0 -68.5 -45.5t-33.5 -126.5v-83h175v42q0 114 73 188t183 74q49 0 100 -10v-655l59 -44v-6h-206v6l58 44v608q-24 14 -55 14q-47 0 -85 -44.5t-38 -130.5
v-86h136l-39 -49h-97v-307l82 -49v-6h-230v6l59 44v312h-175v-308zM985 408l-92 -45l-95 -96l154 -217l57 -44v-6h-201v6l48 42l-121 165h-29l133 146l-56 50v5h202v-6z" />
    <glyph glyph-name="f_k.001" horiz-adv-x="746" 
d="M165 55l82 -49v-6h-230v6l59 44v312h-65v7l65 41v43q0 114 73 188t183 74q49 0 100 -10v-655l59 -44v-6h-205v6l58 44v608q-25 14 -55 14q-48 0 -86 -44.5t-38 -130.5v-86h137l-39 -49h-98v-307zM593 48l-122 165h-29l133 146l-55 50v5h202v-6l-93 -45l-95 -96l154 -217
l58 -44v-6h-201v6z" />
    <glyph glyph-name="five.den" horiz-adv-x="222" 
d="M58 289h142l-22 -54h-107l-9 -36q136 -21 136 -93q0 -45 -46.5 -76t-138.5 -39l-3 8q119 43 119 90q0 21 -29.5 36t-79.5 21q33 118 38 143z" />
    <glyph glyph-name="five.num" horiz-adv-x="221" 
d="M58 662h142l-22 -54h-107l-9 -36q136 -21 136 -93q0 -45 -46.5 -76t-138.5 -39l-3 8q119 43 119 90q0 21 -29.5 36t-79.5 21q33 118 38 143z" />
    <glyph glyph-name="five.lin" horiz-adv-x="408" 
d="M102 662h246l-36 -77h-194l-21 -86q121 -35 193.5 -97.5t72.5 -143.5q0 -89 -87.5 -164t-241.5 -114l-5 10q237 128 237 246q0 35 -20.5 65.5t-56 53t-72 38.5t-77.5 28q2 2 31 120t31 121z" />
    <glyph glyph-name="five.sub" horiz-adv-x="222" 
d="M58 183h142l-22 -54h-107l-9 -36q136 -21 136 -93q0 -45 -46.5 -76t-138.5 -39l-3 8q119 43 119 90q0 21 -29.5 36t-79.5 21q33 118 38 143z" />
    <glyph glyph-name="five.sup" horiz-adv-x="222" 
d="M58 715h142l-22 -54h-107l-9 -36q136 -21 136 -93q0 -45 -46.5 -76t-138.5 -39l-3 8q119 43 119 90q0 21 -29.5 36t-79.5 21q33 118 38 143z" />
    <glyph glyph-name="four.den" horiz-adv-x="267" 
d="M206 29l34 -26v-3h-133v3l35 26v45h-138v11l155 206h47v-177h59l-25 -40h-34v-45zM59 114h83v110z" />
    <glyph glyph-name="four.lin" horiz-adv-x="516" 
d="M381 56l67 -50v-6h-229v6l67 50v134h-281v7l351 473h25v-411h126l-39 -69h-87v-134zM98 259h188v252z" />
    <glyph glyph-name="four.num" horiz-adv-x="267" 
d="M206 403l34 -26v-4h-133v4l35 26v45h-138v11l155 205h47v-177h59l-25 -39h-34v-45zM59 487h83v110z" />
    <glyph glyph-name="four.sub" horiz-adv-x="267" 
d="M206 -76l34 -26v-4h-133v4l35 26v45h-138v11l155 205h47v-177h59l-25 -39h-34v-45zM59 8h83v110z" />
    <glyph glyph-name="four.sup" horiz-adv-x="267" 
d="M206 456l34 -26v-4h-133v4l35 26v45h-138v11l155 205h47v-177h59l-25 -39h-34v-45zM59 540h83v110z" />
    <glyph glyph-name="greater.lin" horiz-adv-x="433" 
d="M47 149v37l293 110l-293 112v37l341 -131v-36z" />
    <glyph glyph-name="guillemotleft.uc" horiz-adv-x="347" 
d="M317 134l-9 -5l-141 159v1l141 158l9 -5l-70 -154zM166 129l-141 159v1l141 158l9 -5l-70 -154l70 -154z" />
    <glyph glyph-name="guillemotright.uc" horiz-adv-x="347" 
d="M38 129l-9 5l70 154l-70 154l9 5l141 -158v-1zM321 288l-141 -159l-9 5l70 154l-70 154l9 5l141 -158v-1z" />
    <glyph glyph-name="guilsinglleft.uc" horiz-adv-x="217" 
d="M180 129l-155 160v1l154 157l8 -6l-76 -151l77 -155z" />
    <glyph glyph-name="guilsinglright.uc" horiz-adv-x="217" 
d="M192 289l-155 -160l-8 6l77 155l-76 151l8 6l154 -157v-1z" />
    <glyph glyph-name="hyphen.uc" horiz-adv-x="262" 
d="M45 271v68h172v-68h-172z" />
    <glyph glyph-name="idotaccent" horiz-adv-x="245" 
d="M226 0h-206v6l58 44v292l-55 32v6q2 2 22 9.5t55 19t67 19.5v-378l59 -44v-6zM68 582q0 22 14.5 36.5t35.5 14.5q22 0 36 -14.5t14 -36.5q0 -21 -14 -35t-36 -14q-21 0 -35.5 14t-14.5 35z" />
    <glyph glyph-name="k.001" horiz-adv-x="480" 
d="M166 725v-675l57 -44v-6h-204v6l59 44v584l-59 34v7q1 0 23 8.5t58 21t66 20.5zM326 48l-121 165h-29l133 146l-56 50v5h202v-6l-92 -45l-95 -96l154 -217l57 -44v-6h-201v6z" />
    <glyph glyph-name="kcommaaccent.001" horiz-adv-x="480" 
d="M312 -138q0 -45 -27.5 -86t-65.5 -63l-10 4q19 23 36.5 60t19.5 65q-1 -1 -4 -1q-2 -1 -10 -1q-18 0 -29.5 11.5t-11.5 30.5q0 20 13.5 32t32.5 12q26 0 41 -17t15 -47zM166 725v-675l57 -44v-6h-204v6l59 44v584l-59 34v7q1 0 23 8.5t58 21t66 20.5zM326 48l-121 165
h-29l133 146l-56 50v5h202v-6l-92 -45l-95 -96l154 -217l57 -44v-6h-201v6z" />
    <glyph glyph-name="less.lin" horiz-adv-x="433" 
d="M386 186v-37l-341 129v36l341 131v-37l-294 -112z" />
    <glyph glyph-name="minus.lin" horiz-adv-x="449" 
d="M403 278h-358v37h358v-37z" />
    <glyph glyph-name="multiply.lin" horiz-adv-x="418" 
d="M76 132l-26 25l133 138l-133 137l27 27l132 -137l132 137l27 -26l-134 -138l134 -138l-27 -25l-133 136z" />
    <glyph glyph-name="nacute.pl" horiz-adv-x="517" 
d="M336 699l-85 -209l-11 2l19 224zM226 0h-206v6l58 44v292l-55 32v6q2 2 22 9.5t55 19t67 19.5v-74q28 28 68 49t81 21q52 0 89.5 -31t37.5 -72v-271l59 -44v-6h-205v6l57 44v241q0 32 -22.5 54t-65.5 22q-52 0 -99 -45v-272l59 -44v-6z" />
    <glyph glyph-name="nine.den" horiz-adv-x="276" 
d="M60 -8l-4 7q131 74 131 181q0 39 -18.5 64.5t-40.5 25.5q-16 0 -30 -17t-14 -43t15.5 -41t39.5 -15q15 0 22 4l3 -5q-7 -11 -25 -21.5t-42 -10.5q-35 0 -57.5 20.5t-22.5 57.5q0 41 32.5 68.5t77.5 27.5q52 0 91 -31.5t39 -87.5q0 -75 -57 -123t-140 -61z" />
    <glyph glyph-name="nine.num" horiz-adv-x="276" 
d="M60 365l-4 7q131 74 131 181q0 39 -18.5 64.5t-40.5 25.5q-16 0 -30 -17t-14 -43t15.5 -41t39.5 -15q15 0 22 4l3 -5q-7 -11 -25 -21.5t-42 -10.5q-35 0 -57.5 20.5t-22.5 57.5q0 41 32.5 68.5t77.5 27.5q52 0 91 -31.5t39 -87.5q0 -75 -57 -123t-140 -61z" />
    <glyph glyph-name="nine.lin" horiz-adv-x="521" 
d="M79 -9l-3 9q298 143 298 411q0 92 -43 160t-97 68q-40 0 -71 -41.5t-31 -107.5q0 -73 37.5 -110t88.5 -37q44 0 71 16l3 -6q-17 -20 -50 -40t-77 -20q-72 0 -122 47t-50 127q0 89 61.5 148t140.5 59q96 0 170 -75t74 -197q0 -85 -36 -158.5t-94.5 -124t-128 -83.5
t-141.5 -45z" />
    <glyph glyph-name="nine.sub" horiz-adv-x="276" 
d="M60 -114l-4 7q131 74 131 181q0 39 -18.5 64.5t-40.5 25.5q-16 0 -30 -17t-14 -43t15.5 -41t39.5 -15q15 0 22 4l3 -5q-7 -11 -25 -21.5t-42 -10.5q-35 0 -57.5 20.5t-22.5 57.5q0 41 32.5 68.5t77.5 27.5q52 0 91 -31.5t39 -87.5q0 -75 -57 -123t-140 -61z" />
    <glyph glyph-name="nine.sup" horiz-adv-x="276" 
d="M60 418l-4 7q131 74 131 181q0 39 -18.5 64.5t-40.5 25.5q-16 0 -30 -17t-14 -43t15.5 -41t39.5 -15q15 0 22 4l3 -5q-7 -11 -25 -21.5t-42 -10.5q-35 0 -57.5 20.5t-22.5 57.5q0 41 32.5 68.5t77.5 27.5q52 0 91 -31.5t39 -87.5q0 -75 -57 -123t-140 -61z" />
    <glyph glyph-name="oacute.pl" horiz-adv-x="473" 
d="M25 202q0 94 63 158t148 64q87 0 149.5 -59.5t62.5 -153.5q0 -96 -63 -158.5t-149 -62.5t-148.5 59t-62.5 153zM122 207q0 -78 33.5 -129.5t80.5 -51.5t81.5 52t34.5 129q0 76 -34 128.5t-82 52.5q-46 0 -80 -52.5t-34 -128.5zM313 699l-85 -209l-11 2l19 224z" />
    <glyph glyph-name="one.den" horiz-adv-x="175" 
d="M158 0h-140v4l38 27v203l-41 21v4l107 38v-266l36 -27v-4z" />
    <glyph glyph-name="one.num" horiz-adv-x="175" 
d="M158 373h-140v4l38 27v203l-41 21v4l107 38v-266l36 -27v-4z" />
    <glyph glyph-name="one.lin" horiz-adv-x="319" 
d="M283 0h-244v6l72 50v521l-73 29v6q29 12 172 62v-618l73 -50v-6z" />
    <glyph glyph-name="one.sub" horiz-adv-x="175" 
d="M158 -106h-140v4l38 27v203l-41 21v4l107 38v-266l36 -27v-4z" />
    <glyph glyph-name="one.sup" horiz-adv-x="175" 
d="M158 426h-140v4l38 27v203l-41 21v4l107 38v-266l36 -27v-4z" />
    <glyph glyph-name="two.den" horiz-adv-x="249" 
d="M186 51l34 48h6v-99h-217v12q76 90 100 124.5t24 64.5q0 23 -13 36t-35 13q-38 0 -60 -27l-7 4q26 68 98 68q42 0 65.5 -21t23.5 -57q0 -40 -34 -78t-102 -88h117z" />
    <glyph glyph-name="three.den" horiz-adv-x="213" 
d="M35 145l-3 8q37 22 54 37.5t17 34.5q0 31 -36 31q-29 0 -50 -21l-5 4q10 22 32 39t58 17q32 0 49.5 -14t17.5 -38q0 -40 -59 -61q36 -1 61 -19.5t25 -51.5q0 -50 -46 -82t-141 -38l-3 8q117 45 117 101q0 23 -17 35t-43 12q-14 0 -28 -2z" />
    <glyph glyph-name="parenleft.uc" horiz-adv-x="280" 
d="M135 334q0 -72 12.5 -140t36.5 -127t39.5 -90t40.5 -76l-8 -6q-206 206 -206 439q0 132 62 243t144 183l8 -6q-129 -207 -129 -420z" />
    <glyph glyph-name="parenright.uc" horiz-adv-x="280" 
d="M149 334q0 213 -129 420l8 6q82 -72 144 -183t62 -243q0 -233 -206 -439l-8 6q25 45 40.5 76t39.5 90t36.5 127t12.5 140z" />
    <glyph glyph-name="plus.lin" horiz-adv-x="473" 
d="M45 278v37h172v173h40v-173h170v-37h-170v-175h-40v175h-172z" />
    <glyph glyph-name="questiondown.uc" horiz-adv-x="342" 
d="M24 112q0 36 14 64t50 64l71 70q18 19 24 32t6 35q0 12 -0.5 26t-2 28.5t-1.5 20.5h14q48 -100 48 -128q0 -26 -34 -65q-28 -28 -61 -68q-38 -45 -38 -85q0 -37 22 -58t55 -21q62 0 112 84h7v-109q-36 -12 -115 -12q-73 0 -122 30t-49 92zM245 618q0 -24 -15.5 -39
t-38.5 -15t-38.5 15t-15.5 39q0 23 15.5 38.5t38.5 15.5t38.5 -15.5t15.5 -38.5z" />
    <glyph glyph-name="sacute.pl" horiz-adv-x="334" 
d="M180 424q55 0 91 -13v-86h-6q-42 64 -94 64q-22 0 -36.5 -12.5t-14.5 -35.5q0 -14 4 -24t17 -21.5t20.5 -16.5l31.5 -21q62 -40 80 -61q30 -34 30 -80q0 -56 -40.5 -91.5t-109.5 -35.5q-64 0 -115 24q-12 58 -7 135h7q15 -48 45 -84.5t74 -36.5q29 0 47.5 17.5t18.5 46.5
q0 28 -18 46.5t-63 45.5q-49 32 -72.5 60t-23.5 72q0 50 37.5 79t96.5 29zM249 699l-85 -209l-11 2l19 224z" />
    <glyph glyph-name="seven.den" horiz-adv-x="235" 
d="M7 234l24 55h196v-4l-131 -285h-41l107 234h-155z" />
    <glyph glyph-name="seven.num" horiz-adv-x="235" 
d="M7 607l24 55h196v-4l-131 -285h-41l107 234h-155z" />
    <glyph glyph-name="seven.lin" horiz-adv-x="458" 
d="M15 585l34 77h394v-5l-279 -657h-53l248 585h-344z" />
    <glyph glyph-name="seven.sub" horiz-adv-x="235" 
d="M7 128l24 55h196v-4l-131 -285h-41l107 234h-155z" />
    <glyph glyph-name="seven.sup" horiz-adv-x="235" 
d="M7 660l24 55h196v-4l-131 -285h-41l107 234h-155z" />
    <glyph glyph-name="six.den" horiz-adv-x="274" 
d="M224 297l3 -7q-137 -73 -137 -186q0 -39 16.5 -62t38.5 -23q18 0 31 16.5t13 42.5q0 29 -15 44t-39 15q-12 0 -21 -3l-2 5q26 30 66 30q35 0 57.5 -21t22.5 -56q0 -45 -35.5 -71.5t-79.5 -26.5q-49 0 -86.5 31t-37.5 87q0 72 60.5 122t144.5 63z" />
    <glyph glyph-name="six.num" horiz-adv-x="274" 
d="M224 670l3 -7q-137 -73 -137 -186q0 -39 16.5 -62t38.5 -23q18 0 31 16.5t13 42.5q0 29 -15 44t-39 15q-12 0 -21 -3l-2 5q26 30 66 30q35 0 57.5 -21t22.5 -56q0 -45 -35.5 -71.5t-79.5 -26.5q-49 0 -86.5 31t-37.5 87q0 72 60.5 122t144.5 63z" />
    <glyph glyph-name="six.lin" horiz-adv-x="524" 
d="M454 675l4 -9q-137 -56 -224 -164t-87 -259q0 -92 39 -154t90 -62q44 0 78.5 43t34.5 114q0 68 -36.5 103t-89.5 35q-47 0 -71 -15l-3 6q16 19 51.5 39t81.5 20q71 0 118.5 -44t47.5 -124q0 -96 -66 -154t-147 -58q-91 0 -162 71t-71 190q0 84 37.5 159.5t98.5 128
t132 87.5t144 47z" />
    <glyph glyph-name="six.sub" horiz-adv-x="274" 
d="M224 191l3 -7q-137 -73 -137 -186q0 -39 16.5 -62t38.5 -23q18 0 31 16.5t13 42.5q0 29 -15 44t-39 15q-12 0 -21 -3l-2 5q26 30 66 30q35 0 57.5 -21t22.5 -56q0 -45 -35.5 -71.5t-79.5 -26.5q-49 0 -86.5 31t-37.5 87q0 72 60.5 122t144.5 63z" />
    <glyph glyph-name="six.sup" horiz-adv-x="274" 
d="M224 723l3 -7q-137 -73 -137 -186q0 -39 16.5 -62t38.5 -23q18 0 31 16.5t13 42.5q0 29 -15 44t-39 15q-12 0 -21 -3l-2 5q26 30 66 30q35 0 57.5 -21t22.5 -56q0 -45 -35.5 -71.5t-79.5 -26.5q-49 0 -86.5 31t-37.5 87q0 72 60.5 122t144.5 63z" />
    <glyph glyph-name="three.lin" horiz-adv-x="415" 
d="M85 344l-7 9q73 53 108.5 93t35.5 83q0 37 -22 59.5t-63 22.5q-24 0 -47.5 -12t-30.5 -18.5t-26 -25.5l-8 5q53 112 161 112q60 0 95 -31.5t35 -84.5q0 -79 -119 -141q75 -2 125.5 -40t50.5 -111q0 -59 -31 -108.5t-83.5 -82.5t-112 -54.5t-126.5 -33.5l-3 10
q105 43 180 106.5t75 139.5q0 58 -36 84.5t-90 26.5q-37 0 -61 -8z" />
    <glyph glyph-name="three.num" horiz-adv-x="213" 
d="M35 518l-3 9q37 21 54 36.5t17 34.5q0 31 -36 31q-29 0 -50 -21l-5 5q29 55 90 55q32 0 49.5 -14t17.5 -38q0 -40 -59 -61q36 -1 61 -19.5t25 -51.5q0 -50 -46 -82t-141 -38l-3 8q117 45 117 101q0 23 -17 35t-43 12q-14 0 -28 -2z" />
    <glyph glyph-name="three.sub" horiz-adv-x="213" 
d="M35 39l-3 9q37 21 54 36.5t17 34.5q0 31 -36 31q-29 0 -50 -21l-5 5q29 55 90 55q32 0 49.5 -14t17.5 -38q0 -40 -59 -61q36 -1 61 -19.5t25 -51.5q0 -50 -46 -82t-141 -38l-3 8q117 45 117 101q0 23 -17 35t-43 12q-14 0 -28 -2z" />
    <glyph glyph-name="three.sup" horiz-adv-x="213" 
d="M35 571l-3 9q37 21 54 36.5t17 34.5q0 31 -36 31q-29 0 -50 -21l-5 5q29 55 90 55q32 0 49.5 -14t17.5 -38q0 -40 -59 -61q36 -1 61 -19.5t25 -51.5q0 -50 -46 -82t-141 -38l-3 8q117 45 117 101q0 23 -17 35t-43 12q-14 0 -28 -2z" />
    <glyph glyph-name="two.lin" horiz-adv-x="476" 
d="M382 77l59 87h6v-164h-433v11q173 226 225.5 312t52.5 157q0 62 -33 94.5t-85 32.5q-68 0 -126 -63l-8 5q19 48 65.5 85.5t116.5 37.5q81 0 128 -47.5t47 -119.5q0 -22 -3 -42t-12.5 -42.5t-16.5 -38.5t-26.5 -42.5t-30.5 -41.5t-41 -48t-45.5 -49.5t-56 -59t-60.5 -64.5
h277z" />
    <glyph glyph-name="two.num" horiz-adv-x="249" 
d="M186 424l34 48h6v-99h-217v13q76 90 100 124.5t24 64.5q0 23 -13 36t-35 13q-37 0 -60 -28l-7 4q26 68 98 68q42 0 65.5 -21t23.5 -57q0 -40 -34 -78t-102 -88h117z" />
    <glyph glyph-name="two.sub" horiz-adv-x="249" 
d="M186 -55l34 48h6v-99h-217v13q76 90 100 124.5t24 64.5q0 23 -13 36t-35 13q-37 0 -60 -28l-7 4q26 68 98 68q42 0 65.5 -21t23.5 -57q0 -39 -34 -77.5t-102 -88.5h117z" />
    <glyph glyph-name="two.sup" horiz-adv-x="249" 
d="M186 477l34 48h6v-99h-217v13q76 90 100 124.5t24 64.5q0 23 -13 36t-35 13q-37 0 -60 -28l-7 4q26 68 98 68q42 0 65.5 -21t23.5 -57q0 -39 -34 -77.5t-102 -88.5h117z" />
    <glyph glyph-name="wacute.001" horiz-adv-x="636" 
d="M462 667l-159 -174l-8 5l99 214zM325 276l-95 -250l-9 -26q-5 -12 -5 -13h-16q-1 7 -6 16l-16 41l-129 321l-50 43v6h198v-6l-55 -43l88 -233l109 292h16l109 -293l80 234l-57 43v6h150v-6l-51 -43l-118 -338l-10 -27l-4 -13h-16l-7 17q-8 21 -16 39z" />
    <glyph glyph-name="wcircumflex.001" horiz-adv-x="636" 
d="M239 489l108 218l108 -218l-8 -5l-100 107l-100 -107zM325 276l-95 -250l-9 -26q-5 -12 -5 -13h-16q-1 7 -6 16l-16 41l-129 321l-50 43v6h198v-6l-55 -43l88 -233l109 292h16l109 -293l80 234l-57 43v6h150v-6l-51 -43l-118 -338l-10 -27l-4 -13h-16l-7 17q-8 21 -16 39
z" />
    <glyph glyph-name="wdieresis.001" horiz-adv-x="636" 
d="M430 624q19 0 31.5 -13t12.5 -33q0 -19 -12.5 -31t-31.5 -12q-20 0 -32.5 12t-12.5 31q0 20 12.5 33t32.5 13zM261 625q19 0 32.5 -13.5t13.5 -33.5q0 -19 -13.5 -31.5t-32.5 -12.5q-20 0 -32.5 12.5t-12.5 31.5q0 20 12.5 33.5t32.5 13.5zM325 276l-95 -250l-9 -26
q-5 -12 -5 -13h-16q-1 7 -6 16l-16 41l-129 321l-50 43v6h198v-6l-55 -43l88 -233l109 292h16l109 -293l80 234l-57 43v6h150v-6l-51 -43l-118 -338l-10 -27l-4 -13h-16l-7 17q-8 21 -16 39z" />
    <glyph glyph-name="wgrave.001" horiz-adv-x="636" 
d="M325 276l-95 -250l-9 -26q-5 -12 -5 -13h-16q-1 7 -6 16l-16 41l-129 321l-50 43v6h198v-6l-55 -43l88 -233l109 292h16l109 -293l80 234l-57 43v6h150v-6l-51 -43l-118 -338l-10 -27l-4 -13h-16l-7 17q-8 21 -16 39zM408 498l-8 -4l-159 173l68 45z" />
    <glyph glyph-name="zacute.pl" horiz-adv-x="402" 
d="M371 117h6v-117h-357v8l235 373h-143l-64 -76h-6v109h326v-7l-239 -373h174zM283 699l-85 -209l-11 2l19 224z" />
    <glyph glyph-name="zero.den" horiz-adv-x="316" 
d="M94 144q0 -54 19.5 -88t45.5 -34t44.5 34t18.5 88t-20 88.5t-45 34.5q-26 0 -44.5 -35t-18.5 -88zM22 140q0 65 40.5 110t94.5 45q57 0 97 -41t40 -104q0 -69 -40.5 -112.5t-94.5 -43.5q-56 0 -96.5 41t-40.5 105z" />
    <glyph glyph-name="zero.num" horiz-adv-x="316" 
d="M94 517q0 -54 19.5 -88t45.5 -34t44.5 34t18.5 88t-20 88.5t-45 34.5q-26 0 -44.5 -35t-18.5 -88zM22 513q0 65 40.5 110t94.5 45q57 0 97 -41t40 -104q0 -69 -40.5 -112.5t-94.5 -43.5q-56 0 -96.5 41t-40.5 105z" />
    <glyph glyph-name="zero.lin" horiz-adv-x="616" 
d="M152 330q0 -129 46 -215.5t110 -86.5t110 86.5t46 215.5t-46.5 217t-110.5 88t-109.5 -88t-45.5 -217zM44 323q0 141 78 245.5t185 104.5q108 0 186 -98.5t78 -236.5q0 -141 -78 -244.5t-185 -103.5t-185.5 97.5t-78.5 235.5z" />
    <glyph glyph-name="zero.sub" horiz-adv-x="316" 
d="M94 38q0 -54 19.5 -88t45.5 -34t44.5 34t18.5 88t-20 88.5t-45 34.5q-26 0 -44.5 -35t-18.5 -88zM22 34q0 65 40.5 110t94.5 45q57 0 97 -41t40 -104q0 -69 -40.5 -112.5t-94.5 -43.5q-56 0 -96.5 41t-40.5 105z" />
    <glyph glyph-name="zero.sup" horiz-adv-x="316" 
d="M94 570q0 -54 19.5 -88t45.5 -34t44.5 34t18.5 88t-20 88.5t-45 34.5q-26 0 -44.5 -35t-18.5 -88zM22 566q0 65 40.5 110t94.5 45q57 0 97 -41t40 -104q0 -69 -40.5 -112.5t-94.5 -43.5q-56 0 -96.5 41t-40.5 105z" />
    </font>
</defs>
</svg>
