<?xml version="1.0" encoding="utf-8"?>
<!-- Generator: Adobe Illustrator 16.0.4, SVG Export Plug-In . SVG Version: 6.00 Build 0)  -->
<!DOCTYPE svg PUBLIC "-//W3C//DTD SVG 1.1//EN" "http://www.w3.org/Graphics/SVG/1.1/DTD/svg11.dtd">
<svg version="1.1" id="Layer_1" xmlns="http://www.w3.org/2000/svg" xmlns:xlink="http://www.w3.org/1999/xlink" x="0px" y="0px"
	 width="270px" height="212px" viewBox="0 0 270 212" enable-background="new 0 0 270 212" xml:space="preserve">
<rect x="-181" y="-78" display="none" fill="#B3B3B3" width="960" height="960"/>
<g>
	<g>
		<g>
			<defs>
				<rect id="SVGID_1_" width="270" height="211.322"/>
			</defs>
			<clipPath id="SVGID_2_">
				<use xlink:href="#SVGID_1_"  overflow="visible"/>
			</clipPath>
			<path clip-path="url(#SVGID_2_)" fill="#34495E" d="M266.289,187.132c0.766-0.262,1.425-0.641,1.98-1.136
				c0.555-0.495,0.98-1.086,1.28-1.777c0.302-0.688,0.45-1.462,0.45-2.316c0-0.809-0.141-1.541-0.416-2.19
				c-0.277-0.651-0.656-1.207-1.136-1.665c-0.479-0.457-1.042-0.81-1.688-1.057c-0.645-0.247-1.334-0.371-2.07-0.371
				c-0.702,0-1.308,0.09-1.81,0.271c-0.503,0.18-0.896,0.396-1.181,0.651h-0.045l0.539-2.744h6.838v-3.037h-9.559l-1.574,8.525
				h3.553c0.21-0.255,0.507-0.478,0.888-0.664c0.384-0.188,0.821-0.282,1.316-0.282c0.749,0,1.356,0.227,1.821,0.678
				c0.465,0.448,0.699,1.069,0.699,1.865c0,0.779-0.227,1.413-0.677,1.901c-0.45,0.485-1.058,0.729-1.821,0.729
				c-0.69,0-1.285-0.162-1.789-0.483c-0.502-0.322-0.812-0.813-0.934-1.474h-3.71c0.09,0.823,0.313,1.547,0.674,2.17
				c0.359,0.621,0.824,1.14,1.396,1.551c0.57,0.414,1.231,0.725,1.99,0.935c0.758,0.21,1.578,0.313,2.463,0.313
				C264.686,187.525,265.523,187.393,266.289,187.132 M241.794,203.938h16.82v-3.896h-16.82V203.938z M228.293,203.938h16.82v-3.896
				h-16.82V203.938z M213.247,203.938h16.819v-3.896h-16.819V203.938L213.247,203.938z M198.202,203.938h16.819v-3.896h-16.819
				V203.938z M175.258,180.868v-0.045l4.273-5.24h0.045v5.285H175.258z M179.576,187.166h3.688v-3.419h2.229v-2.879h-2.229v-9.267
				h-3.731l-7.132,8.658v3.487h7.177L179.576,187.166L179.576,187.166z M157.154,192.805c0.205-1.183,0.63-2.121,1.271-2.814
				c0.645-0.695,1.569-1.042,2.778-1.042c1.026,0,1.877,0.348,2.546,1.042c0.669,0.693,1.064,1.633,1.193,2.814H157.154z
				 M164.889,204.918c1.018-0.309,1.938-0.758,2.76-1.35c0.873-0.592,1.595-1.293,2.16-2.104c0.564-0.81,0.95-1.665,1.156-2.565
				h-6.134c-0.284,0.619-0.695,1.101-1.235,1.446c-0.539,0.349-1.222,0.521-2.045,0.521c-1.312,0-2.326-0.388-3.048-1.157
				c-0.721-0.771-1.183-1.826-1.39-3.164h14.197c0.025-2.006-0.25-3.838-0.828-5.497c-0.58-1.657-1.461-3.026-2.644-4.106
				c-0.849-0.771-1.833-1.377-2.95-1.814c-1.119-0.438-2.387-0.656-3.801-0.656c-1.52,0-2.895,0.264-4.128,0.79
				c-1.233,0.528-2.302,1.261-3.202,2.199c-0.898,0.938-1.595,2.045-2.084,3.317c-0.488,1.272-0.73,2.643-0.73,4.107
				c0,1.492,0.244,2.883,0.73,4.167c0.488,1.286,1.184,2.398,2.084,3.339c0.899,0.938,2.008,1.672,3.318,2.197
				c1.312,0.527,2.775,0.79,4.396,0.79C162.734,205.381,163.873,205.227,164.889,204.918 M137.596,204.802h6.789l6.828-19.752
				h-6.289l-2.738,8.912c-0.153,0.515-0.297,1.009-0.424,1.485c-0.13,0.477-0.246,0.894-0.349,1.254
				c-0.103,0.438-0.206,0.848-0.31,1.234h-0.076c-0.104-0.388-0.207-0.797-0.311-1.234c-0.104-0.36-0.225-0.777-0.365-1.254
				c-0.142-0.478-0.276-0.971-0.406-1.485l-2.699-8.912h-6.481L137.596,204.802z M122.319,182.311h6.289v-5.092h-6.289V182.311z
				 M122.319,204.802h6.289V185.05h-6.289V204.802z M99.481,204.802h6.828v-10.724h11.458v-5.518H106.31v-5.595h13.695v-5.748
				H99.481V204.802z M82.081,187.232c0.734-0.194,1.383-0.49,1.945-0.889c0.563-0.396,1.008-0.898,1.339-1.507
				c0.329-0.606,0.495-1.321,0.495-2.146c0-1.034-0.252-1.859-0.753-2.476c-0.503-0.614-1.181-1.049-2.036-1.304v-0.045
				c0.69-0.271,1.252-0.653,1.687-1.147c0.435-0.493,0.653-1.139,0.653-1.935c0-0.676-0.139-1.282-0.417-1.822
				c-0.278-0.54-0.668-0.997-1.169-1.372c-0.503-0.375-1.102-0.659-1.8-0.854c-0.697-0.194-1.473-0.293-2.327-0.293
				c-0.96,0-1.811,0.129-2.553,0.384c-0.741,0.255-1.368,0.61-1.878,1.067c-0.51,0.457-0.899,1.004-1.169,1.643
				c-0.271,0.638-0.413,1.338-0.428,2.104h3.53c0.045-0.677,0.258-1.238,0.641-1.688c0.383-0.451,0.985-0.676,1.811-0.676
				c0.645,0,1.143,0.162,1.496,0.483c0.352,0.322,0.528,0.745,0.528,1.271c0,0.585-0.217,1.03-0.652,1.338
				c-0.436,0.308-1.012,0.461-1.732,0.461H78.46v2.632h0.922c0.854,0,1.507,0.169,1.957,0.506c0.45,0.338,0.675,0.844,0.675,1.52
				c0,0.646-0.206,1.16-0.619,1.552s-1.008,0.585-1.788,0.585c-0.975,0-1.68-0.258-2.114-0.773c-0.435-0.52-0.675-1.188-0.719-2.015
				h-3.576c0,1.799,0.57,3.201,1.71,4.205c0.54,0.479,1.21,0.849,2.013,1.103c0.803,0.256,1.751,0.383,2.845,0.383
				C80.574,187.525,81.345,187.427,82.081,187.232 M58.897,199.073c-0.733-0.989-1.099-2.296-1.099-3.915
				c0-0.797,0.083-1.544,0.251-2.237c0.167-0.694,0.424-1.293,0.771-1.795c0.347-0.501,0.777-0.894,1.292-1.176
				c0.514-0.283,1.118-0.425,1.813-0.425c1.363,0,2.366,0.515,3.01,1.543c0.643,1.029,0.964,2.392,0.964,4.09
				c0,1.697-0.342,3.021-1.022,3.973c-0.683,0.952-1.627,1.428-2.836,1.428C60.678,200.559,59.63,200.062,58.897,199.073
				 M51.702,211.32h6.289v-8.563h0.077c0.618,0.823,1.382,1.474,2.295,1.949c0.912,0.476,2.012,0.714,3.299,0.714
				c1.285,0,2.455-0.245,3.511-0.732c1.054-0.487,1.961-1.188,2.719-2.103c0.758-0.912,1.344-2.019,1.756-3.317
				c0.411-1.299,0.618-2.746,0.618-4.341c0-1.491-0.193-2.874-0.579-4.146c-0.386-1.273-0.945-2.379-1.679-3.318
				c-0.732-0.938-1.62-1.672-2.662-2.197c-1.041-0.527-2.217-0.791-3.529-0.791c-1.363,0-2.533,0.271-3.511,0.811
				c-0.977,0.54-1.801,1.26-2.469,2.16H57.72v-2.394h-6.018V211.32z M43.389,204.628c1.298-0.526,2.404-1.259,3.318-2.198
				c0.912-0.938,1.62-2.045,2.121-3.318c0.502-1.271,0.752-2.653,0.752-4.146c0-1.491-0.251-2.874-0.752-4.146
				c-0.502-1.273-1.209-2.379-2.121-3.318c-0.913-0.939-2.02-1.672-3.318-2.199c-1.299-0.527-2.746-0.789-4.34-0.789
				c-1.595,0-3.042,0.264-4.341,0.789c-1.298,0.528-2.41,1.26-3.337,2.199c-0.925,0.938-1.64,2.045-2.14,3.318
				c-0.502,1.271-0.752,2.654-0.752,4.146c0,1.492,0.251,2.874,0.752,4.146c0.501,1.273,1.215,2.381,2.14,3.318
				c0.926,0.939,2.039,1.672,3.337,2.198c1.299,0.528,2.746,0.791,4.341,0.791C40.643,205.42,42.09,205.156,43.389,204.628
				 M35.886,199.305c-0.695-1.093-1.041-2.539-1.041-4.34s0.347-3.254,1.041-4.359c0.695-1.104,1.736-1.66,3.125-1.66
				c1.389,0,2.436,0.556,3.144,1.66c0.708,1.105,1.061,2.56,1.061,4.359c0,1.801-0.354,3.247-1.061,4.34
				c-0.707,1.094-1.755,1.641-3.144,1.641C37.621,200.945,36.58,200.398,35.886,199.305 M16.905,204.802h6.828v-21.796h8.101v-5.787
				H8.881v5.787h8.024V204.802z"/>
		</g>
	</g>
	<g>
		<g>
			<defs>
				<rect id="SVGID_3_" width="270" height="211.322"/>
			</defs>
			<clipPath id="SVGID_4_">
				<use xlink:href="#SVGID_3_"  overflow="visible"/>
			</clipPath>
			<path clip-path="url(#SVGID_4_)" fill="#34495E" d="M257.945,134.594h11.965v-3.126h-6.702v-0.022
				c0.271-0.284,0.574-0.562,0.911-0.83c0.337-0.271,0.686-0.533,1.045-0.787s0.723-0.516,1.091-0.776
				c0.367-0.262,0.724-0.534,1.068-0.819c0.345-0.271,0.671-0.553,0.978-0.842c0.307-0.295,0.581-0.615,0.821-0.969
				c0.239-0.354,0.427-0.742,0.562-1.169c0.135-0.428,0.203-0.911,0.203-1.451c0-0.675-0.123-1.312-0.371-1.911
				c-0.248-0.601-0.61-1.125-1.091-1.574c-0.479-0.45-1.075-0.801-1.788-1.059c-0.712-0.254-1.533-0.382-2.463-0.382
				c-1.214,0-2.234,0.194-3.059,0.585c-0.825,0.391-1.454,0.898-1.889,1.53c-0.377,0.51-0.646,1.062-0.812,1.663
				s-0.247,1.35-0.247,2.248h3.555c0.014-0.523,0.077-0.971,0.189-1.338c0.111-0.366,0.279-0.679,0.507-0.933
				c0.374-0.465,0.931-0.698,1.664-0.698c0.66,0,1.158,0.186,1.496,0.551c0.337,0.369,0.506,0.853,0.506,1.451
				c0,0.392-0.09,0.734-0.271,1.034c-0.18,0.302-0.428,0.593-0.741,0.878c-0.615,0.539-1.327,1.09-2.138,1.652
				c-0.809,0.562-1.565,1.145-2.271,1.744c-0.39,0.314-0.746,0.652-1.067,1.011c-0.324,0.361-0.604,0.753-0.844,1.181
				c-0.24,0.43-0.432,0.899-0.574,1.418C258.038,133.369,257.959,133.949,257.945,134.594 M248.848,159.684
				c1.527-0.392,2.844-0.961,3.945-1.707s1.964-1.688,2.586-2.826c0.622-1.137,0.934-2.452,0.934-3.945
				c0-1.742-0.319-3.155-0.959-4.24c-0.642-1.084-1.467-1.945-2.479-2.586c-1.015-0.643-2.133-1.109-3.358-1.414
				c-1.228-0.301-2.445-0.56-3.654-0.771c-0.853-0.143-1.68-0.284-2.479-0.426c-0.8-0.144-1.503-0.312-2.104-0.509
				c-0.605-0.194-1.086-0.435-1.44-0.72c-0.356-0.284-0.534-0.675-0.534-1.173c0-0.854,0.365-1.484,1.094-1.894
				c0.729-0.41,1.627-0.615,2.692-0.615c1.208,0,2.195,0.225,2.96,0.668c0.764,0.444,1.235,1.289,1.413,2.533h7.999
				c-0.213-2.701-1.352-4.836-3.413-6.398c-2.063-1.564-5.03-2.348-8.905-2.348c-1.601,0-3.121,0.188-4.561,0.562
				c-1.439,0.374-2.693,0.925-3.76,1.653s-1.911,1.646-2.532,2.746c-0.623,1.103-0.933,2.365-0.933,3.785
				c0,1.602,0.283,2.906,0.853,3.92c0.567,1.014,1.324,1.822,2.267,2.428c0.94,0.604,2,1.058,3.172,1.357
				c1.175,0.303,2.348,0.562,3.521,0.773c0.889,0.179,1.751,0.33,2.586,0.454c0.835,0.125,1.574,0.303,2.213,0.534
				c0.643,0.229,1.155,0.533,1.549,0.906c0.391,0.371,0.586,0.86,0.586,1.465c0,0.89-0.383,1.564-1.146,2.026
				c-0.764,0.463-1.805,0.694-3.119,0.694c-1.459,0-2.613-0.34-3.467-1.014c-0.854-0.676-1.369-1.688-1.547-3.041h-8.213
				c0.142,3.023,1.387,5.396,3.731,7.121c2.347,1.726,5.528,2.586,9.546,2.586C245.664,160.27,247.318,160.074,248.848,159.684
				 M222.219,135.632h7.521v-14.346h-7.521V135.632z M192.391,159.416h8.586v-8.372l2.612-2.774l6.56,11.146h10.078l-10.718-17.064
				l9.599-10.24h-10.024l-8.104,9.227v-20.052h-8.586v38.13H192.391z M169.494,142.831c0.285-1.636,0.871-2.933,1.76-3.894
				c0.889-0.959,2.168-1.439,3.84-1.439c1.422,0,2.594,0.48,3.521,1.439c0.924,0.961,1.475,2.258,1.652,3.894H169.494z
				 M180.188,159.576c1.403-0.428,2.674-1.049,3.812-1.867c1.208-0.816,2.203-1.786,2.986-2.906c0.783-1.119,1.313-2.301,1.6-3.546
				h-8.479c-0.394,0.853-0.959,1.521-1.707,2c-0.746,0.481-1.689,0.72-2.826,0.72c-1.813,0-3.219-0.533-4.213-1.6
				c-0.995-1.066-1.637-2.523-1.92-4.373h19.625c0.035-2.773-0.349-5.306-1.147-7.6c-0.799-2.293-2.019-4.188-3.651-5.68
				c-1.174-1.066-2.533-1.901-4.08-2.508c-1.547-0.604-3.299-0.904-5.252-0.904c-2.1,0-4,0.363-5.707,1.092
				s-3.183,1.744-4.427,3.041c-1.245,1.298-2.204,2.826-2.88,4.586s-1.013,3.652-1.013,5.68c0,2.062,0.338,3.982,1.013,5.759
				c0.676,1.779,1.635,3.316,2.88,4.614c1.244,1.298,2.773,2.311,4.587,3.039c1.814,0.729,3.84,1.094,6.079,1.094
				C177.209,160.217,178.782,160.003,180.188,159.576 M141.854,159.416h8.691V147.15c0-2.986,0.791-5.127,2.373-6.426
				c1.582-1.298,3.706-1.75,6.373-1.359h0.213v-7.467c-0.32-0.143-0.889-0.213-1.707-0.213c-1.671,0-3.093,0.373-4.266,1.119
				c-1.174,0.745-2.239,1.938-3.2,3.572h-0.16v-4.268h-8.319v27.306L141.854,159.416L141.854,159.416z M118.957,142.831
				c0.284-1.636,0.87-2.933,1.76-3.894c0.888-0.959,2.168-1.439,3.84-1.439c1.421,0,2.594,0.48,3.52,1.439
				c0.923,0.961,1.475,2.258,1.653,3.894H118.957z M129.65,159.576c1.404-0.428,2.675-1.049,3.813-1.867
				c1.208-0.816,2.203-1.786,2.986-2.906c0.781-1.119,1.314-2.301,1.6-3.546h-8.479c-0.392,0.853-0.96,1.521-1.707,2
				c-0.746,0.481-1.689,0.72-2.826,0.72c-1.814,0-3.218-0.533-4.213-1.6c-0.996-1.066-1.636-2.523-1.92-4.373h19.625
				c0.035-2.773-0.348-5.306-1.147-7.6c-0.799-2.293-2.018-4.188-3.652-5.68c-1.173-1.066-2.533-1.901-4.08-2.508
				c-1.547-0.604-3.298-0.904-5.253-0.904c-2.098,0-3.999,0.363-5.706,1.092c-1.706,0.729-3.182,1.744-4.426,3.041
				c-1.245,1.298-2.204,2.826-2.88,4.586c-0.676,1.76-1.013,3.652-1.013,5.68c0,2.062,0.338,3.982,1.013,5.759
				c0.676,1.779,1.635,3.316,2.88,4.614c1.244,1.298,2.773,2.311,4.586,3.039c1.814,0.729,3.84,1.094,6.08,1.094
				C126.672,160.217,128.245,160.003,129.65,159.576 M84.277,159.416h24.478v-6.719h-9.866c-0.32,0-0.711,0.009-1.173,0.027
				c-0.463,0.018-0.906,0.024-1.333,0.024h-1.547v-0.16c0.356-0.391,0.711-0.764,1.067-1.12l1.706-1.705l10.347-11.254v-6.345
				H85.557v6.61h8.532h1.974c0.427,0,0.888-0.017,1.386-0.053v0.16c-0.32,0.32-0.623,0.641-0.906,0.961
				c-0.249,0.284-0.507,0.551-0.773,0.799c-0.267,0.248-0.489,0.463-0.667,0.641l-10.825,11.68L84.277,159.416L84.277,159.416z
				 M62.714,142.831c0.284-1.636,0.87-2.933,1.76-3.894c0.888-0.959,2.168-1.439,3.84-1.439c1.421,0,2.594,0.48,3.519,1.439
				c0.923,0.961,1.475,2.258,1.653,3.894H62.714z M73.407,159.576c1.404-0.428,2.675-1.049,3.813-1.867
				c1.208-0.816,2.203-1.786,2.986-2.906c0.781-1.119,1.315-2.301,1.6-3.546h-8.479c-0.392,0.853-0.96,1.521-1.707,2
				c-0.746,0.481-1.689,0.72-2.826,0.72c-1.814,0-3.219-0.533-4.213-1.6c-0.996-1.066-1.636-2.523-1.92-4.373h19.624
				c0.035-2.773-0.346-5.306-1.146-7.6c-0.799-2.293-2.018-4.188-3.653-5.68c-1.173-1.066-2.532-1.901-4.079-2.508
				c-1.547-0.604-3.298-0.904-5.253-0.904c-2.098,0-3.999,0.363-5.706,1.092c-1.706,0.729-3.182,1.744-4.426,3.041
				c-1.245,1.298-2.205,2.826-2.88,4.586c-0.676,1.76-1.013,3.652-1.013,5.68c0,2.062,0.338,3.982,1.013,5.759
				c0.675,1.779,1.635,3.316,2.88,4.614c1.244,1.298,2.773,2.311,4.586,3.039c1.814,0.729,3.84,1.094,6.08,1.094
				C70.429,160.217,72.002,160.003,73.407,159.576 M16.408,159.416h9.279l3.999-18.292c0.178-0.746,0.329-1.537,0.454-2.372
				c0.124-0.835,0.257-1.609,0.4-2.32c0.142-0.815,0.284-1.617,0.427-2.397h0.107c0.141,0.78,0.284,1.582,0.427,2.397
				c0.141,0.713,0.284,1.485,0.427,2.32c0.141,0.835,0.301,1.626,0.48,2.372l3.999,18.292h9.226l10.452-38.13h-9.492l-3.786,15.892
				c-0.213,0.961-0.436,1.992-0.667,3.094c-0.232,1.104-0.436,2.133-0.614,3.095c-0.213,1.138-0.426,2.257-0.64,3.358h-0.107
				c-0.213-1.031-0.409-2.08-0.587-3.146c-0.178-0.925-0.373-1.911-0.587-2.96c-0.213-1.049-0.427-2.071-0.64-3.066l-3.573-16.265
				h-8.746l-3.572,16.372c-0.214,0.959-0.436,1.973-0.667,3.039c-0.232,1.066-0.436,2.046-0.614,2.934
				c-0.213,1.066-0.409,2.1-0.587,3.094h-0.107c-0.213-1.103-0.409-2.222-0.587-3.359c-0.178-0.961-0.365-1.982-0.56-3.067
				c-0.196-1.084-0.4-2.088-0.614-3.013l-3.839-15.999H5.956L16.408,159.416z"/>
		</g>
	</g>
	<g>
		<g>
			<defs>
				<rect id="SVGID_5_" width="270" height="211.322"/>
			</defs>
			<clipPath id="SVGID_6_">
				<use xlink:href="#SVGID_5_"  overflow="visible"/>
			</clipPath>
			<path clip-path="url(#SVGID_6_)" fill="#34495E" d="M265.277,36.206h3.801V20.664h-3.014c-0.195,1.05-0.668,1.826-1.418,2.328
				c-0.75,0.503-1.643,0.768-2.676,0.798v2.564h3.307V36.206z M240.848,109.1c4.26-1.089,7.926-2.675,11-4.757
				c3.07-2.081,5.473-4.705,7.209-7.877c1.732-3.17,2.602-6.837,2.602-10.999c0-4.854-0.893-8.793-2.676-11.817
				c-1.783-3.022-4.088-5.425-6.911-7.209c-2.824-1.784-5.946-3.096-9.364-3.939c-3.419-0.84-6.812-1.561-10.184-2.155
				c-2.377-0.395-4.682-0.791-6.909-1.189c-2.229-0.395-4.188-0.866-5.872-1.412c-1.688-0.544-3.024-1.212-4.014-2.007
				c-0.992-0.791-1.485-1.881-1.485-3.271c0-2.378,1.014-4.137,3.047-5.277c2.028-1.138,4.534-1.709,7.507-1.709
				c3.368,0,6.117,0.62,8.249,1.858c2.129,1.24,3.44,3.592,3.938,7.06h22.296c-0.597-7.529-3.767-13.474-9.513-17.836
				c-5.75-4.359-14.022-6.54-24.824-6.54c-4.459,0-8.693,0.521-12.707,1.561s-7.508,2.578-10.479,4.608
				c-2.973,2.033-5.325,4.585-7.06,7.656c-1.735,3.072-2.602,6.59-2.602,10.552c0,4.46,0.791,8.101,2.377,10.925
				c1.584,2.824,3.69,5.079,6.316,6.763c2.625,1.686,5.574,2.95,8.845,3.79c3.271,0.843,6.539,1.561,9.81,2.155
				c2.477,0.497,4.882,0.917,7.209,1.263c2.328,0.349,4.387,0.843,6.171,1.486c1.782,0.647,3.219,1.487,4.31,2.527
				c1.09,1.04,1.637,2.404,1.637,4.088c0,2.477-1.065,4.361-3.195,5.648c-2.133,1.289-5.031,1.933-8.696,1.933
				c-4.063,0-7.282-0.941-9.661-2.825c-2.378-1.881-3.816-4.705-4.311-8.472h-22.891c0.396,8.424,3.863,15.038,10.404,19.843
				c6.539,4.808,15.407,7.208,26.605,7.208C231.979,110.734,236.586,110.189,240.848,109.1 M149.335,107.614
				c3.515-1.982,6.663-4.855,9.438-8.621h0.444v9.364h23.188V32.254H158.18v42.511c0,4.56-1.188,8.25-3.568,11.074
				c-2.377,2.824-5.646,4.236-9.809,4.236c-3.865,0-6.74-1.115-8.621-3.345c-1.885-2.229-2.825-5.425-2.825-9.587V32.254h-24.08
				v49.943c0,8.523,2.253,15.384,6.763,20.586c4.508,5.201,11.171,7.803,19.992,7.803
				C141.382,110.587,145.816,109.595,149.335,107.614 M67.854,107.242c5.102-2.327,9.387-6.218,12.857-11.668h0.298l1.486,12.783
				h18.432V51.28H56.632v19.323H76.55V70.9c-0.298,2.378-1.017,4.682-2.155,6.912c-1.14,2.229-2.676,4.213-4.608,5.945
				c-1.933,1.735-4.262,3.122-6.986,4.162c-2.727,1.04-5.823,1.561-9.29,1.561c-4.162,0-7.903-0.84-11.222-2.527
				c-3.322-1.684-6.12-4.036-8.398-7.06c-2.28-3.022-4.039-6.614-5.277-10.776c-1.24-4.162-1.858-8.67-1.858-13.526
				c0-4.854,0.544-9.338,1.635-13.451c1.089-4.111,2.725-7.679,4.906-10.702c2.178-3.021,4.928-5.399,8.249-7.134
				c3.319-1.733,7.158-2.601,11.52-2.601c5.846,0,10.503,1.437,13.972,4.31c3.468,2.876,5.697,6.491,6.688,10.851H99.29
				c-0.891-5.549-2.552-10.602-4.979-15.161c-2.429-4.557-5.625-8.447-9.587-11.669c-3.964-3.219-8.672-5.697-14.12-7.432
				C65.152,0.868,59.01,0,52.172,0c-7.729,0-14.618,1.24-20.66,3.716c-6.046,2.477-11.297,5.945-15.756,10.405
				c-5.053,5.053-8.944,11.124-11.668,18.208C1.361,39.415,0,47.169,0,55.59c0,8.126,1.212,15.608,3.641,22.445
				C6.069,84.872,9.61,90.818,14.27,95.871c4.459,4.757,9.71,8.424,15.756,10.999c6.043,2.575,12.88,3.864,20.511,3.864
				C56.977,110.734,62.749,109.57,67.854,107.242"/>
		</g>
	</g>
</g>
</svg>
