<?xml version="1.0" encoding="utf-8"?>
<!-- Generator: Adobe Illustrator 17.0.0, SVG Export Plug-In . SVG Version: 6.00 Build 0)  -->
<!DOCTYPE svg PUBLIC "-//W3C//DTD SVG 1.1//EN" "http://www.w3.org/Graphics/SVG/1.1/DTD/svg11.dtd">
<svg version="1.1" id="Layer_1" xmlns="http://www.w3.org/2000/svg" xmlns:xlink="http://www.w3.org/1999/xlink" x="0px" y="0px"
	 width="270px" height="212px" viewBox="0 0 270 212" enable-background="new 0 0 270 212" xml:space="preserve">
<rect x="-181" y="-78" display="none" fill="#B3B3B3" width="960" height="960"/>
<g>
	<defs>
		<rect id="SVGID_1_" width="270" height="211.322"/>
	</defs>
	<clipPath id="SVGID_2_">
		<use xlink:href="#SVGID_1_"  overflow="visible"/>
	</clipPath>
	<path clip-path="url(#SVGID_2_)" fill="#FFFFFF" d="M266.289,187.132c0.765-0.262,1.425-0.641,1.98-1.136
		c0.555-0.495,0.982-1.086,1.282-1.777c0.3-0.69,0.45-1.462,0.45-2.316c0-0.809-0.139-1.541-0.416-2.192
		c-0.278-0.653-0.657-1.207-1.136-1.665c-0.48-0.457-1.042-0.809-1.687-1.057c-0.645-0.247-1.335-0.371-2.07-0.371
		c-0.704,0-1.308,0.09-1.81,0.27c-0.503,0.18-0.896,0.398-1.181,0.653h-0.045l0.54-2.744h6.837v-3.037h-9.558l-1.575,8.525h3.553
		c0.21-0.255,0.507-0.477,0.888-0.664c0.383-0.188,0.821-0.282,1.316-0.282c0.749,0,1.357,0.225,1.822,0.676
		c0.465,0.45,0.698,1.071,0.698,1.867c0,0.779-0.225,1.413-0.675,1.901c-0.451,0.487-1.057,0.73-1.822,0.73
		c-0.691,0-1.286-0.161-1.789-0.484c-0.503-0.322-0.813-0.813-0.933-1.473h-3.71c0.09,0.824,0.315,1.548,0.674,2.17
		s0.824,1.139,1.394,1.552c0.57,0.413,1.233,0.723,1.991,0.933c0.757,0.21,1.578,0.315,2.463,0.315
		C264.685,187.525,265.524,187.393,266.289,187.132 M241.794,202.938h16.82v-3.896h-16.82V202.938z M228.293,202.938h16.82v-3.896
		h-16.82V202.938z M213.247,202.938h16.82v-3.896h-16.82V202.938z M198.202,202.938h16.82v-3.896h-16.82V202.938z M175.258,180.868
		v-0.045l4.273-5.24h0.045v5.285H175.258z M179.576,187.166h3.688v-3.419h2.227v-2.879h-2.227v-9.266h-3.733l-7.13,8.659v3.487
		h7.175V187.166z M157.154,192.805c0.206-1.183,0.63-2.122,1.273-2.816c0.643-0.695,1.569-1.042,2.778-1.042
		c1.028,0,1.877,0.348,2.546,1.042c0.669,0.694,1.066,1.633,1.195,2.816H157.154z M164.889,204.918
		c1.016-0.309,1.936-0.758,2.759-1.35c0.873-0.592,1.594-1.293,2.16-2.103c0.565-0.81,0.951-1.665,1.157-2.566h-6.134
		c-0.284,0.618-0.695,1.1-1.235,1.447c-0.54,0.348-1.222,0.521-2.045,0.521c-1.312,0-2.327-0.386-3.048-1.157
		s-1.183-1.826-1.389-3.164h14.197c0.026-2.006-0.251-3.838-0.829-5.497c-0.579-1.659-1.46-3.028-2.642-4.108
		c-0.849-0.771-1.833-1.376-2.952-1.814c-1.118-0.437-2.385-0.656-3.799-0.656c-1.518,0-2.894,0.264-4.128,0.79
		c-1.234,0.528-2.302,1.261-3.202,2.199c-0.9,0.939-1.595,2.045-2.084,3.318c-0.489,1.273-0.732,2.642-0.732,4.108
		c0,1.492,0.244,2.881,0.732,4.167s1.183,2.398,2.084,3.337c0.899,0.939,2.006,1.672,3.318,2.199c1.311,0.527,2.777,0.79,4.398,0.79
		C162.735,205.381,163.873,205.227,164.889,204.918 M137.595,204.802h6.79l6.828-19.752h-6.289l-2.739,8.912
		c-0.154,0.515-0.296,1.009-0.424,1.485c-0.129,0.477-0.245,0.894-0.348,1.254c-0.103,0.438-0.206,0.848-0.309,1.234h-0.077
		c-0.103-0.386-0.206-0.796-0.309-1.234c-0.103-0.36-0.225-0.777-0.366-1.254c-0.142-0.476-0.277-0.97-0.406-1.485l-2.7-8.912
		h-6.481L137.595,204.802z M122.319,182.311h6.289v-5.092h-6.289V182.311z M122.319,204.802h6.289V185.05h-6.289V204.802z
		 M99.481,204.802h6.828v-10.724h11.458v-5.517H106.31v-5.594h13.695v-5.748H99.481V204.802z M82.081,187.233
		c0.734-0.195,1.383-0.491,1.945-0.888c0.563-0.397,1.008-0.899,1.339-1.507c0.329-0.607,0.495-1.323,0.495-2.147
		c0-1.034-0.252-1.859-0.753-2.474c-0.503-0.615-1.181-1.049-2.036-1.304v-0.045c0.69-0.27,1.252-0.653,1.687-1.147
		c0.435-0.495,0.653-1.139,0.653-1.935c0-0.675-0.139-1.282-0.417-1.822s-0.668-0.997-1.169-1.372
		c-0.503-0.375-1.102-0.66-1.8-0.854c-0.697-0.195-1.473-0.293-2.327-0.293c-0.96,0-1.811,0.128-2.553,0.383
		c-0.741,0.255-1.368,0.612-1.878,1.068c-0.51,0.458-0.899,1.005-1.169,1.642c-0.271,0.638-0.413,1.338-0.428,2.104H77.2
		c0.045-0.676,0.258-1.237,0.641-1.687c0.383-0.451,0.985-0.676,1.811-0.676c0.645,0,1.143,0.162,1.496,0.484
		c0.352,0.323,0.528,0.746,0.528,1.271c0,0.585-0.217,1.031-0.652,1.338c-0.436,0.308-1.012,0.461-1.732,0.461h-0.832v2.632h0.922
		c0.854,0,1.507,0.169,1.957,0.506c0.45,0.338,0.675,0.843,0.675,1.518c0,0.646-0.206,1.162-0.619,1.552
		c-0.413,0.391-1.008,0.585-1.788,0.585c-0.975,0-1.68-0.258-2.114-0.775c-0.435-0.518-0.675-1.188-0.719-2.013h-3.576
		c0,1.799,0.57,3.201,1.71,4.205c0.54,0.481,1.21,0.847,2.013,1.102s1.751,0.383,2.845,0.383
		C80.574,187.525,81.345,187.427,82.081,187.233 M58.897,199.073c-0.733-0.989-1.099-2.295-1.099-3.915
		c0-0.797,0.083-1.544,0.251-2.237c0.167-0.695,0.424-1.293,0.771-1.795c0.347-0.501,0.777-0.893,1.292-1.176
		c0.514-0.283,1.118-0.425,1.813-0.425c1.363,0,2.366,0.515,3.01,1.544c0.643,1.028,0.964,2.391,0.964,4.089
		c0,1.697-0.342,3.022-1.022,3.973c-0.683,0.952-1.627,1.427-2.836,1.427C60.678,200.558,59.63,200.063,58.897,199.073
		 M51.702,211.321h6.289v-8.564h0.077c0.618,0.823,1.382,1.473,2.295,1.949c0.912,0.475,2.012,0.714,3.299,0.714
		c1.285,0,2.455-0.245,3.511-0.733c1.054-0.488,1.961-1.189,2.719-2.102c0.758-0.912,1.344-2.019,1.756-3.318
		c0.411-1.298,0.618-2.745,0.618-4.34c0-1.491-0.193-2.874-0.579-4.147c-0.386-1.273-0.945-2.378-1.679-3.318
		c-0.732-0.938-1.62-1.672-2.662-2.199c-1.041-0.527-2.217-0.79-3.529-0.79c-1.363,0-2.533,0.27-3.511,0.81
		c-0.977,0.54-1.801,1.26-2.469,2.16H57.72v-2.392h-6.018V211.321z M43.389,204.628c1.298-0.527,2.404-1.259,3.318-2.198
		c0.912-0.938,1.62-2.045,2.121-3.318c0.502-1.273,0.752-2.655,0.752-4.147c0-1.492-0.251-2.874-0.752-4.147
		c-0.502-1.273-1.209-2.379-2.121-3.318c-0.913-0.939-2.02-1.672-3.318-2.199c-1.299-0.527-2.746-0.79-4.34-0.79
		c-1.595,0-3.042,0.264-4.341,0.79c-1.298,0.528-2.41,1.26-3.337,2.199c-0.925,0.938-1.64,2.045-2.14,3.318
		c-0.502,1.273-0.752,2.655-0.752,4.147c0,1.492,0.251,2.874,0.752,4.147c0.501,1.273,1.215,2.379,2.14,3.318
		c0.926,0.939,2.039,1.672,3.337,2.198c1.299,0.528,2.746,0.791,4.341,0.791C40.643,205.42,42.09,205.156,43.389,204.628
		 M35.886,199.305c-0.695-1.093-1.041-2.54-1.041-4.34c0-1.801,0.347-3.254,1.041-4.36c0.695-1.105,1.736-1.659,3.125-1.659
		c1.389,0,2.436,0.554,3.144,1.659c0.708,1.106,1.061,2.559,1.061,4.36c0,1.8-0.354,3.247-1.061,4.34
		c-0.707,1.093-1.755,1.64-3.144,1.64C37.621,200.945,36.58,200.398,35.886,199.305 M16.905,204.802h6.828v-21.796h8.101v-5.787
		H8.881v5.787h8.024V204.802z"/>
	<path clip-path="url(#SVGID_2_)" fill="#FFFFFF" d="M257.945,134.594h11.965v-3.126h-6.702v-0.023
		c0.27-0.285,0.574-0.562,0.911-0.831c0.337-0.271,0.686-0.533,1.045-0.787s0.723-0.514,1.091-0.776
		c0.367-0.262,0.723-0.536,1.068-0.82c0.345-0.27,0.671-0.552,0.978-0.843c0.307-0.293,0.581-0.615,0.821-0.967
		c0.239-0.352,0.427-0.742,0.562-1.169c0.135-0.428,0.203-0.911,0.203-1.451c0-0.675-0.124-1.312-0.372-1.912
		c-0.247-0.6-0.611-1.125-1.09-1.575c-0.48-0.45-1.076-0.801-1.788-1.057c-0.712-0.254-1.534-0.382-2.463-0.382
		c-1.214,0-2.234,0.195-3.059,0.585c-0.824,0.39-1.454,0.899-1.889,1.53c-0.376,0.51-0.646,1.064-0.81,1.664
		c-0.165,0.6-0.247,1.349-0.247,2.249h3.553c0.015-0.525,0.079-0.971,0.191-1.338c0.113-0.368,0.281-0.679,0.507-0.933
		c0.374-0.465,0.929-0.698,1.664-0.698c0.66,0,1.158,0.184,1.496,0.551c0.337,0.368,0.506,0.851,0.506,1.451
		c0,0.39-0.09,0.734-0.27,1.034c-0.18,0.301-0.428,0.593-0.742,0.877c-0.615,0.54-1.327,1.091-2.136,1.653
		c-0.809,0.563-1.567,1.144-2.271,1.744c-0.39,0.315-0.746,0.652-1.068,1.011c-0.323,0.361-0.604,0.753-0.843,1.181
		c-0.24,0.428-0.432,0.899-0.574,1.417C258.038,133.369,257.959,133.949,257.945,134.594 M248.847,159.683
		c1.528-0.391,2.844-0.96,3.946-1.707c1.101-0.746,1.964-1.688,2.586-2.826c0.622-1.137,0.933-2.453,0.933-3.946
		c0-1.742-0.32-3.155-0.959-4.24c-0.641-1.084-1.467-1.947-2.48-2.586c-1.013-0.641-2.133-1.111-3.36-1.414
		c-1.226-0.301-2.444-0.56-3.653-0.772c-0.852-0.142-1.68-0.285-2.479-0.427c-0.8-0.142-1.503-0.311-2.106-0.507
		c-0.605-0.195-1.085-0.435-1.44-0.72c-0.356-0.284-0.534-0.675-0.534-1.173c0-0.853,0.365-1.484,1.093-1.893
		c0.728-0.409,1.627-0.614,2.693-0.614c1.208,0,2.195,0.223,2.96,0.667c0.764,0.445,1.235,1.289,1.413,2.533h7.999
		c-0.213-2.701-1.351-4.835-3.413-6.399c-2.063-1.564-5.031-2.346-8.906-2.346c-1.6,0-3.12,0.187-4.56,0.56
		c-1.44,0.374-2.693,0.925-3.759,1.654c-1.067,0.728-1.912,1.645-2.533,2.746c-0.623,1.102-0.933,2.365-0.933,3.786
		c0,1.6,0.284,2.906,0.853,3.919c0.568,1.013,1.324,1.823,2.266,2.427c0.941,0.605,2,1.058,3.173,1.359
		c1.173,0.303,2.346,0.561,3.52,0.773c0.888,0.179,1.751,0.33,2.586,0.454c0.835,0.125,1.574,0.303,2.213,0.534
		c0.641,0.231,1.155,0.533,1.547,0.906c0.391,0.373,0.587,0.862,0.587,1.466c0,0.889-0.383,1.565-1.147,2.027
		c-0.764,0.463-1.805,0.694-3.119,0.694c-1.459,0-2.613-0.338-3.467-1.013c-0.853-0.675-1.369-1.688-1.547-3.04h-8.212
		c0.141,3.023,1.386,5.395,3.732,7.12c2.346,1.725,5.528,2.586,9.546,2.586C245.664,160.27,247.318,160.074,248.847,159.683
		 M222.219,135.632h7.52v-14.346h-7.52V135.632z M192.39,159.416h8.586v-8.372l2.613-2.774l6.559,11.146h10.079l-10.718-17.065
		l9.598-10.239h-10.025l-8.106,9.225v-20.052h-8.586V159.416z M169.494,142.831c0.285-1.635,0.871-2.933,1.76-3.893
		c0.888-0.959,2.168-1.44,3.84-1.44c1.421,0,2.594,0.481,3.52,1.44c0.924,0.96,1.475,2.258,1.653,3.893H169.494z M180.187,159.576
		c1.404-0.427,2.675-1.048,3.813-1.867c1.208-0.817,2.203-1.786,2.986-2.906s1.315-2.301,1.6-3.546h-8.479
		c-0.392,0.853-0.959,1.52-1.707,2c-0.746,0.481-1.689,0.72-2.826,0.72c-1.813,0-3.218-0.534-4.213-1.6
		c-0.995-1.067-1.636-2.524-1.92-4.373h19.625c0.035-2.773-0.347-5.306-1.147-7.6c-0.799-2.293-2.018-4.186-3.652-5.68
		c-1.173-1.066-2.533-1.901-4.08-2.506c-1.546-0.604-3.298-0.906-5.252-0.906c-2.099,0-4,0.365-5.707,1.093
		c-1.706,0.729-3.182,1.743-4.426,3.04c-1.245,1.298-2.204,2.826-2.88,4.586s-1.013,3.653-1.013,5.68
		c0,2.063,0.338,3.982,1.013,5.759c0.676,1.779,1.635,3.316,2.88,4.614c1.244,1.298,2.773,2.311,4.587,3.039
		c1.813,0.728,3.839,1.094,6.079,1.094C177.209,160.217,178.782,160.003,180.187,159.576 M141.853,159.416h8.692v-12.265
		c0-2.987,0.791-5.128,2.373-6.426c1.582-1.297,3.706-1.751,6.373-1.36h0.213v-7.466c-0.32-0.142-0.889-0.213-1.707-0.213
		c-1.671,0-3.093,0.373-4.266,1.119c-1.173,0.746-2.239,1.939-3.2,3.573h-0.16v-4.266h-8.319V159.416z M118.957,142.831
		c0.284-1.635,0.87-2.933,1.76-3.893c0.888-0.959,2.168-1.44,3.84-1.44c1.421,0,2.594,0.481,3.52,1.44
		c0.923,0.96,1.475,2.258,1.653,3.893H118.957z M129.65,159.576c1.404-0.427,2.675-1.048,3.813-1.867
		c1.208-0.817,2.203-1.786,2.986-2.906c0.781-1.12,1.315-2.301,1.6-3.546h-8.479c-0.392,0.853-0.96,1.52-1.707,2
		c-0.746,0.481-1.689,0.72-2.826,0.72c-1.814,0-3.218-0.534-4.213-1.6c-0.996-1.067-1.636-2.524-1.92-4.373h19.625
		c0.035-2.773-0.347-5.306-1.147-7.6c-0.799-2.293-2.018-4.186-3.652-5.68c-1.173-1.066-2.533-1.901-4.08-2.506
		c-1.547-0.604-3.298-0.906-5.253-0.906c-2.098,0-3.999,0.365-5.706,1.093c-1.706,0.729-3.182,1.743-4.426,3.04
		c-1.245,1.298-2.204,2.826-2.88,4.586s-1.013,3.653-1.013,5.68c0,2.063,0.338,3.982,1.013,5.759
		c0.676,1.779,1.635,3.316,2.88,4.614c1.244,1.298,2.773,2.311,4.586,3.039c1.814,0.728,3.84,1.094,6.08,1.094
		C126.672,160.217,128.245,160.003,129.65,159.576 M84.277,159.416h24.478v-6.719h-9.866c-0.32,0-0.711,0.009-1.173,0.027
		c-0.463,0.018-0.906,0.026-1.333,0.026h-1.547v-0.16c0.356-0.391,0.711-0.764,1.067-1.12l1.706-1.706l10.347-11.253v-6.345H85.557
		v6.612h8.532h1.974c0.427,0,0.888-0.017,1.386-0.053v0.16c-0.32,0.32-0.623,0.64-0.906,0.96c-0.249,0.285-0.507,0.552-0.773,0.799
		c-0.267,0.249-0.489,0.463-0.667,0.64l-10.825,11.68V159.416z M62.714,142.831c0.284-1.635,0.87-2.933,1.76-3.893
		c0.888-0.959,2.168-1.44,3.84-1.44c1.421,0,2.594,0.481,3.519,1.44c0.923,0.96,1.475,2.258,1.653,3.893H62.714z M73.407,159.576
		c1.404-0.427,2.675-1.048,3.813-1.867c1.208-0.817,2.203-1.786,2.986-2.906c0.781-1.12,1.315-2.301,1.6-3.546h-8.479
		c-0.392,0.853-0.96,1.52-1.707,2c-0.746,0.481-1.689,0.72-2.826,0.72c-1.814,0-3.219-0.534-4.213-1.6
		c-0.996-1.067-1.636-2.524-1.92-4.373h19.624c0.035-2.773-0.346-5.306-1.146-7.6c-0.799-2.293-2.018-4.186-3.653-5.68
		c-1.173-1.066-2.532-1.901-4.079-2.506c-1.547-0.604-3.298-0.906-5.253-0.906c-2.098,0-3.999,0.365-5.706,1.093
		c-1.706,0.729-3.182,1.743-4.426,3.04c-1.245,1.298-2.205,2.826-2.88,4.586c-0.676,1.76-1.013,3.653-1.013,5.68
		c0,2.063,0.338,3.982,1.013,5.759c0.675,1.779,1.635,3.316,2.88,4.614c1.244,1.298,2.773,2.311,4.586,3.039
		c1.814,0.728,3.84,1.094,6.08,1.094C70.429,160.217,72.002,160.003,73.407,159.576 M16.408,159.416h9.279l3.999-18.292
		c0.178-0.746,0.329-1.537,0.454-2.372c0.124-0.835,0.257-1.609,0.4-2.32c0.142-0.817,0.284-1.617,0.427-2.399h0.107
		c0.141,0.782,0.284,1.582,0.427,2.399c0.141,0.712,0.284,1.485,0.427,2.32c0.141,0.835,0.301,1.626,0.48,2.372l3.999,18.292h9.226
		l10.452-38.13h-9.492l-3.786,15.892c-0.213,0.96-0.436,1.992-0.667,3.094c-0.232,1.102-0.436,2.132-0.614,3.093
		c-0.213,1.138-0.426,2.257-0.64,3.36h-0.107c-0.213-1.031-0.409-2.08-0.587-3.147c-0.178-0.924-0.373-1.911-0.587-2.96
		c-0.213-1.048-0.427-2.071-0.64-3.066l-3.573-16.265h-8.746l-3.572,16.372c-0.214,0.959-0.436,1.973-0.667,3.039
		c-0.232,1.067-0.436,2.046-0.614,2.934c-0.213,1.066-0.409,2.098-0.587,3.093h-0.107c-0.213-1.102-0.409-2.221-0.587-3.36
		c-0.178-0.96-0.365-1.982-0.56-3.067c-0.196-1.084-0.4-2.088-0.614-3.013l-3.839-15.999H5.956L16.408,159.416z"/>
	<path clip-path="url(#SVGID_2_)" fill="#FFFFFF" d="M265.277,36.206h3.801V20.664h-3.014c-0.195,1.05-0.668,1.826-1.417,2.328
		c-0.75,0.503-1.642,0.768-2.677,0.798v2.564h3.307V36.206z M240.848,109.1c4.259-1.089,7.926-2.675,10.999-4.757
		c3.071-2.081,5.474-4.705,7.209-7.877c1.733-3.17,2.601-6.837,2.601-10.999c0-4.854-0.891-8.793-2.675-11.817
		c-1.784-3.022-4.088-5.425-6.912-7.209c-2.824-1.784-5.946-3.096-9.364-3.939c-3.419-0.84-6.814-1.561-10.182-2.155
		c-2.378-0.395-4.682-0.791-6.911-1.189c-2.229-0.395-4.188-0.866-5.872-1.412c-1.686-0.544-3.024-1.212-4.013-2.007
		c-0.991-0.791-1.486-1.881-1.486-3.27c0-2.378,1.014-4.137,3.047-5.277c2.03-1.138,4.534-1.709,7.507-1.709
		c3.368,0,6.117,0.62,8.249,1.858c2.129,1.24,3.442,3.592,3.939,7.06h22.295c-0.595-7.529-3.766-13.474-9.512-17.836
		c-5.749-4.359-14.023-6.54-24.823-6.54c-4.459,0-8.695,0.521-12.708,1.561c-4.013,1.04-7.507,2.578-10.48,4.608
		c-2.973,2.033-5.327,4.585-7.06,7.656c-1.735,3.072-2.601,6.59-2.601,10.552c0,4.46,0.791,8.101,2.378,10.925
		c1.584,2.824,3.69,5.079,6.316,6.763c2.625,1.686,5.574,2.95,8.845,3.79c3.27,0.843,6.539,1.561,9.81,2.155
		c2.475,0.497,4.88,0.917,7.209,1.263c2.327,0.349,4.385,0.843,6.169,1.486c1.784,0.647,3.219,1.487,4.31,2.527
		c1.089,1.04,1.636,2.404,1.636,4.088c0,2.477-1.066,4.361-3.196,5.648c-2.132,1.289-5.031,1.933-8.696,1.933
		c-4.064,0-7.283-0.941-9.661-2.825c-2.378-1.881-3.816-4.705-4.311-8.472h-22.891c0.396,8.424,3.865,15.038,10.406,19.843
		c6.539,4.808,15.407,7.209,26.606,7.209C231.978,110.735,236.586,110.189,240.848,109.1 M149.335,107.614
		c3.515-1.982,6.663-4.855,9.438-8.621h0.446v9.364h23.188V32.254h-24.228v42.511c0,4.56-1.189,8.25-3.567,11.074
		c-2.378,2.824-5.648,4.236-9.81,4.236c-3.864,0-6.74-1.115-8.621-3.345c-1.884-2.229-2.824-5.425-2.824-9.587V32.254h-24.08v49.943
		c0,8.523,2.253,15.384,6.763,20.586c4.508,5.202,11.171,7.803,19.992,7.803C141.382,110.587,145.816,109.595,149.335,107.614
		 M67.854,107.242c5.102-2.327,9.387-6.218,12.857-11.668h0.298l1.486,12.783h18.432V51.28H56.632v19.323h19.918V70.9
		c-0.298,2.378-1.017,4.682-2.155,6.912c-1.14,2.229-2.676,4.213-4.608,5.945c-1.933,1.735-4.262,3.122-6.986,4.162
		c-2.727,1.04-5.823,1.561-9.29,1.561c-4.162,0-7.903-0.84-11.222-2.527c-3.322-1.684-6.12-4.036-8.398-7.06
		c-2.28-3.022-4.039-6.614-5.277-10.776c-1.24-4.162-1.858-8.67-1.858-13.526c0-4.854,0.544-9.338,1.635-13.451
		c1.089-4.111,2.725-7.679,4.906-10.702c2.178-3.021,4.928-5.399,8.249-7.134c3.319-1.733,7.158-2.601,11.52-2.601
		c5.846,0,10.503,1.437,13.972,4.31c3.468,2.876,5.697,6.491,6.688,10.851H99.29c-0.891-5.549-2.552-10.602-4.979-15.161
		c-2.429-4.557-5.625-8.447-9.587-11.669c-3.964-3.219-8.672-5.697-14.12-7.432C65.152,0.868,59.01,0,52.172,0
		c-7.729,0-14.618,1.24-20.66,3.716c-6.046,2.477-11.297,5.945-15.756,10.405c-5.053,5.053-8.944,11.124-11.668,18.208
		C1.361,39.415,0,47.169,0,55.59c0,8.126,1.212,15.608,3.641,22.445C6.069,84.872,9.61,90.818,14.27,95.871
		c4.459,4.757,9.71,8.424,15.756,10.999c6.043,2.576,12.88,3.864,20.511,3.864C56.977,110.735,62.749,109.57,67.854,107.242"/>
</g>
</svg>
